<?xml version="1.0" standalone="no"?>
<!DOCTYPE svg PUBLIC "-//W3C//DTD SVG 1.1//EN" "http://www.w3.org/Graphics/SVG/1.1/DTD/svg11.dtd" >
<svg xmlns="http://www.w3.org/2000/svg" xmlns:xlink="http://www.w3.org/1999/xlink" version="1.1">
<metadata>
Created by FontForge 20201107 at Fri Jan  1 00:00:00 1904
 By Unknown
Copyright (C) 1994, 1995, Basil K. Malyshev. All Rights Reserved.012BaKoMa Fonts Collection, Level-C.
</metadata>
<defs>
<font id="Eufm10" horiz-adv-x="1026" >
  <font-face 
    font-family="eufm10"
    font-weight="400"
    font-stretch="normal"
    units-per-em="2048"
    panose-1="2 11 5 0 0 0 0 0 0 0"
    ascent="1638"
    descent="-410"
    x-height="965"
    cap-height="1405"
    bbox="-52.998 -459 2159 1516"
    underline-thickness="20"
    underline-position="-143"
    unicode-range="U+0020-00C4"
  />
<missing-glyph horiz-adv-x="1536" 
d="M256 0v1280h1024v-1280h-1024zM1247 33v1214h-958v-1214h958z" />
    <glyph glyph-name=".notdef" horiz-adv-x="1536" 
d="M256 0v1280h1024v-1280h-1024zM1247 33v1214h-958v-1214h958z" />
    <glyph glyph-name="space" unicode=" " horiz-adv-x="682" 
 />
    <glyph glyph-name="exclam" unicode="!" horiz-adv-x="604" 
d="M301 -25c-32 0 -59.499 12.166 -82.499 36.499s-34.5 52.5 -34.5 84.5c0 32.667 11.667 60.334 35 83.001s50.666 34 81.999 34c32.667 0 60 -11.5 82 -34.5s33 -50.5 33 -82.5s-11 -60.167 -33 -84.5s-49.333 -36.5 -82 -36.5zM268.001 376.999l-55.001 782
c-1.33301 28 -2.66602 52.167 -3.99902 72.5s-2 35.833 -2 46.5c0 44 7 77.5 21 100.5s41.667 34.5 83 34.5c25.333 0 44.333 -9 57 -27s19 -40.333 19 -67c0 -21.333 -3.33301 -81.333 -10 -180l-76 -758z" />
    <glyph glyph-name="ampersand" unicode="&#x26;" horiz-adv-x="1509" 
d="M100 399c0 66.667 14.501 124.669 43.501 174.002s65 90.666 108 123.999s101.167 72 174.5 116c-36.667 96.667 -55 180.667 -55 252c0 64.667 13.833 124.834 41.5 180.501s66.834 100.334 117.501 134.001s109 50.5 175 50.5c33.333 0 66.333 -8 99 -24
s59 -38.333 79 -67s30 -61.334 30 -98.001c0 -60.667 -15 -115.334 -45 -164.001s-66 -89.334 -108 -122.001s-97.333 -70.334 -166 -113.001c-4 -4 -9.33301 -7.66699 -16 -11c45.333 -102 100 -199.167 164 -291.5s137 -180.833 219 -265.5
c55.333 83.333 83 173.666 83 270.999c0 60.667 -23.667 114.667 -71 162c-22 21.333 -63 32 -123 32c-42 0 -89 -3.33301 -141 -10l4 88c76 -4 211.667 -6 407 -6c173.333 0 280 2 320 6l-6 -98c-35.333 5.33301 -77 8.66602 -125 9.99902s-106.667 2 -176 2
c12 -49.333 18 -92.333 18 -129c0 -113.333 -50 -236.333 -150 -369c38 -36.667 74.667 -66.5 110 -89.5s72 -34.5 110 -34.5c46.667 0 86.334 14 119.001 42s58.167 63.333 76.5 106s31.5 87.334 39.5 134.001l47 -14c-20.667 -113.333 -57.834 -208.666 -111.501 -285.999
s-131.167 -116 -232.5 -116c-90.667 0 -180.667 41.667 -270 125c-54.667 -37.333 -108.334 -66.333 -161.001 -87s-106.334 -31 -161.001 -31c-136 0 -247.833 36.333 -335.5 109s-131.5 175.334 -131.5 308.001zM600.001 66.002c77.333 0 157.333 28.668 240 86.001
c-46 50 -93.667 109.5 -143 178.5s-95 139.167 -137 210.5s-78.333 141.666 -109 210.999c-46 -29.333 -82.333 -56.833 -109 -82.5s-47 -56.334 -61 -92.001s-21 -80.167 -21 -133.5c0 -99.333 32.333 -187.166 97 -263.499s145.667 -114.5 243 -114.5zM553.001 891.003
c56.667 35.333 98 63.6689 124 85.002s47.333 49.166 64 83.499s25 78.5 25 132.5c0 23.333 -5.5 45.666 -16.5 66.999s-26.5 39 -46.5 53s-41.333 21 -64 21c-50.667 0 -87.167 -18.167 -109.5 -54.5s-33.5 -81.5 -33.5 -135.5c0 -76 19 -160 57 -252z" />
    <glyph glyph-name="quotesingle" unicode="'" horiz-adv-x="434" 
d="M180 893l-37 393c-2.66699 18 -4 43.333 -4 76c0 18.667 7.33301 33.5 22 44.5s32 16.5 52 16.5c20.667 0 36 -6.33301 46 -19s15 -29.334 15 -50.001c0 -17.333 -2.66699 -44.666 -8 -81.999l-53 -379h-33z" />
    <glyph glyph-name="parenleft" unicode="(" horiz-adv-x="795" 
d="M418 -139c16 -45.333 40.8311 -89.167 74.498 -131.5s69.5 -69.5 107.5 -81.5v-29c-85.333 16 -153.166 58.667 -203.499 128s-87.666 154 -111.999 254s-39.333 196.167 -45 288.5s-8.5 186.833 -8.5 283.5c0 222.667 24 423.167 72 601.5s147 289.833 297 334.5v-36
c-76 -38 -133.667 -110.833 -173 -218.5s-64.333 -219.167 -75 -334.5s-16 -235 -16 -359c0 -94 2.33301 -183.333 7 -268s14.667 -170 30 -256c10.667 -65.333 25.667 -124 45 -176z" />
    <glyph glyph-name="parenright" unicode=")" horiz-adv-x="795" 
d="M182 -383l-0.000976562 33c63.333 27.333 110.666 56.833 141.999 88.5s53.833 68.167 67.5 109.5s26.5 100.333 38.5 177c10.667 72 17.834 149.667 21.501 233s5.5 185 5.5 305c0 200 -17.5 386.333 -52.5 559s-109.167 286 -222.5 340v43
c104.667 -22 185.334 -87.167 242.001 -195.5s94.334 -228.833 113.001 -361.5s28 -263 28 -391c0 -95.333 -3 -185.833 -9 -271.5s-16.667 -167.167 -32 -244.5c-24.667 -125.333 -60.334 -222.333 -107.001 -291s-125 -113 -235 -133z" />
    <glyph glyph-name="asterisk" unicode="*" horiz-adv-x="567" 
d="M92 1012l-23.999 44.998c62 38.667 120.667 77.667 176 117c-74.667 51.333 -133.334 89.333 -176.001 114l45 47c40 -38 89.667 -81 149 -129c0 71.333 -2 141.666 -6 210.999h55c-8.66699 -74 -14 -142.333 -16 -205c55.333 40.667 106.666 82.334 153.999 125.001
l30 -41c-63.333 -37.333 -123.333 -76.666 -180 -117.999l62 -44c21.333 -15.333 43 -30 65 -44l53 -33l-35 -43l-151 123v-7c0 -22.667 1.33301 -57.334 4 -104.001s5.33398 -82 8.00098 -106h-49c2.66699 50.667 4 89.334 4 116.001c1.33301 24.667 2 63 2 115
c-51.333 -37.333 -108 -83.666 -170 -138.999z" />
    <glyph glyph-name="plus" unicode="+" horiz-adv-x="1548" 
d="M731 -170v668h-635l31 80h604v618l86 29v-647h635l-29 -80h-606v-627z" />
    <glyph glyph-name="comma" unicode="," horiz-adv-x="567" 
d="M227 -354c25.333 34 47.832 72 67.499 114s29.5 80.333 29.5 115c0 33.333 -9 62 -27 86l-72 98c-13.333 20 -20 42.667 -20 68c0 24 10 45.333 30 64s42 28 66 28c18.667 0 41.334 -21.167 68.001 -63.5s45 -77.833 55 -106.5c10.667 -29.333 16 -64 16 -104
c0 -50 -17 -101.333 -51 -154s-80.333 -114 -139 -184z" />
    <glyph glyph-name="minus" unicode="-" horiz-adv-x="1548" 
d="M94 483l33 80h1319l-29 -80h-1323z" />
    <glyph glyph-name="period" unicode="." horiz-adv-x="567" 
d="M291 -31c-31.333 0 -57.666 12.333 -78.999 37s-32 52.667 -32 84s10.667 59 32 83s47.666 36 78.999 36c33.333 0 61.833 -11.5 85.5 -34.5s35.5 -51.167 35.5 -84.5s-11.833 -61.833 -35.5 -85.5s-52.167 -35.5 -85.5 -35.5z" />
    <glyph glyph-name="slash" unicode="/" 
d="M70 -373l804 1852l80 -19l-796 -1833h-88z" />
    <glyph glyph-name="zero" unicode="0" 
d="M436 -27c-75.333 0 -139.499 20.499 -192.499 61.499s-92.833 94.667 -119.5 161s-40 135.5 -40 207.5c0 126.667 43.167 242.334 129.5 347.001s193.5 191.334 321.5 260.001c50.667 -14.667 100 -37.334 148 -68.001s91 -67.5 129 -110.5s67.833 -90 89.5 -141
s32.5 -104.5 32.5 -160.5c0 -60 -14 -123.333 -42 -190s-65.833 -127.667 -113.5 -183s-101.334 -99.833 -161.001 -133.5s-120.167 -50.5 -181.5 -50.5zM539.001 120.999c82.667 0 143.499 30.002 182.499 90.002s58.5 134.333 58.5 223c0 68 -13.5 130.667 -40.5 188
s-65.5 105.833 -115.5 145.5s-107.667 66.5 -173 80.5c-60.667 -41.333 -104 -73.833 -130 -97.5s-45.333 -53.667 -58 -90s-19 -86.5 -19 -150.5c0 -62.667 10.833 -123.834 32.5 -183.501s54.834 -108.834 99.501 -147.501s99 -58 163 -58z" />
    <glyph glyph-name="one" unicode="1" 
d="M96 -4l0.000976562 91.999h293c27.333 0 41 17 41 51c2.66699 24.667 4 155 4 391c0 139.333 -4.66699 229 -14 269c-8 32.667 -30.333 53.834 -67 63.501s-84 17.167 -142 22.5v55c59.333 0 109 0.666992 149 2s84.5 3.5 133.5 6.5s88.5 6.16699 118.5 9.5l21 -16
c-16.667 -124 -25 -281.667 -25 -473c0 -110 2 -220.667 6 -332c0 -21.333 9.33301 -34.833 28 -40.5s43.667 -8.5 75 -8.5c74 0 149 2 225 6l-2 -96c-164.667 9.33301 -306 14 -424 14c-68.667 0 -138.334 -1.83301 -209.001 -5.5z" />
    <glyph glyph-name="two" unicode="2" 
d="M125 2l-3.99805 33.001l205 190c85.333 83.333 157.833 163.833 217.5 241.5s89.5 149.5 89.5 215.5c0 28.667 -8 56.167 -24 82.5s-37.333 47.166 -64 62.499s-54 23 -82 23c-40.667 0 -117.334 -32.667 -230.001 -98l-20 34c138 123.333 259.667 185 365 185
c57.333 0 106.666 -20.667 147.999 -62s62 -90.333 62 -147c0 -53.333 -24 -117.5 -72 -192.5s-98.167 -142 -150.5 -201s-117.833 -128.5 -196.5 -208.5c-6 -6 -9 -10.333 -9 -13c0 -9.33301 9.66699 -14 29 -14l584 17l20 -13l-51 -135h-817z" />
    <glyph glyph-name="three" unicode="3" 
d="M78 -289l33.0029 55.9961c47.333 -23.333 89.5 -41.166 126.5 -53.499s73.833 -18.5 110.5 -18.5c106 0 189.833 34 251.5 102s92.5 155.333 92.5 262c0 115.333 -32 192.666 -96 231.999s-156.333 59 -277 59c-12.667 0 -23.167 -0.166992 -31.5 -0.5
s-17.5 -0.833008 -27.5 -1.5v70c49.333 0 103 9.33301 161 28s106.833 46.834 146.5 84.501s59.5 82.834 59.5 135.501c0 59.333 -18.5 107.166 -55.5 143.499s-84.833 54.5 -143.5 54.5c-44 0 -99.333 -26 -166 -78l-43 29c52.667 46.667 105.667 84.334 159 113.001
s108.333 43 165 43c71.333 0 130 -18.833 176 -56.5s69 -91.167 69 -160.5c0 -72 -25.333 -136.5 -76 -193.5s-113.334 -100.5 -188.001 -130.5l6 -18c51.333 0 98.166 -7.33301 140.499 -22s79.333 -35.667 111 -63s56.167 -61.166 73.5 -101.499s26 -86.833 26 -139.5
c0 -65.333 -14.167 -126.833 -42.5 -184.5s-66.5 -106.667 -114.5 -147s-103 -71.666 -165 -93.999s-124.667 -33.5 -188 -33.5c-96.667 0 -194.334 28 -293.001 84z" />
    <glyph glyph-name="four" unicode="4" 
d="M23 0l-2.99902 46.998l592 875l166 53l10 -6c-2.66699 -74.667 -4.33398 -130.5 -5.00098 -167.5s-1.33398 -83.667 -2.00098 -140s-1 -121.833 -1 -196.5c0 -128 2 -255.667 6 -383c88.667 2.66699 155.667 6 201 10l-18 -94
c-29.333 0.666992 -56.166 1.16699 -80.499 1.5s-56.166 0.5 -95.499 0.5c0 -173.333 1.33301 -283.333 4 -330l-160 -61l-25 18c5.33301 50.667 9.16602 104.834 11.499 162.501s3.5 127.834 3.5 210.501h-604zM162.001 85.998h465c0 101.333 -0.333008 192.5 -1 273.5
s-2.16699 156 -4.5 225s-5.5 122.5 -9.5 160.5h-24c-154.667 -192 -296.667 -411.667 -426 -659z" />
    <glyph glyph-name="five" unicode="5" 
d="M96 -326l24.998 51.999c65.333 -26 131.333 -39 198 -39c54 0 103.167 8.5 147.5 25.5s82.833 41.333 115.5 73s57.834 69.667 75.501 114s26.5 93.5 26.5 147.5c0 87.333 -22.333 159 -67 215s-109.667 84 -195 84c-75.333 0 -149 -37.667 -221 -113l-37 23v682h696
l-47 -164h-530c-23.333 0 -35 -8 -35 -24v-361l18 -8c87.333 39.333 174.666 59 261.999 59c72 0 136.333 -14 193 -42s100.834 -68.667 132.501 -122s47.5 -116.666 47.5 -189.999c0 -80.667 -15.833 -150.667 -47.5 -210s-74.5 -107.333 -128.5 -144s-116 -64 -186 -82
s-143.333 -27 -220 -27c-61.333 0 -135.666 17 -222.999 51z" />
    <glyph glyph-name="six" unicode="6" 
d="M483 -27c-68.667 0 -128.169 14.6611 -178.502 43.9941s-91.166 68.333 -122.499 117s-54.166 103.834 -68.499 165.501s-21.5 123.5 -21.5 185.5c0 64 5.83301 128.333 17.5 193s29.167 126.834 52.5 186.501s51.666 115.834 84.999 168.501s72.666 101.667 117.999 147
c169.333 169.333 331 254 485 254c18 0 48.667 -7 92 -21l-18 -115l-17 -10c-36 16.667 -76.333 25 -121 25c-112.667 0 -226.667 -54.667 -342 -164c-117.333 -117.333 -177.333 -291.333 -180 -522l15 -2c57.333 46.667 118 82.834 182 108.501s128.667 38.5 194 38.5
c60 0 113.833 -15.667 161.5 -47s84.334 -73.166 110.001 -125.499s38.5 -108.166 38.5 -167.499c0 -78.667 -23.167 -153.5 -69.5 -224.5s-106.666 -127.833 -180.999 -170.5s-151.5 -64 -231.5 -64zM538.998 65.9941c56 0 103.835 12.167 143.502 36.5s69.667 58 90 101
s30.5 92.5 30.5 148.5c0 52 -12.167 100.5 -36.5 145.5s-57.833 80.5 -100.5 106.5s-90 39 -142 39c-42.667 0 -84.834 -9.33301 -126.501 -28s-83.5 -44 -125.5 -76c0 -104.667 22.167 -209.667 66.5 -315s111.166 -158 200.499 -158z" />
    <glyph glyph-name="seven" unicode="7" 
d="M82 -371l-6 27l183 261.5l177.5 268l211 328l163.5 258.5l-12 10h-680l65 176c62.667 -8 131.334 -13.333 206.001 -16s147.334 -4 218.001 -4h412v-33l-225 -323.5l-200 -307.5c-72.667 -116 -138.834 -226.5 -198.501 -331.5s-114.834 -209.5 -165.501 -313.5h-149z
" />
    <glyph glyph-name="eight" unicode="8" 
d="M82 322c0 68.667 14.8301 127.169 44.4971 175.502s64.167 86.5 103.5 114.5s101.333 67 186 117c-8 8 -31 29.667 -69 65s-68.333 67 -91 95s-40.667 57.833 -54 89.5s-20 66.5 -20 104.5c0 64 15.5 118.833 46.5 164.5s70.167 83 117.5 112s105.333 57.167 174 84.5
c65.333 0 125.833 -9.5 181.5 -28.5s101.167 -49.667 136.5 -92s53 -96.5 53 -162.5c0 -70 -26.167 -136.667 -78.5 -200s-115.5 -116.666 -189.5 -159.999l106.5 -75c45 -32 82.333 -62.667 112 -92s54.167 -63.5 73.5 -102.5s29 -81.833 29 -128.5
c0 -62.667 -13.667 -120.334 -41 -173.001s-65.166 -97.834 -113.499 -135.501s-102 -66.167 -161 -85.5s-118.833 -29 -179.5 -29c-71.333 0 -134.666 13.167 -189.999 39.5s-98.666 65.166 -129.999 116.499s-47 113.333 -47 186zM558.997 850.002
c48 33.333 86.334 72.335 115.001 117.002s43 93 43 145c0 50.667 -11 93 -33 127s-52.5 59.167 -91.5 75.5s-83.5 24.5 -133.5 24.5l-56.5 -42c-18.333 -14 -31.333 -26.167 -39 -36.5s-13.834 -23.833 -18.501 -40.5s-7 -40.334 -7 -71.001
c0 -92.667 73.667 -192.334 221 -299.001zM499.998 74.0039c56.667 0 104.667 10.6709 144 32.0039s69.5 52.666 90.5 93.999s31.5 89.333 31.5 144c0 77.333 -34 149 -102 215c-14 14 -29.5 26.667 -46.5 38s-40.5 25.666 -70.5 42.999s-52 30.666 -66 39.999
c-78.667 -42.667 -136.5 -86.834 -173.5 -132.501s-55.5 -107.5 -55.5 -185.5c0 -80 21.667 -148 65 -204s104.333 -84 183 -84z" />
    <glyph glyph-name="nine" unicode="9" 
d="M147 -373l-0.00488281 57.999c86 0 162 10.5 228 31.5s122.333 52.333 169 94s85.5 94.167 116.5 157.5s54.5 136.666 70.5 219.999l-10 7c-53.333 -29.333 -105.333 -54.5 -156 -75.5s-99.667 -37.5 -147 -49.5c-56 0 -106.667 10.833 -152 32.5
s-83.666 51.5 -114.999 89.5s-55.166 81.5 -71.499 130.5s-24.5 101.167 -24.5 156.5c0 70 10.5 129.833 31.5 179.5s50.167 91.5 87.5 125.5s78.333 63 123 87s105.334 54 182.001 90c86 0 159.333 -13.167 220 -39.5s109.834 -63.666 147.501 -111.999
s65.334 -106.666 83.001 -174.999s26.5 -143.833 26.5 -226.5c0 -108.667 -20 -213 -60 -313s-97.667 -187.667 -173 -263c-72.667 -72 -158.5 -124.167 -257.5 -156.5s-205.167 -48.5 -318.5 -48.5zM501.995 192.999c76 0 137.333 18.668 184 56.001s70 93 70 167
c0 54 -5.66699 106.167 -17 156.5s-29.833 96.666 -55.5 138.999s-59 76 -100 101s-90.167 37.5 -147.5 37.5c-46 0 -83.833 -16.833 -113.5 -50.5s-51.167 -74.5 -64.5 -122.5s-20 -94 -20 -138c0 -52.667 10.167 -106 30.5 -160s50.333 -98.5 90 -133.5
s87.5 -52.5 143.5 -52.5z" />
    <glyph glyph-name="colon" unicode=":" horiz-adv-x="442" 
d="M207 -25c-28.667 0 -52.166 11.166 -70.499 33.499s-27.5 47.5 -27.5 75.5c0 32 8.5 61.833 25.5 89.5s41.167 41.5 72.5 41.5c24 0 46.667 -5.83301 68 -17.5s38.166 -27.667 50.499 -48s18.5 -42.166 18.5 -65.499c0 -33.333 -14.167 -59.833 -42.5 -79.5
s-59.833 -29.5 -94.5 -29.5zM207.001 699.999c-30 0 -55.332 11.833 -75.999 35.5s-31 50.167 -31 79.5c0 19.333 4.66699 38.5 14 57.5s22.166 34.333 38.499 46s34.5 17.5 54.5 17.5c34 0 64.333 -11.333 91 -34s40 -51.667 40 -87c0 -33.333 -13.5 -60.833 -40.5 -82.5
s-57.167 -32.5 -90.5 -32.5z" />
    <glyph glyph-name="semicolon" unicode=";" horiz-adv-x="442" 
d="M152 -362c27.333 36.667 50.167 75.833 68.5 117.5s27.5 79.5 27.5 113.5c0 27.333 -9 53.333 -27 78l-69 104c-12.667 19.333 -19 37 -19 53c0 29.333 7.66699 51.333 23 66v10c18.667 15.333 39.667 23 63 23c24 0 47.5 -15.333 70.5 -46s41.667 -66.834 56 -108.501
s21.5 -74.167 21.5 -97.5c0 -37.333 -9.83301 -76.166 -29.5 -116.499s-43.5 -79.333 -71.5 -117s-56 -73.167 -84 -106.5zM205.001 701.999c-30 0 -55.667 11.668 -77 35.001s-32 50.666 -32 81.999s10.667 59 32 83s47 36 77 36c32.667 0 62 -11.333 88 -34s39 -51 39 -85
s-12.833 -62 -38.5 -84s-55.167 -33 -88.5 -33z" />
    <glyph glyph-name="equal" unicode="=" horiz-adv-x="1548" 
d="M111 270l18 80h1356l-19 -80h-1355zM111 674l18 80h1356l-19 -80h-1355z" />
    <glyph glyph-name="question" unicode="?" horiz-adv-x="741" 
d="M336 -23c-32 0 -59.167 12 -81.5 36s-33.5 51.667 -33.5 83s10.333 58.333 31 81s46 34 76 34c31.333 0 58.5 -9.83301 81.5 -29.5s34.5 -45.5 34.5 -77.5c0 -32.667 -10 -62 -30 -88s-46 -39 -78 -39zM201 512c0 38 22.999 82.5029 68.999 133.503
s92.667 95.833 140 134.5c53.333 46.667 96.333 98.667 129 156s49 117.333 49 180c0 38 -8.83301 73.833 -26.5 107.5s-42 61 -73 82s-64.833 31.5 -101.5 31.5c-42.667 0 -81 -11.333 -115 -34s-51 -55 -51 -97c0 -50 22 -92.333 66 -127l-125 -75
c-45.333 34 -68 79.667 -68 137c0 42 12.333 80.833 37 116.5s55.5 65.167 92.5 88.5s77.167 41.333 120.5 54s85 19 125 19c80.667 0 144.834 -23.5 192.501 -70.5s71.5 -110.833 71.5 -191.5c0 -122.667 -78.333 -252.334 -235 -389.001
c-54.667 -47.333 -96.667 -86.333 -126 -117s-44 -61.334 -44 -92.001c0 -22 6 -43.667 18 -65s28.333 -38 49 -50l-94 -67c-27.333 11.333 -50.833 29.166 -70.5 53.499s-29.5 51.5 -29.5 81.5z" />
    <glyph glyph-name="A" unicode="A" horiz-adv-x="1468" 
d="M98 76l-32.0029 21.999l227 174c52.667 38.667 101.834 77 147.501 115s89.167 77 130.5 117c47.333 47.333 84 90.5 110 129.5s44.667 81 56 126s17 100.5 17 166.5c0 66.667 -15 128.334 -45 185.001s-71.5 101.667 -124.5 135s-112.5 50 -178.5 50
c-36 0 -71.833 -8.83301 -107.5 -26.5s-65 -41.5 -88 -71.5s-34.5 -62.667 -34.5 -98c0 -19.333 7.33301 -38.5 22 -57.5s36 -43.5 64 -73.5c72.667 -72.667 109 -130.667 109 -174c0 -54.667 -24.167 -105.834 -72.5 -153.501s-104.166 -87.5 -167.499 -119.5l-33 23
c87.333 50 131 104.667 131 164c0 28.667 -28.667 71.667 -86 129c-31.333 33.333 -55.5 65.5 -72.5 96.5s-25.5 64.167 -25.5 99.5c0 66.667 36.333 135.667 109 207c52.667 54 113.667 94.833 183 122.5s142.666 41.5 219.999 41.5c73.333 0 137 -13.333 191 -40
s95.333 -66.167 124 -118.5s43 -115.5 43 -189.5c0 -45.333 -3.66699 -91.666 -11 -138.999s-18.166 -92.5 -32.499 -135.5s-32.5 -86.167 -54.5 -129.5l-348 -338c50.667 0 104.667 -28.667 162 -86l98 -98l295 184v654c0 76.667 -3.33301 164 -10 262l262 196l33 -22
l-53 -48c-15.333 -14 -28.166 -29 -38.499 -45s-16.833 -35.667 -19.5 -59c-3.33301 -38 -5.83301 -98.667 -7.5 -182s-2.5 -182.333 -2.5 -297c0 -41.333 1.16699 -98 3.5 -170l6.5 -201c0 -26 14.5 -73.667 43.5 -143s53.5 -104 73.5 -104
c6.66699 0 15.334 2.66699 26.001 8c21.333 9.33301 38.666 16.5 51.999 21.5s29 12.167 47 21.5l10 -33l-295 -229l-131 305l-414 -305c-88.667 146 -179.334 219 -272.001 219c-38 0 -76.167 -7.66699 -114.5 -23s-80.166 -37 -125.499 -65z" />
    <glyph glyph-name="B" unicode="B" horiz-adv-x="1810" 
d="M229 -12l-32.001 55l249 154c123.333 72 211.666 147.667 264.999 227c18 28 29.667 69.333 35 124s8 115 8 181c0 87.333 -9.16699 171.833 -27.5 253.5s-53.166 150.667 -104.499 207s-120.666 84.5 -207.999 84.5c-27.333 0 -54.5 -6.5 -81.5 -19.5
s-49.167 -31 -66.5 -54s-26 -49.167 -26 -78.5c0 -36 29.333 -87 88 -153c65.333 -76 98 -134 98 -174c0 -58 -25.5 -111 -76.5 -159s-108.833 -86 -173.5 -114l-33 23c87.333 50 131 104.667 131 164c0 15.333 -11.167 38.333 -33.5 69s-43.833 58 -64.5 82
c-26 33.333 -45.5 63 -58.5 89s-19.5 54.333 -19.5 85c0 46 14.5 92.167 43.5 138.5s66.833 87.833 113.5 124.5s95.667 65.5 147 86.5s99 31.5 143 31.5c70 0 134.333 -20.167 193 -60.5s107 -92.5 145 -156.5c58 57.333 123.167 106.166 195.5 146.499
s141.5 60.5 207.5 60.5c50 0 86.667 -8.66699 110 -26s38.5 -36.833 45.5 -58.5s17.5 -66.5 31.5 -134.5c4.66699 -26.667 9.83398 -50.334 15.501 -71.001s14.5 -39.334 26.5 -56.001s28 -25 48 -25c29.333 0 64.666 7.66699 105.999 23l10 -45
c-99.333 -38.667 -172.333 -75 -219 -109l-43.5 -31c-10.333 -7.33301 -24.666 -16.666 -42.999 -27.999l-42 -25.5c-9.66699 -5.66699 -28.167 -17.167 -55.5 -34.5c50 0 97 -7.16699 141 -21.5s82.167 -35.666 114.5 -63.999s57.5 -62.666 75.5 -102.999
s27 -86.5 27 -138.5c0 -79.333 -21.667 -163.333 -65 -252l-204 -156c-58.667 -42.667 -103.334 -70 -134.001 -82c-37.333 -14.667 -81 -22 -131 -22c-80.667 0 -175 21.667 -283 65c-140 58.667 -241.667 88 -305 88c-82 0 -176.333 -36.667 -283 -110zM622.999 240
c52.667 0 106.67 -7.66602 162.003 -22.999s117.333 -37 186 -65l105 -40c27.333 -10 55.166 -18.5 83.499 -25.5s52.833 -10.5 73.5 -10.5c47.333 0 88.166 13.333 122.499 40s60.333 61.667 78 105s26.5 89 26.5 137c0 68 -16.5 127.667 -49.5 179
s-78 90.666 -135 117.999s-118.833 41 -185.5 41c-62 0 -115.333 -10 -160 -30c-10.667 -90 -33.334 -170.667 -68.001 -242zM936.002 731.001c118.667 40 195.667 68.667 231 86l217 109c-30 7.33301 -55 65.333 -75 174c-10 66 -23.167 115.167 -39.5 147.5
s-50.5 48.5 -102.5 48.5c-60 0 -109.833 -20.667 -149.5 -62s-69.5 -93.666 -89.5 -156.999c6.66699 -36.667 10 -123.334 10 -260.001c0 -38 -0.666992 -66.667 -2 -86z" />
    <glyph glyph-name="C" unicode="C" horiz-adv-x="1253" 
d="M463 496l-26.999 31.998c55.333 12 106.666 40.667 153.999 86c22 23.333 33 70.666 33 141.999c0 16.667 -1.66699 34.834 -5 54.501s-6.66602 36.5 -9.99902 50.5l-12 49l-16 61c-14 42 -21 82.333 -21 121c0 24 2.66699 45 8 63
c-67.333 0 -121.833 -21.167 -163.5 -63.5s-71.834 -95.333 -90.501 -159s-28 -127.5 -28 -191.5c0 -130 24.667 -243.667 74 -341s121 -172.666 215 -225.999s206.333 -80 337 -80c17.333 0 44.666 1.33301 81.999 4l240 119v-53l-114.5 -73l-99 -65
c-23 -15.333 -50.167 -35 -81.5 -59c-50.667 -10.667 -108 -16 -172 -16c-106 0 -199.5 17 -280.5 51s-148.5 82.167 -202.5 144.5s-94.5 136.166 -121.5 221.499s-40.5 180.333 -40.5 285c0 128.667 29.333 252.334 88 371.001c55.333 42.667 110.833 81.167 166.5 115.5
s112.834 64.833 171.501 91.5l63 -33c104.667 72 246.667 140.333 426 205c14.667 -44 31.667 -92.5 51 -145.5s41.333 -79.5 66 -79.5c11.333 0 41.333 6.66699 90 20v-43c-89.333 -42 -165 -67.333 -227 -76c-14 8.66699 -28 20.167 -42 34.5s-28.667 32 -44 53
s-30 43.167 -44 66.5s-25.333 41 -34 53c-32.667 -10.667 -55.5 -28 -68.5 -52s-19.5 -54.333 -19.5 -91c0 -22 3.5 -50.333 10.5 -85s13.667 -64.667 20 -90s12 -49.666 17 -72.999s7.5 -48.666 7.5 -75.999c0 -180.667 -118.667 -288.334 -356 -323.001z" />
    <glyph glyph-name="D" unicode="D" horiz-adv-x="1702" 
d="M102 -33l-30.0029 32.9971c50.667 102.667 123 193.334 217 272.001c42 0 88.5 7 139.5 21s94.333 35.667 130 65s53.5 66.333 53.5 111c0 27.333 -6 54.5 -18 81.5s-27.667 51.167 -47 72.5l-49 56c-19.333 22.667 -36.166 44.667 -50.499 66s-21.5 39.333 -21.5 54
c0 45.333 18.167 91 54.5 137s79.833 87.5 130.5 124.5s98.334 66.5 143.001 88.5l32 -23c-34 -21.333 -71.833 -55.333 -113.5 -102s-62.5 -85.667 -62.5 -117c0 -8.66699 4.5 -21.334 13.5 -38.001s20.667 -35.667 35 -57l39.5 -58c28 -40.667 51.5 -77 70.5 -109
s28.5 -58 28.5 -78c0 -60 -28.833 -117 -86.5 -171s-122.5 -99.333 -194.5 -136c82.667 -15.333 169.334 -40.666 260.001 -75.999c70.667 -26.667 130 -48 178 -64s79.667 -24 95 -24c80 0 159 58.667 237 176c34 50.667 57.167 109 69.5 175s18.5 138.333 18.5 217
c0 98.667 -16.5 185.667 -49.5 261s-79 137 -138 185s-128.667 83.833 -209 107.5s-169.833 35.5 -268.5 35.5c-174.667 0 -315.334 -41.167 -422.001 -123.5s-169.667 -208.166 -189 -377.499l-43 22c0 140.667 30.167 258.334 90.5 353.001s143.5 164.667 249.5 210
s229 68 369 68c99.333 0 193.5 -9.5 282.5 -28.5s169.5 -50 241.5 -93s129.667 -101.667 173 -176s65 -164.166 65 -269.499c0 -190.667 -39.667 -379.334 -119 -566.001l-88 -88c-43.333 -43.333 -85 -82 -125 -116s-81.167 -63 -123.5 -87s-78.833 -36 -109.5 -36
c-18.667 0 -42.167 5 -70.5 15s-73.166 26.667 -134.499 50c-69.333 28 -147.5 55.167 -234.5 81.5s-154.5 39.5 -202.5 39.5c-29.333 0 -57.5 -8 -84.5 -24s-52 -36.833 -75 -62.5s-42.167 -51.5 -57.5 -77.5z" />
    <glyph glyph-name="E" unicode="E" horiz-adv-x="1356" 
d="M512 453l-32.999 32c48 6.66699 102.667 32 164 76c23.333 22 35 65 35 129c0 74.667 -15 168.334 -45 281.001c-12.667 49.333 -19 89.666 -19 120.999c0 24.667 3 45.667 9 63c-66.667 0 -121.334 -21.167 -164.001 -63.5s-73.5 -95.333 -92.5 -159
s-28.5 -127.5 -28.5 -191.5c0 -94.667 13.833 -181.834 41.5 -261.501s69.167 -148.667 124.5 -207s121.666 -102.666 198.999 -132.999s165.333 -45.5 264 -45.5c17.333 0 44 1.33301 80 4l239 119v-53l-180.5 -116.5c-33.667 -22.333 -71.167 -49.166 -112.5 -80.499
c-50.667 -10.667 -108 -16 -172 -16c-106.667 0 -200.167 17 -280.5 51s-147.666 82.333 -201.999 145s-95 136.667 -122 222s-40.5 180 -40.5 284c0 127.333 28.667 251 86 371c36 27.333 72 53.166 108 77.499s73.333 47.5 112 69.5s78 42 118 60l66 -33
c60.667 42 126.5 79.667 197.5 113s147.167 64 228.5 92l24.5 -74c10.333 -32 21.166 -62 32.499 -90c14 -40.667 33.667 -61 59 -61c13.333 0 43.333 6.66699 90 20v-43c-86.667 -41.333 -163 -66.666 -229 -75.999c-15.333 9.33301 -30.333 21.833 -45 37.5
s-29 33.167 -43 52.5s-28 40.666 -42 63.999s-25.333 41 -34 53c-33.333 -10.667 -56.666 -27.834 -69.999 -51.501s-20 -53.5 -20 -89.5c0 -29.333 4.66699 -65.666 14 -108.999c28.667 -138.667 43 -232 43 -280l207 129c50.667 -69.333 108.667 -123.333 174 -162
l-151 -86c-14 8 -31.833 20.5 -53.5 37.5s-41 31 -58 42s-31.167 16.5 -42.5 16.5c-28.667 0 -54 -11 -76 -33c-19.333 -76 -62 -133 -128 -171s-143.333 -63.333 -232 -76z" />
    <glyph glyph-name="F" unicode="F" horiz-adv-x="1251" 
d="M211 -16c0 24 2.66895 61.998 8.00195 113.998c4 30.667 6 61.334 6 92.001c0 43.333 -4.33301 77.833 -13 103.5s-29.334 38.5 -62.001 38.5c-36.667 0 -75.667 -13 -117 -39l-10 45c107.333 74 196.666 111 267.999 111c38 0 64.833 -19.833 80.5 -59.5
s23.5 -82.834 23.5 -129.501c0 -34 -4.66699 -73.667 -14 -119c-10.667 -46 -16 -89 -16 -129c0 -64 16.667 -122 50 -174s80 -78 140 -78c40.667 0 77.667 9 111 27s62.5 42.333 87.5 73s43.833 64.834 56.5 102.501s19 75.5 19 113.5
c0 43.333 -17.833 96.166 -53.5 158.499s-79.167 129.5 -130.5 201.5l-77.5 112.5c-21.667 33 -41.5 68 -59.5 105s-27 69.833 -27 98.5c0 64.667 31.167 128.167 93.5 190.5s132.833 118.833 211.5 169.5c-166.667 101.333 -294.334 152 -383.001 152
c-49.333 0 -91.333 -16.333 -126 -49s-61.334 -72.167 -80.001 -118.5s-33 -95.833 -43 -148.5l-33 21c14.667 145.333 58.334 254.333 131.001 327s163.334 109 272.001 109c56.667 0 122.334 -17.167 197.001 -51.5s150.334 -75.166 227.001 -122.499
c51.333 -28.667 95 -43 131 -43c26 0 51.5 11.167 76.5 33.5s57.5 54.833 97.5 97.5v-55c-115.333 -160 -202 -240 -260 -240c-42.667 0 -86.334 14.333 -131.001 43c-36.667 -8.66699 -72.667 -23 -108 -43s-64.333 -44.667 -87 -74s-34 -62.666 -34 -99.999
c0 -33.333 10.833 -70.333 32.5 -111s50.5 -87 86.5 -139l249 240c55.333 -54 91.666 -108.667 108.999 -164l-86 -119c-32 57.333 -68.333 86 -109 86c-22.667 0 -69.667 -29.333 -141 -88c144.667 -186 217 -319.667 217 -401c0 -88 -27 -167.667 -81 -239
s-123.167 -127.5 -207.5 -168.5s-169.833 -61.5 -256.5 -61.5c-83.333 0 -143.333 28 -180 84s-55 127.667 -55 215z" />
    <glyph glyph-name="G" unicode="G" horiz-adv-x="1608" 
d="M754 -55c-199.333 0 -352.668 67.168 -460.001 201.501s-161 303.166 -161 506.499c0 77.333 7 148 21 212s39.667 120.333 77 169l326 197l53 -33l240 154l22 -23c-72 -61.333 -108 -122.666 -108 -183.999c0 -62 14.333 -157 43 -285
c120.667 72.667 225.667 152.667 315 240c-94 44 -159.333 106 -196 186l143 129c23.333 -47.333 53 -88.166 89 -122.499s75.333 -51.5 118 -51.5c28.667 0 54 11 76 33l10 -43l-348 -303c16 1.33301 40.333 2 73 2c120.667 0 205.334 -24.667 254.001 -74
c33.333 -32 60.5 -68.333 81.5 -109s31.5 -82.667 31.5 -126c0 -78.667 -17 -154.834 -51 -228.501s-79.667 -138.834 -137 -195.501c-166 -110 -272 -183.333 -318 -220c-59.333 -21.333 -124 -32 -194 -32zM468.998 260.001
c34.667 -34.667 73.165 -65.1699 115.498 -91.5029s87.166 -46.666 134.499 -60.999s95 -21.5 143 -21.5c81.333 0 153.333 19.5 216 58.5s111.334 91.5 146.001 157.5s52 139.333 52 220c0 49.333 -9.16699 92.333 -27.5 129s-44 67.667 -77 93
s-70.167 44.166 -111.5 56.499s-85.333 18.5 -132 18.5c-36.667 0 -73.667 -4 -111 -12c1.33301 -12.667 2 -29.667 2 -51c0 -69.333 -14.5 -125.666 -43.5 -168.999s-68 -76.333 -117 -99s-108.833 -40 -179.5 -52l-33 31c58.667 16 103.5 44.333 134.5 85
s46.5 90 46.5 148c0 30.667 -2.16699 59.834 -6.5 87.501s-11.166 62.834 -20.499 105.501c-16.667 65.333 -25 122 -25 170c0 36 5 70 15 102c-107.333 -24 -183.333 -70.333 -228 -139s-67 -160 -67 -274c0 -97.333 13.833 -188.333 41.5 -273
s71.834 -157.667 132.501 -219z" />
    <glyph glyph-name="H" unicode="H" horiz-adv-x="1475" 
d="M23 -33l-21.0049 32.9971c30.667 36.667 58.334 68.334 83.001 95.001s52.667 52 84 76s59 36 83 36c49.333 0 104 -28.667 164 -86c50.667 46 76 96.333 76 151c0 38 -22 96 -66 174l-83.5 160.5c-22.333 44.333 -43 92.666 -62 144.999s-28.5 96.166 -28.5 131.499
c0 54 22.333 111.5 67 172.5s98 118.167 160 171.5s120.667 99 176 137c82 -82 168.667 -123 260 -123c16 0 36.167 7.33301 60.5 22s45.5 29 63.5 43l73 56v-43c-63.333 -63.333 -118.333 -115.666 -165 -156.999s-86 -62 -118 -62c-42 0 -85.667 8.5 -131 25.5
s-99.666 41.167 -162.999 72.5c-75.333 -88.667 -113 -165 -113 -229c0 -35.333 8.33301 -74.5 25 -117.5s42.334 -101.5 77.001 -175.5c105.333 108 229 202 371 282c151.333 0 275 -36 371 -108c35.333 -138 53 -258.333 53 -361c0 -105.333 -5.83301 -199.333 -17.5 -282
s-34.5 -162.667 -68.5 -240c-78 -72.667 -145 -130.667 -201 -174s-101.667 -65 -137 -65c-58.667 0 -105.667 17.667 -141 53l96 131c10.667 -21.333 27.334 -39.333 50.001 -54s46.334 -22 71.001 -22c47.333 0 83.666 29.833 108.999 89.5s42 122.834 50 189.501
c10 70.667 15 162.667 15 276c0 82 -6.83301 154.333 -20.5 217s-41.334 114.834 -83.001 156.501s-101.5 62.5 -179.5 62.5c-60.667 0 -117.5 -23.667 -170.5 -71s-97.833 -103.333 -134.5 -168c38 -95.333 57 -178 57 -248c0 -28.667 -4.66699 -54.667 -14 -78
c-119.333 -153.333 -206.666 -258.333 -261.999 -315c-66 79.333 -124 119 -174 119c-15.333 0 -34.166 -8.66699 -56.499 -26s-50.5 -41.666 -84.5 -72.999z" />
    <glyph glyph-name="I" unicode="I" horiz-adv-x="1135" 
d="M88 -33l-9.99805 33.002c54.667 79.333 127 159.333 217 240c11.333 18.667 21.666 28 30.999 28c11.333 0 20.166 -11 26.499 -33s15 -49.333 26 -82s28.5 -59.167 52.5 -79.5s58.667 -30.5 104 -30.5c50.667 0 95.667 19.667 135 59s66.666 85.333 81.999 138
c14.667 56 22 117.333 22 184c0 67.333 -7.33301 154.666 -22 261.999c-10 88.667 -15 150.667 -15 186c0 16 1.33301 41.333 4 76c31.333 34.667 60.833 65.5 88.5 92.5s57 52.833 88 77.5s63.167 48 96.5 70l33 -12c-40.667 -39.333 -74.5 -77.666 -101.5 -114.999
s-40.5 -75 -40.5 -113c1.33301 -14.667 3.33301 -39.834 6 -75.501s4 -54.167 4 -55.5c22 -134.667 33 -240.334 33 -317.001c0 -43.333 -3.66699 -86.333 -11 -129s-20 -83 -38 -121s-41.333 -70.667 -70 -98c-64 -64 -132.667 -114.5 -206 -151.5s-150 -55.5 -230 -55.5
c-34.667 0 -66.667 8.33301 -96 25s-62.666 41 -99.999 73zM61.002 969.002c22 65.333 42 120.5 60 165.5s41 88.5 69 130.5s62 75.833 102 101.5s88 38.5 144 38.5c39.333 0 86 -10.333 140 -31s113.333 -46.667 178 -78c45.333 -21.333 81.333 -32 108 -32
c44 0 113 36 207 108l23 -33c-103.333 -94 -209.333 -169.667 -318 -227l-231.5 86.5c-61 21.667 -110.833 32.5 -149.5 32.5c-72 0 -131.167 -26.833 -177.5 -80.5s-85.5 -121.167 -117.5 -202.5z" />
    <glyph glyph-name="J" unicode="J" horiz-adv-x="1130" 
d="M219 -45c-1.33301 16 -3.66602 37.666 -6.99902 64.999s-8.33301 51.333 -15 72s-16.834 37.834 -30.501 51.501s-32.167 20.5 -55.5 20.5c-36.667 0 -76.334 -11 -119.001 -33l-12 33c102.667 87.333 189.334 131 260.001 131c56.667 0 92.667 -15 108 -45
s23 -77 23 -141c0 -94 12 -168.5 36 -223.5s77.333 -82.5 160 -82.5c48 0 88.667 12.667 122 38s57.833 58.833 73.5 100.5s23.5 86.5 23.5 134.5c0 47.333 -5.33301 99 -16 155s-23.667 113.333 -39 172c-38 156.667 -57 268 -57 334c0 13.333 1.33301 32.666 4 57.999
c40 54.667 83.833 106.5 131.5 155.5s98.167 95.5 151.5 139.5l32 -23c-102 -113.333 -153 -207.666 -153 -282.999c0 -55.333 10.667 -135 32 -239c44 -220 66 -343.667 66 -371c0 -73.333 -21.167 -145.666 -63.5 -216.999s-98.333 -129.5 -168 -174.5
s-141.167 -67.5 -214.5 -67.5c-60 0 -108.667 8 -146 24s-65.833 41.167 -85.5 75.5s-33.5 81.166 -41.5 140.499zM111 1034c21.333 54 48.832 109.169 82.499 165.502s73.667 104.666 120 144.999s94.833 60.5 145.5 60.5c56 0 135.667 -43 239 -129
c65.333 -58.667 120 -88 164 -88c50 0 119 21.667 207 65v-43c-168.667 -86 -278 -137 -328 -153c-45.333 7.33301 -99 36.666 -161 87.999c-74.667 57.333 -137 86 -187 86c-48.667 0 -94.667 -22 -138 -66s-80.666 -94.333 -111.999 -151z" />
    <glyph glyph-name="K" unicode="K" horiz-adv-x="1368" 
d="M33 63l130.998 154.001c14.667 -38.667 34.167 -71.834 58.5 -99.501s52.5 -41.5 84.5 -41.5c94.667 0 142 72.333 142 217c0 84 -18.667 186.333 -56 307c-43.333 145.333 -65 243 -65 293v10c30.667 89.333 77.5 172 140.5 248s136.667 135.667 221 179
s174.833 65 271.5 65c62 0 121.167 -10.167 177.5 -30.5s98.833 -53.833 127.5 -100.5c0.666992 -6 1.16699 -11.667 1.5 -17s0.5 -12 0.5 -20c0 -58 -11.667 -125.667 -35 -203l-33 -10c0 66 -16.667 119.167 -50 159.5s-77.166 69.166 -131.499 86.499
s-113.833 26 -178.5 26c-70 0 -130.333 -13 -181 -39s-90.167 -64.167 -118.5 -114.5s-42.5 -109.833 -42.5 -178.5c0 -64.667 12.333 -132 37 -202c170.667 181.333 312.667 272 426 272c34 0 62 -10.5 84 -31.5s38.167 -45.167 48.5 -72.5s20.5 -61.666 30.5 -102.999
c7.33301 -25.333 21 -46 41 -62s42.667 -24 68 -24c13.333 0 27.666 3.33301 42.999 10l-10 -45l-316 -141c26 0 59 -11 99 -33c26.667 -43.333 55.334 -134 86.001 -272c7.33301 -35.333 21.5 -67.666 42.5 -96.999s46.833 -44 77.5 -44c56.667 0 104 14.333 142 43v-43
c-109.333 -109.333 -196.666 -164 -261.999 -164c-42 0 -76.167 23.667 -102.5 71s-42.833 96 -49.5 146c-11.333 76.667 -21 132.5 -29 167.5s-26 66.667 -54 95s-70 42.5 -126 42.5c-60 0 -121.333 -14.333 -184 -43c0 -63.333 -3.33301 -118 -10 -164
c-115.333 -174.667 -239 -279.667 -371 -315c-69.333 9.33301 -128 48.666 -176 117.999zM589.998 479.001l439.999 173.998c-11.333 10.667 -20.666 22.334 -27.999 35.001s-13.666 25.834 -18.999 39.501s-12 32.5 -20 56.5c-9.33301 30.667 -25.833 56.5 -49.5 77.5
s-51.167 31.5 -82.5 31.5c-56 0 -107.833 -22.5 -155.5 -67.5s-90.5 -98.833 -128.5 -161.5c15.333 -40 29.666 -101.667 42.999 -185z" />
    <glyph glyph-name="L" unicode="L" horiz-adv-x="1364" 
d="M98 -45l-31.9951 44.9941c21.333 51.333 44.166 100 68.499 146s52.5 88 84.5 126c196.667 29.333 295 98.333 295 207c0 19.333 -8.16699 47 -24.5 83s-37.5 77.333 -63.5 124c-15.333 27.333 -30.5 57 -45.5 89s-27.5 63.5 -37.5 94.5s-15 60.5 -15 88.5
c0 32 7.5 64.333 22.5 97s34 63.667 57 93s46.833 57 71.5 83c56.667 56.667 122.834 99.834 198.501 129.501s154.834 44.5 237.501 44.5c58.667 0 106.5 -7.33301 143.5 -22s64.667 -39.167 83 -73.5s27.5 -80.5 27.5 -138.5c0 -15.333 -1.33301 -39 -4 -71
c-6.66699 -61.333 -10 -99 -10 -113c0 -27.333 10.667 -44.333 32 -51s51 -10 89 -10v-43l-219 -56c-32 14.667 -54 30.167 -66 46.5s-18 40.5 -18 72.5c0 26 2.66699 59.667 8 101c2.66699 26.667 4 48.334 4 65.001c0 72.667 -16.333 123.334 -49 152.001
s-86.667 43 -162 43c-46 0 -91.167 -10 -135.5 -30s-80.333 -48.333 -108 -85s-41.5 -78.334 -41.5 -125.001c0 -26 4.33301 -55.167 13 -87.5s19.5 -63.166 32.5 -92.499s27.5 -60 43.5 -92c24 -49.333 42.833 -94.166 56.5 -134.499s20.5 -82.166 20.5 -125.499v-23
c-38 -46.667 -89.667 -101.334 -155 -164.001l-49 -49l-20 -20.5l-15 -16.5h30c57.333 -23.333 113.333 -44.666 168 -63.999s110.167 -35.333 166.5 -48s112.166 -19 167.499 -19c67.333 0 122.666 9.33301 165.999 28s78 47.334 104 86.001s48.667 91.334 68 158.001
l33 -22c-16.667 -96 -36.334 -175.333 -59.001 -238c-20 -54 -41.333 -94.5 -64 -121.5s-52.167 -46.167 -88.5 -57.5s-81.833 -17 -136.5 -17c-80.667 0 -168.834 15.167 -264.501 45.5s-200.167 69.166 -313.5 116.499c-48.667 21.333 -92.334 32 -131.001 32
c-16.667 0 -35.834 -11.5 -57.501 -34.5s-41.5 -48.833 -59.5 -77.5z" />
    <glyph glyph-name="M" unicode="M" horiz-adv-x="2148" 
d="M78 -33l-22.998 33.001c33.333 54.667 71 104.5 113 149.5s84.333 67.5 127 67.5c48.667 0 110.667 -36 186 -108c42.667 23.333 77.167 48.833 103.5 76.5s48 60 65 97s30.5 78.167 40.5 123.5c20.667 92.667 31 208 31 346c0 84 -10.667 166 -32 246s-58 146 -110 198
s-121.333 78 -208 78c-25.333 0 -51.5 -6.33301 -78.5 -19s-49.667 -29.834 -68 -51.501s-27.5 -45.167 -27.5 -70.5c0 -26.667 7.83301 -52.167 23.5 -76.5s40.5 -57.166 74.5 -98.499c65.333 -74.667 98 -136.667 98 -186c0 -54 -25.333 -104.667 -76 -152
s-108.667 -87.333 -174 -120l-45 32c39.333 20.667 73.166 44.5 101.499 71.5s42.5 57.833 42.5 92.5c0 24.667 -25.333 68.334 -76 131.001c-74 90 -111 155.667 -111 197c0 63.333 25 124.666 75 183.999s112.333 107 187 143s143.667 54 207 54
c48.667 0 95.167 -9.33301 139.5 -28s82.5 -44.334 114.5 -77.001c47.333 -46 78.666 -100.5 93.999 -163.5s23 -136.833 23 -221.5c0 -130.667 -11.5 -251 -34.5 -361s-62.833 -211.333 -119.5 -304l-348 -305c-72 72 -130 108 -174 108c-27.333 0 -53 -8 -77 -24
s-45.333 -36.667 -64 -62zM807.002 -32.999l-20.998 42.999c43.333 60 81.666 108.833 114.999 146.5s63.333 56.5 90 56.5c25.333 0 49.166 -6 71.499 -18s49.833 -30 82.5 -54c36.667 32 64 84.333 82 157s29 145.5 33 218.5s6 151.5 6 235.5
c0 108.667 -5.66699 195.334 -17 260.001c-10.667 70 -29.334 124 -56.001 162s-71.334 57 -134.001 57c-37.333 0 -71.5 -15.333 -102.5 -46s-54.833 -66.667 -71.5 -108l-23 88c42 54 92.833 98.667 152.5 134s121.5 53 185.5 53c124.667 0 200.334 -87.333 227.001 -262
c15.333 -92 23 -157.667 23 -197c0 -218.667 -43.667 -429 -131 -631l-250 -307c-27.333 24.667 -53.166 45.5 -77.499 62.5s-45.5 25.5 -63.5 25.5s-36 -6.5 -54 -19.5s-40.333 -31.833 -67 -56.5zM1427 1090l-19.998 93.999c23.333 32.667 58.166 67.167 104.499 103.5
s95.833 67 148.5 92s98.667 37.5 138 37.5c44 0 76.333 -14.167 97 -42.5s39.667 -68.833 57 -121.5c11.333 -36 23.666 -62.667 36.999 -80s35 -26 65 -26c28 0 58.667 6 92 18l-260 -164c-10.667 2.66699 -21 9.16699 -31 19.5s-18.667 23.5 -26 39.5
s-13.333 31.833 -18 47.5s-9 28.167 -13 37.5c-15.333 48.667 -30 84.334 -44 107.001s-39 34 -75 34c-52.667 0 -100.667 -18.833 -144 -56.5s-79.333 -84.167 -108 -139.5zM1810.01 -55.001l-120.001 219v391c0 72.667 10.667 160 32 262
c42.667 66.667 97.334 128 164.001 184l260 164v-32c-84 -41.333 -159.667 -96 -227 -164c-18.667 -37.333 -33 -78.5 -43 -123.5s-16.333 -90.167 -19 -135.5s-4 -93 -4 -143c0 -44.667 0.5 -83.5 1.5 -116.5s3 -64 6 -93s8.16699 -53.833 15.5 -74.5
c6 -21.333 19 -48.5 39 -81.5s36.333 -49.5 49 -49.5c12 0 33.167 6.33301 63.5 19s55.5 24.667 75.5 36v-43z" />
    <glyph glyph-name="N" unicode="N" horiz-adv-x="1704" 
d="M262 53l131 163.995c10 -38.667 27.167 -70.167 51.5 -94.5s54.5 -36.5 90.5 -36.5c51.333 0 95.333 22 132 66s61.334 94.333 74.001 151c15.333 64.667 23 145.334 23 242.001c0 149.333 -16.333 281 -49 395c-16 57.333 -38.333 112 -67 164s-64.5 95.333 -107.5 130
s-92.167 52 -147.5 52c-30 0 -60.167 -6.83301 -90.5 -20.5s-55.5 -33.167 -75.5 -58.5s-30 -53.666 -30 -84.999c0 -25.333 7.66699 -50.333 23 -75s37 -54.334 65 -89.001c72 -84.667 108 -142.667 108 -174c0 -32 -8 -61.5 -24 -88.5s-35.5 -50.667 -58.5 -71
s-44.667 -37 -65 -50l-102.5 -62.5l-32 33c78.667 43.333 118 90.333 118 141c0 31.333 -28.667 82 -86 152c-28.667 36 -50.5 67 -65.5 93s-22.5 53.667 -22.5 83c0 78.667 47.333 165.334 142 260.001c42 42 89 74.333 141 97s106.667 34 164 34
c90.667 0 168.167 -28 232.5 -84s110.166 -129.667 137.499 -221l113 157c36.667 44.667 80 80.5 130 107.5s103.667 40.5 161 40.5c67.333 0 115.166 -9.5 143.499 -28.5s52.833 -60.167 73.5 -123.5c6 -21.333 12.5 -40.666 19.5 -57.999s16.667 -32 29 -44
s28.833 -18 49.5 -18c30 0 58.667 7.33301 86 22v-33l-90.5 -66c-32.333 -23.333 -60.5 -46.333 -84.5 -69s-38 -43 -42 -61c-22 -109.333 -33 -230.333 -33 -363c0 -40 4.33301 -94.333 13 -163s23.5 -130 44.5 -184s49.167 -81 84.5 -81c34.667 0 75 18.333 121 55v-43
c-11.333 -11.333 -102.333 -77.333 -273 -198c-9.33301 16 -25 41.5 -47 76.5s-42.167 68.833 -60.5 101.5s-27.5 51.667 -27.5 57c0 4.66699 0.666992 11 2 19s2 14 2 18c0 49.333 -1.66699 112.333 -5 189s-5 124.334 -5 143.001c0 77.333 1.33301 132.666 4 165.999
s9 62.166 19 86.499s22.5 45.833 37.5 64.5s52.833 62.334 113.5 131.001c-36.667 0 -58.667 3.66699 -66 11c-14.667 14.667 -33 62.334 -55 143.001c-8.66699 33.333 -24.5 63.5 -47.5 90.5s-50.167 40.5 -81.5 40.5c-49.333 0 -93.333 -15.5 -132 -46.5
s-72.167 -69.667 -100.5 -116s-53.166 -93.833 -74.499 -142.5c14.667 -92 22 -179.333 22 -262c0 -94.667 -5.66699 -179.667 -17 -255s-34.333 -146.666 -69 -213.999l-14.5 -29.5c-5 -10.333 -10.833 -18.833 -17.5 -25.5l-160 -128
c-45.333 -34.667 -87 -64.667 -125 -90c-24 -14.667 -49.333 -22 -76 -22c-32.667 0 -64.167 9 -94.5 27s-56.833 41.667 -79.5 71z" />
    <glyph glyph-name="O" unicode="O" horiz-adv-x="1694" 
d="M55 -33l-32.002 33.002c64.667 86 126.667 158.333 186 217c50.667 18 92.334 45.167 125.001 81.5s49 78.166 49 125.499c0 32 -7.83301 63.667 -23.5 95s-37.167 65.333 -64.5 102l-52.5 70.5c-20.333 27.667 -38.5 55.167 -54.5 82.5s-24 48.666 -24 63.999
c0 73.333 27.167 142.666 81.5 207.999s117.833 119.333 190.5 162l43 -20c-94 -70.667 -141 -136.334 -141 -197.001c0 -25.333 5 -51.833 15 -79.5s22.333 -54.834 37 -81.501s30 -52.667 46 -78c29.333 -46.667 53.166 -88.167 71.499 -124.5s27.5 -68.166 27.5 -95.499
c0 -86.667 -65.667 -187.667 -197 -303c26 0 59.833 -7.83301 101.5 -23.5s95.167 -37.167 160.5 -64.5c116.667 -43.333 226 -65 328 -65c48.667 0 96.334 9.5 143.001 28.5s88.167 45.667 124.5 80s64.5 74.5 84.5 120.5c40.667 92 61 215.667 61 371
c0 91.333 -7 169.5 -21 234.5s-37.833 120.667 -71.5 167s-80.167 81.833 -139.5 106.5s-134 37 -224 37c-14 0 -33.833 -0.666992 -59.5 -2l-67 -3.5c-19 -1 -34.833 -1.5 -47.5 -1.5c-36 0 -72.333 7.83301 -109 23.5s-55 38.834 -55 69.501
c0 24.667 6.83301 46.167 20.5 64.5s35 40.333 64 66s47.833 44.167 56.5 55.5h31c-12.667 -20 -19 -37 -19 -51c0 -32 41 -54.333 123 -67s153 -19 213 -19c33.333 0 72.666 -5.16699 117.999 -15.5s89 -25.166 131 -44.499s75 -41 99 -65
c94.667 -94.667 142 -232.667 142 -414c0 -120.667 -13.5 -232.5 -40.5 -335.5s-75.167 -187.833 -144.5 -254.5c-215.333 -188 -396.666 -282 -543.999 -282c-108.667 0 -218 21.667 -328 65c-56.667 24 -98.667 41 -126 51s-57.666 15 -90.999 15
c-38.667 0 -75.667 -9.83301 -111 -29.5s-64 -46.167 -86 -79.5z" />
    <glyph glyph-name="P" unicode="P" horiz-adv-x="1694" 
d="M262 -33l-22.0039 43c30 58.667 59.333 109.5 88 152.5s64.334 79.167 107.001 108.5s90.334 44 143.001 44c27.333 0 60.666 -5.33301 99.999 -16v541c0 52 -5 105 -15 159s-26.5 103.5 -49.5 148.5s-54.167 81 -93.5 108s-88.333 40.5 -147 40.5
c-48.667 0 -92 -17 -130 -51s-57 -75 -57 -123c0 -12 4.33301 -27 13 -45s17.667 -33.5 27 -46.5l46 -61.5c72.667 -90.667 109 -148.667 109 -174c0 -57.333 -23.833 -111 -71.5 -161s-103.167 -90.667 -166.5 -122l-45 20c87.333 58.667 131 113.334 131 164.001
c0 22 -28.667 70 -86 144c-58.667 71.333 -88 129.333 -88 174c0 48.667 13.333 97.167 40 145.5s62.167 92.166 106.5 131.499s92.166 70.166 143.499 92.499s100.333 33.5 147 33.5c187.333 0 299.666 -98.333 336.999 -295c62.667 83.333 136.167 153.333 220.5 210
s170.833 85 259.5 85c60.667 0 101.167 -20.167 121.5 -60.5s34.5 -96.5 42.5 -168.5c4.66699 -35.333 12.834 -61.333 24.501 -78s33.5 -25 65.5 -25c18.667 0 43 5 73 15l11 -33c-52.667 -25.333 -109.667 -63.833 -171 -115.5s-92 -96.5 -92 -134.5
c0 -17.333 3.83301 -36.666 11.5 -57.999s17 -41.5 28 -60.5s23.167 -38.167 36.5 -57.5c50.667 -75.333 76 -144.333 76 -207c0 -66 -18.667 -135 -56 -207s-86.166 -131.667 -146.499 -179s-123.166 -71 -188.499 -71c-20 0 -48.5 6 -85.5 18s-80.333 27.667 -130 47
s-79.5 30.666 -89.5 33.999c0 -137.333 7.33301 -264.333 22 -381l-79.5 -58l-114.5 -86l-45 23c18 34.667 31.667 114.167 41 238.5s14 229.833 14 316.5c-50 13.333 -85.667 22.5 -107 27.5s-41 7.5 -59 7.5c-26.667 0 -51.667 -6 -75 -18s-45.166 -27.667 -65.499 -47
s-40.166 -41.666 -59.499 -66.999zM839.996 250l134 -45.998c61.333 -21.333 116.666 -38.833 165.999 -52.5s87 -20.5 113 -20.5c28.667 0 56.834 7.16699 84.501 21.5s49.5 33.666 65.5 57.999s24 51.833 24 82.5c0 33.333 -9.16699 68.666 -27.5 105.999
s-41.166 75 -68.499 113c-65.333 85.333 -98 150.333 -98 195c0 40.667 17.667 81.834 53 123.501s75.666 80.167 120.999 115.5c-8 1.33301 -16.333 4.66602 -25 9.99902s-17.5 12.333 -26.5 21l-24.5 24c-19.333 20 -30.333 64 -33 132
c0 54.667 -9.16699 95.5 -27.5 122.5s-52.833 40.5 -103.5 40.5c-42.667 0 -85.167 -16.5 -127.5 -49.5s-81 -73.167 -116 -120.5s-62.833 -92.333 -83.5 -135v-741z" />
    <glyph glyph-name="Q" unicode="Q" horiz-adv-x="1694" 
d="M55 -35l-32.0029 33.001c62 85.333 124 158.333 186 219c50.667 18 92.334 45.167 125.001 81.5s49 78.166 49 125.499c0 32 -7.83301 63.667 -23.5 95s-37.167 65.333 -64.5 102l-52.5 70.5c-20.333 27.667 -38.5 55.167 -54.5 82.5s-24 48.666 -24 63.999
c0 73.333 27.167 142.666 81.5 207.999s117.833 119.333 190.5 162l43 -20c-94 -70.667 -141 -136.334 -141 -197.001c0 -25.333 5 -51.833 15 -79.5s22.333 -54.834 37 -81.501s30 -52.667 46 -78c29.333 -46.667 53.166 -88.167 71.499 -124.5s27.5 -68.166 27.5 -95.499
c0 -86.667 -65.667 -187.667 -197 -303c26 0 59.833 -7.83301 101.5 -23.5s95.167 -37.167 160.5 -64.5c116.667 -43.333 226 -65 328 -65c48.667 0 96.334 9.5 143.001 28.5s88.167 45.667 124.5 80s64.5 74.5 84.5 120.5c40.667 92 61 215.667 61 371
c0 91.333 -7 169.5 -21 234.5s-37.833 120.667 -71.5 167s-80.167 81.833 -139.5 106.5s-134 37 -224 37c-14 0 -33.833 -0.666992 -59.5 -2l-67 -3.5c-19 -1 -34.833 -1.5 -47.5 -1.5c-36 0 -72.333 7.83301 -109 23.5s-55 38.834 -55 69.501c0 14 7.83301 31.667 23.5 53
s37.167 46.5 64.5 75.5s45 48.167 53 57.5h31c-12.667 -20 -19 -37 -19 -51c0 -32 41 -54.333 123 -67s153 -19 213 -19c33.333 0 72.666 -5.16699 117.999 -15.5s89 -25.166 131 -44.499s75 -41 99 -65c94.667 -94.667 142 -232.667 142 -414
c0 -54.667 -4.16699 -107 -12.5 -157s-20.833 -101 -37.5 -153s-36.167 -100.833 -58.5 -146.5s-47.833 -90.167 -76.5 -133.5c-22.667 -20 -58.667 -49.333 -108 -88c86.667 -100.667 159 -151 217 -151c46.667 0 97.334 18.333 152.001 55v-55
c-25.333 -16 -65 -37.667 -119 -65s-94.333 -48.666 -121 -63.999c-138.667 44.667 -243 98.334 -313 161.001c-93.333 -50 -177.333 -75 -252 -75c-114 0 -223.333 21.667 -328 65l-71 29c-25.333 10.667 -50 19.5 -74 26.5s-48 10.5 -72 10.5
c-39.333 0 -76.166 -9.83301 -110.499 -29.5s-63.166 -46.834 -86.499 -81.501z" />
    <glyph glyph-name="R" unicode="R" horiz-adv-x="1696" 
d="M88 -33l-33.001 32.9971c40.667 54 85.5 103.667 134.5 149s95.167 68 138.5 68c32.667 0 83.667 -40.333 153 -121c54.667 32.667 99.167 73.334 133.5 122.001s58.833 100.667 73.5 156s23.834 111.166 27.501 167.499s5.5 126.5 5.5 210.5
c0 100.667 -11.667 187.334 -35 260.001c-10.667 36.667 -25.167 70.834 -43.5 102.501s-40 60.334 -65 86.001s-54.667 46.334 -89 62.001s-69.5 23.5 -105.5 23.5c-31.333 0 -62.333 -7 -93 -21s-55.667 -33.667 -75 -59s-29 -53.333 -29 -84
c0 -43.333 33 -101.333 99 -174c64 -74.667 96 -132.667 96 -174c0 -51.333 -22.167 -99.833 -66.5 -145.5s-97.833 -88.5 -160.5 -128.5l-43 32c34.667 20.667 63 44.667 85 72s33 58 33 92c0 16.667 -28.667 64 -86 142c-58.667 76.667 -88 131 -88 163
c0 52 13.667 102 41 150s64.5 91.5 111.5 130.5s97.333 69.333 151 91s105.5 32.5 155.5 32.5c53.333 0 103.666 -12.333 150.999 -37s88.166 -58.167 122.499 -100.5s60.5 -89.5 78.5 -141.5l6 19c69.333 81.333 136 145 200 191s135.333 69 214 69
c56.667 0 96.334 -17.333 119.001 -52s37.667 -83 45 -145c1.33301 -10 3.33301 -28 6 -54s7.16699 -45.833 13.5 -59.5s16.5 -24.334 30.5 -32.001s34.333 -11.5 61 -11.5c22 0 43 2 63 6l23 -33c-148 -55.333 -282.667 -131.666 -404 -228.999
c62.667 0 124 -25.333 184 -76l5 -95c2 -38 4.5 -81.167 7.5 -129.5s6.16699 -87 9.5 -116s7 -50.167 11 -63.5c36.667 -116 73 -174 109 -174c9.33301 0 49 14.333 119 43v-32l-271 -207l-131 239c1.33301 31.333 2.66602 65 3.99902 101s2 64.667 2 86
c0 75.333 -3.66699 134.333 -11 177s-27.333 78 -60 106s-83.334 42 -152.001 42c-42.667 0 -104.667 -10.667 -186 -32l-4 4c-10.667 -82.667 -27.667 -161.167 -51 -235.5s-55.666 -142.833 -96.999 -205.5l-122.5 -101l-94.5 -79.5l-121 -101.5
c-33.333 33.333 -62.166 59.666 -86.499 78.999s-45.833 29 -64.5 29c-57.333 0 -108.666 -28.667 -153.999 -86zM884.999 718.997l193.997 76c200.667 99.333 302.334 150.333 305.001 153c-25.333 4 -44.666 10.667 -57.999 20s-23 22 -29 38s-10.5 36.167 -13.5 60.5
s-5.5 42.833 -7.5 55.5c-16 109.333 -56.333 164 -121 164c-39.333 0 -75.166 -14.167 -107.499 -42.5s-60.5 -62.5 -84.5 -102.5s-46.667 -82.333 -68 -127l-4 -6c2.66699 -36 4 -63.333 4 -82c0 -80.667 -3.33301 -149.667 -10 -207z" />
    <glyph glyph-name="S" unicode="S" horiz-adv-x="1696" 
d="M764 -55c-134.667 0 -249.17 29.332 -343.503 87.999s-165.5 140.167 -213.5 244.5s-72 222.833 -72 355.5c0 142 31.333 267 94 375s148.667 196.167 258 264.5s234.333 116.5 375 144.5c19.333 -9.33301 52.833 -27.166 100.5 -53.499s96.834 -51.666 147.501 -75.999
s95.667 -43.666 135 -57.999s71.333 -21.5 96 -21.5c88 0 147.667 52 179 156l28 -25c-14 -51.333 -35 -95.5 -63 -132.5s-61.833 -68.167 -101.5 -93.5s-86.5 -48.333 -140.5 -69c-44.667 4.66699 -132 45 -262 121c-138.667 80.667 -236.334 121 -293.001 121
c-87.333 0 -174.666 -43.667 -261.999 -131c-47.333 -48 -82.666 -105.167 -105.999 -171.5s-35 -136.166 -35 -209.499c0 -127.333 25.667 -246.5 77 -357.5s125.5 -199.333 222.5 -265s211.5 -98.5 343.5 -98.5c82 0 157.833 13 227.5 39s125.167 67.167 166.5 123.5
s62 127.166 62 212.499c0 50.667 -9.83301 96.334 -29.5 137.001s-48.667 72.667 -87 96s-82.5 35 -132.5 35c-44.667 0 -121.334 -10 -230.001 -30c-103.333 -22 -183 -33 -239 -33c-56.667 0 -103.667 13.667 -141 41s-56 67.666 -56 120.999
c0 59.333 22.167 110.5 66.5 153.5s97.166 72.833 158.499 89.5l27 -24c-31.333 -8.66699 -55.833 -26.334 -73.5 -53.001s-26.5 -56.334 -26.5 -89.001c0 -37.333 11.833 -66.666 35.5 -87.999s55.5 -32 95.5 -32c38.667 0 118.334 14.333 239.001 43
c136.667 28.667 224 43 262 43c42 0 79.833 -6 113.5 -18s63.334 -30.167 89.001 -54.5s45.5 -53.166 59.5 -86.499s21 -71.333 21 -114c0 -103.333 -21.667 -194.333 -65 -273s-101 -143.334 -173 -194.001s-154.167 -88.834 -246.5 -114.501
s-188.166 -38.5 -287.499 -38.5z" />
    <glyph glyph-name="T" unicode="T" horiz-adv-x="1370" 
d="M207 10c76.667 78.667 160.667 155.33 252 229.997h61c50.667 0 88.334 -0.666992 113.001 -2c40 24 75.5 52.833 106.5 86.5s46.5 69.5 46.5 107.5c0 38.667 -32.667 96 -98 172c-48 56 -84.167 100.667 -108.5 134s-39.166 64.333 -44.499 93
c15.333 68.667 45.166 135 89.499 199s98.166 127.667 161.499 191c-104 35.333 -213 53 -327 53c-46 0 -92.833 -7.66699 -140.5 -23s-87 -39.166 -118 -71.499s-46.5 -73.166 -46.5 -122.499c0 -37.333 12.5 -72 37.5 -104s56.167 -55.333 93.5 -70l-131 -131
c-57.333 44 -86 116.333 -86 217c0 54 13 106.167 39 156.5s60 96.5 102 138.5c47.333 46.667 103 81.834 167 105.501s132 35.5 204 35.5c53.333 0 106 -3.5 158 -10.5s115.333 -17.833 190 -32.5c107.333 -22 187 -33 239 -33c75.333 0 147.666 36.333 216.999 109v-43
l-141 -185c-34.667 -21.333 -90 -32 -166 -32c-61.333 0 -129.666 6.66699 -204.999 20c-51.333 -35.333 -95.166 -73.833 -131.499 -115.5s-54.5 -85.834 -54.5 -132.501c0 -43.333 29.333 -97.333 88 -162c102.667 -114 154 -200.667 154 -260
c0 -44.667 -21.667 -92.667 -65 -144s-98.333 -107.666 -165 -168.999c71.333 -34 125.833 -58.5 163.5 -73.5s74.167 -22.5 109.5 -22.5c77.333 0 168.666 51 273.999 153l21 -32c-59.333 -69.333 -116.5 -128.333 -171.5 -177s-113.833 -88 -176.5 -118
c-29.333 4 -58.333 11 -87 21s-53.167 19.833 -73.5 29.5s-50.833 25.5 -91.5 47.5c-64.667 36.667 -127 55 -187 55c-68 0 -151.333 -40.333 -250 -121z" />
    <glyph glyph-name="U" unicode="U" horiz-adv-x="1321" 
d="M-33 -12l-19.998 34.998l164 184c23.333 2.66699 44.833 11.834 64.5 27.501s45.167 39.167 76.5 70.5c50.667 50.667 76 119.667 76 207c0 38 -9.5 78.833 -28.5 122.5s-42.5 90.167 -70.5 139.5c-33.333 60 -59.666 110.667 -78.999 152s-29 77.333 -29 108
c0 40.667 18.5 86.667 55.5 138s81.667 100.833 134 148.5s98.5 83.167 138.5 106.5l20 -32c-52 -39.333 -94 -80.166 -126 -122.499s-48 -88.833 -48 -139.5c0 -30 6.33301 -60.667 19 -92s31.667 -73.333 57 -126c65.333 -128 98 -233 98 -315
c0 -60.667 -11 -112 -33 -154l-196 -229c19.333 0 39.333 -2.5 60 -7.5s42.5 -11.5 65.5 -19.5s46.5 -17.333 70.5 -28c110.667 -44 179.667 -66 207 -66c53.333 0 108 29.333 164 88c48 49.333 80 85.5 96 108.5s25.833 48.167 29.5 75.5s5.5 75.333 5.5 144
c0 131.333 -1.83301 259.333 -5.5 384s-9.5 233 -17.5 325l263 184l32 -23c-54 -55.333 -87.5 -114.833 -100.5 -178.5s-19.5 -148.834 -19.5 -255.501v-416c0 -36.667 5 -84.834 15 -144.501s26.167 -112.167 48.5 -157.5s51.5 -68 87.5 -68c35.333 0 75.666 15 120.999 45
v-43l-293 -219l-131 284l-240 -241c-36 -28.667 -75.333 -43 -118 -43c-39.333 0 -79.333 5.33301 -120 16s-88.334 27 -143.001 49c-44.667 18.667 -87.5 34.334 -128.5 47.001s-77.833 19 -110.5 19c-8.66699 0 -18.667 -3.33301 -30 -10s-22.333 -15.167 -33 -25.5
s-20.834 -21.166 -30.501 -32.499s-15.5 -18 -17.5 -20z" />
    <glyph glyph-name="V" unicode="V" horiz-adv-x="1702" 
d="M186 53l-21.999 33.0039c41.333 46.667 84.333 89.834 129 129.501s89 72.834 133 99.501c45.333 0 88.333 12.167 129 36.5s74 55.833 100 94.5c28.667 43.333 46.834 98 54.501 164s11.5 142.667 11.5 230c0 122 -27.333 226.833 -82 314.5s-140 131.5 -256 131.5
c-44 0 -86 -13.333 -126 -40s-60 -60.334 -60 -101.001c0 -31.333 9.5 -61.833 28.5 -91.5s45.5 -64.834 79.5 -105.501c58.667 -64.667 88 -119.334 88 -164.001c0 -34.667 -13.667 -69.667 -41 -105s-60.333 -67.333 -99 -96s-75.334 -52.334 -110.001 -71.001l-32 33
c87.333 48 131 98.333 131 151c0 19.333 -6.83301 39.5 -20.5 60.5s-32.167 44.5 -55.5 70.5c-74 81.333 -111 143.666 -111 186.999c0 32.667 6.66699 63.5 20 92.5s29.5 55.833 48.5 80.5s43.5 53.667 73.5 87c87.333 87.333 196.333 131 327 131
c191.333 0 309.666 -93 354.999 -279l104 105c116 116 213.667 174 293 174c62.667 0 128.334 -25.333 197.001 -76c58 -43.333 113 -65 165 -65c20.667 0 38 3.33301 52 10v-33c-38.667 -25.333 -73.667 -56.333 -105 -93s-56.166 -76.667 -74.499 -120
s-27.5 -88.333 -27.5 -135c0 -47.333 6.66699 -116.333 20 -207c22 -117.333 33 -197.333 33 -240c0 -50.667 -10 -102.834 -30 -156.501s-47 -97.5 -81 -131.5c-14 -14.667 -34.333 -32 -61 -52s-61.334 -44.333 -104.001 -73s-74.334 -50.667 -95.001 -66
c-12 -9.33301 -26.333 -15.333 -43 -18s-38.334 -4 -65.001 -4c-48.667 0 -95.834 9.5 -141.501 28.5s-100.167 45.5 -163.5 79.5c-147.333 87.333 -252.666 131 -315.999 131c-91.333 0 -174.666 -43.667 -249.999 -131zM600.001 305.004c26.667 0 61.832 -12 105.499 -36
s91.834 -52.333 144.501 -85c76.667 -42.667 136 -73.5 178 -92.5s81 -28.5 117 -28.5c62 0 108.167 18 138.5 54s49.333 78.333 57 127s11.5 108.667 11.5 180c0 32.667 -3.66699 90.667 -11 174c-6.66699 78 -10 147 -10 207c0 47.333 7.66699 95 23 143l151 174
c-44 0 -98.667 22 -164 66c-36 24.667 -68.167 43.5 -96.5 56.5s-57.5 19.5 -87.5 19.5c-46.667 0 -95 -30.5 -145 -91.5s-89 -121.5 -117 -181.5c0 -95.333 -10.167 -188.333 -30.5 -279s-50.5 -175.667 -90.5 -255z" />
    <glyph glyph-name="W" unicode="W" horiz-adv-x="2142" 
d="M98 -33l-32 43.002c26.667 32 72.5 80 137.5 144s104.5 96 118.5 96c146 0 247 57.5 303 172.5s84 254.167 84 417.5c0 166 -33 282 -99 348c-65.333 65.333 -134.333 98 -207 98c-34 0 -66.167 -6.33301 -96.5 -19s-54.5 -31.5 -72.5 -56.5s-27 -54.5 -27 -88.5
c0 -48 29.333 -102.667 88 -164c65.333 -68.667 98 -126.667 98 -174c0 -34 -13 -69.667 -39 -107s-57.333 -70.833 -94 -100.5s-72 -51.167 -106 -64.5l-43 33c42.667 22 75.167 43.5 97.5 64.5s33.5 49.833 33.5 86.5c0 30.667 -22 71 -66 121
c-36.667 43.333 -64.167 79.333 -82.5 108s-27.5 58.334 -27.5 89.001c0 79.333 43.667 162.666 131 249.999c44.667 44.667 97.5 79.334 158.5 104.001s124.167 37 189.5 37c151.333 0 257 -83.333 317 -250c39.333 43.333 81.166 84.333 125.499 123s96.833 81 157.5 127
c59.333 -62.667 107 -114.834 143 -156.501s60.667 -76.834 74 -105.501c68 71.333 133.833 132.833 197.5 184.5s121.5 77.5 173.5 77.5c55.333 0 131.666 -32.667 228.999 -98c36.667 -24.667 76.334 -37 119.001 -37c30 0 56 5.33301 78 16l-13 -45
c-48 -35.333 -85.5 -68.333 -112.5 -99s-47.333 -66.5 -61 -107.5s-20.5 -88.833 -20.5 -143.5c0 -42.667 3.33301 -89 10 -139c8 -70.667 13.833 -130.334 17.5 -179.001s5.5 -95 5.5 -139c0 -117.333 -26 -200.666 -78 -249.999c-42 -40 -86.5 -78.167 -133.5 -114.5
s-96.833 -71.166 -149.5 -104.499c-41.333 -10.667 -81 -16 -119 -16c-62.667 0 -124.667 13 -186 39c-67.333 28.667 -124 50.5 -170 65.5s-91 22.5 -135 22.5c-102.667 -48.667 -182.667 -92.334 -240 -131.001c-6.66699 0 -12.167 -0.166992 -16.5 -0.5
s-9.16602 -0.833008 -14.499 -1.5c-88.667 0 -176.667 25.667 -264 77c-34.667 22 -67.167 40.167 -97.5 54.5s-55.833 21.5 -76.5 21.5c-32 0 -64.5 -11.833 -97.5 -35.5s-69.5 -54.834 -109.5 -93.501zM1178 207.002c38 0 83.666 -10.6641 136.999 -31.9971
s120.333 -51 201 -89c30.667 -15.333 66.667 -23 108 -23c30.667 0 59.667 9.5 87 28.5s49 42.5 65 70.5c16 28.667 26 60.5 30 95.5s6 78.167 6 129.5c0 64.667 -4.66699 142.667 -14 234c-6.66699 63.333 -10 120.666 -10 171.999c0 46.667 2.83301 85 8.5 115
s13.834 53.167 24.501 69.5s31.5 40.666 62.5 72.999s53.167 56.166 66.5 71.499c-21.333 0 -72 25.333 -152 76c-66.667 44 -124.667 66 -174 66c-42 0 -83.5 -21 -124.5 -63s-79.5 -90 -115.5 -144c4.66699 -60 7 -123.667 7 -191c0 -52 -1.83301 -103.833 -5.5 -155.5
s-9.66699 -103.167 -18 -154.5s-20.5 -103 -36.5 -155c-26 -25.333 -47.667 -49.5 -65 -72.5zM491.999 217.005c111.333 -87.333 216.334 -131.002 315.001 -131.002c58.667 0 115 12.667 169 38s103.333 59.666 148 102.999c79.333 80.667 119 251.334 119 512.001
c0 46 -3.66699 93.833 -11 143.5s-19.166 97.334 -35.499 143.001s-39 86.834 -68 123.501s-63.833 64 -104.5 82c-64.667 -58 -115.334 -116 -152.001 -174c0 -81.333 -4.16699 -160.5 -12.5 -237.5s-23.833 -153.333 -46.5 -229s-53.334 -142.167 -92.001 -199.5z" />
    <glyph glyph-name="X" unicode="X" horiz-adv-x="1473" 
d="M55 63l121.003 143.999c16.667 -32.667 39.5 -59.334 68.5 -80.001s60.167 -31 93.5 -31c65.333 0 131 33 197 99c38 38 68.5 84 91.5 138s39 110.5 48 169.5s13.5 120.167 13.5 183.5c-147.333 -2.66699 -267.333 -10 -360 -22l75 88h285c0 96.667 -3.33301 169 -10 217
c-10 71.333 -31.5 132.833 -64.5 184.5s-81.167 77.5 -144.5 77.5c-34.667 0 -68.834 -8.83301 -102.501 -26.5s-65 -40.834 -94 -69.501s-54.167 -59 -75.5 -91l-37 33l303 328c50.667 -3.33301 96.667 -12.666 138 -27.999s77.333 -38.666 108 -69.999
c42 -41.333 78.667 -124.666 110 -249.999c40 80.667 92.833 150.834 158.5 210.501s141.167 106.834 226.5 141.501l42 -93.5c14 -30.333 31 -56.833 51 -79.5s42.333 -34 67 -34c13.333 0 42.666 11 87.999 33v-37l-209 -121c-34.667 16.667 -72.667 43.5 -114 80.5
s-67.333 70.167 -78 99.5c-46 -30.667 -85.833 -74.834 -119.5 -132.501s-59.167 -119.334 -76.5 -185.001s-26 -128.167 -26 -187.5h361l-78 -88c-20.667 2.66699 -46.334 5.5 -77.001 8.5s-64.667 5.5 -102 7.5s-72 3.33301 -104 4c0 -84 9.83301 -169.833 29.5 -257.5
s54.667 -162.5 105 -224.5s118.166 -93 203.499 -93c36 0 71 7.83301 105 23.5s71.333 37.167 112 64.5v-45l-227 -185c-48.667 -14.667 -82 -22 -100 -22c-62 0 -115.333 18 -160 54s-80.5 82.333 -107.5 139s-46.5 115.667 -58.5 177l-88 -88
c-64 -64 -135.667 -125.333 -215 -184s-145.666 -88 -198.999 -88c-66.667 0 -124.667 36 -174 108z" />
    <glyph glyph-name="Y" unicode="Y" horiz-adv-x="1704" 
d="M295 250c103.333 0 186.834 26.6689 250.501 80.002s108.834 122.833 135.501 208.5s40 178.5 40 278.5c0 53.333 -5.33301 107 -16 161s-28.334 104.333 -53.001 151s-57.834 84.5 -99.501 113.5s-91.5 43.5 -149.5 43.5c-30 0 -60.167 -5.66699 -90.5 -17
s-55.5 -29 -75.5 -53s-30 -51.667 -30 -83c0 -51.333 25.333 -106 76 -164c73.333 -80.667 110 -142.334 110 -185.001c0 -48.667 -24.333 -96.834 -73 -144.501s-104 -90.167 -166 -127.5l-33 33c87.333 64 131 118.667 131 164c0 18.667 -32.667 65.667 -98 141
c-66 74 -99 128.667 -99 164c0 74 51.333 160.667 154 260c87.333 87.333 196 131 326 131c100.667 0 173 -22 217 -66c87.333 -85.333 131 -201.333 131 -348c0 -236.667 -47.333 -425.667 -142 -567l-229 -195zM469.001 -304.998l154 164
c7.33301 -56.667 31.333 -105.334 72 -146.001s89 -61 145 -61c87.333 0 167.333 31 240 93s130.334 136 173.001 222c66 132 99 357.333 99 676c0 54.667 -1.5 106 -4.5 154s-8.5 95.667 -16.5 143s-19 93 -33 137c-66.667 77.333 -128.667 128.666 -186 153.999
c-54.667 -34 -99.5 -68.667 -134.5 -104s-66.5 -80.666 -94.5 -135.999l-11 121c130 130 261.333 227.667 394 293c28 -35.333 59 -66.666 93 -93.999s75.333 -57.333 124 -90c14.667 -71.333 23.834 -147 27.501 -227s5.5 -179.333 5.5 -298
c0 -143.333 -9.33301 -275.666 -28 -396.999s-53.334 -232 -104.001 -332c-30.667 -46.667 -71 -95 -121 -145s-104.333 -95.167 -163 -135.5s-118.834 -72.5 -180.501 -96.5s-121.167 -36 -178.5 -36c-58.667 0 -113.5 11.167 -164.5 33.5s-86.833 58.166 -107.5 107.499z
M98.001 -32.998l-19.999 43c50.667 78 123 158 217 240c75.333 0 139.666 -5.33301 192.999 -16s109 -30.667 167 -60c38.667 -19.333 69.334 -33.333 92.001 -42s46 -13 70 -13c60.667 0 118.667 32.667 174 98l19 -33c-46.667 -62.667 -90.834 -116.5 -132.501 -161.5
s-79.5 -67.5 -113.5 -67.5c-42.667 0 -111.667 21.667 -207 65c-128 59.333 -208 89 -240 89c-44.667 0 -85.667 -13 -123 -39s-69.333 -60.333 -96 -103z" />
    <glyph glyph-name="Z" unicode="Z" horiz-adv-x="1233" 
d="M45 -86l-22 33.0039c108.667 86 202.667 129 282 129c44.667 0 72.167 -12.5 82.5 -37.5s15.5 -67.167 15.5 -126.5c0 -32.667 2.66699 -57.834 8 -75.501s15.666 -31.334 30.999 -41.001s38.666 -14.5 69.999 -14.5c90.667 0 165.5 27 224.5 81
s101.833 122.667 128.5 206s40 169.333 40 258c0 107.333 -27.333 188.666 -82 243.999s-136.334 83 -245.001 83c-66 0 -127.667 -14.333 -185 -43l-22 23l88 129c50.667 0 101.667 17.5 153 52.5s93.166 80.167 125.499 135.5s48.5 108.666 48.5 159.999
c0 37.333 -15.667 66.833 -47 88.5s-66.666 32.5 -105.999 32.5c-33.333 0 -85.666 -3.83301 -156.999 -11.5s-120.666 -11.5 -147.999 -11.5c-94.667 0 -142 29.333 -142 88l142 197h32c-10.667 -14.667 -16 -31 -16 -49c0 -31.333 16.833 -51.166 50.5 -59.499
s72.834 -12.5 117.501 -12.5c36.667 0 73.667 2 111 6c48 2.66699 84 4 108 4c153.333 0 230 -53.667 230 -161c0 -62.667 -17.167 -122.667 -51.5 -180s-77.5 -109.333 -129.5 -156s-108 -87.667 -168 -123c52 8 91.667 12 119 12c68 0 130.833 -11.333 188.5 -34
s103.5 -59 137.5 -109c22 -74 33 -150.667 33 -230c0 -85.333 -14.333 -170.333 -43 -255s-69 -166 -121 -244c-44.667 -38 -94.667 -71.333 -150 -100s-112 -50.334 -170 -65.001s-118 -22 -180 -22c-73.333 0 -139 7.66699 -197 23c0 61.333 -4.5 114.833 -13.5 160.5
s-29.5 68.5 -61.5 68.5c-26 0 -62.333 -17.667 -109 -53z" />
    <glyph glyph-name="bracketleft" unicode="[" horiz-adv-x="567" 
d="M240 -266v1782c52.667 -6 162.334 -9 329.001 -9v-51l-243 -24v-1622l243 -15v-39c-84.667 0 -194.334 -7.33301 -329.001 -22z" />
    <glyph glyph-name="bracketright" unicode="]" horiz-adv-x="567" 
d="M-6 -254v43.001l250 23v1622l-250 16v49c38.667 0 76.5 0.166992 113.5 0.5s74.5 1.16602 112.5 2.49902s74.667 4.33301 110 9v-1781c-84.667 10.667 -196.667 16 -336 16z" />
    <glyph glyph-name="asciicircum" unicode="^" horiz-adv-x="1022" 
d="M0 950l512 553l502 -508l-80 -55l-426 438l-461 -452z" />
    <glyph glyph-name="a" unicode="a" horiz-adv-x="1024" 
d="M317 -74c-61.333 64 -120.668 133.002 -178.001 207.002c-4 64 -6 127.667 -6 191c0 153.333 14.333 294.666 43 423.999l344 217c60.667 -42.667 124.334 -70 191.001 -82l135 69l16 -12c-24.667 -168.667 -37 -307.334 -37 -416.001c0 -20.667 0.5 -47 1.5 -79
s2.5 -65.833 4.5 -101.5s3.66699 -68.834 5 -99.501l71 -92l101 49l10 -31l-252 -225l-88 149c0 10.667 -0.666992 26.334 -2 47.001s-2 35.667 -2 45zM302.998 248.002c14 -18 37.833 -44.667 71.5 -80s52.834 -53 57.501 -53c10 0 19 2 27 6l100 60l115 69l-2 498
c-42 0 -81.833 4 -119.5 12s-94.834 22.333 -171.501 43c-56 -58.667 -84 -189 -84 -391c0 -54 2 -108.667 6 -164z" />
    <glyph glyph-name="b" unicode="b" horiz-adv-x="1051" 
d="M178 145c11.333 60 18.668 128.332 22.001 204.999s5 169.667 5 279c0 108.667 -0.5 204.5 -1.5 287.5s-2.83301 164.5 -5.5 244.5s-5.33398 148.333 -8.00098 205l35 8l35 -155l16 8l246 176l35 -25l-61 -53c-57.333 -50 -94.333 -111.667 -111 -185s-25 -161 -25 -263
c0 -38 1.66699 -81 5 -129l10 -5c118 100 213.667 172.667 287 218c76 -45.333 155.667 -86.333 239 -123c2.66699 -85.333 4 -149 4 -191c0 -166.667 -13 -316 -39 -448c-174.667 -113.333 -329.667 -200.666 -465 -261.999l-70 62l-75.5 68.5
c-21 19.667 -46.833 45.5 -77.5 77.5zM365.002 251.999l65.501 -65.002c29 -28.667 57.167 -52.667 84.5 -72s50.333 -29 69 -29c34.667 0 64.167 18 88.5 54s41.166 74.667 50.499 116c13.333 56.667 20 126.334 20 209.001c0 96.667 -3.33301 179.334 -10 248.001
c-28.667 16.667 -86 41.667 -172 75c-82.667 -36 -149 -71.333 -199 -106z" />
    <glyph glyph-name="c" unicode="c" horiz-adv-x="797" 
d="M158 170c-7.33301 107.333 -10.999 195.333 -10.999 264c0 128.667 8.33301 231.667 25 309l338 211c60.667 -4.66699 134.334 -34.667 221.001 -90l-106 -162l-21 -6c-76.667 68.667 -157.334 103 -242.001 103c-22 -39.333 -35.667 -85 -41 -137s-8 -114.333 -8 -187
c0 -46.667 3 -106.667 9 -180c28 -30.667 57.333 -60.5 88 -89.5l92 -86.5c22 6 43.167 13.667 63.5 23s41.166 19.833 62.499 31.5l89 49.5l18 -35l-352 -247c-39.333 33.333 -75 66.5 -107 99.5s-71.333 76.167 -118 129.5z" />
    <glyph glyph-name="d" unicode="d" horiz-adv-x="1020" 
d="M156 166c-2.66699 40.667 -4.00098 102.006 -4.00098 184.006c0 33.333 2 82.666 6 147.999s6 113 6 143c0 5.33301 -1 12.333 -3 21s-3 12.667 -3 12c0 11.333 38.667 49.666 116 114.999s130 107.333 158 126l39 -8c-10.667 -10.667 -24.5 -27.334 -41.5 -50.001
s-31.833 -40.667 -44.5 -54c-26 -30 -44.833 -72 -56.5 -126s-17.5 -107 -17.5 -159c0 -55.333 5 -136 15 -242c13.333 -17.333 37 -39.5 71 -66.5s70 -52.333 108 -76s64.333 -35.5 79 -35.5c28 0 54.333 40.667 79 122s40 148 46 200c4 42.667 6 85 6 127
c0 84.667 -9 174.667 -27 270c-194 200.667 -357.667 301 -491 301c-28.667 0 -45.334 -0.666992 -50.001 -2l-94 -37l-26 31c70.667 40.667 161.334 87 272.001 139c174.667 -48.667 366.334 -155 575.001 -319c2 -38.667 3 -95.334 3 -170.001
c0 -66 -1.5 -131.167 -4.5 -195.5s-9.5 -126.666 -19.5 -186.999s-25.333 -115.833 -46 -166.5l-369 -279c-38.667 25.333 -73.167 49.166 -103.5 71.499s-60.333 46.666 -90 72.999s-59.167 56.166 -88.5 89.499z" />
    <glyph glyph-name="e" unicode="e" horiz-adv-x="819" 
d="M156 174c-8.66699 71.333 -13.0029 145.668 -13.0029 223.001c0 109.333 9.66699 227 29 353l332 206c34.667 -44 71.834 -83.833 111.501 -119.5s82.834 -70.167 129.501 -103.5c-210 -198.667 -355.333 -329.667 -436 -393c0 -14 1.33301 -33 4 -57
c72 -74.667 142.333 -127.334 211 -158.001c12.667 0 22.334 1.33301 29.001 4l170 82l10 -33c-120.667 -94 -236 -174.333 -346 -241c-107.333 98.667 -184.333 177.667 -231 237zM304.997 430.002c120.667 76.667 211.667 147 273 211c-87.333 54.667 -160 112 -218 172
c-22.667 0 -37.5 -44 -44.5 -132s-10.5 -171.667 -10.5 -251z" />
    <glyph glyph-name="f" unicode="f" horiz-adv-x="668" 
d="M178 -449l75.999 277.003c6.66699 65.333 10 124.666 10 177.999v713h-203l72 72h131c-0.666992 4.66699 -7.66699 31.667 -21 81s-22.5 84.166 -27.5 104.499s-10.833 48.166 -17.5 83.499s-10 61 -10 77c52 81.333 121 167.333 207 258
c14.667 -12 30.334 -23.333 47.001 -34s33 -19 49 -25s32 -9 48 -9c24 0 50.333 9 79 27l15 -19l-125 -137c-58.667 0 -125.667 8.33301 -201 25c0 -32.667 4 -64.167 12 -94.5s19.667 -63.833 35 -100.5c20 -49.333 35.333 -90.5 46 -123.5s16 -66.833 16 -101.5l248 -12
l-60 -72h-188v-635c0 -90 -9.66699 -165 -29 -225l-160 -310z" />
    <glyph glyph-name="g" unicode="g" horiz-adv-x="1030" 
d="M55 -295l-22 27l268 227l-141 174c-5.33301 90.667 -8 159 -8 205c0 143.333 10.667 282 32 416c92.667 65.333 202.667 135 330 209c62.667 -42 140.667 -73.667 234 -95l147 84l10 -12c-30 -84.667 -45 -295.667 -45 -633c0 -24 4.16699 -56.333 12.5 -97
s19 -86 32 -136s22.167 -87 27.5 -111l-166.5 -199.5c-56.333 -64.333 -112.166 -122.833 -167.499 -175.5c-44.667 -10.667 -69.334 -16 -74.001 -16c-118.667 0 -251 56.667 -397 170zM303 -117c108.667 -106 209 -159 301 -159c52 0 89 14.333 111 43s33 68.667 33 120
c0 26.667 -16.667 127.667 -50 303l-215.5 -160c-63.667 -49.333 -123.5 -98.333 -179.5 -147zM328 254c19.333 -23.333 39.666 -45.832 60.999 -67.499l82 -80.5l225 146c0 159.333 6.33301 315 19 467c-124 14.667 -240.667 40.667 -350 78
c-19.333 -36 -32.166 -74.833 -38.499 -116.5s-9.5 -91.167 -9.5 -148.5c0 -110.667 3.66699 -203.334 11 -278.001z" />
    <glyph glyph-name="h" unicode="h" horiz-adv-x="1067" 
d="M463 -377l135.001 113c56 45.333 91.5 130 106.5 254s22.5 259 22.5 405c0 36.667 -6.66699 146 -20 328c-66.667 50.667 -127 76 -181 76c-24.667 0 -88 -34.333 -190 -103v-448c8 -16 23.333 -39.833 46 -71.5l54 -76.5l-168 -153
c-15.333 29.333 -35.5 64.833 -60.5 106.5s-42.167 68.167 -51.5 79.5c16 248 24 495 24 741c0 180.667 -4.66699 349.334 -14 506.001l24 6l50 -157l247 182l35 -25c-54.667 -47.333 -99.334 -102 -134.001 -164s-52 -126 -52 -192v-270c43.333 34 144.333 107 303 219
c56.667 -52.667 136 -94.334 238 -125.001c8 -156 12 -272.667 12 -350c0 -83.333 -1 -153.666 -3 -210.999s-7 -118 -15 -182s-19.667 -122 -35 -174c-32 -42.667 -64.833 -83.334 -98.5 -122.001l-108.5 -119l-115 -118z" />
    <glyph glyph-name="i" unicode="i" horiz-adv-x="571" 
d="M186 113c11.333 80 16.999 173.335 16.999 280.002c0 111.333 -7 231 -21 359c-12 16 -25.667 31.667 -41 47c-10.667 -2.66699 -39.334 -17 -86.001 -43l-26 26c68.667 57.333 140.334 120.333 215.001 189c43.333 -45.333 84.333 -82.333 123 -111
c-18 -134.667 -27 -262.334 -27 -383.001c0 -52.667 1.33301 -95.667 4 -129s10.334 -67.333 23.001 -102s32.334 -65.334 59.001 -92.001c2.66699 0 5.5 1.5 8.5 4.5s6.16699 4.83301 9.5 5.5l91 45l14 -39c-84.667 -78.667 -169.334 -149.667 -254.001 -213zM265.999 1137
c-38 34.667 -77.667 76.999 -119 126.999c13.333 13.333 33.166 31.333 59.499 54s47.5 43.334 63.5 62.001c52.667 -62 90.334 -101.333 113.001 -118z" />
    <glyph glyph-name="j" unicode="j" horiz-adv-x="573" 
d="M-18 -377c65.333 50 115.334 91.668 150.001 125.001s59 72.333 73 117c9.33301 26.667 16.5 60.5 21.5 101.5s8.66699 86.833 11 137.5s3.66602 99.167 3.99902 145.5s0.5 101.833 0.5 166.5c0 162 -7 263.667 -21 305c-4.66699 13.333 -14.5 29.666 -29.5 48.999
s-27.5 29 -37.5 29l-74 -47l-29 24l215 197c34.667 -34.667 79 -71 133 -109c1.33301 -65.333 2 -163 2 -293c0 -208 -4 -380.667 -12 -518c-5.33301 -68 -20.333 -115.667 -45 -143l-305 -336zM256.001 1135c-26 22.667 -63 64.999 -111 126.999l125 116
c32.667 -45.333 67.667 -85.666 105 -120.999z" />
    <glyph glyph-name="k" unicode="k" horiz-adv-x="797" 
d="M180 141c10 42.667 15.002 109.665 15.002 200.998c0 64 -0.666992 112.333 -2 145c0 17.333 -0.333008 40 -1 68s-1.33398 54 -2.00098 78h-141l55 67h86l-14 672l29 6l49 -149c109.333 88.667 192.666 149.334 249.999 182.001l45 -18
c-54 -50 -93.833 -89.833 -119.5 -119.5s-46.334 -65.334 -62.001 -107.001s-23.5 -91.167 -23.5 -148.5c30.667 24 68 50 112 78l156 100c82 -77.333 123 -147 123 -209c0 -41.333 -13 -74.666 -39 -99.999l-176 -187h189l-56 -67h-291v-371
c64.667 -63.333 117.334 -109.666 158.001 -138.999l201 98l20 -26c-40.667 -36 -88.667 -73.333 -144 -112l-200 -136zM344.002 699.998c39.333 0 78.168 9.5 116.501 28.5s69.5 44.667 93.5 77s36 67.5 36 105.5c0 46.667 -32 96 -96 148
c-46.667 -23.333 -80.834 -52.5 -102.501 -87.5s-35 -72.5 -40 -112.5s-7.5 -93 -7.5 -159z" />
    <glyph glyph-name="l" unicode="l" horiz-adv-x="571" 
d="M303 -41l-102.002 156c12 220.667 18 441 18 661c0 182.667 -5.33301 378 -16 586l28 14l50 -155c120.667 88.667 207.334 149.334 260.001 182.001l26 -23c-58.667 -49.333 -103.5 -96.166 -134.5 -140.499s-52.5 -93 -64.5 -146s-18 -117.833 -18 -194.5
c0 -51.333 0.666992 -99 2 -143s3.33301 -96.167 6 -156.5s4.83398 -116.833 6.50098 -169.5s2.5 -105.334 2.5 -158.001v-32c4.66699 -8 12 -17.333 22 -28s20.667 -20.834 32 -30.501l32 -27.5l94 51l12 -33z" />
    <glyph glyph-name="m" unicode="m" horiz-adv-x="1569" 
d="M180 115c8.66699 72.667 12.998 139.334 12.998 200.001c-0.666992 24 -1.16699 48 -1.5 72s-1.16602 48 -2.49902 72s-2.33301 47.667 -3 71c-5.33301 96 -8 168.667 -8 218l-53 53l-88 -49l-23 24l226 191l102 -107v-92l260 205c92 -55.333 174 -94.333 246 -117v-80
c106 73.333 194 138.333 264 195c117.333 -63.333 200 -102.333 248 -117c-3.33301 -37.333 -6.5 -90.333 -9.5 -159s-4.5 -132.334 -4.5 -191.001c0 -82 2 -164 6 -246c30.667 -46 55 -78 73 -96c44 17.333 78.333 34.333 103 51l12 -35l-250 -217
c-11.333 21.333 -48.666 75.333 -111.999 162c21.333 100.667 32 207 32 319c0 82 -7.33301 168 -22 258c-3.33301 24 -27 43.833 -71 59.5s-88.667 28.167 -134 37.5c-46.667 -22.667 -91.667 -48.667 -135 -78v-443c0 -22.667 2.66699 -37.667 8 -45l94 -135l-176 -149
c-20 44.667 -52 93.667 -96 147c18 75.333 27 168.333 27 279c0 93.333 -7 206 -21 338c-21.333 18.667 -46.5 33.667 -75.5 45s-68.833 24.333 -119.5 39l-147 -84v-400c0 -54.667 3.33301 -86 10 -94l90 -119l-170 -143z" />
    <glyph glyph-name="n" unicode="n" horiz-adv-x="1077" 
d="M170 94c13.333 76.667 19.999 185.334 19.999 326.001c0 80.667 -2.66699 189 -8 325l-49 50l-70 -43l-28 26l213 185c23.333 -24.667 60 -55.667 110 -93v-118l295 221c74 -50 152 -89.667 234 -119c-8.66699 -78 -13 -192.667 -13 -344
c0.666992 -42.667 1.33398 -88.667 2.00098 -138s1 -86.666 1 -111.999c3.33301 -4.66699 10.333 -16.334 21 -35.001s20.5 -32.834 29.5 -42.501s19.167 -14.5 30.5 -14.5c2.66699 0 9 3.33301 19 10l70 41l4 -39l-244 -219l-113 172c11.333 64.667 17 154 17 268
c0 113.333 -3.66699 223.333 -11 330c-48 26.667 -112.667 45 -194 55l-148 -88v-424c0 -32.667 2.33301 -51.667 7 -57l79 -111l-176 -153c-27.333 50 -60 97 -98 141z" />
    <glyph glyph-name="o" unicode="o" horiz-adv-x="999" 
d="M137 139v62.001c0 172 11.667 353.333 35 544c114.667 63.333 234.667 143.333 360 240c102.667 -69.333 203.334 -115 302.001 -137c6.66699 -86.667 10 -164 10 -232c0 -149.333 -14.333 -292 -43 -428l-116.5 -71.5c-28.333 -17 -64 -37.167 -107 -60.5
s-81.167 -42.833 -114.5 -58.5s-75 -33.834 -125 -54.501c-58.667 52 -100.334 90 -125.001 114s-50 51.333 -76 82zM313 252.001c34 -38.667 73.499 -75.668 118.499 -111.001s84.167 -53 117.5 -53c8 0 23 13.667 45 41c24.667 26.667 42.167 57 52.5 91
s18.833 76 25.5 126c10.667 64 16 137 16 219c0 54 -2 108.667 -6 164c-27.333 2 -57.666 7 -90.999 15s-64.166 16.5 -92.499 25.5s-69.5 23.5 -123.5 43.5c-32.667 -40.667 -54.834 -88.667 -66.501 -144s-17.5 -116.666 -17.5 -183.999c0 -73.333 7.33301 -151 22 -233z
" />
    <glyph glyph-name="p" unicode="p" horiz-adv-x="1024" 
d="M160 -414c12 254.667 18.001 424.67 18.001 510.003c-52 0 -95.667 -15.667 -131 -47l-22 29c82.667 76 133.667 121.667 153 137v504l-82 117c-6.66699 8.66699 -10 18 -10 28c0 17.333 9.83301 41.166 29.5 71.499s42 60.666 67 90.999s49.5 58.166 73.5 83.499l29 -20
c-24.667 -29.333 -37 -59 -37 -89c0 -49.333 31.333 -106.666 94 -171.999l-4 -71c53.333 37.333 103.166 74.333 149.499 111l141.5 112c64.667 -52 145 -96.333 241 -133c7.33301 -98.667 11 -192.334 11 -281.001c0 -91.333 -2.66699 -168.5 -8 -231.5
s-18.333 -122.167 -39 -177.5l-275 -226c-74 64 -148.333 103 -223 117c0 -148 2.66699 -280.333 8 -397l-154 -86zM338.001 193.003c48.667 0 95.665 -8.99805 140.998 -26.998s103.333 -45.333 174 -82c18.667 37.333 32.334 76.166 41.001 116.499
s14.334 80.166 17.001 119.499s4 87.666 4 144.999c0 62.667 -4.33301 147.334 -13 254.001c-34.667 18 -94.667 42.667 -180 74c-58 -20.667 -118.667 -55.667 -182 -105z" />
    <glyph glyph-name="q" unicode="q" horiz-adv-x="1001" 
d="M297 -59l-170 192c-4 62 -6 123.333 -6 184c0 78 3.83301 153.333 11.5 226s19.5 143.667 35.5 213c150 80.667 262.667 151 338 211c78 -46 141.333 -73.333 190 -82l142 96l18 -14c-18.667 -121.333 -30.167 -254.333 -34.5 -399s-6.5 -317 -6.5 -517
c0 -77.333 1.16699 -148.833 3.5 -214.5s6.5 -133.5 12.5 -203.5l-153 -82l-41 35c7.33301 95.333 12.5 186.833 15.5 274.5s5.16699 199.167 6.5 334.5c-32 -27.333 -68.5 -56 -109.5 -86s-82.167 -58.5 -123.5 -85.5zM297 254c7.33301 -7.33301 25.832 -27 55.499 -59
s54.834 -57.333 75.501 -76l225 135c-0.666992 10.667 -1.16699 26.167 -1.5 46.5s-0.5 36.833 -0.5 49.5v41c0 124 4.33301 244.333 13 361c-89.333 3.33301 -192 24.333 -308 63c-29.333 -53.333 -48.833 -113.5 -58.5 -180.5s-14.5 -141.833 -14.5 -224.5
c0 -89.333 4.66699 -141.333 14 -156z" />
    <glyph glyph-name="r" unicode="r" horiz-adv-x="797" 
d="M199 154c12 100.667 18.002 184.668 18.002 252.001c0 48.667 -1.33301 112.667 -4 192s-7.33398 123 -14.001 131c-1.33301 0.666992 -2.66602 3.66699 -3.99902 9s-3 8.66602 -5 9.99902c-8.66699 7.33301 -15.834 13 -21.501 17s-17.5 13.333 -35.5 28l-78 -33l-24 18
l109 107.5c28 27 60.667 55.5 98 85.5c50.667 -50.667 95.667 -92.334 135 -125.001v-64l223 179c50.667 -98.667 95.667 -148 135 -148c8 0 19.167 3.66699 33.5 11s23.166 11.333 26.499 12l2 -29c-12 -12 -30.5 -29.167 -55.5 -51.5l-53.5 -48.5
c-13.333 -14 -36 -21 -68 -21c-17.333 0 -35.333 4.83301 -54 14.5s-34.667 19.834 -48 30.501l-55 45l-86 -82v-383c0 -48 49 -110.667 147 -188l182 86l7 -39l-299 -213c-58 45.333 -128.333 111 -211 197z" />
    <glyph glyph-name="s" unicode="s" horiz-adv-x="905" 
d="M-18 20l-19.0029 27l34.5 37l35.5 37l61 59c33.333 31.333 79 47 137 47c52 0 101.333 -15 148 -45l166 -110c2.66699 -2.66699 7.33398 -4 14.001 -4c11.333 0 20.5 14.667 27.5 44s12 62 15 98s4.5 61.667 4.5 77c0 80.667 -8 129 -24 145c-30 30 -53.333 45 -70 45
c-30.667 0 -58 -6.66699 -82 -20l-209 -115c-22 26 -48.667 68.333 -80 127v57v95c0 66.667 0.666992 116.334 2 149.001l314 209c6.66699 -4.66699 30.5 -19.167 71.5 -43.5s69.5 -44.833 85.5 -61.5c11.333 -12 31.333 -18 60 -18c20 0 41.5 7.16699 64.5 21.5
s51.833 35.833 86.5 64.5l9 -41l-189 -160c-53.333 4 -104.666 12.5 -153.999 25.5s-106.666 32.5 -171.999 58.5c-10.667 -16 -17.667 -34.833 -21 -56.5s-5 -48.5 -5 -80.5c0 -34.667 4.83301 -75.334 14.5 -122.001s26.5 -70 50.5 -70c16.667 0 28.334 1.33301 35.001 4
l252 114c29.333 -11.333 67.666 -37 114.999 -77c4 -54 6 -108 6 -162c0 -102 -11 -193 -33 -273c-134 -56.667 -243 -111 -327 -163c-114 104.667 -201.667 157 -263 157c-49.333 0 -103 -25.333 -161 -76z" />
    <glyph glyph-name="t" unicode="t" horiz-adv-x="682" 
d="M227 127l6.00098 596h-180l76 74h109c0 28 0.666992 69.333 2 124s2 95.667 2 123c0 42.667 -0.666992 75 -2 97l227 170l27 -27l-56 -53c-24.667 -26 -37 -170.667 -37 -434h217l-61 -74h-158c0 -250 1.33301 -407 4 -471l53 -49c20 -18 39.5 -33.167 58.5 -45.5
s35.833 -18.5 50.5 -18.5c5.33301 0 9.66602 0.666992 12.999 2l129 64l8 -45l-281 -203z" />
    <glyph glyph-name="u" unicode="u" horiz-adv-x="1059" 
d="M113 98c61.333 64 91.999 211.666 91.999 442.999c0 130.667 -26 220.667 -78 270l-80 -41l-31 21l228 180c41.333 -50.667 76.666 -87 105.999 -109v-143c0 -113.333 -3.16699 -208.666 -9.5 -285.999s-20.166 -151.333 -41.499 -222l201 -94l186 102
c5.33301 93.333 8 196.333 8 309c0 114.667 -2 228 -6 340l172 90l14 -14c-21.333 -189.333 -32 -351 -32 -485c0 -192.667 29.333 -289 88 -289c12.667 0 48.667 13.667 108 41l13 -31c-35.333 -28 -76.5 -62.667 -123.5 -104l-124.5 -113l-17 4
c-26 68.667 -60.667 133 -104 193c-120 -61.333 -212 -124.333 -276 -189c-13.333 -12 -23.666 -18 -30.999 -18s-16.333 4 -27 12c-44 34 -83.667 62.167 -119 84.5s-74 38.5 -116 48.5z" />
    <glyph glyph-name="v" unicode="v" horiz-adv-x="1047" 
d="M188 129c6 74 9 160 9 258c0 91.333 -3 204.666 -9 339.999l-35 50.5c-10.667 15 -20 29.333 -28 43s-12 24.167 -12 31.5c0 22 7.33301 47 22 75s33.167 56.667 55.5 86l55.5 72l35 -6c-19.333 -30.667 -29 -58 -29 -82c0 -50.667 31.333 -106 94 -166l4 -71l299 217
c77.333 -51.333 156 -93 236 -125c2.66699 -93.333 4 -161.666 4 -204.999c0 -104 -3.33301 -193.5 -10 -268.5s-22.667 -142.5 -48 -202.5l-438 -233c-24 26.667 -54.667 57 -92 91s-75 65.667 -113 95zM424 190l78 -59.0029c25.333 -20.667 52 -31 80 -31
c26.667 0 50 12.667 70 38s35.333 53 46 83c24.667 68.667 37 159.667 37 273c0 74 -5.33301 153.667 -16 239c-40.667 35.333 -99.334 61.333 -176.001 78c-51.333 -20.667 -113 -56 -185 -106c0 -16 -0.666992 -42.667 -2 -80s-2.16602 -65.666 -2.49902 -84.999
s-1 -44.166 -2 -74.499s-1.5 -57.166 -1.5 -80.499c0 -48.667 4.5 -87.5 13.5 -116.5s29.167 -55.167 60.5 -78.5z" />
    <glyph glyph-name="w" unicode="w" horiz-adv-x="1583" 
d="M160 106c13.333 87.333 19.999 193.332 19.999 317.999c0 67.333 -1.16699 134.666 -3.5 201.999s-8.5 109.333 -18.5 126l-23.5 30.5c-7.66699 10.333 -14.5 20.166 -20.5 29.499s-11.167 19.5 -15.5 30.5s-6.5 20.833 -6.5 29.5c0 18.667 20.167 52.834 60.5 102.501
s74.166 88.167 101.499 115.5l27 -7c-22 -36 -33 -68 -33 -96c0 -21.333 9.66699 -45.833 29 -73.5s41 -53.5 65 -77.5l2 -66c104.667 72.667 188.667 139 252 199c38 -26 76.167 -48.833 114.5 -68.5s87.5 -43.5 147.5 -71.5l-2 -75l291 211
c90 -55.333 175.333 -100.666 256 -135.999c4 -54.667 6 -109.667 6 -165c0 -199.333 -25.333 -371.666 -76 -516.999l-383 -204c-90.667 56.667 -182 107 -274 151c12 142.667 18 262.334 18 359.001c0 81.333 -4 163 -12 245c-27.333 20 -59.166 41.5 -95.499 64.5
s-64.5 34.5 -84.5 34.5c-12 0 -24.333 -3.66699 -37 -11l-73.5 -42c-21 -12 -38.167 -22.333 -51.5 -31c-2.66699 -46.667 -4 -176.334 -4 -389.001c0 -74.667 32.667 -150 98 -226l-153 -153c-41.333 69.333 -81.666 123 -120.999 161zM902.999 192.999
c29.333 -29.333 64.001 -53.832 104.001 -73.499s78.333 -29.5 115 -29.5c45.333 0 79 56.667 101 170c10.667 70 16 163.667 16 281c0 37.333 -5.33301 94.666 -16 171.999c-48.667 30.667 -112.334 55.667 -191.001 75l-176 -88c-1.33301 -47.333 -2 -119 -2 -215
c0 -68 2.66699 -126.167 8 -174.5s19 -87.5 41 -117.5z" />
    <glyph glyph-name="x" unicode="x" horiz-adv-x="795" 
d="M20 -201c0 31.333 11.5 67.668 34.5 109.001s48.333 79.5 76 114.5s58.5 71.833 92.5 110.5c8.66699 74.667 13 161.334 13 260.001c0 81.333 -5 191.333 -15 330c-4 4.66699 -11.5 12.667 -22.5 24s-22 21.5 -33 30.5s-19.833 13.5 -26.5 13.5c-4 0 -12 -3 -24 -9
l-60 -28l-26 18l107 102.5l104 92.5l71.5 -61l83.5 -72l-2 -66l223 184c45.333 -74 87.666 -125 126.999 -153l-122 -105c-9.33301 4 -18 10.333 -26 19s-16.5 19.5 -25.5 32.5s-18.167 23.833 -27.5 32.5s-19.333 13 -30 13c-11.333 0 -30 -12 -56 -36s-45 -43.667 -57 -59
c-9.33301 -41.333 -14 -95 -14 -161s4 -164.333 12 -295l50 -49c18.667 -18 38 -34.167 58 -48.5s36 -21.5 48 -21.5c9.33301 0 19 3.33301 29 10l147 76l4 -43l-303 -215c-42 47.333 -99.333 97.666 -172 150.999c-38.667 -37.333 -69.167 -72.5 -91.5 -105.5
s-33.5 -68.167 -33.5 -105.5c0 -56 20.833 -96.333 62.5 -121s98.834 -45 171.501 -61l2 -18l-117 -74c-154.667 39.333 -232 100.666 -232 183.999z" />
    <glyph glyph-name="y" unicode="y" horiz-adv-x="1020" 
d="M377 -412c74.667 35.333 135 74.333 181 117s82 100 108 172c14.667 43.333 25.834 93.5 33.501 150.5s12.5 113.167 14.5 168.5s3 119 3 191c0 112.667 -7.66699 226.667 -23 342c-48.667 30.667 -101 54.667 -157 72c-77.333 -33.333 -145 -71.666 -203 -114.999v-459
l108 -135l-174 -145c-36.667 61.333 -75.334 118.666 -116.001 171.999c14 57.333 22.5 115.666 25.5 174.999s4.5 134.666 4.5 225.999c0 38.667 -1.33301 97.334 -4 176.001l-10 23c-32.667 46.667 -58 86.334 -76 119.001c28 70.667 74.333 151.667 139 243l33 -8
c-17.333 -32 -26 -61.333 -26 -88c0 -19.333 7.16699 -39.833 21.5 -61.5s39.166 -54.5 74.499 -98.5v-80l303 224c90.667 -56 169 -97 235 -123c7.33301 -198 11 -334 11 -408c0 -75.333 -1.66699 -146.333 -5 -213s-12.166 -133.5 -26.499 -200.5
s-36.833 -116.833 -67.5 -149.5l-331 -324z" />
    <glyph glyph-name="z" unicode="z" horiz-adv-x="799" 
d="M-14 -238c84.667 154.667 230.669 334.334 438.002 539.001c-86.667 40 -161.667 62.667 -225 68v24l149 135c23.333 22 41.166 41.667 53.499 59s18.5 36.666 18.5 57.999c0 22.667 -6.5 45.5 -19.5 68.5s-30 42.333 -51 58s-42.5 23.5 -64.5 23.5
c-25.333 0 -51.333 -9 -78 -27s-63.667 -45.333 -111 -82l-22 25c100 100 199.667 184.667 299 254c49.333 -24 96.5 -54.667 141.5 -92s67.5 -75.666 67.5 -114.999c0 -25.333 -10.333 -50 -31 -74l-154 -182c92.667 -32.667 165 -64.667 217 -96
c19.333 -76.667 29 -168.334 29 -275.001c0 -100 -16.333 -211.333 -49 -334l-281 -235c-44 0 -90 7.5 -138 22.5s-89.333 37.5 -124 67.5s-56.334 66.667 -65.001 110zM147.002 -150c0 -44 25.999 -82.499 77.999 -115.499s102 -49.5 150 -49.5
c50.667 0 82.834 37.667 96.501 113s20.5 156.333 20.5 243c0 84.667 -11.667 159.667 -35 225c-79.333 -66.667 -150.833 -137.334 -214.5 -212.001s-95.5 -142.667 -95.5 -204z" />
    <glyph glyph-name="quotedbl" unicode="}" horiz-adv-x="438" 
d="M68 885l-41 311c-7.33301 51.333 -11 101.333 -11 150c0 51.333 24 77 72 77c16.667 0 32.167 -3.5 46.5 -10.5s21.5 -17.833 21.5 -32.5v-104l-43 -391h-45zM317 885l-45 392.999c-6.66699 48 -10 77.333 -10 88c0 34 26.667 51 80 51c15.333 0 29 -3.16699 41 -9.5
s18 -16.833 18 -31.5c0 -43.333 -0.666992 -74.666 -2 -93.999l-39 -397h-43z" />
    <glyph glyph-name="hardspace" unicode="&#xa0;" horiz-adv-x="682" 
 />
    <glyph glyph-name="dadv" unicode="&#xa1;" horiz-adv-x="1018" 
d="M158 168c-2.66699 81.333 -4 143.999 -4 187.999c0 131.333 8 249 24 353l203 161c-77.333 30.667 -134.5 59.5 -171.5 86.5s-55.5 68.5 -55.5 124.5c0 59.333 14.833 115.666 44.5 168.999s68.5 103 116.5 149l25 -19c-40.667 -46.667 -61 -99.667 -61 -159
c0 -67.333 34.667 -123.833 104 -169.5s147.5 -79.834 234.5 -102.501s172.5 -40 256.5 -52c4.66699 -46 7 -96.667 7 -152c0 -91.333 -6.16699 -183.166 -18.5 -275.499s-31.5 -181.166 -57.5 -266.499l-361 -271c-112 76.667 -207.333 155.334 -286 236.001zM328 259.999
c68 -60 127.333 -103.667 178 -131c28 -16.667 49.667 -25 65 -25c37.333 0 66.5 34.5 87.5 103.5s35 145.5 42 229.5s10.5 150 10.5 198c0 23.333 -3.66699 65 -11 125l-276 96c-70 -81.333 -105 -213 -105 -395c0 -10 -0.5 -23.833 -1.5 -41.5l-3 -53.5
c-1 -18 -1.5 -32 -1.5 -42c0 -32 5 -53.333 15 -64z" />
    <glyph glyph-name="dalt" unicode="&#xa2;" horiz-adv-x="1020" 
d="M160 168c-2.66699 78.667 -3.99902 138.002 -3.99902 178.002c0 131.333 8 261.666 24 390.999c61.333 58 148 126.333 260 205l39 -20l-123 -125c-15.333 -36.667 -25.333 -76 -30 -118s-7 -89.333 -7 -142c0 -61.333 5 -144.666 15 -249.999
c1.33301 -12.667 9.33301 -26.334 24 -41.001c20 -20 39.667 -37 59 -51l79.5 -55c33.667 -22.667 58.5 -40 74.5 -52c93.333 104 140 289.667 140 557c0 50.667 -3 112.667 -9 186c-49.333 50.667 -99.5 96 -150.5 136s-106.5 76.667 -166.5 110s-120 59.333 -180 78
l-125 -27l-8 37c71.333 36.667 155.333 69 252 97c110.667 -33.333 213 -76.333 307 -129s176.667 -117.667 248 -195c4 -56.667 6 -115.334 6 -176.001c0 -103.333 -5.83301 -200.833 -17.5 -292.5s-32.5 -178.5 -62.5 -260.5c-92 -76 -220.333 -166 -385 -270
c-82.667 62 -169.334 138.333 -260.001 229z" />
    <glyph glyph-name="fnos" unicode="&#xa3;" horiz-adv-x="682" 
d="M186 -438c34.667 90 57.999 171.835 69.999 245.502s18 162.5 18 266.5c0 86.667 -3 203.167 -9 349.5s-9 246.833 -9 301.5h-197l62 63h131c-10.667 124 -16 216.333 -16 277c0 43.333 11.5 91 34.5 143s53.167 95.833 90.5 131.5s77.333 53.5 120 53.5
c40.667 0 87.334 -20 140.001 -60c8 -5.33301 14 -8 18 -8c4.66699 0 10 2 16 6s12.333 9 19 15l16 14l4 -31l-145 -170c-41.333 46.667 -83.666 70 -126.999 70c-33.333 0 -62.833 -11.5 -88.5 -34.5s-38.5 -50.5 -38.5 -82.5c0 -44.667 11.667 -91.334 35 -140.001
s57.333 -110 102 -184h234l-56 -63h-172c0 -128.667 -0.833008 -236.5 -2.5 -323.5s-5.83398 -176.833 -12.501 -269.5s-16.667 -184.334 -30 -275.001l-157 -299z" />
    <glyph glyph-name="falt" unicode="&#xa4;" horiz-adv-x="674" 
d="M168 -444c38 120.667 61.167 227.167 69.5 319.5s12.5 221.166 12.5 386.499c0 -2 -1.33301 60.333 -4 187c-0.666992 24 -1.16699 48.333 -1.5 73s-0.833008 49.167 -1.5 73.5s-1.16699 47.5 -1.5 69.5s-0.833008 43.333 -1.5 64h-183l78 66h107l-29 133
c-18 92 -27 143 -27 153c0 58.667 19.833 114.334 59.5 167.001s88.834 99.667 147.501 141c8.66699 1.33301 21 2 37 2c88 0 160.333 -27.333 217 -82l-96 -189l-21 -2c-10 23.333 -22.5 45.166 -37.5 65.499s-32.5 37.333 -52.5 51s-42.333 20.5 -67 20.5
c-30 0 -54.667 -9.66699 -74 -29s-29 -43.666 -29 -72.999c0 -20.667 13.667 -57.667 41 -111l103 -196c9.33301 -19.333 14.666 -36.333 15.999 -51h221l-45 -66h-184c0 -47.333 -1.33301 -119 -4 -215c-2.66699 -98.667 -4 -171 -4 -217
c0 -97.333 -1.83301 -175.5 -5.5 -234.5s-13.667 -118.833 -30 -179.5s-42.833 -124 -79.5 -190l-92 -152z" />
    <glyph glyph-name="galt" unicode="&#xa5;" horiz-adv-x="1030" 
d="M104 -293l79.999 194.997l21 2c12 -45.333 33.833 -83.666 65.5 -114.999s69.667 -55.166 114 -71.499s89.5 -24.5 135.5 -24.5c37.333 0 73.333 8 108 24s62.5 38.333 83.5 67s31.5 62.334 31.5 101.001c0 47.333 -16.333 152.666 -49 315.999l-368 -264l-168 196
c-4 74 -6 149 -6 225c0 58 0.666992 105.333 2 142s4.5 76.834 9.5 120.501s11.833 86.167 20.5 127.5c166 116.667 275.333 189 328 217c57.333 -36.667 136.666 -70.334 237.999 -101.001l159 88l11 -20c-24 -49.333 -40.333 -106.5 -49 -171.5s-13 -136.167 -13 -213.5
l-4 -271l31.5 -211.5c7.66699 -53 11.5 -86.833 11.5 -101.5c0 -23.333 -5.33301 -47.333 -16 -72l-256 -284c-42.667 -30 -97.334 -45 -164.001 -45c-43.333 0 -86.666 5.66699 -129.999 17s-83.666 27.333 -120.999 48s-72.666 47.334 -105.999 80.001zM329.999 249.997
c42 -50.667 84.334 -93.668 127.001 -129.001l241 139l13 467c-38 2.66699 -75.833 7.33398 -113.5 14.001s-75.5 15.167 -113.5 25.5s-77 22.5 -117 36.5c-20.667 -45.333 -33.334 -94.5 -38.001 -147.5s-7 -117.167 -7 -192.5c0 -50 2.66699 -121 8 -213z" />
    <glyph glyph-name="kalt" unicode="&#xa6;" horiz-adv-x="682" 
d="M168 123c3.33301 8 5.66602 54.166 6.99902 138.499s2.16602 168 2.49902 251s0.5 154.5 0.5 214.5h-127l99 72h38c0 128 -1.16699 236 -3.5 324s-7.83301 167 -16.5 237l27 12l53 -149c124.667 91.333 212.667 152.666 264 183.999l35 -16
c-74.667 -59.333 -126.5 -113.166 -155.5 -161.499s-43.5 -116.166 -43.5 -203.499l211 166c35.333 -51.333 64 -104.666 86 -159.999l-74 -112l-33 41.5c-10.667 13 -21 24.667 -31 35s-20.5 19.5 -31.5 27.5s-21.5 12 -31.5 12c-28 0 -50 -13.833 -66 -41.5
s-27 -60.334 -33 -98.001s-9 -70.167 -9 -97.5h235l-51 -72h-178c0.666992 -40 1.33398 -83.667 2.00098 -131s1.33398 -91.333 2.00098 -132s1.16699 -74.667 1.5 -102s0.5 -68 0.5 -122l119 -99c6.66699 -6.66699 14 -10 22 -10c4.66699 0 13.667 3.33301 27 10l121 62
l2 -47l-285 -197c-63.333 66 -125.333 120.667 -186 164z" />
    <glyph glyph-name="talt" unicode="&#xa7;" horiz-adv-x="684" 
d="M238 123c1.33301 13.333 2.83301 51.834 4.5 115.501s2.66699 141.5 3 233.5s0.5 175.667 0.5 251h-187l74 78h109c0 129.333 -1.33301 226.333 -4 291l168 92l20 -10c-4.66699 -27.333 -9 -63 -13 -107s-6.66699 -85.333 -8 -124s-2 -85.334 -2 -140.001h254l-55 -80
h-194c0 -92.667 0.333008 -194.667 1 -306s1 -166.333 1 -165c87.333 -76.667 139 -115 155 -115c7.33301 0 15 2 23 6l112 64l11 -35l-279 -215z" />
    <glyph glyph-name="ualt" unicode="&#xa8;" horiz-adv-x="1024" 
d="M119 94c37.333 34.667 61.332 93.001 71.999 175.001s16 172.667 16 272c0 132.667 -24.667 221.334 -74 266.001l-84 -41l-29 22l224 185c34.667 -44.667 70 -81.667 106 -111c2.66699 -70.667 4 -178.334 4 -323.001c0 -111.333 -19 -221.333 -57 -330
c78 -25.333 144.333 -55.333 199 -90l194 92v-51c-87.333 -42.667 -183 -106.334 -287 -191.001c-11.333 -9.33301 -23.333 -14 -36 -14c-7.33301 0 -11.666 0.666992 -12.999 2c-38.667 32 -79 61.667 -121 89s-80 43.333 -114 48zM790.999 -30.999
c-30 73.333 -63 136.334 -99 189.001l-2 53c5.33301 58 8 139.333 8 244c0 44.667 -1 113.667 -3 207s-3.66699 161.333 -5 204l174 95l15 -17c-22 -130.667 -33 -291.667 -33 -483c0 -70 4.66699 -135 14 -195c2.66699 -16 11.167 -36.333 25.5 -61s27.833 -37 40.5 -37
c2.66699 0 6 0.666992 10 2s8.66699 2.66602 14 3.99902l92 37l13 -31c-84 -67.333 -166 -141 -246 -221z" />
    <glyph glyph-name="quoteleft" unicode="&#xb5;" horiz-adv-x="438" 
d="M240 840c-33.333 0 -66.333 34.501 -99 103.501s-49 123.167 -49 162.5c0 70 65 184.667 195 344l26 -29c-26 -46 -48.833 -90.167 -68.5 -132.5s-29.5 -77.833 -29.5 -106.5c0 -34.667 9.66699 -65.334 29 -92.001l63 -103c12.667 -16.667 19 -35 19 -55
s-9.33301 -40.333 -28 -61s-38 -31 -58 -31z" />
    <glyph glyph-name="quoteright" unicode="&#xb6;" horiz-adv-x="438" 
d="M119 831c32.667 55.333 57.167 100.334 73.5 135.001s24.5 71 24.5 109c0 26.667 -9 53.334 -27 80.001l-71 115c-12.667 17.333 -19 37 -19 59c0 23.333 8.83301 43.833 26.5 61.5s37.5 26.5 59.5 26.5c21.333 0 43.5 -16.833 66.5 -50.5s42.333 -72.334 58 -116.001
s23.5 -76.167 23.5 -97.5c0 -38 -9.5 -76.333 -28.5 -115s-45.667 -81.334 -80 -128.001s-58.833 -81 -73.5 -103z" />
    <glyph glyph-name="onealt" unicode="&#xc4;" horiz-adv-x="774" 
d="M326 -4c1.33301 47.333 2.66699 118.666 4 213.999s2.33301 178.666 3 249.999s1 136.666 1 195.999v196c0 140.667 -3.33301 244.334 -10 311.001c-2 18 -9.5 33.5 -22.5 46.5s-28.167 19.5 -45.5 19.5h-145v47l395 164l14 -13c-2.66699 -62 -5.66699 -139.667 -9 -233
s-5.33301 -161.666 -6 -204.999s-1 -85.666 -1 -126.999c0 -124 0.333008 -230.5 1 -319.5s2 -174 4 -255s5.66699 -165.167 11 -252.5l-174 -55z" />
    <glyph glyph-name=".null" horiz-adv-x="0" 
 />
    <glyph glyph-name="nonmarkingreturn" horiz-adv-x="0" 
 />
  </font>
</defs>
</svg>
