<?xml version="1.0" standalone="no"?>
<!DOCTYPE svg PUBLIC "-//W3C//DTD SVG 1.1//EN" "http://www.w3.org/Graphics/SVG/1.1/DTD/svg11.dtd" >
<svg xmlns="http://www.w3.org/2000/svg" xmlns:xlink="http://www.w3.org/1999/xlink" version="1.1">
<metadata>
Created by FontForge 20201107 at Sun May 16 23:40:30 2021
 By Unknown
</metadata>
<defs>
<font id="Cmr7" horiz-adv-x="1827" >
  <font-face 
    font-family="cmr7"
    font-weight="400"
    font-stretch="normal"
    units-per-em="2048"
    panose-1="0 0 0 0 0 0 0 0 0 0"
    ascent="1638"
    descent="-410"
    x-height="882.999"
    cap-height="1399"
    bbox="-94 -1948 3052 2257"
    underline-thickness="20"
    underline-position="-603"
    unicode-range="U+0020-FB04"
  />
<missing-glyph horiz-adv-x="1536" 
d="M256 0v1280h1024v-1280h-1024zM1247 33v1214h-958v-1214h958z" />
    <glyph glyph-name=".notdef" horiz-adv-x="1536" 
d="M256 0v1280h1024v-1280h-1024zM1247 33v1214h-958v-1214h958z" />
    <glyph glyph-name="space" unicode=" " horiz-adv-x="788" 
 />
    <glyph glyph-name="exclam" unicode="!" horiz-adv-x="662" 
d="M369 444c-2 -21.333 -5.49609 -34.498 -10.4961 -39.498s-13.833 -7.5 -26.5 -7.5c-7.33301 0 -13.333 0.5 -18 1.5s-8.33398 3.16699 -11.001 6.5s-4.83398 8.16602 -6.50098 14.499s-2.83398 15.166 -3.50098 26.499l-80 904c0 17.333 3.33301 32.833 10 46.5
s15.667 25.334 27 35.001s24 17.167 38 22.5s28.667 8 44 8c13.333 0 26.833 -2.33301 40.5 -7s26.167 -11.834 37.5 -21.501s20.666 -21.5 27.999 -35.5s11 -30 11 -48zM449.004 119.002c0 -17.333 -2.99707 -33.167 -8.99707 -47.5s-14.333 -26.833 -25 -37.5
s-23.334 -19 -38.001 -25s-30.334 -9 -47.001 -9c-15.333 0 -30 2.83301 -44 8.5s-26.333 13.667 -37 24s-19.334 22.833 -26.001 37.5s-10 31 -10 49c0 14.667 2.83301 29 8.5 43s13.667 26.5 24 37.5s22.833 19.833 37.5 26.5s31 10 49 10c16 0 31 -3.16699 45 -9.5
s26.333 -14.833 37 -25.5s19.167 -23 25.5 -37s9.5 -29 9.5 -45z" />
    <glyph glyph-name="quotedbl" unicode="&#x22;" horiz-adv-x="1707" 
d="M283 893l-47 394.999c-3.33301 28 -5 53.333 -5 76c0 18.667 9.66699 33.167 29 43.5s40 15.5 62 15.5c23.333 0 41.333 -5.66699 54 -17s19 -28 19 -50c0 -11.333 -3.33301 -38.666 -10 -81.999l-63 -381h-39zM555 892.999l-47 394.999c-3.33301 28 -5 53.333 -5 76
c0 18.667 9.66699 33.167 29 43.5s40 15.5 62 15.5c23.333 0 41.333 -5.66699 54 -17s19 -28 19 -50c0 -11.333 -3.33301 -38.666 -10 -81.999l-63 -381h-39z" />
    <glyph glyph-name="numbersign" unicode="#" horiz-adv-x="1921" 
d="M1014 -340c-2 -6.66699 -4.16699 -13.334 -6.5 -20.001s-5.5 -12.834 -9.5 -18.501s-9 -10.167 -15 -13.5s-13.333 -5 -22 -5c-15.333 0 -27.833 5 -37.5 15s-14.5 21.333 -14.5 34c0 6 0.833008 12.333 2.5 19s3.83398 13.334 6.50098 20.001l163 547h-409l-172 -578
c-2 -6.66699 -4.16699 -13.334 -6.5 -20.001s-5.5 -12.834 -9.5 -18.501s-9 -10.167 -15 -13.5s-13.667 -5 -23 -5c-15.333 0 -27.666 5 -36.999 15s-14 21.333 -14 34c0 6 0.833008 12.333 2.5 19s3.5 13.334 5.5 20.001l164 547h-348
c-6.66699 0 -14.334 0.333008 -23.001 1s-17 2.5 -25 5.5s-14.667 7.83301 -20 14.5s-8 16 -8 28c0 12.667 2.66699 22.5 8 29.5s11.833 12 19.5 15s16 4.83301 25 5.5s17.5 1 25.5 1h377l104 350h-481c-8 0 -16.5 0.333008 -25.5 1s-17.333 2.5 -25 5.5s-14.167 8 -19.5 15
s-8 16.833 -8 29.5c0 12 2.66699 21.333 8 28s12 11.5 20 14.5s16.333 4.83301 25 5.5s16.334 1 23.001 1h514l172 576c2 6.66699 4.16699 13.334 6.5 20.001s5.5 12.834 9.5 18.501s8.83301 10.167 14.5 13.5s13.167 5 22.5 5c15.333 0 27.833 -5 37.5 -15
s14.5 -21.333 14.5 -34c0 -6 -0.833008 -12.333 -2.5 -19s-3.83398 -13.334 -6.50098 -20.001l-163 -545h409l172 576c2 6.66699 4.16699 13.334 6.5 20.001s5.5 12.834 9.5 18.501s9 10.167 15 13.5s13.667 5 23 5c15.333 0 27.666 -5 36.999 -15s14 -21.333 14 -34
c0 -6 -0.833008 -12.333 -2.5 -19s-3.5 -13.334 -5.5 -20.001l-164 -545h348c6.66699 0 14.334 -0.333008 23.001 -1s17 -2.5 25 -5.5s14.667 -7.83301 20 -14.5s8 -16 8 -28c0 -12.667 -2.66699 -22.5 -8 -29.5s-11.833 -12 -19.5 -15s-16 -4.83301 -25 -5.5
s-17.5 -1 -25.5 -1h-377l-104 -350h481c8 0 16.5 -0.333008 25.5 -1s17.333 -2.5 25 -5.5s14.167 -8 19.5 -15s8 -16.833 8 -29.5c0 -12 -2.66699 -21.333 -8 -28s-12 -11.5 -20 -14.5s-16.333 -4.83301 -25 -5.5s-16.334 -1 -23.001 -1h-514zM1112 338l105 350h-410
l-105 -350h410z" />
    <glyph glyph-name="dollar" unicode="$" horiz-adv-x="1165" 
d="M618 829c22.667 -4.66699 45.5 -9.67676 68.5 -15.0098s46 -12.666 69 -21.999s46.333 -21.333 70 -36s47.5 -34 71.5 -58c24.667 -25.333 44.834 -51.166 60.501 -77.499s28.167 -52.166 37.5 -77.499s15.833 -50 19.5 -74s5.5 -46 5.5 -66
c0 -50 -9.16699 -99 -27.5 -147s-44.833 -91.333 -79.5 -130s-76.834 -71 -126.501 -97s-105.834 -41.667 -168.501 -47v-97h-73v58c0 17.333 -1 27.833 -3 31.5s-7.33301 6.16699 -16 7.5c-23.333 2.66699 -47.333 6.33398 -72 11.001s-49.5 11.834 -74.5 21.501
s-49.833 22.5 -74.5 38.5s-48.667 36.667 -72 62c-30.667 34 -53.334 74 -68.001 120s-22 90.667 -22 134c0 24.667 4.33301 44.167 13 58.5s18.5 25 29.5 32s22 11.333 33 13s18.833 2.5 23.5 2.5c10.667 0 21.667 -2 33 -6s21.666 -10 30.999 -18s17 -18.167 23 -30.5
s9 -26.833 9 -43.5c0 -18.667 -3.33301 -34.167 -10 -46.5s-15.167 -22.166 -25.5 -29.499s-22.333 -12.5 -36 -15.5s-27.5 -4.5 -41.5 -4.5c6.66699 -26 17.667 -51.833 33 -77.5s35.833 -49 61.5 -70s57.167 -38.5 94.5 -52.5s81 -22.667 131 -26v592
c-24 5.33301 -48.167 11 -72.5 17s-48.166 13.5 -71.499 22.5s-46.5 20.333 -69.5 34s-44.833 30.834 -65.5 51.501l-32 35c-14 15.333 -27.667 34.333 -41 57s-25 49.167 -35 79.5s-15 64.833 -15 103.5c0 48.667 9.66699 95.5 29 140.5s46.666 85.5 81.999 121.5
s77.666 65.667 126.999 89s104 37.333 164 42v96h73v-94c62.667 -3.33301 119 -14.5 169 -33.5s92.167 -44.333 126.5 -76s60.666 -69 78.999 -112s27.5 -89.5 27.5 -139.5c0 -23.333 -3.66699 -42 -11 -56s-16.166 -24.667 -26.499 -32s-21.166 -12.166 -32.499 -14.499
s-20.666 -3.5 -27.999 -3.5c-27.333 0 -50.333 8.83301 -69 26.5s-28 40.834 -28 69.501c0 8.66699 1.33301 18.667 4 30s7.83398 22 15.501 32s18.834 18.5 33.501 25.5s34 10.5 58 10.5c-12 36.667 -29.667 67.334 -53 92.001s-49.5 44.667 -78.5 60
s-59.667 26.333 -92 33s-63.833 10.667 -94.5 12v-537zM545 1365.99c-46.667 -4.66699 -87.832 -15.334 -123.499 -32.001s-65.5 -37 -89.5 -61s-42 -50.5 -54 -79.5s-18 -57.5 -18 -85.5c0 -6 0.5 -15.333 1.5 -28s4.16699 -27.167 9.5 -43.5s13.833 -33.666 25.5 -51.999
s28 -36.166 49 -53.499s47.667 -33.333 80 -48s72.166 -26.334 119.499 -35.001v518zM618.002 54.9902c44 4.66699 83.4971 15.832 118.497 33.499s64.833 39.5 89.5 65.5s43.667 55.333 57 88s20 66 20 100c0 11.333 -1.16699 25.333 -3.5 42s-7.16602 34.5 -14.499 53.5
s-17.5 38.333 -30.5 58s-30.167 38.334 -51.5 56.001s-47.166 33.5 -77.499 47.5s-66.166 24.667 -107.499 32v-576z" />
    <glyph glyph-name="percent" unicode="%" horiz-adv-x="1921" 
d="M1776 297c0 -57.333 -7.66992 -111 -23.0029 -161s-36.333 -93.667 -63 -131s-58.167 -66.666 -94.5 -87.999s-75.166 -32 -116.499 -32s-81.833 10 -121.5 30s-75 48 -106 84s-55.833 79.5 -74.5 130.5s-28 107.5 -28 169.5c0 60 9.16699 115.167 27.5 165.5
s42.833 93.833 73.5 130.5s65.834 65.167 105.501 85.5s80.834 30.5 123.501 30.5c40.667 0 79 -10.5 115 -31.5s67.5 -50 94.5 -87s48.333 -80.833 64 -131.5s23.5 -105.334 23.5 -164.001zM1483 -57c27.333 0 54.333 8.50293 81 25.5029s50.5 41.167 71.5 72.5
s38 68.833 51 112.5s19.5 92.167 19.5 145.5c0 52 -6.33301 99.667 -19 143s-29.5 80.666 -50.5 111.999s-44.833 55.666 -71.5 72.999s-54 26 -82 26c-6 0 -14.833 -0.833008 -26.5 -2.5s-24.5 -6.16699 -38.5 -13.5s-28.333 -18.333 -43 -33s-28 -35.167 -40 -61.5
s-21.833 -59.5 -29.5 -99.5s-11.5 -88.667 -11.5 -146c0 -56.667 3.83301 -104.834 11.5 -144.501s17.5 -72.5 29.5 -98.5s25.333 -46.5 40 -61.5s29 -26.167 43 -33.5s26.833 -11.833 38.5 -13.5s20.5 -2.5 26.5 -2.5zM431.997 -81.9971
c-6 -8 -12.5029 -15.498 -19.5029 -22.498s-16.833 -10.5 -29.5 -10.5c-14.667 0 -26.834 4.83301 -36.501 14.5s-14.5 22.167 -14.5 37.5c0 8 1.66699 14.667 5 20s9 13.666 17 24.999l989 1329l-2 2c-84.667 -41.333 -175.334 -62 -272.001 -62
c-51.333 0 -105.166 6.16699 -161.499 18.5s-115.833 34.833 -178.5 67.5c18.667 -45.333 30.167 -87.333 34.5 -126s6.5 -68.334 6.5 -89.001c0 -57.333 -7.66699 -111 -23 -161s-36.333 -93.5 -63 -130.5s-58.167 -66.167 -94.5 -87.5s-75.166 -32 -116.499 -32
s-81.833 10 -121.5 30s-75 48 -106 84s-55.833 79.333 -74.5 130s-28 107 -28 169c0 60 9.16699 115.167 27.5 165.5s42.833 93.833 73.5 130.5s65.834 65.167 105.501 85.5s80.834 30.5 123.501 30.5c30 0 57.167 -4.83301 81.5 -14.5s49.166 -25.167 74.499 -46.5
c72.667 -60 145.334 -102.667 218.001 -128s146 -38 220 -38c64.667 0 121.334 8 170.001 24s90.167 35.167 124.5 57.5s62.333 45.166 84 68.499s38.167 42.333 49.5 57c9.33301 10 18 15.833 26 17.5s13.667 2.5 17 2.5c10.667 0 21.5 -4.16699 32.5 -12.5
s16.5 -21.166 16.5 -38.499c0 -3.33301 -0.833008 -8.33301 -2.5 -15s-7.5 -16.667 -17.5 -30zM476.994 768.005c28 0 55.332 8.50195 81.999 25.502s50.5 41.167 71.5 72.5s37.833 68.833 50.5 112.5s19 92.167 19 145.5c0 52 -6.33301 99.667 -19 143
s-29.334 80.666 -50.001 111.999s-44.5 55.833 -71.5 73.5s-54.5 26.5 -82.5 26.5c-6 0 -14.667 -0.833008 -26 -2.5s-24 -6.16699 -38 -13.5s-28.333 -18.5 -43 -33.5s-28 -35.667 -40 -62s-21.833 -59.5 -29.5 -99.5s-11.5 -88.667 -11.5 -146
c0 -56.667 3.83301 -104.834 11.5 -144.501s17.334 -72.5 29.001 -98.5s24.834 -46.5 39.501 -61.5s29 -26.167 43 -33.5s26.833 -11.833 38.5 -13.5s20.5 -2.5 26.5 -2.5z" />
    <glyph glyph-name="ampersand" unicode="&#x26;" horiz-adv-x="1796" 
d="M1651 248c-1.33301 -44 -10.8311 -83.8281 -28.498 -119.495s-41 -66 -70 -91s-62.667 -44.333 -101 -58s-78.5 -20.5 -120.5 -20.5c-74.667 0 -145.167 13.833 -211.5 41.5s-129.5 63.834 -189.5 108.501c-13.333 -10 -32.333 -23.5 -57 -40.5
s-54.167 -33.667 -88.5 -50s-73.666 -30.333 -117.999 -42s-92.5 -17.5 -144.5 -17.5c-56 0 -108.833 7.5 -158.5 22.5s-93.167 36 -130.5 63s-67 59.5 -89 97.5s-33 80 -33 126c0 28 3.66699 53.167 11 75.5s17.333 43 30 62s27.334 37 44.001 54l54 52.5l219 203
c-6.66699 17.333 -15 40.166 -25 68.499s-19.5 60.333 -28.5 96s-16.667 74.334 -23 116.001s-9.5 84.5 -9.5 128.5c0 55.333 9.66699 104.166 29 146.499s44 77.666 74 105.999s63.5 49.666 100.5 63.999s73.5 21.5 109.5 21.5c38 0 70.167 -9 96.5 -27
s47.666 -40.5 63.999 -67.5s28.166 -56.333 35.499 -88s11 -60.834 11 -87.501c0 -31.333 -7 -62.666 -21 -93.999s-33.5 -63.666 -58.5 -96.999s-54.667 -68.5 -89 -105.5l-113.5 -119.5c16 -39.333 35.833 -79.166 59.5 -119.499s48.5 -79.666 74.5 -117.999
s52.167 -74.5 78.5 -108.5l72 -90l54 -63.5c14.333 -16.333 22.833 -25.833 25.5 -28.5l26 25.5c10.667 10.333 23.167 23.5 37.5 39.5s30.5 35.167 48.5 57.5s38 48.5 60 78.5l55.5 76.5l54.5 78l41.5 61.5c11 16.667 17.167 25.667 18.5 27
c0 1.33301 1.33301 5.66602 4 12.999s4 16 4 26c0 23.333 -11.333 42.166 -34 56.499s-53 21.5 -91 21.5v74c2 0 12.333 -0.5 31 -1.5s41 -2 67 -3s53.667 -2 83 -3s55.666 -1.5 78.999 -1.5c30 0 62.5 0.666992 97.5 2s67.5 3.66602 97.5 6.99902v-74
c-45.333 -0.666992 -83.333 -5.83398 -114 -15.501s-56.667 -22.167 -78 -37.5s-39.333 -32.333 -54 -51s-28.334 -37.334 -41.001 -56.001l-75 -112l-84 -118.5c-29.333 -39.667 -59.666 -78.5 -90.999 -116.5s-63.333 -73 -96 -105
c15.333 -14.667 33.833 -31.334 55.5 -50.001s45.5 -36.5 71.5 -53.5s54 -31.333 84 -43s61.333 -17.5 94 -17.5c24.667 0 51 4 79 12s54 20.667 78 38s44.167 39.5 60.5 66.5s25.166 59.833 26.499 98.5h70zM596.002 836.005c36 35.333 68.666 69.166 97.999 101.499
s54.333 63.166 75 92.499s36.667 57.5 48 84.5s17 52.833 17 77.5c0 16 -1.83301 36 -5.5 60s-10.5 47.333 -20.5 70s-23.833 42.167 -41.5 58.5s-40.5 24.5 -68.5 24.5c-21.333 0 -42 -5.16699 -62 -15.5s-37.833 -25.166 -53.5 -44.499s-28.334 -43 -38.001 -71
s-14.5 -60 -14.5 -96c0 -10 0.666992 -26.167 2 -48.5s4.33301 -48.666 9 -78.999s11.334 -64 20.001 -101s20.334 -74.833 35.001 -113.5zM496.001 659.005l-91 -84.5c-25.333 -24.333 -46 -48.5 -62 -72.5s-27.667 -49.5 -35 -76.5s-11 -59.5 -11 -97.5
c0 -32.667 4.83301 -66.5 14.5 -101.5s24.5 -66.833 44.5 -95.5s45.167 -52.167 75.5 -70.5s66.166 -27.5 107.499 -27.5c60.667 0 119.5 11 176.5 33s110.833 50.667 161.5 86l-33.5 31.5c-15.667 15 -34.167 33.833 -55.5 56.5s-44.666 49 -69.999 79s-51 62.833 -77 98.5
s-51.5 73.667 -76.5 114s-47.833 82.833 -68.5 127.5z" />
    <glyph glyph-name="quotesingle" unicode="'" horiz-adv-x="653" 
d="M283 893l-47 394.999c-3.33301 28 -5 53.333 -5 76c0 18.667 9.66699 33.167 29 43.5s40 15.5 62 15.5c23.333 0 41.333 -5.66699 54 -17s19 -28 19 -50c0 -11.333 -3.33301 -38.666 -10 -81.999l-63 -381h-39z" />
    <glyph glyph-name="parenleft" unicode="(" horiz-adv-x="913" 
d="M727 1536c4 0 8.33398 -0.171875 13.001 -0.504883s9.16699 -1.16602 13.5 -2.49902s7.83301 -3.83301 10.5 -7.5s4 -8.5 4 -14.5c0 -5.33301 -1.33301 -9.66602 -4 -12.999s-6 -7 -10 -11c-42 -38 -85.333 -84.167 -130 -138.5s-85.5 -120.5 -122.5 -198.5
s-67.333 -169.333 -91 -274s-35.5 -226 -35.5 -364c0 -93.333 6.66699 -184.666 20 -273.999s34.666 -175 63.999 -257s67.833 -159.833 115.5 -233.5s105.5 -141.167 173.5 -202.5c7.33301 -7.33301 12.5 -12.666 15.5 -15.999s4.5 -8 4.5 -14s-1.33301 -10.833 -4 -14.5
s-6.16699 -6.16699 -10.5 -7.5s-8.83301 -2.16602 -13.5 -2.49902s-9 -0.5 -13 -0.5c-67.333 48 -126.333 99.833 -177 155.5s-94.167 113.5 -130.5 173.5s-66.333 120.833 -90 182.5s-42.5 122.5 -56.5 182.5s-23.667 118 -29 174s-8 108 -8 156c0 52 3.16699 107 9.5 165
s16.833 117.333 31.5 178s34.167 121.5 58.5 182.5s54.666 120.667 90.999 179s79.333 114.333 129 168s106.834 103.5 171.501 149.5z" />
    <glyph glyph-name="parenright" unicode=")" horiz-adv-x="913" 
d="M184 1536c67.333 -48 126.331 -99.834 176.998 -155.501s94.334 -113.5 131.001 -173.5s66.834 -120.833 90.501 -182.5s42.5 -122.5 56.5 -182.5s23.667 -118 29 -174s8 -108 8 -156c0 -120.667 -13.667 -234.667 -41 -342s-63.666 -203.666 -108.999 -288.999
c-34 -64 -70.333 -120.333 -109 -169s-75.167 -89.5 -109.5 -122.5s-64 -57.833 -89 -74.5s-40.5 -25 -46.5 -25c-10 0 -17 2.83301 -21 8.5s-6 11.167 -6 16.5c0 2.66699 0.333008 5 1 7s2.16699 4.5 4.5 7.5s6 7 11 12l20.5 20.5c55.333 50 105 107.667 149 173
s81.167 137.833 111.5 217.5s53.666 166.334 69.999 260.001s24.5 194.167 24.5 301.5c0 132 -11.167 249 -33.5 351s-51.333 191.833 -87 269.5s-75.667 144.667 -120 201s-88.5 104.833 -132.5 145.5c-6 7.33301 -10.667 12.833 -14 16.5s-5 8.16699 -5 13.5
c0 6 1.33301 10.833 4 14.5s6 6.16699 10 7.5s8.33301 2.16602 13 2.49902s8.66699 0.5 12 0.5z" />
    <glyph glyph-name="asterisk" unicode="*" horiz-adv-x="1165" 
d="M641 760c1.33301 -5.33301 2.33301 -13.167 3 -23.5s1 -17.5 1 -21.5c0 -11.333 -2.16699 -20.833 -6.5 -28.5s-9.66602 -14 -15.999 -19s-13.166 -8.66699 -20.499 -11s-14 -3.5 -20 -3.5c-12.667 0 -23.334 2.5 -32.001 7.5s-15.5 11 -20.5 18
s-8.33301 14.167 -10 21.5s-1.5 13 0.5 17v10l31 317l-309 -204c-19.333 0 -34.333 3.16699 -45 9.5s-18.5 13.5 -23.5 21.5s-7.83301 15.333 -8.5 22s-1 10.667 -1 12c0 19.333 5 32.833 15 40.5s22.667 14.834 38 21.501l301 129l-301 127c-15.333 6 -28 12.833 -38 20.5
s-15 21.167 -15 40.5c0 7.33301 1.5 14.833 4.5 22.5s7.16699 14.834 12.5 21.501s11.833 12 19.5 16s16.5 6 26.5 6c5.33301 0 11.166 -0.833008 17.499 -2.5s16.166 -7.16699 29.499 -16.5l277 -186l-29 285c-1.33301 5.33301 -2.33301 13 -3 23s-1 17.333 -1 22
c0 11.333 2.16699 20.833 6.5 28.5s9.66602 14 15.999 19s13.333 8.5 21 10.5s14.5 3 20.5 3c14 0 25.333 -2.66699 34 -8s15.167 -12 19.5 -20s6.83301 -17 7.5 -27s0.666992 -19.667 0 -29l-31 -307l279 186c11.333 8.66699 19.333 14 24 16s11.667 3 21 3
c10 0 18.833 -2 26.5 -6s14.167 -9.33301 19.5 -16s9.5 -13.834 12.5 -21.501s4.5 -15.167 4.5 -22.5c0 -19.333 -5 -32.833 -15 -40.5s-22.667 -14.5 -38 -20.5l-301 -129l301 -127c15.333 -6.66699 28 -13.834 38 -21.501s15 -21.167 15 -40.5
c0 -7.33301 -1.5 -14.666 -4.5 -21.999s-7.16699 -14.333 -12.5 -21s-11.833 -12 -19.5 -16s-16.5 -6 -26.5 -6c-5.33301 0 -11.166 0.666992 -17.499 2s-16.166 6.66602 -29.499 15.999l-277 186z" />
    <glyph glyph-name="plus" unicode="+" horiz-adv-x="1796" 
d="M948 -166c0 -7.33301 -0.333008 -15.333 -1 -24s-2.5 -16.834 -5.5 -24.501s-8 -14.167 -15 -19.5s-16.833 -8 -29.5 -8c-12 0 -21.333 2.66699 -28 8s-11.5 12 -14.5 20s-4.83301 16.333 -5.5 25s-1 16.334 -1 23.001v629h-629c-7.33301 0 -15.333 0.333008 -24 1
s-16.834 2.5 -24.501 5.5s-14.167 8 -19.5 15s-8 16.833 -8 29.5c0 12 2.66699 21.333 8 28s12 11.5 20 14.5s16.333 4.83301 25 5.5s16.334 1 23.001 1h629v629c0 7.33301 0.333008 15.333 1 24s2.5 16.834 5.5 24.501s8 14.167 15 19.5s16.833 8 29.5 8
c12 0 21.333 -2.66699 28 -8s11.5 -12 14.5 -20s4.83301 -16.333 5.5 -25s1 -16.334 1 -23.001v-629h627c7.33301 0 15.333 -0.333008 24 -1s16.834 -2.5 24.501 -5.5s14.167 -8 19.5 -15s8 -16.833 8 -29.5c0 -12 -2.66699 -21.333 -8 -28s-12 -11.5 -20 -14.5
s-16.333 -4.83301 -25 -5.5s-16.334 -1 -23.001 -1h-627v-629z" />
    <glyph glyph-name="comma" unicode="," horiz-adv-x="662" 
d="M416 33c-0.666992 -0.666992 -2.99902 -2.66797 -6.99902 -6.00098s-9.5 -7 -16.5 -11s-15.667 -7.66699 -26 -11s-21.833 -5 -34.5 -5c-21.333 0 -39.666 3.83301 -54.999 11.5s-27.666 17.167 -36.999 28.5s-16.166 24 -20.499 38s-6.5 27 -6.5 39
c0 16 2.66699 31.167 8 45.5s13.166 27 23.499 38s22.666 19.667 36.999 26s30.5 9.5 48.5 9.5c24 0 45 -5.83301 63 -17.5s32.833 -27.667 44.5 -48s20.5 -44.166 26.5 -71.499s9 -56.333 9 -87c0 -41.333 -4.33301 -80.166 -13 -116.499s-19.834 -69.666 -33.501 -99.999
s-28.667 -57.333 -45 -81s-32 -43.834 -47 -60.501s-28.333 -29.334 -40 -38.001s-19.834 -13 -24.501 -13c-7.33301 0 -13.833 3.5 -19.5 10.5s-8.5 13.5 -8.5 19.5c0 5.33301 1.33301 9.83301 4 13.5s6 7.5 10 11.5c40 36 70.833 73.167 92.5 111.5s37.5 74.5 47.5 108.5
s15.833 64.667 17.5 92s2.5 48.333 2.5 63z" />
    <glyph glyph-name="hyphen" unicode="-" horiz-adv-x="786" 
d="M41 371v139h602v-139h-602z" />
    <glyph glyph-name="period" unicode="." horiz-adv-x="662" 
d="M449 117c0 -15.333 -2.83105 -29.998 -8.49805 -43.998s-13.834 -26.333 -24.501 -37s-23.167 -19.334 -37.5 -26.001s-30.5 -10 -48.5 -10c-15.333 0 -30 2.83301 -44 8.5s-26.333 13.667 -37 24s-19.334 22.833 -26.001 37.5s-10 31 -10 49c0 14.667 2.83301 29 8.5 43
s13.667 26.5 24 37.5s22.833 19.833 37.5 26.5s31 10 49 10c14.667 0 29 -2.83301 43 -8.5s26.5 -13.834 37.5 -24.501s19.833 -23.167 26.5 -37.5s10 -30.5 10 -48.5z" />
    <glyph glyph-name="slash" unicode="/" horiz-adv-x="1165" 
d="M248 -461c-5.33301 -13.333 -11.498 -25.166 -18.498 -35.499s-19.167 -15.5 -36.5 -15.5c-10.667 0 -21.667 4.16699 -33 12.5s-17 21.166 -17 38.499c0 2 0.5 5.5 1.5 10.5s4.16699 13.833 9.5 26.5l761 1909c5.33301 13.333 11.666 25.166 18.999 35.499
s19.666 15.5 36.999 15.5c10 0 20.667 -4.16699 32 -12.5s17 -21.166 17 -38.499c0 -2 -0.333008 -5.5 -1 -10.5s-3.66699 -13.833 -9 -26.5z" />
    <glyph glyph-name="zero" unicode="0" horiz-adv-x="1024" 
d="M942 655c0 -40 -0.831055 -80.001 -2.49805 -120.001s-5.16699 -79.5 -10.5 -118.5s-13 -77.167 -23 -114.5s-23.333 -73.666 -40 -108.999c-22.667 -48.667 -48.667 -88.5 -78 -119.5s-60 -55.167 -92 -72.5s-64 -29.333 -96 -36s-62 -10 -90 -10c-25.333 0 -53 3 -83 9
s-60.167 16.667 -90.5 32s-59.833 36.5 -88.5 63.5s-54 61.167 -76 102.5c-21.333 38.667 -38 79 -50 121s-21.167 84.167 -27.5 126.5s-10.333 84.333 -12 126s-2.5 81.5 -2.5 119.5c0 40.667 0.833008 81.334 2.5 122.001s5.16699 80.5 10.5 119.5s13 77.167 23 114.5
s23.333 73.666 40 108.999c20.667 48 45.167 87.667 73.5 119s58.333 56.166 90 74.499s64 31.333 97 39s64.833 11.5 95.5 11.5c21.333 0 47.166 -2.66699 77.499 -8s61.5 -16.333 93.5 -33s63.667 -40 95 -70s58.666 -69.333 81.999 -118c18 -38 32.333 -76.667 43 -116
s19 -79.166 25 -119.499s9.83301 -81 11.5 -122s2.5 -81.833 2.5 -122.5zM510.002 -0.000976562c22.667 0 46.502 4.16895 71.502 12.502s48.667 22.5 71 42.5s42.166 46.333 59.499 79s30 73.334 38 122.001c11.333 66 17.833 133.833 19.5 203.5s2.5 143.167 2.5 220.5
c0 32 -0.166992 65.5 -0.5 100.5s-1 69.833 -2 104.5s-3 68.5 -6 101.5s-6.83301 63.833 -11.5 92.5c-10 50.667 -25 91.667 -45 123s-41.667 55.666 -65 72.999s-47 29 -71 35s-44.333 9 -61 9c-12.667 0 -30.667 -2.33301 -54 -7s-47.5 -15.667 -72.5 -33
s-48.333 -43.5 -70 -78.5s-37.5 -82.833 -47.5 -143.5c-8 -56 -12.667 -116.333 -14 -181s-2 -130 -2 -196c0 -30 0.166992 -63.667 0.5 -101s1.16602 -75.333 2.49902 -114s3.5 -76.834 6.5 -114.501s7.16699 -71.834 12.5 -102.501
c9.33301 -49.333 23.166 -90 41.499 -122s38.833 -57.333 61.5 -76s45.834 -31.667 69.501 -39s45.5 -11 65.5 -11z" />
    <glyph glyph-name="one" unicode="1" horiz-adv-x="1024" 
d="M602 162c0 -19.333 1.33301 -35.3389 4 -48.0059s10.167 -22.667 22.5 -30s31.333 -12.666 57 -15.999s61.5 -5 107.5 -5h65v-63c-18 1.33301 -41.5 2.5 -70.5 3.5s-59.5 1.66699 -91.5 2s-63.167 0.5 -93.5 0.5h-76.5h-76.5c-30.333 0 -61.333 -0.166992 -93 -0.5
s-62 -1 -91 -2s-52.5 -2.16699 -70.5 -3.5v63h65c46 0 81.833 1.66699 107.5 5s44.667 8.83301 57 16.5s19.833 17.834 22.5 30.501s4 28.334 4 47.001v1061c-26.667 -13.333 -53.834 -23.666 -81.501 -30.999s-53.667 -12.666 -78 -15.999s-46.166 -5.33301 -65.499 -6
s-34 -1 -44 -1v64c16.667 0 39.5 0.666992 68.5 2s60.667 6.16602 95 14.499s69.833 21.333 106.5 39s71 42.834 103 75.501c12 0 21.167 -0.5 27.5 -1.5s11 -3.16699 14 -6.5s4.66699 -8.66602 5 -15.999s0.5 -17 0.5 -29v-1149z" />
    <glyph glyph-name="two" unicode="2" horiz-adv-x="1024" 
d="M629 158l47.5068 0.000976562c20.333 0 40.666 0.5 60.999 1.5s38.833 2.66699 55.5 5s26.667 5.5 30 9.5c5.33301 8 10.166 19 14.499 33s8.33301 29.5 12 46.5s7 34.5 10 52.5l8.5 50h52l-58 -356h-760c0 12 0.166992 21.667 0.5 29s1.16602 13.5 2.49902 18.5
s3.5 9.5 6.5 13.5s7.5 9 13.5 15l393 438c28 32 55 65.833 81 101.5s49 72.667 69 111s35.833 77.666 47.5 117.999s17.5 81.166 17.5 122.499c0 42 -5.5 83 -16.5 123s-27.833 75.5 -50.5 106.5s-51.167 56 -85.5 75s-74.833 28.5 -121.5 28.5c-30 0 -59 -4.66699 -87 -14
s-54.167 -22.833 -78.5 -40.5s-46 -39.334 -65 -65.001s-34.5 -55.167 -46.5 -88.5c3.33301 1.33301 6.66602 2 9.99902 2h17c18 0 33.667 -3.16699 47 -9.5s24.5 -14.5 33.5 -24.5s15.833 -21.333 20.5 -34s7 -25.667 7 -39c0 -21.333 -3.83301 -38.833 -11.5 -52.5
s-17 -24.667 -28 -33s-22.667 -14.166 -35 -17.499s-22.833 -5 -31.5 -5c-1.33301 0 -7.83301 0.666992 -19.5 2s-24.167 5.5 -37.5 12.5s-25.333 18.167 -36 33.5s-16 37.333 -16 66c0 46 9.16699 91.167 27.5 135.5s44.166 84 77.499 119s73.5 63.167 120.5 84.5
s99.5 32 157.5 32c62.667 0 120.5 -9.83301 173.5 -29.5s98.833 -47 137.5 -82s69 -76.833 91 -125.5s33 -102 33 -160c0 -34 -3.5 -66 -10.5 -96s-18 -59.167 -33 -87.5s-34.333 -57.166 -58 -86.499s-51.834 -60.5 -84.501 -93.5s-70.334 -68.667 -113.001 -107
l-144 -127.5l-217 -211h369z" />
    <glyph glyph-name="three" unicode="3" horiz-adv-x="1024" 
d="M594 721c53.333 -10.667 101.163 -28.166 143.496 -52.499s78.166 -53 107.499 -86s51.833 -69.5 67.5 -109.5s23.5 -81 23.5 -123c0 -52 -11 -101.833 -33 -149.5s-52.5 -89.667 -91.5 -126s-85 -65.333 -138 -87s-110.833 -32.5 -173.5 -32.5c-56 0 -109 8 -159 24
s-94 38.167 -132 66.5s-68 62.166 -90 101.499s-33 82.333 -33 129c0 22.667 3.66699 41.667 11 57s16.666 27.5 27.999 36.5s23.833 15.5 37.5 19.5s26.5 6 38.5 6c14.667 0 28.834 -2.5 42.501 -7.5s25.834 -12.333 36.501 -22s19.167 -21.667 25.5 -36
s9.5 -30.5 9.5 -48.5c0 -19.333 -3.66699 -36.666 -11 -51.999s-17.166 -27.833 -29.499 -37.5s-26.666 -16.667 -42.999 -21s-33.5 -5.16602 -51.5 -2.49902c18 -30 40.333 -55 67 -75s54.667 -36 84 -48s58.333 -20.5 87 -25.5s54 -7.5 76 -7.5
c22.667 0 47.334 4.5 74.001 13.5s51.667 26 75 51s42.833 59.5 58.5 103.5s23.5 100.667 23.5 170c0 50 -4.83301 95.833 -14.5 137.5s-24.5 77.5 -44.5 107.5s-45.333 53.333 -76 70s-67 25 -109 25h-90c-17.333 0 -29.833 1 -37.5 3s-11.5 8.66699 -11.5 20
c0 10 3 16.167 9 18.5s13.333 4.16602 22 5.49902c3.33301 0 8.66602 0.166992 15.999 0.5s15 0.833008 23 1.5l23.5 2c7.66699 0.666992 13.5 1.33398 17.5 2.00098c12.667 0.666992 26.334 2 41.001 4s29.834 6.5 45.501 13.5s31.667 17.5 48 31.5
s32.166 33.333 47.499 58c13.333 22.667 23.833 46.334 31.5 71.001s13.334 48 17.001 70s6 41.333 7 58s1.5 28 1.5 34c0 46 -6.33301 84 -19 114s-28.5 53.5 -47.5 70.5s-40.167 28.833 -63.5 35.5s-45.333 10 -66 10c-18.667 0 -40.334 -2 -65.001 -6
s-49.834 -10.667 -75.501 -20s-50.167 -22.333 -73.5 -39s-43 -37.334 -59 -62.001c8 0 19 -0.5 33 -1.5s28 -4.83301 42 -11.5s26.167 -16.834 36.5 -30.501s15.5 -33.5 15.5 -59.5c0 -30 -9.33301 -54.833 -28 -74.5s-44 -29.5 -76 -29.5c-30 0 -55 9.16699 -75 27.5
s-30 44.5 -30 78.5c0 38.667 9.16699 75 27.5 109s43.833 63.667 76.5 89s71 45.166 115 59.499s92 21.5 144 21.5c48.667 0 95.834 -6.83301 141.501 -20.5s85.834 -33 120.501 -58s62.5 -54.833 83.5 -89.5s31.5 -73 31.5 -115c0 -40 -7 -78.833 -21 -116.5
s-33.833 -72.167 -59.5 -103.5s-56 -59 -91 -83s-73.5 -43 -115.5 -57z" />
    <glyph glyph-name="four" unicode="4" horiz-adv-x="1024" 
d="M57 338l-0.000976562 63l629 961c8 12 14.5 19 19.5 21s12.167 3 21.5 3c16.667 0 26.334 -3.66699 29.001 -11s4 -21.333 4 -42v-932h205v-63h-205v-178c0 -18.667 1 -34.167 3 -46.5s8 -22.333 18 -30s25.333 -13 46 -16s50 -4.5 88 -4.5h43v-63
c-21.333 1.33301 -43.666 2.5 -66.999 3.5s-47 1.66699 -71 2s-48 0.5 -72 0.5h-68h-67.5c-23.667 0 -47.5 -0.166992 -71.5 -0.5s-47.833 -1 -71.5 -2s-45.834 -2.16699 -66.501 -3.5v63h43c38 0 67.5 1.5 88.5 4.5s36.5 8.33301 46.5 16s16 17.667 18 30s3 27.833 3 46.5
v178h-545zM613.999 1165l-499 -764h499v764z" />
    <glyph glyph-name="five" unicode="5" horiz-adv-x="1024" 
d="M920 412c0 -65.333 -12.168 -125.829 -36.501 -181.496s-57 -103.834 -98 -144.501s-88.5 -72.667 -142.5 -96s-110.667 -35 -170 -35c-57.333 0 -108.833 11.333 -154.5 34s-84.5 51.834 -116.5 87.501s-56.667 75.834 -74 120.501s-26 89 -26 133
c0 23.333 3.83301 42.166 11.5 56.499s17 25.333 28 33s22.167 12.667 33.5 15s20.666 3.5 27.999 3.5c16.667 0 31.334 -2.83301 44.001 -8.5s23.334 -13.334 32.001 -23.001s15.167 -20.5 19.5 -32.5s6.5 -24 6.5 -36s-2.16699 -24 -6.5 -36s-10.833 -22.833 -19.5 -32.5
s-19.334 -17.334 -32.001 -23.001s-27.334 -8.5 -44.001 -8.5c-11.333 0 -19.166 0.333008 -23.499 1s-8.16602 1.66699 -11.499 3c8.66699 -30 22.167 -59 40.5 -87s40.5 -52.5 66.5 -73.5s55.5 -37.833 88.5 -50.5s68.167 -19 105.5 -19c47.333 0 89.5 12.167 126.5 36.5
s67.833 56.5 92.5 96.5c12 21.333 21.333 44.666 28 69.999s11.5 50.666 14.5 75.999s4.83301 49.666 5.5 72.999s1 44 1 62c0 51.333 -2 97.666 -6 138.999s-14.333 81 -31 119c-4 9.33301 -10.333 21.333 -19 36s-20 29 -34 43s-31 26.167 -51 36.5s-43.333 15.5 -70 15.5
c-41.333 0 -77.333 -5.83301 -108 -17.5s-56.5 -25.5 -77.5 -41.5s-37.833 -32 -50.5 -48l-28 -36c-4 -6.66699 -7.5 -11.5 -10.5 -14.5s-8.16699 -4.5 -15.5 -4.5c-14.667 0 -23.167 4.33301 -25.5 13s-3.5 22.334 -3.5 41.001v606c0 16.667 0.833008 29 2.5 37
s7.5 12 17.5 12c2 0 4.66699 -0.166992 8 -0.5s9 -2.16602 17 -5.49902c48 -21.333 95 -36.333 141 -45s89.667 -13 131 -13c34.667 0 66.667 2.16699 96 6.5s55.833 9.66602 79.5 15.999s44.334 13 62.001 20s31.5 12.833 41.5 17.5c5.33301 3.33301 9 5.16602 11 5.49902
s3.66699 0.5 5 0.5c7.33301 0 12.666 -2.16699 15.999 -6.5s5 -9.83301 5 -16.5c0 -4.66699 -4 -13 -12 -25s-19.667 -25.833 -35 -41.5s-34.166 -32.167 -56.499 -49.5s-48.166 -33.166 -77.499 -47.499s-62 -26.166 -98 -35.499s-75 -14 -117 -14
c-32.667 0 -64.667 3 -96 9s-57.333 12 -78 18v-399c37.333 36 77.666 62.333 120.999 79s89.666 25 138.999 25c55.333 0 106.833 -12 154.5 -36s89 -56.333 124 -97s62.333 -88.167 82 -142.5s29.5 -111.833 29.5 -172.5z" />
    <glyph glyph-name="six" unicode="6" horiz-adv-x="1024" 
d="M270 672c10 24.667 22.5029 49 37.5029 73s32.833 45.5 53.5 64.5s44.667 34.5 72 46.5s58.333 18 93 18c56.667 0 110 -11.5 160 -34.5s93.5 -55 130.5 -96s66.167 -89.333 87.5 -145s32 -115.834 32 -180.501c0 -68 -11.333 -130.333 -34 -187
s-53.334 -105.5 -92.001 -146.5s-83.5 -72.833 -134.5 -95.5s-104.833 -34 -161.5 -34c-31.333 0 -63.833 4.5 -97.5 13.5s-66.334 23.833 -98.001 44.5s-61.667 48.334 -90 83.001s-53 77.5 -74 128.5s-37.667 111.333 -50 181s-18.5 150.167 -18.5 241.5
c0 75.333 7.16699 145.5 21.5 210.5s34.166 124 59.499 177s55.166 100 89.499 141s71.5 75.5 111.5 103.5s81.833 49.167 125.5 63.5s87.5 21.5 131.5 21.5c42.667 0 80.167 -5.66699 112.5 -17s59.5 -27 81.5 -47s38.5 -43.5 49.5 -70.5s16.5 -55.833 16.5 -86.5
c0 -20 -3.33301 -36.333 -10 -49s-15 -22.834 -25 -30.501s-20.333 -12.834 -31 -15.501s-20 -4 -28 -4c-11.333 0 -22.666 2 -33.999 6s-21.5 9.83301 -30.5 17.5s-16.333 17.5 -22 29.5s-8.5 26 -8.5 42c0 22.667 4.5 40.334 13.5 53.001s19.5 21.834 31.5 27.501
s24.333 9 37 10s23 1.5 31 1.5c-11.333 17.333 -24.833 31.333 -40.5 42s-31.667 19 -48 25s-32.666 10 -48.999 12s-30.5 3 -42.5 3c-17.333 0 -38.333 -2.66699 -63 -8s-50.334 -15.5 -77.001 -30.5s-53 -36.167 -79 -63.5s-49.333 -62.833 -70 -106.5
s-37.5 -97 -50.5 -160s-19.5 -137.5 -19.5 -223.5v-49zM514.003 12c12 0 26.332 1.16797 42.999 3.50098s34.334 8 53.001 17s37.334 22.333 56.001 40s35.667 41.834 51 72.501c17.333 37.333 27.5 80.166 30.5 128.499s4.5 97.166 4.5 146.499
c0 24.667 -0.166992 49.667 -0.5 75s-1.66602 50 -3.99902 74s-6 47.167 -11 69.5s-12.167 42.833 -21.5 61.5c-16 32 -33.333 56.5 -52 73.5s-37 29.5 -55 37.5s-34.5 12.667 -49.5 14s-26.5 2 -34.5 2c-46 0 -84.833 -11.5 -116.5 -34.5s-57.5 -52.167 -77.5 -87.5
s-34.333 -74.5 -43 -117.5s-13 -84.5 -13 -124.5c0 -9.33301 0.166992 -25.5 0.5 -48.5s1.66602 -49 3.99902 -78s6 -58.667 11 -89s12.167 -57.5 21.5 -81.5c3.33301 -8 9.66602 -20.5 18.999 -37.5s22.333 -34.167 39 -51.5s37 -32.5 61 -45.5s52 -19.5 84 -19.5z" />
    <glyph glyph-name="seven" unicode="7" horiz-adv-x="1024" 
d="M698 858c-22.667 -32 -41.498 -65.9971 -56.498 -101.997s-27.333 -70.333 -37 -103s-17.167 -62 -22.5 -88s-9 -45 -11 -57c-8 -56 -13.667 -111.833 -17 -167.5s-5 -111.834 -5 -168.501v-104c0 -5.33301 -0.5 -14.166 -1.5 -26.499s-4.5 -25 -10.5 -38
s-15.333 -24.333 -28 -34s-30.667 -14.5 -54 -14.5c-24 0 -42.333 4.83301 -55 14.5s-22 21 -28 34s-9.5 25.667 -10.5 38s-1.5 21.166 -1.5 26.499c0 52 4.5 108.333 13.5 169s23.5 124 43.5 190s46 133.667 78 203s71 138.666 117 207.999
c7.33301 11.333 17.666 26.333 30.999 45l43.5 61l48.5 68l47 65.5l38 53l22 30.5h-424h-23.5c-11 0 -23.5 -0.166992 -37.5 -0.5s-28.833 -0.666016 -44.5 -0.999023s-30.167 -1 -43.5 -2s-24.833 -2.16699 -34.5 -3.5s-15.5 -3 -17.5 -5
c-6.66699 -6 -12.834 -17.667 -18.501 -35s-10.667 -35.833 -15 -55.5s-8 -38.5 -11 -56.5l-6.5 -39h-51l67 421h51c2 -9.33301 5.16699 -18 9.5 -26s14.833 -14.833 31.5 -20.5s42.167 -10.167 76.5 -13.5s82.833 -5 145.5 -5h497
c0 -10.667 -0.166992 -19.334 -0.5 -26.001s-1 -12.334 -2 -17.001s-2.66699 -9.16699 -5 -13.5s-5.83301 -9.5 -10.5 -15.5z" />
    <glyph glyph-name="eight" unicode="8" horiz-adv-x="1024" 
d="M588 772c62 36 111.333 78.167 148 126.5s55 101.833 55 160.5c0 36.667 -7.66699 70.5 -23 101.5s-35.833 57.833 -61.5 80.5s-55.5 40.334 -89.5 53.001s-69.667 19 -107 19c-36 0 -70.833 -5.16699 -104.5 -15.5s-63.5 -24.666 -89.5 -42.999s-46.667 -40.5 -62 -66.5
s-23 -54.667 -23 -86c0 -8.66699 1 -19.334 3 -32.001s6.5 -26.334 13.5 -41.001s17.333 -30 31 -46s32.167 -31.667 55.5 -47zM633 741l81.5 -51.5c21.667 -13.667 39.834 -25.667 54.501 -36s27 -19.833 37 -28.5s20 -18.334 30 -29.001
c38.667 -43.333 65 -86.833 79 -130.5s21 -84.167 21 -121.5c0 -54.667 -11.333 -105.667 -34 -153s-53.5 -88.5 -92.5 -123.5s-84.167 -62.5 -135.5 -82.5s-106 -30 -164 -30c-54 0 -106.333 8.33301 -157 25s-95.834 40.334 -135.501 71.001s-71.5 67.834 -95.5 111.501
s-36 92.5 -36 146.5c0 50.667 9.83301 96 29.5 136s44.167 75.5 73.5 106.5s61.166 57.5 95.499 79.5s66.5 40.333 96.5 55l-41.5 28.5l-44 30.5c-14.333 10 -27.166 19.667 -38.499 29s-20 17 -26 23c-21.333 24 -38 47.5 -50 70.5s-21 44.333 -27 64
s-9.66699 37.334 -11 53.001s-2 28.167 -2 37.5c0 47.333 9.66699 91.833 29 133.5s45.833 78 79.5 109s73 55.333 118 73s93.167 26.5 144.5 26.5c46.667 0 92 -7 136 -21s83.333 -34.333 118 -61s62.5 -58.834 83.5 -96.501s31.5 -79.834 31.5 -126.501
c0 -34 -6 -66 -18 -96s-29 -58.333 -51 -85s-48.167 -51.5 -78.5 -74.5s-63.833 -43.833 -100.5 -62.5zM428 655c-43.333 -24 -80.3301 -50 -110.997 -78s-55.5 -56.833 -74.5 -86.5s-32.833 -59.834 -41.5 -90.501s-13 -61 -13 -91c0 -42.667 8.66699 -82.167 26 -118.5
s40.666 -67.666 69.999 -93.999s63.666 -47 102.999 -62s81 -22.5 125 -22.5c42 0 82.333 6.33301 121 19s73 30.5 103 53.5s53.833 50.167 71.5 81.5s26.5 66 26.5 104c0 31.333 -5.33301 58.833 -16 82.5s-23.834 44.5 -39.501 62.5s-32.5 33.5 -50.5 46.5l-48 34.5z" />
    <glyph glyph-name="nine" unicode="9" horiz-adv-x="1024" 
d="M752 651c-12 -30 -26.167 -57.502 -42.5 -82.502s-35.166 -46.5 -56.499 -64.5s-45 -32.167 -71 -42.5s-54.667 -15.5 -86 -15.5c-57.333 0 -111 11.833 -161 35.5s-93.5 56 -130.5 97s-66 89.333 -87 145s-31.5 115.5 -31.5 179.5c0 38.667 2.83301 73.334 8.5 104.001
s14.167 59 25.5 85s25 50.5 41 73.5s34.667 46.167 56 69.5c44 46 91 79 141 99s103.333 30 160 30c30 0 61.333 -4.33301 94 -13s64.5 -23.167 95.5 -43.5s60.333 -47.666 88 -81.999s51.834 -77 72.501 -128s37.167 -111.333 49.5 -181s18.5 -150.5 18.5 -242.5
c0 -110 -14.333 -209.333 -43 -298s-67 -164.167 -115 -226.5s-102.833 -110.333 -164.5 -144s-125.5 -50.5 -191.5 -50.5c-43.333 0 -82.666 5.16699 -117.999 15.5s-65.333 25 -90 44s-43.667 42.167 -57 69.5s-20 58 -20 92c0 20 3.33301 36.333 10 49s15 22.667 25 30
s20.333 12.333 31 15s20 4 28 4c11.333 0 22.666 -1.83301 33.999 -5.5s21.5 -9.5 30.5 -17.5s16.333 -17.833 22 -29.5s8.5 -25.5 8.5 -41.5c0 -8.66699 -1.33301 -18.5 -4 -29.5s-7.83398 -21.167 -15.501 -30.5s-18.5 -17.333 -32.5 -24s-32.333 -10 -55 -10
c14 -17.333 30.667 -31 50 -41s38.666 -17.5 57.999 -22.5s37.5 -8 54.5 -9s29.833 -1.5 38.5 -1.5c20 0 42 3 66 9s48.333 17 73 33s48.5 37.667 71.5 65s43.5 62.333 61.5 105s32.5 93.667 43.5 153s16.5 129 16.5 209v65zM498 493.998
c44.667 0 82.8301 11.1689 114.497 33.502s57.5 51.166 77.5 86.499s34.667 74.833 44 118.5s14 86.834 14 129.501c0 23.333 -0.666992 48.5 -2 75.5s-3.16602 53.5 -5.49902 79.5s-5.66602 50.667 -9.99902 74s-9.5 43.333 -15.5 60c-8.66699 22.667 -19.5 44 -32.5 64
s-27.667 37.167 -44 51.5s-34.666 25.666 -54.999 33.999s-42.166 12.5 -65.499 12.5c-18 0 -36.167 -2 -54.5 -6s-36.333 -10.833 -54 -20.5s-34.667 -22.834 -51 -39.501s-31.5 -37.667 -45.5 -63c-10.667 -19.333 -19 -39.666 -25 -60.999s-10.333 -43.833 -13 -67.5
s-4.16699 -48.334 -4.5 -74.001s-0.5 -52.5 -0.5 -80.5c0 -25.333 0.166992 -50.5 0.5 -75.5s1.66602 -49.333 3.99902 -73s6 -46.5 11 -68.5s12.167 -42.333 21.5 -61c16 -32 33.333 -56.833 52 -74.5s37 -30.5 55 -38.5s34.5 -12.667 49.5 -14s26.5 -2 34.5 -2z" />
    <glyph glyph-name="colon" unicode=":" horiz-adv-x="662" 
d="M449 764c0 -14.667 -2.83105 -29 -8.49805 -43s-13.834 -26.5 -24.501 -37.5s-23.167 -19.833 -37.5 -26.5s-30.5 -10 -48.5 -10c-15.333 0 -30 2.83301 -44 8.5s-26.333 13.667 -37 24s-19.334 22.833 -26.001 37.5s-10 31 -10 49c0 14.667 2.83301 29 8.5 43
s13.667 26.5 24 37.5s22.833 19.833 37.5 26.5s31 10 49 10c14.667 0 29 -2.83301 43 -8.5s26.5 -13.667 37.5 -24s19.833 -22.833 26.5 -37.5s10 -31 10 -49zM449.002 117c0 -15.333 -2.83105 -29.998 -8.49805 -43.998s-13.834 -26.333 -24.501 -37
s-23.167 -19.334 -37.5 -26.001s-30.5 -10 -48.5 -10c-15.333 0 -30 2.83301 -44 8.5s-26.333 13.667 -37 24s-19.334 22.833 -26.001 37.5s-10 31 -10 49c0 14.667 2.83301 29 8.5 43s13.667 26.5 24 37.5s22.833 19.833 37.5 26.5s31 10 49 10
c14.667 0 29 -2.83301 43 -8.5s26.5 -13.834 37.5 -24.501s19.833 -23.167 26.5 -37.5s10 -30.5 10 -48.5z" />
    <glyph glyph-name="semicolon" unicode=";" horiz-adv-x="662" 
d="M449 764c0 -14.667 -2.83105 -29 -8.49805 -43s-13.834 -26.5 -24.501 -37.5s-23.167 -19.833 -37.5 -26.5s-30.5 -10 -48.5 -10c-15.333 0 -30 2.83301 -44 8.5s-26.333 13.667 -37 24s-19.334 22.833 -26.001 37.5s-10 31 -10 49c0 14.667 2.83301 29 8.5 43
s13.667 26.5 24 37.5s22.833 19.833 37.5 26.5s31 10 49 10c14.667 0 29 -2.83301 43 -8.5s26.5 -13.667 37.5 -24s19.833 -22.833 26.5 -37.5s10 -31 10 -49zM397.002 18c-4 -2 -11.499 -5.50195 -22.499 -10.502s-25.167 -7.5 -42.5 -7.5c-20.667 0 -38.5 3.5 -53.5 10.5
s-27.333 16.167 -37 27.5s-16.834 24 -21.501 38s-7 28.333 -7 43c0 14 2.5 27.833 7.5 41.5s12.333 26.167 22 37.5s21.834 20.5 36.501 27.5s31.667 10.5 51 10.5c28.667 0 51.167 -8.16699 67.5 -24.5s28.833 -36 37.5 -59s14.167 -47.167 16.5 -72.5
s3.5 -46.666 3.5 -63.999c0 -62 -8.33301 -118.333 -25 -169s-35.834 -94 -57.501 -130s-42.5 -64 -62.5 -84s-33.333 -30 -40 -30c-7.33301 0 -13.833 3.5 -19.5 10.5s-8.5 13.5 -8.5 19.5c0 4.66699 0.833008 8.5 2.5 11.5s5.5 7.5 11.5 13.5
c45.333 50 79.833 104.333 103.5 163s36.167 124.334 37.5 197.001z" />
    <glyph glyph-name="exclamdown" unicode="&#x3c;" 
d="M387 512l1176 -565c9.33301 -4 18.833 -9.66699 28.5 -17s14.5 -18.666 14.5 -33.999c0 -14.667 -5 -27 -15 -37s-22.333 -15 -37 -15c-2 0 -5.66699 0.666992 -11 2s-15.333 5.66602 -30 12.999l-1249 602c-10 5.33301 -19.667 11.333 -29 18s-14 18.334 -14 35.001
c0 13.333 4.5 24 13.5 32s19.5 15 31.5 21l1252 602c12 6.66699 20.667 10.5 26 11.5s8.66602 1.5 9.99902 1.5c14.667 0 27 -5 37 -15s15 -22.333 15 -37c0 -13.333 -4.5 -23.833 -13.5 -31.5s-19.5 -14.834 -31.5 -21.501z" />
    <glyph glyph-name="equal" unicode="=" horiz-adv-x="1796" 
d="M221 688c-8 0 -16.502 0.333008 -25.502 1s-17.333 2.5 -25 5.5s-14.167 8 -19.5 15s-8 16.833 -8 29.5c0 12 2.66699 21.333 8 28s12 11.5 20 14.5s16.333 4.83301 25 5.5s16.334 1 23.001 1h1356c6.66699 0 14.334 -0.333008 23.001 -1s17 -2.5 25 -5.5
s14.667 -7.83301 20 -14.5s8 -16 8 -28c0 -12.667 -2.66699 -22.5 -8 -29.5s-11.833 -12 -19.5 -15s-16 -4.83301 -25 -5.5s-17.5 -1 -25.5 -1h-1352zM218.998 238c-6.66699 0 -14.332 0.333008 -22.999 1s-17 2.5 -25 5.5s-14.667 7.83301 -20 14.5s-8 16 -8 28
c0 12.667 2.66699 22.5 8 29.5s11.833 12 19.5 15s16 4.83301 25 5.5s17.5 1 25.5 1h1352c8 0 16.5 -0.333008 25.5 -1s17.333 -2.5 25 -5.5s14.167 -8 19.5 -15s8 -16.833 8 -29.5c0 -12 -2.66699 -21.333 -8 -28s-12 -11.5 -20 -14.5s-16.333 -4.83301 -25 -5.5
s-16.334 -1 -23.001 -1h-1356z" />
    <glyph glyph-name="questiondown" unicode="&#x3e;" 
d="M309 -143c-12 -6.66699 -20.833 -10.499 -26.5 -11.499s-9.16699 -1.5 -10.5 -1.5c-14 0 -26 5 -36 15s-15 22.333 -15 37c0 13.333 4.5 24 13.5 32s19.5 15 31.5 21l1174 565l-1176 565c-9.33301 4 -18.833 9.66699 -28.5 17s-14.5 18.666 -14.5 33.999
c0 14.667 5 27 15 37s22 15 36 15c2 0 5.83301 -0.666992 11.5 -2s15.5 -5.66602 29.5 -12.999l1250 -602c10 -5.33301 19.667 -11.333 29 -18s14 -18.334 14 -35.001c0 -13.333 -4.5 -24 -13.5 -32s-19.5 -15 -31.5 -21z" />
    <glyph glyph-name="question" unicode="?" horiz-adv-x="1102" 
d="M555 455c0 -21.333 -1.5 -36.3311 -4.5 -44.998s-13.167 -13 -30.5 -13s-27.5 3.5 -30.5 10.5s-4.5 20.833 -4.5 41.5v86c0 39.333 4.66699 79.666 14 120.999s23 82 41 122s40.333 78.5 67 115.5s57 70.833 91 101.5c8 7.33301 16.5 15.666 25.5 24.999
s17 20.833 24 34.5s12.833 30.167 17.5 49.5s7 42.666 7 69.999c0 23.333 -2 47.5 -6 72.5s-14.167 47.667 -30.5 68s-41 37 -74 50s-78.833 19.5 -137.5 19.5c-38 0 -72.333 -3.66699 -103 -11s-57.667 -16.833 -81 -28.5s-43.166 -24.834 -59.499 -39.501
s-29.166 -29 -38.499 -43c24 -2 42.5 -7.66699 55.5 -17s22.5 -19.333 28.5 -30s9.5 -20.834 10.5 -30.501s1.5 -16.167 1.5 -19.5c0 -17.333 -3.16699 -32.166 -9.5 -44.499s-14.333 -22.5 -24 -30.5s-20 -13.833 -31 -17.5s-21.5 -5.5 -31.5 -5.5
c-8 0 -17.5 1.33301 -28.5 4s-21.833 7.83398 -32.5 15.501s-19.667 18 -27 31s-11 30.167 -11 51.5c0 34.667 8.33301 68.5 25 101.5s41.334 62.167 74.001 87.5s73.167 45.666 121.5 60.999s103.833 23 166.5 23c87.333 0 158.666 -9.33301 213.999 -28
s98.833 -41.834 130.5 -69.501s53.5 -57.667 65.5 -90s18 -62.166 18 -89.499c0 -31.333 -4.83301 -58.833 -14.5 -82.5s-21.334 -44.167 -35.001 -61.5s-27.834 -31.666 -42.501 -42.999s-27 -20 -37 -26c-38 -24 -73.667 -51.333 -107 -82s-62.333 -64 -87 -100
s-44.167 -74.667 -58.5 -116s-21.5 -84.666 -21.5 -129.999v-69zM637 117.002c0 -15.333 -2.83496 -29.998 -8.50195 -43.998s-13.667 -26.333 -24 -37s-22.833 -19.334 -37.5 -26.001s-31 -10 -49 -10c-14.667 0 -29 2.83301 -43 8.5s-26.5 13.667 -37.5 24
s-19.833 22.833 -26.5 37.5s-10 31 -10 49c0 14.667 2.83301 29 8.5 43s13.834 26.5 24.501 37.5s23.167 19.833 37.5 26.5s30.5 10 48.5 10c14.667 0 29.167 -2.83301 43.5 -8.5s26.833 -13.834 37.5 -24.501s19.334 -23.167 26.001 -37.5s10 -30.5 10 -48.5z" />
    <glyph glyph-name="at" unicode="@" horiz-adv-x="1796" 
d="M1350 446c0 -40.667 5.99512 -72.335 17.9951 -95.002s29.667 -34 53 -34c29.333 0 54.166 8.5 74.499 25.5s36.833 41.5 49.5 73.5s21.834 71.167 27.501 117.5s8.5 99.166 8.5 158.499c0 72 -9 139.167 -27 201.5s-43 119.166 -75 170.499s-69.667 96.833 -113 136.5
s-90.333 73.167 -141 100.5s-104 48 -160 62s-112 21 -168 21c-63.333 0 -124.166 -8 -182.499 -24s-112.833 -38.667 -163.5 -68s-96.667 -64.5 -138 -105.5s-76.833 -86.5 -106.5 -136.5s-52.667 -103.667 -69 -161s-24.5 -116.666 -24.5 -177.999
c0 -58 7.5 -115 22.5 -171s36.833 -109 65.5 -159s63.334 -96 104.001 -138s86.834 -78.333 138.501 -109s108 -54.5 169 -71.5s125.833 -25.5 194.5 -25.5c29.333 0 65.333 1.33301 108 4s90.167 8.33398 142.5 17.001s108.5 21 168.5 37s121.667 37 185 63l19 8
c4.66699 2 9.33398 3.5 14.001 4.5s9.66699 1.5 15 1.5h20h18c15.333 0 28.166 -1 38.499 -3s15.5 -9.33301 15.5 -22c0 -5.33301 -1.83301 -9.83301 -5.5 -13.5s-7.5 -6.5 -11.5 -8.5c-8.66699 -4 -33.334 -13.833 -74.001 -29.5s-93.334 -32 -158.001 -49
s-139 -32.333 -223 -46s-174 -20.5 -270 -20.5c-76.667 0 -148.834 9.33301 -216.501 28s-129.834 44.667 -186.501 78s-107.5 72.833 -152.5 118.5s-83 95.5 -114 149.5s-54.833 111.333 -71.5 172s-25 122.334 -25 185.001c0 66.667 9 131.167 27 193.5
s43.333 120.5 76 174.5s71.834 103.333 117.501 148s96.5 82.834 152.5 114.501s116 56.334 180 74.001s131 26.5 201 26.5c66 0 130.333 -8.16699 193 -24.5s122 -39.833 178 -70.5s107.333 -67.834 154 -111.501s87 -93 121 -148s60.5 -115 79.5 -180
s28.5 -134.167 28.5 -207.5c0 -51.333 -3.16699 -103.166 -9.5 -155.499s-18.166 -99.5 -35.499 -141.5s-41.5 -76.333 -72.5 -103s-71.167 -40 -120.5 -40c-12 0 -28.833 1.5 -50.5 4.5s-44 9.33301 -67 19s-44.167 23.667 -63.5 42s-32.666 42.833 -39.999 73.5l-23 -24
c-14 -14.667 -33.667 -30.5 -59 -47.5s-56 -32.5 -92 -46.5s-77 -21 -123 -21c-60.667 0 -118.167 11.5 -172.5 34.5s-102.166 54.833 -143.499 95.5s-74.166 88.5 -98.499 143.5s-36.5 114.167 -36.5 177.5c0 62.667 12 121.5 36 176.5s56.667 102.667 98 143
s89.166 72.166 143.499 95.499s112.166 35 173.499 35c18.667 0 40.667 -1.83301 66 -5.5s52.333 -11.5 81 -23.5s58 -29.333 88 -52s59 -53 87 -91h75c14.667 0 25.834 -0.5 33.501 -1.5s13.334 -3.33301 17.001 -7s5.83398 -9.16699 6.50098 -16.5s1 -17.333 1 -30v-488z
M1188 873.999c0 10 -0.165039 17.8311 -0.498047 23.498s-1.33301 11.167 -3 16.5s-4.5 11.166 -8.5 17.499s-9.66699 14.5 -17 24.5c-18.667 27.333 -38.834 50.333 -60.501 69s-44 33.834 -67 45.501s-45.833 20.167 -68.5 25.5s-44 8 -64 8
c-40 0 -77.833 -10.167 -113.5 -30.5s-66.667 -48.166 -93 -83.499s-47.333 -76.833 -63 -124.5s-23.5 -99.167 -23.5 -154.5s7.83301 -107 23.5 -155s36.667 -89.667 63 -125s57.333 -63.166 93 -83.499s73.5 -30.5 113.5 -30.5c24 0 48.167 3.33301 72.5 10
s48 16.5 71 29.5s44.833 29 65.5 48s39 41.167 55 66.5l14.5 21.5c3.66699 5.66699 6.16699 11 7.5 16s2.16602 10.333 2.49902 16s0.5 13.167 0.5 22.5v327z" />
    <glyph glyph-name="A" unicode="A" horiz-adv-x="1536" 
d="M1257 145c6 -16.667 12.6689 -30.3301 20.002 -40.9971s17.333 -19 30 -25s29 -10.167 49 -12.5s45.333 -3.5 76 -3.5h36v-63c-43.333 2 -87.833 3.5 -133.5 4.5s-90.5 1.5 -134.5 1.5h-68.5c-26.333 0 -53.166 -0.166992 -80.499 -0.5s-53.833 -1 -79.5 -2
s-47.834 -2.16699 -66.501 -3.5v63c14 0 30.667 0.333008 50 1s38 3 56 7s33.167 10.167 45.5 18.5s18.5 20.166 18.5 35.499c0 4 -0.666992 8.66699 -2 14s-2.66602 10.333 -3.99902 15l-108 313h-506l-95 -268c-1.33301 -2 -2.33301 -6.83301 -3 -14.5
s-1 -13.167 -1 -16.5c0 -13.333 3.16699 -26.333 9.5 -39s16 -23.834 29 -33.501s29.167 -17.5 48.5 -23.5s41.666 -9 66.999 -9v-63c-16.667 0.666992 -35.334 1.33398 -56.001 2.00098l-63 2c-21.333 0.666992 -42.166 1.16699 -62.499 1.5s-38.5 0.5 -54.5 0.5
c-18 0 -36.833 -0.166992 -56.5 -0.5s-38.834 -0.833008 -57.501 -1.5s-36 -1.33398 -52 -2.00098s-30 -1.33398 -42 -2.00098v63c27.333 0.666992 53 3.33398 77 8.00098s45.667 12.167 65 22.5s36.333 24.333 51 42s26.667 39.5 36 65.5l424 1224
c5.33301 14.667 10.666 25.167 15.999 31.5s16.333 9.5 33 9.5c8 0 14.5 -0.833008 19.5 -2.5s9.16699 -4.33398 12.5 -8.00098s6 -8 8 -13l7 -17.5zM477.002 530.004h461l-231 666z" />
    <glyph glyph-name="B" unicode="B" horiz-adv-x="1450" 
d="M752 750c56.667 0 105.664 9.66699 146.997 29s75.333 43.833 102 73.5s46.334 62.334 59.001 98.001s19 69.834 19 102.501c0 26.667 -4.66699 56.5 -14 89.5s-24.666 63.667 -45.999 92s-49.166 52.166 -83.499 71.499s-76.5 29 -126.5 29h-254
c-24 0 -42.667 -1.16699 -56 -3.5s-23.333 -6.5 -30 -12.5s-10.667 -14.333 -12 -25s-2 -24.334 -2 -41.001v-503h297zM937.997 731c56.667 -6 109.167 -19.499 157.5 -40.499s90 -47.5 125 -79.5s62.5 -68.167 82.5 -108.5s30 -82.833 30 -127.5
c0 -48 -11 -94.667 -33 -140s-53 -85.333 -93 -120s-88 -62.5 -144 -83.5s-118 -31.5 -186 -31.5h-803v63h49c39.333 0 70 1.5 92 4.5s38.167 8.33301 48.5 16s16.5 17.667 18.5 30s3 27.833 3 46.5v1079c0 18.667 -1 34.167 -3 46.5s-8.16699 22.166 -18.5 29.499
s-26.5 12.5 -48.5 15.5s-52.667 4.5 -92 4.5h-49v64h749c66.667 0 127.834 -9.66699 183.501 -29s103.667 -45 144 -77s71.666 -68.833 93.999 -110.5s33.5 -84.834 33.5 -129.501c0 -38 -8.33301 -74.333 -25 -109s-40 -66.167 -70 -94.5s-65.833 -52.666 -107.5 -72.999
s-87.5 -35.5 -137.5 -45.5zM810.997 63.001c52.667 0 98.833 9.50195 138.5 28.502s72.667 43.5 99 73.5s46.166 63.667 59.499 101s20 74.333 20 111c0 34 -5.5 70.333 -16.5 109s-28.167 74.167 -51.5 106.5s-53.166 59.166 -89.499 80.499s-79.833 32 -130.5 32h-385
v-560c0 -16.667 0.666992 -30.334 2 -41.001s5.33301 -19 12 -25s16.667 -10.167 30 -12.5s32 -3.5 56 -3.5h256z" />
    <glyph glyph-name="C" unicode="C" horiz-adv-x="1479" 
d="M115 700c0 69.333 8.66699 135.997 26 199.997s41.833 123.5 73.5 178.5s69.334 105 113.001 150s91.834 83.5 144.501 115.5s109 56.667 169 74s122 26 186 26c49.333 0 93.166 -5.66699 131.499 -17s72.5 -25.833 102.5 -43.5s56.5 -36.834 79.5 -57.501l63.5 -58
l103 151c8 12.667 14.333 20 19 22s9 3 13 3c11.333 0 18 -3.83301 20 -11.5s3 -20.167 3 -37.5v-486c0 -10.667 -0.166992 -19.167 -0.5 -25.5s-1.5 -11.333 -3.5 -15s-5.33301 -6 -10 -7s-11 -1.5 -19 -1.5c-14.667 0 -23.334 2.16699 -26.001 6.5s-5 13.833 -7 28.5
c-10 74.667 -28.5 142 -55.5 202s-60.167 111 -99.5 153s-83.666 74.167 -132.999 96.5s-102 33.5 -158 33.5c-20.667 0 -48 -2.66699 -82 -8s-70.5 -16.166 -109.5 -32.499s-78.167 -39.833 -117.5 -70.5s-75 -71.334 -107 -122.001s-58 -112.667 -78 -186
s-30 -161 -30 -263c0 -101.333 10.167 -188.666 30.5 -261.999s46.5 -135.166 78.5 -185.499s67.833 -90.833 107.5 -121.5s79 -54.167 118 -70.5s75.5 -27.166 109.5 -32.499s61.333 -8 82 -8c56 0 110.5 10.333 163.5 31s100.667 50.667 143 90s77.333 87.5 105 144.5
s43.5 122.167 47.5 195.5c1.33301 10.667 2.83301 18.834 4.5 24.501s8.16699 8.5 19.5 8.5c13.333 0 21.166 -3.16699 23.499 -9.5s3.5 -14.833 3.5 -25.5c0 -39.333 -5.5 -79.666 -16.5 -120.999s-27 -81.333 -48 -120s-46.833 -75 -77.5 -109
s-65.834 -63.833 -105.501 -89.5s-83.667 -45.834 -132 -60.501s-100.166 -22 -155.499 -22c-63.333 0 -125 8.5 -185 25.5s-116.333 41.333 -169 73s-101 70 -145 115s-81.667 95 -113 150s-55.833 114.667 -73.5 179s-26.5 131.833 -26.5 202.5z" />
    <glyph glyph-name="D" unicode="D" horiz-adv-x="1563" 
d="M821 1399c58 0 113.828 -8.49707 167.495 -25.4971s103.834 -41 150.501 -72s89 -68.333 127 -112s70.5 -91.834 97.5 -144.501s47.833 -109.167 62.5 -169.5s22 -122.833 22 -187.5c0 -64 -7.5 -125.5 -22.5 -184.5s-36.167 -114 -63.5 -165
s-60.166 -97.333 -98.499 -139s-80.666 -77.334 -126.999 -107.001s-96.166 -52.5 -149.499 -68.5s-108.666 -24 -165.999 -24h-749v63h49c39.333 0 70 1.5 92 4.5s38.167 8.33301 48.5 16s16.5 17.667 18.5 30s3 27.833 3 46.5v1079c0 18.667 -1 34.167 -3 46.5
s-8.16699 22.166 -18.5 29.499s-26.5 12.5 -48.5 15.5s-52.667 4.5 -92 4.5h-49v64h749zM765.995 63.0029c52 0 98.333 6.50098 139 19.501s76 28.667 106 47s54.833 37.5 74.5 57.5s34.5 37 44.5 51c18.667 24.667 35 51.5 49 80.5s25.667 61.333 35 97
s16.5 75.834 21.5 120.501s7.5 95.334 7.5 152.001c0 40 -1.33301 80.667 -4 122s-8 81.666 -16 120.999s-18.833 77.333 -32.5 114s-31.5 70 -53.5 100c-26 36 -54.167 66.167 -84.5 90.5s-61.5 43.833 -93.5 58.5s-64.5 25.167 -97.5 31.5s-65.5 9.5 -97.5 9.5h-205
c-24 0 -42.667 -1.16699 -56 -3.5s-23.333 -6.5 -30 -12.5s-10.667 -14.333 -12 -25s-2 -24.334 -2 -41.001v-1108c0 -16.667 0.666992 -30.334 2 -41.001s5.33301 -19 12 -25s16.667 -10.167 30 -12.5s32 -3.5 56 -3.5h207z" />
    <glyph glyph-name="E" unicode="E" horiz-adv-x="1393" 
d="M279 1233c0 18.667 -1.00098 34.1719 -3.00098 46.5049s-8.33301 22.166 -19 29.499s-26.834 12.5 -48.501 15.5s-52.167 4.5 -91.5 4.5h-49v64h1153l57 -461h-51c-8 71.333 -18.833 132.166 -32.5 182.499s-34.667 91.333 -63 123s-66.833 54.834 -115.5 69.501
s-112.334 22 -191.001 22h-264c-24 0 -42.667 -1.16699 -56 -3.5s-23.333 -6.5 -30 -12.5s-10.667 -14.333 -12 -25s-2 -24.334 -2 -41.001v-491h184c50 0 89.5 4.16699 118.5 12.5s51.167 22 66.5 41s25.166 43.667 29.499 74s6.5 67.5 6.5 111.5h52v-542h-52
c0 43.333 -2.16699 80.166 -6.5 110.499s-14.166 55 -29.499 74s-37.5 32.833 -66.5 41.5s-68.5 13 -118.5 13h-184v-547c0 -16.667 0.666992 -30.334 2 -41.001s5.33301 -19 12 -25s16.667 -10.167 30 -12.5s32 -3.5 56 -3.5h273c58.667 0 109.334 4.16699 152.001 12.5
s79.334 21 110.001 38s56 38.333 76 64s37 55.667 51 90s25.5 73.166 34.5 116.499s17.833 91.333 26.5 144h51l-86 -528h-1181v63h49c39.333 0 69.833 1.5 91.5 4.5s37.834 8.33301 48.501 16s17 17.667 19 30s3 27.833 3 46.5v1073z" />
    <glyph glyph-name="F" unicode="F" horiz-adv-x="1335" 
d="M1249 932l-51.001 0.00488281c-8 70.667 -18.5 131 -31.5 181s-33.333 91 -61 123s-65.167 55.5 -112.5 70.5s-109.333 22.5 -186 22.5h-246c-24 0 -42.667 -1.16699 -56 -3.5s-23.333 -6.5 -30 -12.5s-10.667 -14.333 -12 -25s-2 -24.334 -2 -41.001v-518h176
c49.333 0 88.333 4.5 117 13.5s50.5 23 65.5 42s24.5 43.667 28.5 74s6 67.166 6 110.499h51v-543h-51c0 43.333 -2 80.333 -6 111s-13.5 55.5 -28.5 74.5s-36.833 32.833 -65.5 41.5s-67.667 13 -117 13h-176v-504c0 -18 1 -33.333 3 -46s9 -22.834 21 -30.501
s31.167 -13.334 57.5 -17.001s63.833 -5.5 112.5 -5.5h68v-63c-18.667 1.33301 -43.167 2.5 -73.5 3.5s-62 1.66699 -95 2s-65.333 0.5 -97 0.5h-78.5h-72.5c-28.333 0 -57.166 -0.166992 -86.499 -0.5s-57.5 -1 -84.5 -2s-49.5 -2.16699 -67.5 -3.5v63h49
c39.333 0 69.833 1.5 91.5 4.5s37.834 8.33301 48.501 16s17 17.667 19 30s3 27.833 3 46.5v1073c0 18.667 -1 34.167 -3 46.5s-8.33301 22.166 -19 29.499s-26.834 12.5 -48.501 15.5s-52.167 4.5 -91.5 4.5h-49v64h1124z" />
    <glyph glyph-name="G" unicode="G" horiz-adv-x="1606" 
d="M1214 129c-17.333 -30 -40.0107 -56.001 -68.0107 -78.001s-59 -40.167 -93 -54.5s-70.167 -24.833 -108.5 -31.5s-76.166 -10 -113.499 -10c-64.667 0 -127.334 8.66699 -188.001 26s-117.5 42 -170.5 74s-101.5 70.5 -145.5 115.5s-81.667 95 -113 150
s-55.666 114.5 -72.999 178.5s-26 131 -26 201s8.83301 137 26.5 201s42.167 123.5 73.5 178.5s69 105 113 150s92.333 83.333 145 115s109 56.167 169 73.5s121.667 26 185 26c50.667 0 95.834 -6.16699 135.501 -18.5s74.834 -27.5 105.501 -45.5
s57.334 -37.167 80.001 -57.5s42 -38.5 58 -54.5l103 151c8 12.667 14.333 20 19 22s9 3 13 3c11.333 0 18 -3.83301 20 -11.5s3 -20.167 3 -37.5v-486c0 -10.667 -0.166992 -19.167 -0.5 -25.5s-1.5 -11.333 -3.5 -15s-5.33301 -6 -10 -7s-11 -1.5 -19 -1.5
c-7.33301 0 -12.833 0.5 -16.5 1.5s-6.5 2.66699 -8.5 5s-3.5 5.83301 -4.5 10.5s-2.16699 10.667 -3.5 18c-10 75.333 -28.667 143 -56 203s-60.833 110.833 -100.5 152.5s-84.167 73.667 -133.5 96s-101.333 33.5 -156 33.5c-15.333 0 -34.666 -1.33301 -57.999 -4
s-48.666 -8 -75.999 -16s-56.166 -19.167 -86.499 -33.5s-60 -33.166 -89 -56.499s-56.5 -51.833 -82.5 -85.5s-49 -73.667 -69 -120s-35.833 -99.5 -47.5 -159.5s-17.5 -128.333 -17.5 -205c0 -101.333 10.167 -188.666 30.5 -261.999s46.833 -135.333 79.5 -186
s69.167 -91.334 109.5 -122.001s80.333 -54.334 120 -71.001s77.167 -27.667 112.5 -33s64 -8 86 -8c9.33301 0 23.833 0.833008 43.5 2.5s41.334 5.33398 65.001 11.001s47.834 13.834 72.501 24.501s47.167 25.167 67.5 43.5s37 41.166 50 68.499s19.5 60 19.5 98v131
c0 18.667 -1.33301 34.5 -4 47.5s-10.167 23.167 -22.5 30.5s-31.333 12.666 -57 15.999s-61.5 5 -107.5 5h-65v63c18 -1.33301 41.5 -2.5 70.5 -3.5s59.333 -1.66699 91 -2s62.5 -0.5 92.5 -0.5h75c15.333 0 33.5 0.166992 54.5 0.5s42.833 0.833008 65.5 1.5l68 2
c22.667 0.666992 43.334 1.33398 62.001 2.00098v-63c-33.333 0 -59.333 -1 -78 -3s-32.667 -6.16699 -42 -12.5s-15.166 -15.333 -17.499 -27s-3.5 -27.5 -3.5 -47.5v-357c0 -15.333 -0.666992 -27 -2 -35s-6.66602 -12 -15.999 -12c-6 0 -14.833 4.5 -26.5 13.5
s-24.334 20 -38.001 33s-26.667 26.833 -39 41.5s-21.833 27.667 -28.5 39z" />
    <glyph glyph-name="H" unicode="H" horiz-adv-x="1536" 
d="M1255 160c0 -18.667 0.999023 -34.167 2.99902 -46.5s8.33301 -22.333 19 -30s26.834 -13 48.501 -16s52.167 -4.5 91.5 -4.5h49v-63c-18 1.33301 -40.167 2.5 -66.5 3.5s-53.833 1.66699 -82.5 2s-56.667 0.5 -84 0.5h-70h-69.5c-27 0 -54.667 -0.166992 -83 -0.5
s-55.666 -1 -81.999 -2s-48.5 -2.16699 -66.5 -3.5v63h49c39.333 0 70 1.5 92 4.5s38.167 8.33301 48.5 16s16.5 17.667 18.5 30s3 27.833 3 46.5v536h-612v-536c0 -18.667 1 -34.167 3 -46.5s8.16699 -22.333 18.5 -30s26.5 -13 48.5 -16s52.667 -4.5 92 -4.5h49v-63
c-18 1.33301 -40.333 2.5 -67 3.5s-54.167 1.66699 -82.5 2s-56.166 0.5 -83.499 0.5h-70h-70c-27.333 0 -55.166 -0.166992 -83.499 -0.5s-55.5 -1 -81.5 -2s-48 -2.16699 -66 -3.5v63h49c39.333 0 69.833 1.5 91.5 4.5s37.834 8.33301 48.501 16s17 17.667 19 30
s3 27.833 3 46.5v1079c0 18.667 -1 34.167 -3 46.5s-8.33301 22.166 -19 29.499s-26.834 12.5 -48.501 15.5s-52.167 4.5 -91.5 4.5h-49v64c18 -1.33301 40.167 -2.5 66.5 -3.5s53.833 -1.66699 82.5 -2s56.667 -0.5 84 -0.5h70h69.5c27 0 54.667 0.166992 83 0.5
s55.666 1 81.999 2s48.5 2.16699 66.5 3.5v-64h-49c-39.333 0 -70 -1.5 -92 -4.5s-38.167 -8.16699 -48.5 -15.5s-16.5 -17.166 -18.5 -29.499s-3 -27.833 -3 -46.5v-479h612v479c0 18.667 -1 34.167 -3 46.5s-8.16699 22.166 -18.5 29.499s-26.5 12.5 -48.5 15.5
s-52.667 4.5 -92 4.5h-49v64c18 -1.33301 40.167 -2.5 66.5 -3.5s53.833 -1.66699 82.5 -2s56.667 -0.5 84 -0.5h70h70c27.333 0 55.166 0.166992 83.499 0.5s55.5 1 81.5 2s48 2.16699 66 3.5v-64h-49c-39.333 0 -69.833 -1.5 -91.5 -4.5s-37.834 -8.16699 -48.501 -15.5
s-17 -17.166 -19 -29.499s-3 -27.833 -3 -46.5v-1079z" />
    <glyph glyph-name="I" unicode="I" horiz-adv-x="739" 
d="M461 160c0 -18.667 1.16699 -34.167 3.5 -46.5s9 -22.333 20 -30s27.667 -13 50 -16s53.833 -4.5 94.5 -4.5h53v-63c-18 1.33301 -40.667 2.5 -68 3.5s-55.833 1.66699 -85.5 2s-58.667 0.5 -87 0.5h-72.5h-71.5c-28.333 0 -57.333 -0.166992 -87 -0.5
s-58.167 -1 -85.5 -2s-50 -2.16699 -68 -3.5v63h54c40 0 71.333 1.5 94 4.5s39.5 8.33301 50.5 16s17.667 17.667 20 30s3.5 27.833 3.5 46.5v1079c0 18.667 -1.16699 34.167 -3.5 46.5s-9 22.166 -20 29.499s-27.833 12.5 -50.5 15.5s-54 4.5 -94 4.5h-54v64
c18 -1.33301 40.667 -2.5 68 -3.5s56 -1.66699 86 -2s59.167 -0.5 87.5 -0.5h72.5h71c28 0 56.833 0.166992 86.5 0.5s58.167 1 85.5 2s50 2.16699 68 3.5v-64h-53c-40.667 0 -72.167 -1.5 -94.5 -4.5s-39 -8.16699 -50 -15.5s-17.667 -17.166 -20 -29.499
s-3.5 -27.833 -3.5 -46.5v-1079z" />
    <glyph glyph-name="J" unicode="J" horiz-adv-x="1051" 
d="M618 1237c0 18 -1.00195 33.1689 -3.00195 45.502s-9.33301 22.5 -22 30.5s-32.5 13.667 -59.5 17s-65.5 5 -115.5 5h-74v64c19.333 -1.33301 44.166 -2.5 74.499 -3.5s61.833 -1.66699 94.5 -2s64.667 -0.5 96 -0.5h79c48 0 92.667 0.5 134 1.5s84.666 2.5 129.999 4.5
v-64c-32 0 -58.333 -0.5 -79 -1.5s-36.667 -4 -48 -9s-19.166 -13.333 -23.499 -25s-6.5 -27.834 -6.5 -48.501v-909v-41v-24c0 -6 -0.166992 -10.667 -0.5 -14s-0.833008 -7 -1.5 -11c-6 -38.667 -19.333 -75.834 -40 -111.501s-47.5 -67.334 -80.5 -95.001
s-71.667 -49.667 -116 -66s-92.5 -24.5 -144.5 -24.5c-46 0 -88.833 7.16699 -128.5 21.5s-74.334 34 -104.001 59s-53 54 -70 87s-25.5 68.5 -25.5 106.5c0 22.667 3.83301 41.5 11.5 56.5s17.334 27.167 29.001 36.5s24.167 16 37.5 20s25.666 6 36.999 6
c14 0 27.833 -2.5 41.5 -7.5s25.834 -12.333 36.501 -22s19.334 -21.667 26.001 -36s10 -30.833 10 -49.5c0 -13.333 -1.83301 -26.666 -5.5 -39.999s-10.334 -25.5 -20.001 -36.5s-23 -20 -40 -27s-38.833 -10.5 -65.5 -10.5c18.667 -30 40.334 -53 65.001 -69
s48.334 -27.667 71.001 -35s42.5 -11.666 59.5 -12.999s27.167 -2 30.5 -2c26.667 0 52.667 7 78 21s47.833 34 67.5 60s35.334 57.667 47.001 95s17.5 79.666 17.5 126.999v934z" />
    <glyph glyph-name="K" unicode="K" horiz-adv-x="1591" 
d="M1292 162c15.333 -22.667 29.9971 -40.499 43.9971 -53.499s29.167 -22.833 45.5 -29.5s34.5 -11 54.5 -13s43.667 -3 71 -3v-63c-86 4 -164.333 6 -235 6h-68.5c-26.333 0 -53.166 -0.166992 -80.499 -0.5s-53.666 -1 -78.999 -2s-47 -2.16699 -65 -3.5v63
c10 0 22 0.333008 36 1s27.333 3 40 7s23.334 10.167 32.001 18.5s13 20.166 13 35.499c0 12.667 -3.66699 25.167 -11 37.5l-20 32.5l-371 548l-237 -225v-358c0 -18.667 1 -34.167 3 -46.5s8.16699 -22.333 18.5 -30s26.5 -13 48.5 -16s52.667 -4.5 92 -4.5h49v-63
c-18 1.33301 -40.333 2.5 -67 3.5s-54.167 1.66699 -82.5 2s-56.166 0.5 -83.499 0.5h-70h-70c-27.333 0 -55.166 -0.166992 -83.499 -0.5s-55.5 -1 -81.5 -2s-48 -2.16699 -66 -3.5v63h49c39.333 0 69.833 1.5 91.5 4.5s37.834 8.33301 48.501 16s17 17.667 19 30
s3 27.833 3 46.5v1079c0 18.667 -1 34.167 -3 46.5s-8.33301 22.166 -19 29.499s-26.834 12.5 -48.501 15.5s-52.167 4.5 -91.5 4.5h-49v64c18 -1.33301 40.167 -2.5 66.5 -3.5s53.833 -1.66699 82.5 -2s56.667 -0.5 84 -0.5h70h69.5c27 0 54.667 0.166992 83 0.5
s55.666 1 81.999 2s48.5 2.16699 66.5 3.5v-64h-49c-39.333 0 -70 -1.5 -92 -4.5s-38.167 -8.16699 -48.5 -15.5s-16.5 -17.166 -18.5 -29.499s-3 -27.833 -3 -46.5v-651l641 612c8 7.33301 16.167 16.333 24.5 27s12.5 24.334 12.5 41.001
c0 4.66699 -1.16699 10.667 -3.5 18s-6.83301 14.5 -13.5 21.5s-16.167 13.167 -28.5 18.5s-28.833 8.33301 -49.5 9v64c17.333 -1.33301 37.333 -2.5 60 -3.5s45.667 -1.66699 69 -2s46.5 -0.5 69.5 -0.5h62.5c28 0 57.167 0.166992 87.5 0.5
s59.166 2.16602 86.499 5.49902v-64c-41.333 -0.666992 -79 -6.66699 -113 -18s-63.5 -24 -88.5 -38s-45.167 -27.667 -60.5 -41s-25 -22 -29 -26l-369 -354z" />
    <glyph glyph-name="L" unicode="L" horiz-adv-x="1280" 
d="M1135 0l-1067 -0.000976562v63h49c39.333 0 69.833 1.5 91.5 4.5s37.834 8.33301 48.501 16s17 17.667 19 30s3 27.833 3 46.5v1079c0 18.667 -1 34.167 -3 46.5s-8.33301 22.166 -19 29.499s-26.834 12.5 -48.501 15.5s-52.167 4.5 -91.5 4.5h-49v64
c18 -1.33301 40.5 -2.5 67.5 -3.5s55.167 -1.66699 84.5 -2s58.166 -0.5 86.499 -0.5h72.5h78.5c31.667 0 64 0.166992 97 0.5s64.667 1 95 2s54.833 2.16699 73.5 3.5v-64h-68c-48.667 0 -86.167 -1.83301 -112.5 -5.5s-45.5 -9.5 -57.5 -17.5s-19 -18.167 -21 -30.5
s-3 -27.166 -3 -44.499v-1092c0 -16.667 0.666992 -30.334 2 -41.001s5.33301 -19 12 -25s16.667 -10.167 30 -12.5s32 -3.5 56 -3.5h168c60 0 111.333 6.66699 154 20s78.667 31.333 108 54s52.833 49.334 70.5 80.001s31.834 63.167 42.501 97.5s18.5 69.833 23.5 106.5
s9.5 72.334 13.5 107.001h51z" />
    <glyph glyph-name="M" unicode="M" horiz-adv-x="1876" 
d="M938 207l448 1153l9.5 22c2.33301 5.33301 5.66602 9.16602 9.99902 11.499s10.166 3.83301 17.499 4.5s17.666 1 30.999 1h346v-64h-49c-39.333 0 -70 -1.5 -92 -4.5s-38.167 -8.16699 -48.5 -15.5s-16.5 -17.166 -18.5 -29.499s-3 -27.833 -3 -46.5v-1079
c0 -18.667 1 -34.167 3 -46.5s8.16699 -22.333 18.5 -30s26.5 -13 48.5 -16s52.667 -4.5 92 -4.5h49v-63c-19.333 1.33301 -41.666 2.5 -66.999 3.5s-51.333 1.66699 -78 2s-53 0.5 -79 0.5h-69h-69c-26 0 -52.667 -0.166992 -80 -0.5s-53.833 -1 -79.5 -2
s-47.834 -2.16699 -66.501 -3.5v63h50c39.333 0 69.833 1.5 91.5 4.5s37.667 8.33301 48 16s16.5 17.667 18.5 30s3 27.833 3 46.5v1175h-2l-503 -1296c-4.66699 -11.333 -9.16699 -20.666 -13.5 -27.999s-12.166 -11 -23.499 -11c-10.667 0 -18.834 4.16699 -24.501 12.5
s-11.167 19.166 -16.5 32.499l-494 1274h-2v-1104c0 -14 1.16699 -29.667 3.5 -47s10 -33.833 23 -49.5s33.833 -28.834 62.5 -39.501s69.334 -16 122.001 -16v-63c-18 0.666992 -37.5 1.33398 -58.5 2.00098l-63 2c-21 0.666992 -41.833 1.16699 -62.5 1.5
s-39.334 0.5 -56.001 0.5s-35.167 -0.166992 -55.5 -0.5s-41.166 -0.833008 -62.499 -1.5l-63 -2c-20.667 -0.666992 -40 -1.33398 -58 -2.00098v63c52.667 0 93.334 5.33301 122.001 16s49.5 23.834 62.5 39.501s20.667 32.167 23 49.5s3.5 33 3.5 47v1024
c0 18.667 -1 34.167 -3 46.5s-8.16699 22.166 -18.5 29.499s-26.5 12.5 -48.5 15.5s-52.667 4.5 -92 4.5h-49v64h346c12 0 21.5 -0.166992 28.5 -0.5s13 -2 18 -5s9.33301 -7.5 13 -13.5s7.83398 -14.667 12.501 -26z" />
    <glyph glyph-name="N" unicode="N" horiz-adv-x="1536" 
d="M1198 309l0.00195312 875c0 14 -1.16699 29.667 -3.5 47s-10 33.666 -23 48.999s-33.833 28.333 -62.5 39s-69.334 16 -122.001 16v64c18 -0.666992 37.5 -1.33398 58.5 -2.00098l63 -2c21 -0.666992 41.667 -1.16699 62 -1.5s39.166 -0.5 56.499 -0.5
c16.667 0 35.167 0.166992 55.5 0.5s41.166 0.833008 62.499 1.5l63 2c20.667 0.666992 40 1.33398 58 2.00098v-64c-52.667 0 -93.334 -5.33301 -122.001 -16s-49.5 -23.667 -62.5 -39s-20.667 -31.666 -23 -48.999s-3.5 -33 -3.5 -47v-1131
c0 -19.333 -1.16699 -33 -3.5 -41s-10.5 -12 -24.5 -12c-7.33301 -0 -12.833 1.33301 -16.5 4s-9.83398 10.334 -18.501 23.001l-836 1228c-4 6.66699 -7 11.167 -9 13.5s-5.66699 6.16602 -11 11.499v-1065c0 -14 1.16699 -29.667 3.5 -47s10 -33.833 23 -49.5
s33.833 -28.834 62.5 -39.501s69.334 -16 122.001 -16v-63c-18 0.666992 -37.5 1.33398 -58.5 2.00098l-63 2c-21 0.666992 -41.833 1.16699 -62.5 1.5s-39.334 0.5 -56.001 0.5s-35.167 -0.166992 -55.5 -0.5s-41.166 -0.833008 -62.499 -1.5l-63 -2
c-20.667 -0.666992 -40 -1.33398 -58 -2.00098v63c52.667 0 93.334 5.33301 122.001 16s49.5 23.834 62.5 39.501s20.667 32.167 23 49.5s3.5 33 3.5 47v1069c0 10 -0.333008 17.667 -1 23s-2.66699 9.5 -6 12.5s-8.33301 5.33301 -15 7s-16 3.16699 -28 4.5
c-15.333 1.33301 -32.333 2.33301 -51 3s-35.667 1 -51 1h-59v64h348c10 0 17.833 -0.166992 23.5 -0.5s10.334 -1.5 14.001 -3.5s7 -4.83301 10 -8.5l11.5 -14.5z" />
    <glyph glyph-name="O" unicode="O" horiz-adv-x="1591" 
d="M1477 694c0 -68.667 -8.16602 -134.666 -24.499 -197.999s-39.5 -122.333 -69.5 -177s-65.833 -104.334 -107.5 -149.001s-87.834 -83 -138.501 -115s-104.834 -56.667 -162.501 -74s-117.5 -26 -179.5 -26c-60.667 0 -119.667 8.5 -177 25.5
s-111.166 41.167 -161.499 72.5s-96.5 69.333 -138.5 114s-78 94.334 -108 149.001s-53.333 113.834 -70 177.501s-25 130.5 -25 200.5c0 70.667 8.33301 138.167 25 202.5s40 124.166 70 179.499s65.833 105.666 107.5 150.999s87.667 84.166 138 116.499
s104.166 57.166 161.499 74.499s116.666 26 177.999 26c62 0 121.833 -8.83301 179.5 -26.5s111.834 -42.667 162.501 -75s96.834 -71.166 138.501 -116.499s77.5 -95.833 107.5 -151.5s53.167 -115.667 69.5 -180s24.5 -131.166 24.5 -200.499zM797.001 8.00098
c31.333 0 64.668 5.16406 100.001 15.4971s70.333 26.833 105 49.5s68 52.334 100 89.001s60.167 81.5 84.5 134.5s43.666 114.667 57.999 185s21.5 150.833 21.5 241.5c0 87.333 -7.5 164.5 -22.5 231.5s-35 125.333 -60 175s-53.667 91.334 -86 125.001
s-66 60.834 -101 81.501s-70 35.334 -105 44.001s-67.167 13 -96.5 13c-28 0 -59.167 -4.33301 -93.5 -13s-68.833 -23 -103.5 -43s-68.334 -46.667 -101.001 -80s-61.667 -74.833 -87 -124.5s-45.666 -108.334 -60.999 -176.001s-23 -145.5 -23 -233.5
c0 -89.333 7 -169 21 -239s33 -131.5 57 -184.5s51.833 -98 83.5 -135s65 -67 100 -90s70.5 -39.833 106.5 -50.5s70.333 -16 103 -16z" />
    <glyph glyph-name="P" unicode="P" horiz-adv-x="1393" 
d="M465 160c0 -18.667 0.99707 -34.166 2.99707 -46.499s8.16699 -22.333 18.5 -30s26.5 -13 48.5 -16s52.667 -4.5 92 -4.5h49v-63c-18 1.33301 -40.333 2.5 -67 3.5s-54.167 1.66699 -82.5 2s-56.166 0.5 -83.499 0.5h-70h-70c-27.333 0 -55.166 -0.166992 -83.499 -0.5
s-55.5 -1 -81.5 -2s-48 -2.16699 -66 -3.5v63h49c39.333 0 70 1.5 92 4.5s38.167 8.33301 48.5 16s16.5 17.667 18.5 30s3 27.833 3 46.5v1079c0 18.667 -1 34.167 -3 46.5s-8.16699 22.166 -18.5 29.499s-26.5 12.5 -48.5 15.5s-52.667 4.5 -92 4.5h-49v64h723
c70 0 134.5 -10.5 193.5 -31.5s110 -49 153 -84s76.5 -75.5 100.5 -121.5s36 -94 36 -144c0 -51.333 -12.833 -99.5 -38.5 -144.5s-60 -84.333 -103 -118s-92.667 -60.167 -149 -79.5s-115.166 -29 -176.499 -29h-346v-487zM740.997 700.001c54 0 99.667 5.66797 137 17.001
s68.166 26 92.499 44s43 38.667 56 62s22.5 46.666 28.5 69.999s9.5 46 10.5 68s1.5 41 1.5 57c0 16.667 -0.5 36 -1.5 58s-4.5 44.833 -10.5 68.5s-15.5 46.834 -28.5 69.501s-31.667 43 -56 61s-55.166 32.5 -92.499 43.5s-83 16.5 -137 16.5h-182
c-24 0 -42.667 -1.16699 -56 -3.5s-23.333 -6.5 -30 -12.5s-10.667 -14.333 -12 -25s-2 -24.334 -2 -41.001v-553h282z" />
    <glyph glyph-name="Q" unicode="Q" horiz-adv-x="1591" 
d="M659 33c-0.666992 0.666992 -2.50098 3.66895 -5.50098 9.00195s-6.16699 12.333 -9.5 21s-6.33301 18.667 -9 30s-4 24 -4 38c0 20.667 3.83301 41.334 11.5 62.001s18.667 39.167 33 55.5s32 29.5 53 39.5s44.5 15 70.5 15c30 0 56.833 -5.83301 80.5 -17.5
s44.834 -27.5 63.501 -47.5s35 -43.167 49 -69.5s26.667 -53.833 38 -82.5c36 26.667 67 56.5 93 89.5s48 67.667 66 104s32.5 73.333 43.5 111s19.333 74.5 25 110.5s9.5 70.5 11.5 103.5s3 62.833 3 89.5c0 87.333 -7.16699 165.166 -21.5 233.499
s-33.666 128.333 -57.999 180s-52.5 95.667 -84.5 132s-65.667 65.833 -101 88.5s-71.333 39.167 -108 49.5s-71.334 15.5 -104.001 15.5c-31.333 0 -65 -5 -101 -15s-71.5 -26 -106.5 -48s-68.667 -50.833 -101 -86.5s-61 -79.5 -86 -131.5s-44.833 -112.5 -59.5 -181.5
s-22 -147.833 -22 -236.5c0 -78.667 5.83301 -148.667 17.5 -210s27 -115.333 46 -162s40.667 -86.667 65 -120s49.166 -61.333 74.499 -84s49.833 -40.834 73.5 -54.501s44.834 -23.834 63.501 -30.501zM976.999 53.002c-6 30 -13.3359 57.5 -22.0029 82.5
s-20 46.5 -34 64.5s-31 32.167 -51 42.5s-43.667 15.5 -71 15.5c-20 0 -37.667 -3.83301 -53 -11.5s-28.166 -17.667 -38.499 -30s-18.166 -26 -23.499 -41s-8 -29.833 -8 -44.5c0 -8 1.33301 -19 4 -33s8.33398 -27.833 17.001 -41.5s21 -25.5 37 -35.5s37 -15 63 -15
c22.667 0 49.5 3 80.5 9s64.167 18.667 99.5 38zM1061 14.002c12 -32.667 24.5029 -61.498 37.5029 -86.498s27.333 -45.833 43 -62.5s32.834 -29.334 51.501 -38.001s40 -13 64 -13c22 0 43.667 3.83301 65 11.5s40.5 18.667 57.5 33s31.167 32.166 42.5 53.499
s18.666 46 21.999 74c1.33301 10 3 18.667 5 26s7.66699 11 17 11c11.333 0 18 -4.66699 20 -14s3 -19 3 -29c0 -17.333 -1.33301 -38.833 -4 -64.5s-7.33398 -52.334 -14.001 -80.001s-15.834 -55.334 -27.501 -83.001s-26.667 -52.667 -45 -75s-40.5 -40.333 -66.5 -54
s-56.333 -20.5 -91 -20.5c-47.333 0 -85.5 10.833 -114.5 32.5s-52.333 50.334 -70 86.001s-31 76.5 -40 122.5s-17.5 93.333 -25.5 142c-30 -9.33301 -61.833 -16.833 -95.5 -22.5s-66.5 -8.5 -98.5 -8.5c-62 0 -122 8.66699 -180 26s-112.167 42 -162.5 74
s-96.333 70.333 -138 115s-77.5 94.334 -107.5 149.001s-53.167 113.667 -69.5 177s-24.5 129.333 -24.5 198c0 70.667 8.33301 138.167 25 202.5s40 124.166 70 179.499s65.833 105.666 107.5 150.999s87.667 84.166 138 116.499s104.166 57.166 161.499 74.499
s116.666 26 177.999 26c62 0 121.833 -8.83301 179.5 -26.5s111.834 -42.667 162.501 -75s96.834 -71.166 138.501 -116.499s77.5 -95.833 107.5 -151.5s53.167 -115.667 69.5 -180s24.5 -131.166 24.5 -200.499c0 -77.333 -10.333 -151.166 -31 -221.499
s-49.5 -134.833 -86.5 -193.5s-80.833 -110.667 -131.5 -156s-106.334 -81.666 -167.001 -108.999z" />
    <glyph glyph-name="R" unicode="R" horiz-adv-x="1507" 
d="M686 723c76 0 137.001 9.33398 183.001 28.001s81.5 42.834 106.5 72.501s41.667 62.667 50 99s12.5 72.166 12.5 107.499c0 49.333 -6 91.166 -18 125.499s-28.167 62.833 -48.5 85.5s-44 40.334 -71 53.001s-55.833 22 -86.5 28s-62.167 9.66699 -94.5 11
s-63.833 2 -94.5 2h-33c-12 0 -23.667 -0.166992 -35 -0.5s-21.833 -0.833008 -31.5 -1.5s-16.834 -1.33398 -21.501 -2.00098c-11.333 -1.33301 -20 -4 -26 -8s-10.5 -9.16699 -13.5 -15.5s-4.66699 -14 -5 -23s-0.5 -19.5 -0.5 -31.5v-530h227zM891.001 696.001
c28 -10 55.166 -21.8271 81.499 -35.4941s50.333 -30 72 -49s40.834 -41 57.501 -66s29.667 -53.833 39 -86.5l26 -164c7.33301 -48 14.333 -90.333 21 -127s15 -67.5 25 -92.5s22.833 -43.833 38.5 -56.5s36.167 -19 61.5 -19c12.667 0 26.334 2.66699 41.001 8
s28.5 14.833 41.5 28.5s24.167 32.334 33.5 56.001s15.666 53.5 18.999 89.5c0.666992 7.33301 2.16699 14.666 4.5 21.999s9.16602 11 20.499 11c12.667 0 20.167 -4.16699 22.5 -12.5s3.5 -15.833 3.5 -22.5c0 -9.33301 -1.16699 -21.5 -3.5 -36.5
s-6.16602 -30.833 -11.499 -47.5s-12.666 -33.334 -21.999 -50.001s-21.333 -31.834 -36 -45.501s-31.834 -24.667 -51.501 -33s-42.834 -12.5 -69.501 -12.5c-15.333 0 -33.5 1 -54.5 3s-43.167 6 -66.5 12s-46.833 14.667 -70.5 26s-45.834 26.333 -66.501 45
c-21.333 19.333 -37.666 39.333 -48.999 60s-19.5 42.667 -24.5 66s-8 48.666 -9 75.999s-1.5 57.666 -1.5 90.999c0 34 -0.333008 64 -1 90s-3.5 49.667 -8.5 71s-12.833 41 -23.5 59s-25.667 36 -45 54c-18 17.333 -36.5 30.833 -55.5 40.5s-37.167 16.667 -54.5 21
s-33.166 6.83301 -47.499 7.5s-25.5 1 -33.5 1h-235v-518c0 -18.667 1 -34.167 3 -46.5s8.16699 -22.333 18.5 -30s26.5 -13 48.5 -16s52.667 -4.5 92 -4.5h49v-63c-18.667 1.33301 -41 2.5 -67 3.5s-52.833 1.66699 -80.5 2s-54.834 0.5 -81.501 0.5h-70h-70
c-26.667 0 -54 -0.166992 -82 -0.5s-55 -1 -81 -2s-48 -2.16699 -66 -3.5v63h49c39.333 0 70 1.5 92 4.5s38.167 8.33301 48.5 16s16.5 17.667 18.5 30s3 27.833 3 46.5v1079c0 18.667 -1 34.167 -3 46.5s-8.16699 22.166 -18.5 29.499s-26.5 12.5 -48.5 15.5
s-52.667 4.5 -92 4.5h-49v64h643c75.333 0 145.5 -10 210.5 -30s121.5 -46.833 169.5 -80.5s85.667 -72.834 113 -117.501s41 -91.667 41 -141c0 -40 -9.33301 -77.667 -28 -113s-44.167 -67.333 -76.5 -96s-70.166 -53.667 -113.499 -75s-90 -38 -140 -50z" />
    <glyph glyph-name="S" unicode="S" horiz-adv-x="1137" 
d="M715 795c42.667 -10 82.833 -27.6699 120.5 -53.0029s70.167 -56.166 97.5 -92.499s49 -77.333 65 -123s24 -94.167 24 -145.5c0 -56 -9.83301 -109.833 -29.5 -161.5s-47.167 -97 -82.5 -136s-77.833 -70.167 -127.5 -93.5s-104.5 -35 -164.5 -35
c-45.333 0 -87.5 4.16699 -126.5 12.5s-74.333 19.333 -106 33s-59.5 29 -83.5 46s-44 34.167 -60 51.5l-40.5 -63.5l-22 -34l-9.5 -14.5c-1.33301 -2 -2 -3.33301 -2 -4c-7.33301 -11.333 -12.5 -18.666 -15.5 -21.999s-8.16699 -5 -15.5 -5
c-11.333 0 -17.833 3.83301 -19.5 11.5s-2.5 20.167 -2.5 37.5v410c0 18.667 1 31.834 3 39.501s9.66699 11.5 23 11.5c3.33301 0 8 -0.833008 14 -2.5s9.66699 -7.83398 11 -18.501c0.666992 -18 2 -39.333 4 -64s7.16699 -51 15.5 -79s20.833 -56.667 37.5 -86
s40 -58 70 -86c26.667 -25.333 55.834 -45.333 87.501 -60s62.5 -25.667 92.5 -33s57.667 -12.166 83 -14.499s45.333 -3.5 60 -3.5c42.667 0 81.167 8.5 115.5 25.5s63.166 39.167 86.499 66.5s41.333 58.666 54 93.999s19 71 19 107c0 34 -5.33301 67.167 -16 99.5
s-26.667 62.166 -48 89.499c-14 18.667 -28.333 34 -43 46s-29.334 21.667 -44.001 29s-29.334 13.166 -44.001 17.499s-29 8.16602 -43 11.499l-99.5 24l-80.5 20l-58 15c-15.333 4 -26 7 -32 9c-40 14 -76.5 33.333 -109.5 58s-61.167 53.5 -84.5 86.5s-41.5 69 -54.5 108
s-19.5 79.833 -19.5 122.5c0 54 10.167 105.167 30.5 153.5s48.333 90.5 84 126.5s77.834 64.5 126.501 85.5s101.334 31.5 158.001 31.5c45.333 0 85 -4.66699 119 -14s64 -21.166 90 -35.499s48.5 -30 67.5 -47l51.5 -47.5l71 117c7.33301 12.667 12.5 20.334 15.5 23.001
s8.16699 4 15.5 4c11.333 0 18 -3.83301 20 -11.5s3 -20.167 3 -37.5v-412c0 -19.333 -1.16699 -32.333 -3.5 -39s-10.166 -10 -23.499 -10c-11.333 0 -18 2.5 -20 7.5s-3.66699 10.5 -5 16.5c-2 15.333 -5.33301 36.666 -10 63.999s-12.334 56.833 -23.001 88.5
s-25 63.834 -43 96.501s-41.5 62.334 -70.5 89.001s-64.167 48.334 -105.5 65.001s-90.333 25 -147 25c-40 0 -76.5 -7.16699 -109.5 -21.5s-61.5 -33.833 -85.5 -58.5s-42.5 -53.167 -55.5 -85.5s-19.5 -66.5 -19.5 -102.5c0 -30 4.83301 -58.833 14.5 -86.5
s23.5 -53.167 41.5 -76.5s39.667 -43.333 65 -60s54 -29 86 -37l262 -63v0z" />
    <glyph glyph-name="T" unicode="T" horiz-adv-x="1479" 
d="M1403 926l-51 0.00195312c-4.66699 54.667 -10 102.5 -16 143.5s-14 76.167 -24 105.5s-23.167 53.5 -39.5 72.5s-37.333 34.167 -63 45.5s-57 19.166 -94 23.499s-81.167 6.5 -132.5 6.5h-31.5c-11 0 -22 -0.166992 -33 -0.5s-21 -0.833008 -30 -1.5
s-16.5 -1.33398 -22.5 -2.00098c-18.667 -4 -29.5 -12.833 -32.5 -26.5s-4.5 -30.834 -4.5 -51.501v-1079c0 -17.333 1.16699 -32.333 3.5 -45s10.166 -23 23.499 -31s34.5 -13.833 63.5 -17.5s70.5 -5.5 124.5 -5.5h82v-63l-51.5 2.5c-20.333 1 -42.333 1.66699 -66 2
l-73.5 1c-25.333 0.333008 -50 0.5 -74 0.5h-68.5h-55.5h-88c-35.333 0 -71.666 -0.166992 -108.999 -0.5s-73.166 -1 -107.499 -2s-61.833 -2.16699 -82.5 -3.5v63h82c54 0 95.5 1.83301 124.5 5.5s50.167 9.5 63.5 17.5s21.166 18.333 23.499 31s3.5 27.667 3.5 45v1079
c0 23.333 -1.83301 41.166 -5.5 53.499s-16.167 20.5 -37.5 24.5c-5.33301 0.666992 -12.333 1.33398 -21 2.00098s-18 1.16699 -28 1.5s-20.5 0.5 -31.5 0.5h-29.5c-51.333 0 -95.5 -2.16699 -132.5 -6.5s-68.5 -12.166 -94.5 -23.499s-47 -26.5 -63 -45.5
s-29 -43.167 -39 -72.5s-18 -64.5 -24 -105.5s-11.333 -88.833 -16 -143.5h-51l39 460h1251z" />
    <glyph glyph-name="U" unicode="U" horiz-adv-x="1536" 
d="M1192 1184c0 14 -1.16211 29.666 -3.49512 46.999s-10 33.666 -23 48.999s-33.833 28.333 -62.5 39s-69.334 16 -122.001 16v64c18.667 -0.666992 38.5 -1.33398 59.5 -2.00098l63.5 -2c21.333 -0.666992 42.333 -1.16699 63 -1.5s40 -0.5 58 -0.5
c17.333 0 36.166 0.166992 56.499 0.5s41.166 0.833008 62.499 1.5l63.5 2c21 0.666992 40.5 1.33398 58.5 2.00098v-64c-52.667 0 -93.334 -5.16699 -122.001 -15.5s-49.5 -23.333 -62.5 -39s-20.667 -32.834 -23 -51.501s-3.5 -36.334 -3.5 -53.001v-656v-51
c0 -13.333 -0.166992 -25 -0.5 -35s-1 -19.167 -2 -27.5s-2.16699 -17.5 -3.5 -27.5c-8.66699 -58.667 -26.167 -113.667 -52.5 -165s-59.5 -96.166 -99.5 -134.499s-85.667 -68.666 -137 -90.999s-106.333 -33.5 -165 -33.5c-70 0 -136.167 13.167 -198.5 39.5
s-117 62.5 -164 108.5s-84.333 100.167 -112 162.5s-41.5 129.5 -41.5 201.5v772c0 18.667 -1 34.167 -3 46.5s-8.33301 22.166 -19 29.499s-26.834 12.5 -48.501 15.5s-52.167 4.5 -91.5 4.5h-49v64c18 -1.33301 40.167 -2.5 66.5 -3.5s53.833 -1.66699 82.5 -2
s56.667 -0.5 84 -0.5h70h69.5c27 0 54.667 0.166992 83 0.5s55.666 1 81.999 2s48.5 2.16699 66.5 3.5v-64h-49c-39.333 0 -70 -1.5 -92 -4.5s-38.167 -8.16699 -48.5 -15.5s-16.5 -17.166 -18.5 -29.499s-3 -27.833 -3 -46.5v-780c0 -64.667 6.16699 -120.5 18.5 -167.5
s28.333 -86.833 48 -119.5s41.834 -59.167 66.501 -79.5s49.5 -36 74.5 -47s49 -18.333 72 -22s42.5 -5.5 58.5 -5.5c48.667 0 96.5 10 143.5 30s89 49.333 126 88s66.833 86.334 89.5 143.001s34 121.334 34 194.001v711z" />
    <glyph glyph-name="V" unicode="V" horiz-adv-x="1536" 
d="M815 -6c-2.66699 -7.33301 -4.99902 -13.498 -6.99902 -18.498s-4.66699 -9 -8 -12s-7.66602 -5.16699 -12.999 -6.5s-12.333 -2 -21 -2c-13.333 0 -23.333 2.66699 -30 8s-13.667 17.666 -21 36.999l-475 1257c-7.33301 19.333 -15.666 34.333 -24.999 45
s-21.5 18.5 -36.5 23.5s-33.667 7.83301 -56 8.5s-50.166 1 -83.499 1v64c37.333 -1.33301 77.666 -2.66602 120.999 -3.99902s89.666 -2 138.999 -2h68c26 0 52.667 0.166992 80 0.5s53.666 1 78.999 2s47.333 2.16699 66 3.5v-64c-12.667 0 -28.5 -0.333008 -47.5 -1
s-37.5 -2.83398 -55.5 -6.50098s-33.333 -9.5 -46 -17.5s-19 -19.333 -19 -34c0 -2 0.5 -5 1.5 -9s4.5 -13.333 10.5 -28l391 -1034l375 987l6.5 19c2.33301 6.66699 3.5 14 3.5 22c0 12 -2.83301 23.833 -8.5 35.5s-14.5 22.334 -26.5 32.001s-27.333 17.667 -46 24
s-41.334 9.83301 -68.001 10.5v64c13.333 -0.666992 30 -1.33398 50 -2.00098l63 -2c22 -0.666992 43.667 -1.16699 65 -1.5s39.666 -0.5 54.999 -0.5c27.333 0 59.333 0.5 96 1.5s71 2.5 103 4.5v-64c-34.667 -0.666992 -64.5 -4.5 -89.5 -11.5s-46.167 -16.667 -63.5 -29
s-31.666 -26.833 -42.999 -43.5s-20.333 -34.334 -27 -53.001z" />
    <glyph glyph-name="W" unicode="W" horiz-adv-x="2103" 
d="M1470 -4c-4 -13.333 -8.16504 -23.499 -12.498 -30.499s-13.5 -10.5 -27.5 -10.5c-13.333 0 -22.333 4.16699 -27 12.5s-8.66699 17.166 -12 26.499l-340 1042l-338 -1040c-4 -13.333 -8.33301 -23.5 -13 -30.5s-14 -10.5 -28 -10.5c-13.333 0 -22.333 4.16699 -27 12.5
s-8.66699 17.166 -12 26.499l-410 1255c-6 18.667 -11.833 33.667 -17.5 45s-14.667 20 -27 26s-29.5 10 -51.5 12s-52 3 -90 3v64l127 -4c42.667 -1.33301 83.667 -2 123 -2h68c26 0 52.333 0.166992 79 0.5s52.667 1 78 2s47.333 2.16699 66 3.5v-64
c-13.333 0 -29.833 -0.333008 -49.5 -1s-38.5 -2.83398 -56.5 -6.50098s-33.5 -9.66699 -46.5 -18s-19.5 -20.166 -19.5 -35.499c0 -3.33301 0.333008 -7.83301 1 -13.5s1.66699 -10.167 3 -13.5l329 -1007l285 878l-45 144c-6 18 -13.667 32 -23 42s-21 17.333 -35 22
s-31.333 7.33398 -52 8.00098s-45.334 1 -74.001 1v64l127 -4c42.667 -1.33301 83.334 -2 122.001 -2h68c26 0 52.5 0.166992 79.5 0.5s53.167 1 78.5 2s47 2.16699 65 3.5v-64c-13.333 0 -29.833 -0.333008 -49.5 -1s-38.5 -2.83398 -56.5 -6.50098
s-33.5 -9.66699 -46.5 -18s-19.5 -20.166 -19.5 -35.499c0 -5.33301 0.666992 -10.833 2 -16.5s2.66602 -10.5 3.99902 -14.5l328 -1003l307 946l7 20c2.66699 7.33301 4 14.333 4 21c0 10 -2.83301 21 -8.5 33s-15.334 23.5 -29.001 34.5s-32 20.333 -55 28
s-51.833 11.834 -86.5 12.501v64c13.333 -0.666992 30.833 -1.33398 52.5 -2.00098l67.5 -2c23.333 -0.666992 46.166 -1.16699 68.499 -1.5s40.833 -0.5 55.5 -0.5c62.667 0 124.667 2 186 6v-64c-20 0 -40.167 -1.66699 -60.5 -5s-39.666 -9.83301 -57.999 -19.5
s-35 -23.5 -50 -41.5s-26.833 -41.667 -35.5 -71z" />
    <glyph glyph-name="X" unicode="X" horiz-adv-x="1536" 
d="M1255 137c10.667 -16 21.6689 -28.8301 33.002 -38.4971s24.5 -17.167 39.5 -22.5s32.167 -8.83301 51.5 -10.5s42.333 -2.5 69 -2.5h39v-63c-43.333 2 -87.666 3.5 -132.999 4.5s-89.666 1.5 -132.999 1.5h-69.5c-27 0 -54.5 -0.166992 -82.5 -0.5s-55 -1 -81 -2
s-48 -2.16699 -66 -3.5v63c22 0.666992 41.333 3.16699 58 7.5s30.5 9.5 41.5 15.5s19.333 12.5 25 19.5s8.5 13.5 8.5 19.5c0 3.33301 -1.16699 6.83301 -3.5 10.5l-7.5 11.5l-323 490l-291 -430c-7.33301 -11.333 -12.5 -20 -15.5 -26s-4.5 -13.667 -4.5 -23
s2.33301 -19.333 7 -30s12 -20.667 22 -30s23.167 -17.333 39.5 -24s36.5 -10.334 60.5 -11.001v-63c-18.667 1.33301 -39.334 2.5 -62.001 3.5s-45.667 1.66699 -69 2s-46.5 0.5 -69.5 0.5h-62.5c-34 0 -71 -0.666992 -111 -2l-116 -4v63c52 0 95.333 5.16699 130 15.5
s63.167 22.666 85.5 36.999s39.666 29.333 51.999 45l29.5 38.5l336 495l-377 570c-10 14 -20.167 25.667 -30.5 35s-22.666 16.666 -36.999 21.999s-31.333 9 -51 11s-43.5 3 -71.5 3h-39v64c18.667 -1.33301 40.167 -2.33301 64.5 -3s48.833 -1.16699 73.5 -1.5
s48.167 -0.666016 70.5 -0.999023s41.5 -0.5 57.5 -0.5h69.5c27 0 54.5 0.166992 82.5 0.5s55 1 81 2s48 2.16699 66 3.5v-64c-22 -0.666992 -41.333 -3 -58 -7s-30.5 -9 -41.5 -15s-19.333 -12.5 -25 -19.5s-8.5 -13.5 -8.5 -19.5c0 -4 1.83301 -9.33301 5.5 -16
s6.5 -11.667 8.5 -15l264 -395l234 346c7.33301 11.333 12.166 19.5 14.499 24.5s3.5 12.5 3.5 22.5c0 12 -2.83301 23.5 -8.5 34.5s-13.834 20.833 -24.501 29.5s-23.834 15.667 -39.501 21s-33.834 8.33301 -54.501 9v64
c41.333 -3.33301 85.166 -5.16602 131.499 -5.49902s90.166 -0.5 131.499 -0.5c12.667 0 27.834 0.166992 45.501 0.5s36.667 0.833008 57 1.5l62.5 2l62 2v-64c-45.333 -0.666992 -84.166 -4.83398 -116.499 -12.501s-60 -17.667 -83 -30s-42.167 -26.333 -57.5 -42
s-28.666 -31.834 -39.999 -48.501l-281 -411z" />
    <glyph glyph-name="Y" unicode="Y" horiz-adv-x="1536" 
d="M854 559l0.00585938 -394.998c0 -20 1.16699 -36.5 3.5 -49.5s8.83301 -23.333 19.5 -31s27 -13 49 -16s52.667 -4.5 92 -4.5h47v-63c-18.667 1.33301 -41 2.5 -67 3.5s-52.833 1.66699 -80.5 2s-54.834 0.5 -81.501 0.5h-70h-70
c-26.667 0 -53.834 -0.166992 -81.501 -0.5s-54.5 -1 -80.5 -2s-48.333 -2.16699 -67 -3.5v63h49c39.333 0 70 1.5 92 4.5s38.167 8.33301 48.5 16s16.5 17.667 18.5 30s3 27.833 3 46.5v399l-430 701c-8 13.333 -15.833 24.666 -23.5 33.999s-18 17 -31 23
s-30 10.5 -51 13.5s-48.833 4.5 -83.5 4.5h-36v64c43.333 -2 87.666 -3.5 132.999 -4.5s89.666 -1.5 132.999 -1.5h70.5c27 0 54.667 0.166992 83 0.5s55.666 1 81.999 2s48.833 2.16699 67.5 3.5v-64c-46 0 -81.333 -3.16699 -106 -9.5s-37 -20.166 -37 -41.499
c0 -5.33301 0.5 -9.83301 1.5 -13.5s5.16699 -10.834 12.5 -21.501l371 -604l337 549c4.66699 6 9.33398 14.833 14.001 26.5s7 23.167 7 34.5c0 20.667 -9 39.167 -27 55.5s-48 24.5 -90 24.5v64c13.333 -0.666992 30.166 -1.33398 50.499 -2.00098l63.5 -2
c22 -0.666992 43.833 -1.16699 65.5 -1.5s40.5 -0.5 56.5 -0.5c28 0 60.333 0.5 97 1.5s71 2.5 103 4.5v-64c-16 0 -35.167 -1 -57.5 -3s-45.5 -7.5 -69.5 -16.5s-47.833 -22.333 -71.5 -40s-44.834 -42.167 -63.501 -73.5z" />
    <glyph glyph-name="Z" unicode="Z" horiz-adv-x="1251" 
d="M326 70h336.001c62.667 0 116.667 5.16699 162 15.5s83.666 25.333 114.999 45s56.5 43.5 75.5 71.5s34.167 59.667 45.5 95s19.5 74 24.5 116s8.83301 86.667 11.5 134h51l-35 -547h-944c-21.333 0 -35.5 1.5 -42.5 4.5s-10.5 13.167 -10.5 30.5c0 8 0.5 14 1.5 18
s5.16699 11.667 12.5 23l797 1259h-322c-84 0 -152 -9.83301 -204 -29.5s-92.833 -47.167 -122.5 -82.5s-50.334 -77.166 -62.001 -125.499s-19.167 -101.5 -22.5 -159.5h-52l23 461h917c20.667 0 34.834 -1.33301 42.501 -4s11.5 -12.334 11.5 -29.001v-8.5
c0 -2.33301 -0.5 -4.83301 -1.5 -7.5s-2.5 -5.66699 -4.5 -9s-5 -8 -9 -14z" />
    <glyph glyph-name="bracketleft" unicode="[" horiz-adv-x="662" 
d="M279 -512v2048h315v-100h-215v-1848h215v-100h-315z" />
    <glyph glyph-name="quotedblleft.001" unicode="\" horiz-adv-x="1198" 
d="M940 -481l-775.999 1949c-2.66699 9.33301 -4 15.666 -4 18.999c0 12.667 5 24 15 34s22 15 36 15c18 0 33.667 -10.333 47 -31l776 -1949c0.666992 -2.66699 1.16699 -5.33398 1.5 -8.00098s0.5 -6.33398 0.5 -11.001c0 -13.333 -4.83301 -24.833 -14.5 -34.5
s-21.167 -14.5 -34.5 -14.5c-20.667 0 -36.334 10.333 -47.001 31z" />
    <glyph glyph-name="bracketright" unicode="]" horiz-adv-x="662" 
d="M381 -512h-315v100h215v1848h-215v100h315v-2048z" />
    <glyph glyph-name="circumflex.001" unicode="^" horiz-adv-x="1165" 
d="M887 1149l-45 -53l-260 202l-260 -202l-46 53l306 272z" />
    <glyph glyph-name="dotaccent" unicode="_" horiz-adv-x="662" 
d="M446 1262c0 -15.333 -2.83203 -30 -8.49902 -44s-13.5 -26.333 -23.5 -37s-22.167 -19.334 -36.5 -26.001s-30.166 -10 -47.499 -10c-16.667 0 -32.167 3.16699 -46.5 9.5s-26.666 14.833 -36.999 25.5s-18.5 23.167 -24.5 37.5s-9 29.833 -9 46.5
c0 14.667 2.83301 29 8.5 43s13.667 26.333 24 37s22.666 19.334 36.999 26.001s30.166 10 47.499 10c16 0 31.167 -3.16699 45.5 -9.5s26.666 -14.833 36.999 -25.5s18.5 -23.167 24.5 -37.5s9 -29.5 9 -45.5z" />
    <glyph glyph-name="quoteleft.001" unicode="`" horiz-adv-x="1165" 
d="M297 1274c-26 16 -38.999 37.668 -38.999 65.001c0 23.333 9 44.666 27 63.999s39 29 63 29c19.333 0 38.666 -9 57.999 -27l278 -313l-53 -58z" />
    <glyph glyph-name="a" unicode="a" horiz-adv-x="1024" 
d="M682 156c-10 -24 -23.168 -46.835 -39.501 -68.502s-35.833 -40.667 -58.5 -57s-48.167 -29.333 -76.5 -39s-59.5 -14.5 -93.5 -14.5c-32 0 -67.167 3.5 -105.5 10.5s-74 19 -107 36s-60.5 39.5 -82.5 67.5s-33 62.667 -33 104c0 22.667 3.5 46 10.5 70
s18.5 47.5 34.5 70.5s37 45.333 63 67s58.333 41.167 97 58.5c32 15.333 64.833 27.5 98.5 36.5s66.667 16 99 21s63.833 8.5 94.5 10.5s59 4 85 6v75c0 46 -6.66699 85.5 -20 118.5s-30.333 60.167 -51 81.5s-44 37 -70 47s-51.333 15 -76 15c-16.667 0 -35 -1.5 -55 -4.5
s-40 -8.16699 -60 -15.5s-39.333 -17 -58 -29s-35 -27 -49 -45c24 -0.666992 42.833 -4.66699 56.5 -12s24.167 -16 31.5 -26s12 -20.333 14 -31s3 -19 3 -25c0 -26.667 -8.5 -49 -25.5 -67s-39.833 -27 -68.5 -27c-27.333 0 -50 8.33301 -68 25s-27 40.334 -27 71.001
c0 34 8.33301 65.167 25 93.5s39 52.666 67 72.999s60.833 36.333 98.5 48s77.5 17.5 119.5 17.5c49.333 0 98.333 -8.83301 147 -26.5s93 -46.5 133 -86.5c18.667 -19.333 33 -38.666 43 -57.999s17.333 -39 22 -59s7.33398 -40.5 8.00098 -61.5s1 -42.167 1 -63.5v-409
c0 -2.66699 0.833008 -9.5 2.5 -20.5s5 -22.667 10 -35s12.5 -23.333 22.5 -33s23.667 -14.5 41 -14.5c5.33301 0 12.166 1.16699 20.499 3.5s16.333 8 24 17s14.334 22.167 20.001 39.5s8.5 41 8.5 71v115h52v-115c0 -41.333 -6.66699 -74.666 -20 -99.999
s-29.166 -45 -47.499 -59s-37 -23.333 -56 -28s-33.833 -7 -44.5 -7c-24 0 -45.5 4.83301 -64.5 14.5s-35.333 22.5 -49 38.5s-24.334 34 -32.001 54s-12.5 40.333 -14.5 61zM667.999 491.998c-84.667 -3.33301 -154.332 -15.3369 -208.999 -36.0039s-98 -45.5 -130 -74.5
s-54.167 -60 -66.5 -93s-18.5 -63.5 -18.5 -91.5c0 -26 4.83301 -49.667 14.5 -71s23 -39.666 40 -54.999s36.5 -27.166 58.5 -35.499s45.667 -12.5 71 -12.5c22.667 0 48 4.66699 76 14s54.167 24.333 78.5 45s44.666 47.834 60.999 81.501s24.5 74.834 24.5 123.501v205z
" />
    <glyph glyph-name="b" unicode="b" horiz-adv-x="1137" 
d="M352 772c8 9.33301 19.667 21.5039 35 36.5039s34.5 29.667 57.5 44s50.167 26.666 81.5 36.999s67 15.5 107 15.5c58 0 113.333 -12 166 -36s98.834 -56.667 138.501 -98s71.167 -90.333 94.5 -147s35 -117.334 35 -182.001c0 -66 -12.333 -127.333 -37 -184
s-58 -105.834 -100 -147.501s-90.667 -74.334 -146 -98.001s-113.333 -35.5 -174 -35.5c-38 0 -71.833 5.66699 -101.5 17s-55.5 24.833 -77.5 40.5s-40.333 32 -55 49s-26 31.5 -34 43.5l-34.5 -60l-22 -38.5l-12.5 -21c-2.66699 -4.33301 -4.33398 -6.83301 -5.00098 -7.5
h-51v1221c0 24.667 -1.66699 44.5 -5 59.5s-10.5 26.5 -21.5 34.5s-27 13.333 -48 16s-49.5 4 -85.5 4v64l295 22v-649zM358 233.004c0 -9.33301 0.166992 -16.999 0.5 -22.999s1.33301 -11.833 3 -17.5s4.5 -12 8.5 -19s9.66699 -15.833 17 -26.5
c24.667 -38 55.167 -68.167 91.5 -90.5s77.5 -33.5 123.5 -33.5c28 0 53.667 3.83301 77 11.5s44.833 17.667 64.5 30s37 26.333 52 42s27.833 31.5 38.5 47.5c14.667 22.667 26.167 47.167 34.5 73.5s14.666 52.333 18.999 78s7 50.5 8 74.5s1.5 45.333 1.5 64
c0 20.667 -0.666992 43.334 -2 68.001s-4 49.5 -8 74.5s-9.83301 49.667 -17.5 74s-18.167 47.166 -31.5 68.499c-25.333 39.333 -56 71 -92 95s-77 36 -123 36c-12.667 0 -28.667 -1.5 -48 -4.5s-40 -9 -62 -18s-44.5 -22.167 -67.5 -39.5s-44.5 -40.333 -64.5 -69
c-6 -8 -10.5 -14.667 -13.5 -20s-5.16699 -10.333 -6.5 -15s-2.16602 -9.83398 -2.49902 -15.501s-0.5 -13.5 -0.5 -23.5v-422z" />
    <glyph glyph-name="c" unicode="c" horiz-adv-x="909" 
d="M240 446c0 -54.667 4.67383 -103.003 14.0068 -145.003s21.666 -78.5 36.999 -109.5s32.833 -56.833 52.5 -77.5s40.167 -37.334 61.5 -50.001s42.666 -21.667 63.999 -27s41 -8 59 -8c18.667 0 40.5 2.16699 65.5 6.5s50 14 75 29s48.833 36.667 71.5 65
s41.667 66.5 57 114.5c2 6 4.5 10.833 7.5 14.5s9.16699 5.5 18.5 5.5c3.33301 0 8.66602 -0.833008 15.999 -2.5s11 -7.5 11 -17.5c0 -3.33301 -2 -12.333 -6 -27s-11 -31.834 -21 -51.501s-23.333 -40.667 -40 -63s-37.667 -42.666 -63 -60.999
s-55.333 -33.666 -90 -45.999s-74.667 -18.5 -120 -18.5c-59.333 0 -115.666 12 -168.999 36s-100 56.833 -140 98.5s-71.833 90.834 -95.5 147.501s-35.5 117.667 -35.5 183c0 63.333 11.167 123.833 33.5 181.5s53.166 108.334 92.499 152.001
s86.166 78.334 140.499 104.001s113.5 38.5 177.5 38.5c39.333 0 77.833 -4.83301 115.5 -14.5s71.167 -24 100.5 -43s52.833 -42.167 70.5 -69.5s26.5 -58.333 26.5 -93c0 -30.667 -9 -54.334 -27 -71.001s-40.333 -25 -67 -25c-28.667 0 -51.5 9 -68.5 27
s-25.5 40.333 -25.5 67c0 6.66699 1 15 3 25s6.5 20 13.5 30s16.667 18.667 29 26s29.166 12 50.499 14c-18 18 -38.5 32.167 -61.5 42.5s-45.5 17.833 -67.5 22.5s-41.333 7.5 -58 8.5s-27.334 1.5 -32.001 1.5c-27.333 0 -57 -6.16699 -89 -18.5
s-61.833 -34.333 -89.5 -66s-50.834 -74.667 -69.501 -129s-28 -123.166 -28 -206.499z" />
    <glyph glyph-name="d" unicode="d" horiz-adv-x="1137" 
d="M778 113c-12.667 -16.667 -28 -32.998 -46 -48.998s-38.333 -30.5 -61 -43.5s-48 -23.5 -76 -31.5s-58.333 -12 -91 -12c-58.667 0 -114.167 12 -166.5 36s-98.333 56.667 -138 98s-71.167 90.166 -94.5 146.499s-35 117.166 -35 182.499c0 66 12.5 127.5 37.5 184.5
s58.5 106.167 100.5 147.5s90.5 73.833 145.5 97.5s112.5 35.5 172.5 35.5c56 0 105.5 -11.833 148.5 -35.5s79.5 -54.167 109.5 -91.5v443c0 24.667 -1.5 44.5 -4.5 59.5s-10 26.5 -21 34.5s-27 13.333 -48 16s-49.5 4 -85.5 4v64l295 22v-1243
c0 -25.333 1.5 -45.5 4.5 -60.5s10 -26.5 21 -34.5s27 -13.333 48 -16s49.5 -4 85.5 -4v-63l-301 -23v136zM778 662.002c0 8.66699 -0.168945 15.8311 -0.501953 21.498s-1.16602 11 -2.49902 16s-3.5 10.333 -6.5 16s-7.16699 12.834 -12.5 21.501
c-16 22.667 -33.167 42 -51.5 58s-37.166 28.667 -56.499 38s-38.5 16.166 -57.5 20.499s-37.5 6.5 -55.5 6.5c-28 0 -53.667 -3.83301 -77 -11.5s-44.833 -17.667 -64.5 -30s-37 -26.333 -52 -42s-27.833 -31.5 -38.5 -47.5c-14.667 -23.333 -26.167 -48 -34.5 -74
s-14.666 -51.833 -18.999 -77.5s-7 -50.667 -8 -75s-1.5 -45.833 -1.5 -64.5c0 -21.333 0.666992 -44.166 2 -68.499s4 -49 8 -74s9.83301 -49.667 17.5 -74s18.167 -46.833 31.5 -67.5c24.667 -39.333 55.167 -71 91.5 -95s77.5 -36 123.5 -36c44 0 87.5 11.5 130.5 34.5
s80.167 59.167 111.5 108.5c5.33301 8.66699 9.5 15.834 12.5 21.501s5.16699 11 6.5 16s2.16602 10.333 2.49902 16s0.5 13.167 0.5 22.5v420z" />
    <glyph glyph-name="e" unicode="e" horiz-adv-x="909" 
d="M715 516c0 13.333 -0.836914 31.334 -2.50391 54.001s-5.16699 47.167 -10.5 73.5s-13.166 53.166 -23.499 80.499s-24.166 51.833 -41.499 73.5s-38.5 39.5 -63.5 53.5s-55.167 21 -90.5 21c-11.333 0 -25.166 -1.66699 -41.499 -5s-33.666 -9.83301 -51.999 -19.5
s-36.5 -22.834 -54.5 -39.501s-34.5 -38.167 -49.5 -64.5s-27.667 -58.166 -38 -95.499s-16.5 -81.333 -18.5 -132h486zM226.996 473.001c0 -18.667 0.330078 -40.501 0.99707 -65.501s3 -51.333 7 -79s10.167 -55.5 18.5 -83.5s20.166 -54.333 35.499 -79
c12 -19.333 26 -37.166 42 -53.499s33.667 -30.833 53 -43.5s40.5 -22.5 63.5 -29.5s47.167 -10.5 72.5 -10.5c5.33301 0 19.333 1.16699 42 3.5s48.5 10 77.5 23s58 33.833 87 62.5s52.5 69.334 70.5 122.001c2 8 4.5 14.667 7.5 20s9.16699 8 18.5 8
c5.33301 0 11.166 -1.5 17.499 -4.5s9.5 -9.5 9.5 -19.5c0 -6.66699 -2.66699 -17.834 -8 -33.501s-13.666 -33.334 -24.999 -53.001s-26 -40.167 -44 -61.5s-39.667 -40.833 -65 -58.5s-54.666 -32.167 -87.999 -43.5s-70.666 -17 -111.999 -17
c-59.333 0 -116.166 11.833 -170.499 35.5s-102.166 56.5 -143.499 98.5s-74.5 92 -99.5 150s-37.5 121.333 -37.5 190c0 64 11 124.333 33 181s52.333 106.167 91 148.5s83.834 75.833 135.501 100.5s107.167 37 166.5 37c64 0 119.167 -11.5 165.5 -34.5
s84.333 -53.167 114 -90.5s51.667 -80.166 66 -128.499s21.5 -97.833 21.5 -148.5c0 -10.667 -0.5 -19 -1.5 -25s-3.33301 -10.333 -7 -13s-8.83398 -4.16699 -15.501 -4.5s-15.667 -0.5 -27 -0.5h-572z" />
    <glyph glyph-name="f" unicode="f" horiz-adv-x="625" 
d="M598 883l-0.00390625 -63.998h-233v-659c0 -18.667 1 -34.167 3 -46.5s8 -22.333 18 -30s25.333 -13 46 -16s50 -4.5 88 -4.5h43v-63c-41.333 3.33301 -84.666 5.16602 -129.999 5.49902s-88.666 0.5 -129.999 0.5c-14 0 -30.333 -0.166992 -49 -0.5
s-38.334 -0.833008 -59.001 -1.5l-63 -2l-62 -2v63c34 0 61.5 0.5 82.5 1.5s37.167 4.33301 48.5 10s18.833 14.834 22.5 27.501s5.5 30.667 5.5 54v663h-161v64h161v235c0 54 9.83301 101.5 29.5 142.5s44.834 75 75.501 102s64.834 47.333 102.501 61
s74.5 20.5 110.5 20.5c26.667 0 51.334 -4 74.001 -12s42.167 -18.5 58.5 -31.5s29 -28.333 38 -46s13.5 -35.834 13.5 -54.501c0 -24.667 -7.5 -45.834 -22.5 -63.501s-37.5 -26.5 -67.5 -26.5c-28 0 -49.667 8.83301 -65 26.5s-23 38.167 -23 61.5c0 12.667 2 24 6 34
s9.16699 18.5 15.5 25.5s13 12.667 20 17s13.5 7.5 19.5 9.5c-15.333 7.33301 -29.5 11.666 -42.5 12.999s-21.167 2 -24.5 2c-22.667 0 -45.167 -6.16699 -67.5 -18.5s-42.5 -30.166 -60.5 -53.499s-32.667 -52.5 -44 -87.5s-17 -74.833 -17 -119.5v-237h240z" />
    <glyph glyph-name="g" unicode="g" horiz-adv-x="1024" 
d="M455 352c20.667 0 38.998 3.16699 54.998 9.5s30 13.833 42 22.5s22 17.667 30 27s14 17 18 23c15.333 25.333 24.666 53.333 27.999 84s5 60 5 88c0 8 -0.333008 19.667 -1 35s-2.66699 32.333 -6 51s-8.5 37.834 -15.5 57.501s-17.167 37.5 -30.5 53.5
s-30.166 29.167 -50.499 39.5s-45.166 15.5 -74.499 15.5c-20.667 0 -39 -3.16699 -55 -9.5s-30 -13.833 -42 -22.5s-22.167 -17.667 -30.5 -27s-14.5 -17 -18.5 -23c-7.33301 -12.667 -13.166 -26.167 -17.499 -40.5s-7.66602 -29 -9.99902 -44
s-3.83301 -29.833 -4.5 -44.5s-1 -29 -1 -43c0 -8 0.333008 -19.667 1 -35s2.66699 -32.333 6 -51s8.5 -37.834 15.5 -57.501s17.167 -37.5 30.5 -53.5s30.166 -29.167 50.499 -39.5s45.5 -15.5 75.5 -15.5zM216.998 272c0 -16 2.50195 -31.835 7.50195 -47.502
s12.333 -29.834 22 -42.501s21.167 -23.167 34.5 -31.5s28.333 -13.5 45 -15.5c3.33301 -0.666992 10.833 -1.16699 22.5 -1.5s25 -0.5 40 -0.5h47h43.5c31.333 0 62.166 -0.333008 92.499 -1s60.333 -2.66699 90 -6s58.5 -9 86.5 -17s55.667 -19 83 -33
c26 -14.667 47.667 -31.667 65 -51s31.166 -39.5 41.499 -60.5s17.5 -42.167 21.5 -63.5s6 -41 6 -59c0 -40 -12.333 -76.167 -37 -108.5s-57.834 -60 -99.501 -83s-90 -40.833 -145 -53.5s-112.833 -19 -173.5 -19c-62.667 0 -121.5 6.66699 -176.5 20
s-103 31.666 -144 54.999s-73.333 50.833 -97 82.5s-35.5 65.834 -35.5 102.501c0 20.667 4 41.334 12 62.001s20 40.167 36 58.5s35.833 34.833 59.5 49.5s50.834 26.334 81.501 35.001c-16 10 -29.667 22.167 -41 36.5s-20.666 29.666 -27.999 45.999
s-12.666 33 -15.999 50s-5 33.5 -5 49.5c0 18 2 35.5 6 52.5s9.16699 33 15.5 48s13.166 28.5 20.499 40.5s14.333 21.667 21 29c-12.667 10.667 -24.834 23.5 -36.501 38.5s-21.834 31.5 -30.501 49.5s-15.667 37.333 -21 58s-8 42.334 -8 65.001
c0 39.333 8.33301 77 25 113s39.834 67.833 69.501 95.5s64.667 49.667 105 66s84.5 24.5 132.5 24.5c11.333 0 25 -0.666992 41 -2s33.5 -4.5 52.5 -9.5s39 -12.5 60 -22.5s42.167 -23.333 63.5 -40c21.333 20.667 42.833 37.5 64.5 50.5s42 22.833 61 29.5
s36.5 11.167 52.5 13.5s29 3.5 39 3.5c20 0 36.667 -3.66699 50 -11s24 -16.166 32 -26.499s13.667 -21.333 17 -33s5 -21.834 5 -30.501c0 -12 -2.16699 -21.833 -6.5 -29.5s-9.5 -13.834 -15.5 -18.501s-12.5 -8 -19.5 -10s-12.833 -3 -17.5 -3
c-16.667 0 -30.834 5.5 -42.501 16.5s-17.5 25.167 -17.5 42.5c0 12.667 2.66699 24 8 34s13.666 17.333 24.999 22c-3.33301 1.33301 -7 2 -11 2h-9c-9.33301 0 -20.666 -1 -33.999 -3s-28.166 -5.83301 -44.499 -11.5s-33.5 -13.667 -51.5 -24
s-36.333 -24.166 -55 -41.499c26 -23.333 46.5 -52.833 61.5 -88.5s22.5 -72.5 22.5 -110.5c0 -39.333 -8.33301 -77.166 -25 -113.499s-39.834 -68.166 -69.501 -95.499s-64.667 -49.166 -105 -65.499s-84.166 -24.5 -131.499 -24.5c-10 0 -22.333 0.666992 -37 2
s-31 4.16602 -49 8.49902s-37 10.666 -57 18.999s-40 19.833 -60 34.5c-8.66699 -10 -15.334 -20.333 -20.001 -31s-8.16699 -20.5 -10.5 -29.5s-3.66602 -16.833 -3.99902 -23.5s-0.5 -11 -0.5 -13zM512 -375.002c50 0 96.165 5.99805 138.498 17.998
s78.833 27.833 109.5 47.5s54.667 42.334 72 68.001s26 52.167 26 79.5c0 29.333 -6 54 -18 74s-28 36.5 -48 49.5s-43.5 23.167 -70.5 30.5s-55.5 12.5 -85.5 15.5s-60.667 4.83301 -92 5.5s-61.666 1 -90.999 1h-121c-22.667 -1.33301 -44.167 -6.83301 -64.5 -16.5
s-38.166 -22.5 -53.499 -38.5s-27.5 -34.333 -36.5 -55s-13.5 -42.667 -13.5 -66c0 -27.333 8.5 -53.666 25.5 -78.999s40.667 -48 71 -68s66.833 -36 109.5 -48s90 -18 142 -18z" />
    <glyph glyph-name="h" unicode="h" horiz-adv-x="1137" 
d="M225 1221c0 24.667 -1.50391 44.5 -4.50391 59.5s-10 26.5 -21 34.5s-27 13.333 -48 16s-49.5 4 -85.5 4v64l294 22v-716c8.66699 19.333 21 40.666 37 63.999s36 45 60 65s52.5 36.833 85.5 50.5s71.167 20.5 114.5 20.5c30 0 56.667 -2.33301 80 -7
s43.833 -10.667 61.5 -18s32.5 -15.5 44.5 -24.5s21.667 -17.833 29 -26.5c16 -18 28.333 -36.333 37 -55s15 -39.667 19 -63s6.33301 -50.666 7 -81.999s1 -69 1 -113v-391c0.666992 -15.333 4.33398 -27.166 11.001 -35.499s16.5 -14.5 29.5 -18.5s29.5 -6.33301 49.5 -7
s43.333 -1 70 -1v-63c-17.333 0.666992 -36.666 1.33398 -57.999 2.00098l-63.5 2c-21 0.666992 -41 1.16699 -60 1.5s-35.167 0.5 -48.5 0.5c-14 0 -30.5 -0.166992 -49.5 -0.5s-39 -0.833008 -60 -1.5l-63 -2c-21 -0.666992 -40.5 -1.33398 -58.5 -2.00098v63
c34 0 61.5 0.5 82.5 1.5s37.333 4.33301 49 10s19.334 14.834 23.001 27.501s5.5 30.667 5.5 54v477c0 29.333 -1.83301 57.666 -5.5 84.999s-11 51.5 -22 72.5s-26.5 37.833 -46.5 50.5s-46 19 -78 19c-32.667 0 -65.5 -7.16699 -98.5 -21.5s-62.667 -35.333 -89 -63
s-47.666 -61.834 -63.999 -102.501s-24.5 -87.667 -24.5 -141v-376c0 -23.333 1.83301 -41.333 5.5 -54s11.167 -21.834 22.5 -27.501s27.5 -9 48.5 -10s48.5 -1.5 82.5 -1.5v-63c-17.333 0.666992 -36.5 1.33398 -57.5 2.00098l-63 2c-21 0.666992 -41 1.16699 -60 1.5
s-35.167 0.5 -48.5 0.5c-14 0 -30.5 -0.166992 -49.5 -0.5s-39 -0.833008 -60 -1.5l-63 -2c-21 -0.666992 -40.5 -1.33398 -58.5 -2.00098v63c34 0 61.5 0.5 82.5 1.5s37.167 4.33301 48.5 10s18.833 14.834 22.5 27.501s5.5 30.667 5.5 54v1065z" />
    <glyph glyph-name="i" unicode="i" horiz-adv-x="567" 
d="M362 154c0 -20 1.16602 -36 3.49902 -48s8.33301 -21.167 18 -27.5s24 -10.5 43 -12.5s45.5 -3 79.5 -3v-63l-106 4c-35.333 1.33301 -71 2 -107 2c-12 0 -27.5 -0.166992 -46.5 -0.5s-39 -0.833008 -60 -1.5l-63 -2c-21 -0.666992 -39.5 -1.33398 -55.5 -2.00098v63
c34 0 61.5 0.5 82.5 1.5s37.167 4.33301 48.5 10s18.833 14.834 22.5 27.501s5.5 30.667 5.5 54v551c0 24.667 -1.66699 44.5 -5 59.5s-10.166 26.333 -20.499 34s-25.5 12.667 -45.5 15s-46.667 3.5 -80 3.5v64l286 22v-751zM370.999 1262c0 -16.667 -3 -31.667 -9 -45
s-14 -24.833 -24 -34.5s-21.667 -17 -35 -22s-27 -7.5 -41 -7.5c-16 0 -30.5 3 -43.5 9s-24.333 14.167 -34 24.5s-17.167 22 -22.5 35s-8 26.5 -8 40.5c0 13.333 2.66699 26.5 8 39.5s12.833 24.5 22.5 34.5s21 18.167 34 24.5s27.5 9.5 43.5 9.5c14 0 27.667 -2.5 41 -7.5
s25 -12.333 35 -22s18 -21.167 24 -34.5s9 -28 9 -44z" />
    <glyph glyph-name="j" unicode="j" horiz-adv-x="625" 
d="M430 -102c0 -46.667 -7.33496 -89.5 -22.002 -128.5s-34.834 -72.5 -60.501 -100.5s-55.5 -49.833 -89.5 -65.5s-70 -23.5 -108 -23.5c-29.333 0 -57.833 3.5 -85.5 10.5s-52.334 17.5 -74.001 31.5s-39.167 31.167 -52.5 51.5s-20 43.833 -20 70.5s8.5 49 25.5 67
s39.833 27 68.5 27c29.333 0 52.333 -9 69 -27s25 -40.333 25 -67c0 -14 -2.16699 -26.167 -6.5 -36.5s-10 -19.333 -17 -27s-14.667 -13.834 -23 -18.501s-16.5 -8 -24.5 -10c26.667 -13.333 50.334 -21.166 71.001 -23.499s33.667 -3.5 39 -3.5
c32.667 0 58.834 9.66699 78.501 29s34.834 42.833 45.501 70.5s17.667 57 21 88s5 58.167 5 81.5v811c0 24.667 -1.83301 44.5 -5.5 59.5s-11.5 26.5 -23.5 34.5s-29.667 13.333 -53 16s-54.666 4 -93.999 4v64l311 22v-1007zM429.998 1262
c0 -15.333 -2.83301 -29.5 -8.5 -42.5s-13.5 -24.5 -23.5 -34.5s-21.5 -17.833 -34.5 -23.5s-26.833 -8.5 -41.5 -8.5c-15.333 0 -29.5 2.83301 -42.5 8.5s-24.5 13.5 -34.5 23.5s-17.833 21.5 -23.5 34.5s-8.5 27.167 -8.5 42.5c0 14.667 2.83301 28.5 8.5 41.5
s13.5 24.5 23.5 34.5s21.5 17.833 34.5 23.5s27.167 8.5 42.5 8.5c14.667 0 28.5 -2.83301 41.5 -8.5s24.5 -13.5 34.5 -23.5s17.833 -21.5 23.5 -34.5s8.5 -26.833 8.5 -41.5z" />
    <glyph glyph-name="k" unicode="k" horiz-adv-x="1079" 
d="M217 1221c0 24.667 -1.66699 44.5049 -5 59.5049s-10.5 26.5 -21.5 34.5s-27 13.333 -48 16s-49.5 4 -85.5 4v64l295 22v-983l289 250c8 7.33301 17.5 17.333 28.5 30s16.5 29.334 16.5 50.001c0 13.333 -5 24.833 -15 34.5s-24.667 15.167 -44 16.5v64
c6.66699 -0.666992 19 -1.33398 37 -2.00098s38.167 -1.33398 60.5 -2.00098s45.166 -1.16699 68.499 -1.5s44.333 -0.5 63 -0.5h38c11.333 0 22.333 0.166992 33 0.5s21.667 1 33 2l39 3.5v-64c-10.667 -0.666992 -24.167 -1.83398 -40.5 -3.50098s-35.166 -6 -56.499 -13
s-45.5 -17.833 -72.5 -32.5s-56.5 -35 -88.5 -61l-19 -16l-32.5 -28l-39 -33.5l-37 -32.5l-27.5 -25.5c-7.33301 -7 -11 -11.167 -11 -12.5c0 -3.33301 1.83301 -7.33301 5.5 -12s6.16699 -8 7.5 -10l260 -367c19.333 -27.333 37 -48.333 53 -63s31.667 -25.5 47 -32.5
s30.833 -11 46.5 -12s33.167 -1.5 52.5 -1.5v-63c-60 4 -119.667 6 -179 6c-10.667 0 -25.5 -0.166992 -44.5 -0.5s-39.167 -0.833008 -60.5 -1.5l-63 -2c-20.667 -0.666992 -38.334 -1.33398 -53.001 -2.00098v63c19.333 0 36.5 3.16699 51.5 9.5s22.5 19.166 22.5 38.499
c0 18 -21 56.667 -63 116l-181 252l-131 -112v-211c0 -23.333 1.83301 -41.333 5.5 -54s11.334 -21.834 23.001 -27.501s28 -9 49 -10s48.5 -1.5 82.5 -1.5v-63c-41.333 2 -81.5 3.5 -120.5 4.5s-73.833 1.5 -104.5 1.5c-15.333 0 -32.333 -0.166992 -51 -0.5
s-38 -0.833008 -58 -1.5l-60 -2c-20 -0.666992 -38.333 -1.33398 -55 -2.00098v63c34.667 0 62.5 0.5 83.5 1.5s37.167 4.33301 48.5 10s18.833 14.834 22.5 27.501s5.5 30.667 5.5 54v1065z" />
    <glyph glyph-name="l" unicode="l" horiz-adv-x="567" 
d="M362 156c0 -23.333 1.83203 -41.332 5.49902 -53.999s11.334 -21.834 23.001 -27.501s28 -9 49 -10s48.5 -1.5 82.5 -1.5v-63l-60.5 2l-62.5 2c-20.667 0.666992 -40 1.16699 -58 1.5s-33.333 0.5 -46 0.5s-28.5 -0.166992 -47.5 -0.5s-39 -0.833008 -60 -1.5l-63 -2
c-21 -0.666992 -39.833 -1.33398 -56.5 -2.00098v63c34 0 61.5 0.5 82.5 1.5s37.167 4.33301 48.5 10s18.833 14.834 22.5 27.501s5.5 30.667 5.5 54v1065c0 24.667 -1.5 44.5 -4.5 59.5s-10 26.5 -21 34.5s-27 13.333 -48 16s-49.5 4 -85.5 4v64l294 22v-1265z" />
    <glyph glyph-name="m" unicode="m" horiz-adv-x="1706" 
d="M225 705c0 24.667 -1.50684 44.502 -4.50684 59.502s-10 26.5 -21 34.5s-27 13.333 -48 16s-49.5 4 -85.5 4v64l288 22v-215c14.667 32 31.667 61.167 51 87.5s41.5 49 66.5 68s52.833 33.667 83.5 44s64.667 15.5 102 15.5c23.333 0 49.333 -2 78 -6
s56.167 -13 82.5 -27s49.833 -34.167 70.5 -60.5s34.667 -61.833 42 -106.5c8.66699 19.333 21 40.666 37 63.999s36 45 60 65s52.5 36.833 85.5 50.5s71.167 20.5 114.5 20.5c30 0 56.667 -2.33301 80 -7s43.833 -10.667 61.5 -18s32.5 -15.5 44.5 -24.5
s21.667 -17.833 29 -26.5c16 -18 28.167 -36.333 36.5 -55s14.5 -39.667 18.5 -63s6.33301 -50.666 7 -81.999s1 -69 1 -113v-391c0.666992 -15.333 4.33398 -27.166 11.001 -35.499s16.667 -14.5 30 -18.5s29.833 -6.33301 49.5 -7s42.834 -1 69.501 -1v-63
c-17.333 0.666992 -36.5 1.33398 -57.5 2.00098l-63 2c-21 0.666992 -41 1.16699 -60 1.5s-35.167 0.5 -48.5 0.5c-14 0 -30.667 -0.166992 -50 -0.5s-39.5 -0.833008 -60.5 -1.5l-63 -2c-21 -0.666992 -40.5 -1.33398 -58.5 -2.00098v63c34 0 61.5 0.5 82.5 1.5
s37.333 4.33301 49 10s19.334 14.834 23.001 27.501s5.5 30.667 5.5 54v477c0 29.333 -1.83301 57.666 -5.5 84.999s-11 51.5 -22 72.5s-26.5 37.833 -46.5 50.5s-46 19 -78 19c-32.667 0 -65.5 -7.16699 -98.5 -21.5s-62.667 -35.333 -89 -63
s-47.666 -61.834 -63.999 -102.501s-24.5 -87.667 -24.5 -141v-376c0 -23.333 1.83301 -41.333 5.5 -54s11.167 -21.834 22.5 -27.501s27.5 -9 48.5 -10s48.833 -1.5 83.5 -1.5v-63c-17.333 0.666992 -36.666 1.33398 -57.999 2.00098l-63.5 2
c-21 0.666992 -41 1.16699 -60 1.5s-35.167 0.5 -48.5 0.5c-14 0 -30.5 -0.166992 -49.5 -0.5s-39 -0.833008 -60 -1.5l-63 -2c-21 -0.666992 -40.5 -1.33398 -58.5 -2.00098v63c34 0 61.5 0.5 82.5 1.5s37.333 4.33301 49 10s19.334 14.834 23.001 27.501
s5.5 30.667 5.5 54v477c0 29.333 -1.83301 57.666 -5.5 84.999s-11 51.5 -22 72.5s-26.5 37.833 -46.5 50.5s-46 19 -78 19c-32.667 0 -65.5 -7.16699 -98.5 -21.5s-62.667 -35.333 -89 -63s-47.666 -61.834 -63.999 -102.501s-24.5 -87.667 -24.5 -141v-376
c0 -23.333 1.83301 -41.333 5.5 -54s11.167 -21.834 22.5 -27.501s27.5 -9 48.5 -10s48.5 -1.5 82.5 -1.5v-63c-17.333 0.666992 -36.5 1.33398 -57.5 2.00098l-63 2c-21 0.666992 -41 1.16699 -60 1.5s-35.167 0.5 -48.5 0.5c-14 0 -30.5 -0.166992 -49.5 -0.5
s-39 -0.833008 -60 -1.5l-63 -2c-21 -0.666992 -40.5 -1.33398 -58.5 -2.00098v63c34 0 61.5 0.5 82.5 1.5s37.167 4.33301 48.5 10s18.833 14.834 22.5 27.501s5.5 30.667 5.5 54v549v0z" />
    <glyph glyph-name="n" unicode="n" horiz-adv-x="1137" 
d="M225 705c0 24.667 -1.50391 44.499 -4.50391 59.499s-10 26.5 -21 34.5s-27 13.333 -48 16s-49.5 4 -85.5 4v64l288 22v-215c14.667 32 31.667 61.167 51 87.5s41.5 49 66.5 68s52.833 33.667 83.5 44s64.667 15.5 102 15.5c30 0 56.667 -2.33301 80 -7
s43.833 -10.667 61.5 -18s32.5 -15.5 44.5 -24.5s21.667 -17.833 29 -26.5c16 -18 28.333 -36.333 37 -55s15 -39.667 19 -63s6.33301 -50.666 7 -81.999s1 -69 1 -113v-391c0.666992 -15.333 4.33398 -27.166 11.001 -35.499s16.5 -14.5 29.5 -18.5s29.5 -6.33301 49.5 -7
s43.333 -1 70 -1v-63c-17.333 0.666992 -36.666 1.33398 -57.999 2.00098l-63.5 2c-21 0.666992 -41 1.16699 -60 1.5s-35.167 0.5 -48.5 0.5c-14 0 -30.5 -0.166992 -49.5 -0.5s-39 -0.833008 -60 -1.5l-63 -2c-21 -0.666992 -40.5 -1.33398 -58.5 -2.00098v63
c34 0 61.5 0.5 82.5 1.5s37.333 4.33301 49 10s19.334 14.834 23.001 27.501s5.5 30.667 5.5 54v477c0 29.333 -1.83301 57.666 -5.5 84.999s-11 51.5 -22 72.5s-26.5 37.833 -46.5 50.5s-46 19 -78 19c-32.667 0 -65.5 -7.16699 -98.5 -21.5s-62.667 -35.333 -89 -63
s-47.666 -61.834 -63.999 -102.501s-24.5 -87.667 -24.5 -141v-376c0 -23.333 1.83301 -41.333 5.5 -54s11.167 -21.834 22.5 -27.501s27.5 -9 48.5 -10s48.5 -1.5 82.5 -1.5v-63c-17.333 0.666992 -36.5 1.33398 -57.5 2.00098l-63 2c-21 0.666992 -41 1.16699 -60 1.5
s-35.167 0.5 -48.5 0.5c-14 0 -30.5 -0.166992 -49.5 -0.5s-39 -0.833008 -60 -1.5l-63 -2c-21 -0.666992 -40.5 -1.33398 -58.5 -2.00098v63c34 0 61.5 0.5 82.5 1.5s37.167 4.33301 48.5 10s18.833 14.834 22.5 27.501s5.5 30.667 5.5 54v549v0z" />
    <glyph glyph-name="o" unicode="o" horiz-adv-x="1024" 
d="M965 438c0 -65.333 -11.998 -126.001 -35.998 -182.001s-56.833 -104.667 -98.5 -146s-90 -73.833 -145 -97.5s-113.5 -35.5 -175.5 -35.5c-60 0 -117.333 11.667 -172 35s-102.834 55.5 -144.501 96.5s-74.834 89.667 -99.501 146s-37 117.5 -37 183.5
c0 64 11.667 125 35 183s55.5 109 96.5 153s89.167 79 144.5 105s115 39 179 39c62 0 120.5 -12.667 175.5 -38s103 -59.833 144 -103.5s73.5 -94.667 97.5 -153s36 -120.166 36 -185.499zM512.002 28.999c51.333 0 98.167 13.6641 140.5 40.9971s74.833 64 97.5 110
c11.333 22.667 20 46.167 26 70.5s10.5 48.666 13.5 72.999s4.66699 47.666 5 69.999s0.5 42.833 0.5 61.5c0 19.333 -0.333008 40.833 -1 64.5s-2.66699 48.167 -6 73.5s-8.66602 50.5 -15.999 75.5s-17.666 48.5 -30.999 70.5c-26.667 44 -60.5 77.167 -101.5 99.5
s-84.167 33.5 -129.5 33.5c-20.667 0 -41.834 -2.66699 -63.501 -8s-42.834 -13.666 -63.501 -24.999s-40.167 -25.666 -58.5 -42.999s-34.5 -37.666 -48.5 -60.999c-12 -22.667 -21.333 -46.167 -28 -70.5s-11.5 -48.666 -14.5 -72.999s-4.83301 -48.166 -5.5 -71.499
s-1 -45 -1 -65c0 -18.667 0.333008 -40 1 -64s2.5 -48.833 5.5 -74.5s8 -51.5 15 -77.5s17.167 -50.333 30.5 -73c28 -47.333 62.833 -82 104.5 -104s84.5 -33 128.5 -33z" />
    <glyph glyph-name="p" unicode="p" horiz-adv-x="1137" 
d="M352 770c10 11.333 23.166 24.6699 39.499 40.0029s36.166 30 59.499 44s50.5 26 81.5 36s66.5 15 106.5 15c57.333 0 111.833 -12 163.5 -36s97.167 -56.667 136.5 -98s70.5 -90.333 93.5 -147s34.5 -117.334 34.5 -182.001c0 -66 -12.333 -127.333 -37 -184
s-58 -105.834 -100 -147.501s-90.667 -74.334 -146 -98.001s-113.333 -35.5 -174 -35.5c-38.667 0 -73 6 -103 18s-55.667 26 -77 42s-38 32 -50 48s-19.333 28 -22 36v-19v-344c0 -23.333 1.83301 -41.166 5.5 -53.499s11.334 -21.333 23.001 -27s28 -9 49 -10
s48.5 -1.5 82.5 -1.5v-63c-18 0.666992 -37.5 1.33398 -58.5 2.00098l-63 2c-21 0.666992 -41 1.16699 -60 1.5s-35.5 0.5 -49.5 0.5c-13.333 0 -29.666 -0.166992 -48.999 -0.5s-39.5 -0.833008 -60.5 -1.5l-63 -2c-21 -0.666992 -40.167 -1.33398 -57.5 -2.00098v63
c34.667 0 62.5 0.5 83.5 1.5s37.167 4.33301 48.5 10s18.833 14.667 22.5 27s5.5 30.166 5.5 53.499v959c0 22.667 -1.5 40.667 -4.5 54s-10 23.5 -21 30.5s-27 11.667 -48 14s-49.833 3.5 -86.5 3.5v64l295 22v-135zM357.999 233.004c0 -10 0.166992 -18.167 0.5 -24.5
s1.33301 -12.166 3 -17.499s4.5 -11.333 8.5 -18s9.66699 -15.334 17 -26.001c28 -42 60.5 -73.167 97.5 -93.5s76.167 -30.5 117.5 -30.5c38 0 74.667 10.167 110 30.5s66.833 49 94.5 86s49.667 81.167 66 132.5s24.5 108 24.5 170c0 58 -7.33301 112 -22 162
s-34.5 93.5 -59.5 130.5s-54 66.167 -87 87.5s-68.167 32 -105.5 32c-52.667 0 -102.5 -14.167 -149.5 -42.5s-85.5 -68.833 -115.5 -121.5v-457z" />
    <glyph glyph-name="q" unicode="q" horiz-adv-x="1079" 
d="M778 125c-11.333 -14.667 -25.1689 -30.6689 -41.502 -48.002s-35.666 -33.333 -57.999 -48s-47.666 -27 -75.999 -37s-60.5 -15 -96.5 -15c-59.333 0 -115.5 12.167 -168.5 36.5s-99.333 57.333 -139 99s-71 90.667 -94 147s-34.5 116.5 -34.5 180.5
c0 66.667 12.5 128.334 37.5 185.001s58.333 105.834 100 147.501s89.667 74.167 144 97.5s111.166 35 170.499 35c40.667 0 76.667 -7 108 -21s58.333 -30.833 81 -50.5s41 -40.167 55 -61.5s24.333 -39 31 -53l77 186h46v-1147c0 -23.333 1.83301 -41.166 5.5 -53.499
s11.167 -21.333 22.5 -27s27.5 -9 48.5 -10s48.5 -1.5 82.5 -1.5v-63c-18 0.666992 -37.5 1.33398 -58.5 2.00098l-63 2c-21 0.666992 -41 1.16699 -60 1.5s-35.5 0.5 -49.5 0.5c-13.333 0 -29.5 -0.166992 -48.5 -0.5s-39 -0.833008 -60 -1.5l-63.5 -2
c-21.333 -0.666992 -40.666 -1.33398 -57.999 -2.00098v63c34.667 0 62.5 0.5 83.5 1.5s37.167 4.33301 48.5 10s18.833 14.667 22.5 27s5.5 30.166 5.5 53.499v367zM783.997 566.998c0 27.333 -5.33301 57.6709 -16 91.0039s-26.5 64.5 -47.5 93.5s-47 53.333 -78 73
s-66.833 29.5 -107.5 29.5c-38 0 -74.667 -10.167 -110 -30.5s-66.833 -48.666 -94.5 -84.999s-49.667 -80 -66 -131s-24.5 -106.833 -24.5 -167.5c0 -58.667 7.33301 -113.334 22 -164.001s34.5 -94.834 59.5 -132.501s54 -67.167 87 -88.5s68.167 -32 105.5 -32
c24 0 46 3 66 9s38 13.333 54 22s29.667 17.667 41 27s20.333 17.666 27 24.999c23.333 25.333 42.833 52.166 58.5 80.499s23.5 59.166 23.5 92.499v288z" />
    <glyph glyph-name="r" unicode="r" horiz-adv-x="801" 
d="M342 680c7.33301 22 17.5049 46.168 30.5049 72.501s29.667 50.666 50 72.999s44.666 41.166 72.999 56.499s61.166 23 98.499 23c22 0 42.167 -3.5 60.5 -10.5s34.333 -16.167 48 -27.5s24.167 -24.5 31.5 -39.5s11 -30.833 11 -47.5c0 -16 -2.83301 -29.833 -8.5 -41.5
s-12.834 -21 -21.501 -28s-18.167 -12.167 -28.5 -15.5s-20.166 -5 -29.499 -5c-22.667 0 -43 7.5 -61 22.5s-27 36.833 -27 65.5c0 13.333 2.16699 24.833 6.5 34.5s9.16602 17.834 14.499 24.501s10.666 11.667 15.999 15s8.66602 5.33301 9.99902 6
c-2 1.33301 -4.33301 2 -7 2h-15c-39.333 0 -74 -10.5 -104 -31.5s-55.167 -49.333 -75.5 -85s-35.833 -76.667 -46.5 -123s-16 -94.833 -16 -145.5v-315c0 -18.667 1 -34.167 3 -46.5s8 -22.333 18 -30s25.5 -13 46.5 -16s50.5 -4.5 88.5 -4.5h43v-63
c-41.333 3.33301 -84.666 5.16602 -129.999 5.49902s-88.666 0.5 -129.999 0.5c-14.667 0 -31.334 -0.166992 -50.001 -0.5s-38.334 -0.833008 -59.001 -1.5l-63 -2l-62 -2v63c34.667 0 62.5 0.5 83.5 1.5s37.167 4.33301 48.5 10s18.833 14.834 22.5 27.501
s5.5 30.667 5.5 54v549c0 24.667 -1.66699 44.5 -5 59.5s-10.5 26.5 -21.5 34.5s-27 13.333 -48 16s-49.5 4 -85.5 4v64l285 22v-225v0z" />
    <glyph glyph-name="s" unicode="s" horiz-adv-x="807" 
d="M426 397l-95.0039 19.499c-26.667 5.66699 -50.334 11.834 -71.001 18.501s-39.167 14.5 -55.5 23.5s-32.5 20.167 -48.5 33.5c-28 22.667 -49.667 48.334 -65 77.001s-23 61 -23 97c0 28.667 5.33301 57.834 16 87.501s28.667 56.667 54 81s58.833 44.333 100.5 60
s93.834 23.5 156.501 23.5c8 0 18.833 -0.333008 32.5 -1s29.167 -2.83398 46.5 -6.50098s35.833 -9.33398 55.5 -17.001s39.167 -18.834 58.5 -33.501c4 3.33301 10 8.66602 18 15.999s13.667 13 17 17c12.667 12.667 21.334 20 26.001 22s9.66699 3 15 3
c11.333 0 17.833 -4 19.5 -12s2.5 -20.667 2.5 -38v-206c0 -19.333 -1.16699 -32.5 -3.5 -39.5s-10.166 -10.5 -23.499 -10.5c-2 0 -6.16699 0.833008 -12.5 2.5s-10.166 7.16699 -11.499 16.5c-0.666992 10.667 -1.83398 24.167 -3.50098 40.5
s-5.16699 33.666 -10.5 51.999s-13 36.666 -23 54.999s-23.833 35 -41.5 50s-39.667 27.167 -66 36.5s-58.166 14 -95.499 14c-44 0 -80.667 -4.83301 -110 -14.5s-52.833 -22 -70.5 -37s-30.167 -31.667 -37.5 -50s-11 -36.5 -11 -54.5c0 -30 7.66699 -54.5 23 -73.5
s35.166 -34.5 59.499 -46.5s51.5 -21.5 81.5 -28.5s59.333 -13.5 88 -19.5c21.333 -4 42.333 -8.33301 63 -13s40.834 -10.5 60.501 -17.5s38.667 -16 57 -27s35.833 -24.5 52.5 -40.5c6 -6 14 -14.5 24 -25.5s19.5 -24.5 28.5 -40.5s16.833 -34.667 23.5 -56
s10 -45.666 10 -72.999c0 -36.667 -6.16699 -72.167 -18.5 -106.5s-31.666 -64.666 -57.999 -90.999s-60.333 -47.5 -102 -63.5s-91.834 -24 -150.501 -24c-10.667 0 -24.167 0.666992 -40.5 2s-34.5 4.83301 -54.5 10.5s-41.167 14.5 -63.5 26.5s-44.833 28.667 -67.5 50
l-21.5 -23.5c-5 -5.66699 -8.83301 -10.167 -11.5 -13.5l-5.5 -7c-1 -1.33301 -1.83301 -2.66602 -2.5 -3.99902c-10 -9.33301 -17.667 -16.833 -23 -22.5s-9.66602 -9.83398 -12.999 -12.501s-6 -4.33398 -8 -5.00098s-4.33301 -1 -7 -1c-11.333 0 -17.833 4 -19.5 12
s-2.5 20.667 -2.5 38v270c0 18.667 1 31.834 3 39.501s9.66699 11.5 23 11.5c10.667 0 17.334 -2.5 20.001 -7.5s5.66699 -14.167 9 -27.5c10 -43.333 22.333 -82.833 37 -118.5s33.167 -66.167 55.5 -91.5s49.166 -45 80.499 -59s68.666 -21 111.999 -21
c40 0 74.5 4.83301 103.5 14.5s53 22.834 72 39.501s33 36.334 42 59.001s13.5 47 13.5 73c0 24.667 -4.16699 46.167 -12.5 64.5s-19.166 34.333 -32.499 48s-28.166 25 -44.499 34s-32.333 16.333 -48 22s-30.334 10 -44.001 13s-24.167 5.16699 -31.5 6.5z" />
    <glyph glyph-name="t" unicode="t" horiz-adv-x="795" 
d="M354 250c0 -6 0.164062 -15.5029 0.49707 -28.5029s1.83301 -27.667 4.5 -44s6.83398 -33.333 12.501 -51s13.5 -33.667 23.5 -48s22.833 -26.166 38.5 -35.499s35.167 -14 58.5 -14c18.667 0 36.334 4.83301 53.001 14.5s31.167 24 43.5 43s22.166 42.833 29.499 71.5
s11 62 11 100v113h51v-117c0 -32.667 -3.66699 -65.5 -11 -98.5s-19.166 -62.667 -35.499 -89s-37.333 -47.833 -63 -64.5s-56.834 -25 -93.501 -25c-12 0 -27 1 -45 3s-36.833 6.33301 -56.5 13s-39.167 16 -58.5 28s-36.666 28.333 -51.999 49s-27.833 46 -37.5 76
s-14.5 66 -14.5 108v565h-174v45c50 2 91.833 15.833 125.5 41.5s60.667 57.834 81 96.501s34.833 80.834 43.5 126.501s13.334 89.5 14.001 131.5h51v-377h293v-64h-293v-569z" />
    <glyph glyph-name="u" unicode="u" horiz-adv-x="1137" 
d="M801 162c-30 -64 -67.167 -110.834 -111.5 -140.501s-95.166 -44.5 -152.499 -44.5c-52 0 -95.833 4.83301 -131.5 14.5s-65 23 -88 40s-40.833 36.667 -53.5 59s-21.834 46.333 -27.501 72s-9 52.334 -10 80.001s-1.5 54.834 -1.5 81.501v307
c0 45.333 -0.833008 80.666 -2.5 105.999s-7.5 44 -17.5 56s-25.667 19.333 -47 22s-52 4 -92 4v64l301 22v-680c0 -26.667 1.33301 -52.167 4 -76.5s9.83398 -45.833 21.501 -64.5s29.5 -33.5 53.5 -44.5s57.667 -16.5 101 -16.5c37.333 0 71.166 8.16699 101.499 24.5
s56.333 38.666 78 66.999s38.5 61.833 50.5 100.5s18 80.334 18 125.001v365c0 24.667 -1.66699 44.5 -5 59.5s-10.5 26.5 -21.5 34.5s-27 13.333 -48 16s-49.5 4 -85.5 4v64l301 22v-727c0 -25.333 1.5 -45.5 4.5 -60.5s10 -26.5 21 -34.5s27.167 -13.333 48.5 -16
s50 -4 86 -4v-63l-295 -23v185v0z" />
    <glyph glyph-name="v" unicode="v" horiz-adv-x="1079" 
d="M584 16c-4.66699 -10 -9.66797 -18.999 -15.001 -26.999s-14.666 -12 -27.999 -12s-22.333 3 -27 9s-10 16 -16 30l-295 727c-6.66699 16 -13 29 -19 39s-14.333 17.667 -25 23s-25.334 9 -44.001 11s-44 3 -76 3v64c15.333 -1.33301 31.666 -2.33301 48.999 -3
s34.833 -1.16699 52.5 -1.5l51.5 -1c16.667 -0.333008 32 -0.5 46 -0.5c12 0 27.333 0.166992 46 0.5s38.5 0.833008 59.5 1.5l63 2c21 0.666992 39.167 1.33398 54.5 2.00098v-64c-9.33301 0 -20.666 -0.333008 -33.999 -1s-26.166 -2.66699 -38.499 -6
s-22.833 -8.5 -31.5 -15.5s-13 -17.167 -13 -30.5c0 -2 0.5 -5 1.5 -9s4.5 -12.667 10.5 -26l230 -571l209 522l9 26c2 6 3 13.667 3 23c0 10 -1.66699 20 -5 30s-8.66602 19.333 -15.999 28s-17.333 15.667 -30 21s-28.334 8.33301 -47.001 9v64
c8.66699 -0.666992 20.5 -1.33398 35.5 -2.00098s31 -1.33398 48 -2.00098s34 -1.16699 51 -1.5s31.5 -0.5 43.5 -0.5c23.333 0 48.833 0.5 76.5 1.5s53.167 2.5 76.5 4.5v-64c-34 -0.666992 -62 -6 -84 -16s-40 -22 -54 -36s-24.667 -28.667 -32 -44s-13.333 -29 -18 -41z
" />
    <glyph glyph-name="w" unicode="w" horiz-adv-x="1479" 
d="M1028 16c-4 -10 -8.49902 -19.001 -13.499 -27.001s-14.167 -12 -27.5 -12s-22.5 3.66699 -27.5 11s-9.5 16.666 -13.5 27.999l-209 582l-207 -580c-5.33301 -14 -10.166 -24.333 -14.499 -31s-13.166 -10 -26.499 -10s-22.5 4 -27.5 12s-10.167 19.333 -15.5 34
l-258 725c-6 16 -12.5 28.833 -19.5 38.5s-16 16.834 -27 21.501s-24.833 7.66699 -41.5 9s-37.667 2 -63 2v64c18.667 -1.33301 38.667 -2.33301 60 -3s41.333 -1.16699 60 -1.5s34.5 -0.666016 47.5 -0.999023s20.5 -0.5 22.5 -0.5c12 0 27.5 0.166992 46.5 0.5
s39 0.833008 60 1.5l63 2c21 0.666992 39.167 1.33398 54.5 2.00098v-64c-10 0 -22 -0.333008 -36 -1s-27.333 -2.66699 -40 -6s-23.334 -8.66602 -32.001 -15.999s-13 -18 -13 -32c0 -4 0.333008 -8 1 -12s3.66699 -12.333 9 -25l195 -547l176 496l-12.5 32.5l-13 33.5
l-12 28.5c-3.66699 8.33301 -6.83398 14.166 -9.50098 17.499c-10.667 13.333 -25.5 21.833 -44.5 25.5s-47.167 5.5 -84.5 5.5v64c60.667 -4 121.334 -6 182.001 -6c12 0 27.167 0.166992 45.5 0.5s37.333 0.833008 57 1.5l58.5 2
c19.333 0.666992 36.666 1.33398 51.999 2.00098v-64c-10 0 -22 -0.333008 -36 -1s-27.333 -2.66699 -40 -6s-23.334 -8.66602 -32.001 -15.999s-13 -18 -13 -32c0 -5.33301 0.666992 -10 2 -14l8 -25l203 -571l186 524c5.33301 13.333 8.5 22.333 9.5 27s1.5 10 1.5 16
c0 30 -10.5 53.5 -31.5 70.5s-50.167 26.167 -87.5 27.5v64c10 -0.666992 22.667 -1.33398 38 -2.00098s31.833 -1.33398 49.5 -2.00098s35.5 -1.16699 53.5 -1.5s34.333 -0.5 49 -0.5c22.667 0 47.667 0.5 75 1.5s52.333 2.5 75 4.5v-64c-18 -0.666992 -35.333 -3 -52 -7
s-32.334 -10.833 -47.001 -20.5s-28.167 -22.834 -40.5 -39.501s-23.166 -38 -32.499 -64z" />
    <glyph glyph-name="x" unicode="x" horiz-adv-x="1079" 
d="M862 127c12 -14.667 23.6689 -26.3359 35.002 -35.0029s24.166 -15.167 38.499 -19.5s31.166 -7 50.499 -8s43 -1.5 71 -1.5v-63c-31.333 2 -65 3.5 -101 4.5s-68 1.5 -96 1.5c-11.333 0 -26.333 -0.166992 -45 -0.5s-38.5 -0.833008 -59.5 -1.5l-62.5 -2
c-20.667 -0.666992 -38.667 -1.33398 -54 -2.00098v63c14 0.666992 25.667 2.83398 35 6.50098s16.833 8.16699 22.5 13.5s9.83398 10.833 12.501 16.5s4 10.834 4 15.501c0 2.66699 -1.5 6.66699 -4.5 12s-6.66699 11.166 -11 17.499l-14 19.5l-13.5 18l-156 205
l-81.5 -96.5c-23 -27.667 -42.167 -51.667 -57.5 -72s-26.666 -37.833 -33.999 -52.5s-11 -27.667 -11 -39c0 -15.333 4.16699 -29 12.5 -41s23.833 -19.667 46.5 -23v-63c-12 0.666992 -26.167 1.33398 -42.5 2.00098l-51 2c-17.667 0.666992 -35.167 1.16699 -52.5 1.5
s-33.333 0.5 -48 0.5c-27.333 0 -55.833 -0.5 -85.5 -1.5s-57.834 -2.5 -84.501 -4.5v63c10.667 0 25.667 0.833008 45 2.5s41 6.5 65 14.5s49.167 20.333 75.5 37s51.833 39.667 76.5 69l192 244l-203 264c-24 30.667 -43.333 54.5 -58 71.5s-29.667 29.5 -45 37.5
s-33.166 12.667 -53.499 14s-48.5 2 -84.5 2v64c14 -1.33301 29.833 -2.33301 47.5 -3s35.667 -1.16699 54 -1.5s35.666 -0.666016 51.999 -0.999023s29.833 -0.5 40.5 -0.5c8 0 21.667 0.166992 41 0.5s40.166 0.833008 62.499 1.5l66 2
c21.667 0.666992 39.167 1.33398 52.5 2.00098v-64c-20.667 -1.33301 -37.834 -6.33301 -51.501 -15s-20.5 -20.667 -20.5 -36c0 -6 0.666992 -11 2 -15s6.66602 -11.333 15.999 -22l160 -207l127 160c5.33301 6 11.833 15.333 19.5 28s11.5 27.334 11.5 44.001
c0 16 -4.66699 30 -14 42s-24.666 19 -45.999 21v64c6.66699 -0.666992 17.834 -1.33398 33.501 -2.00098s33 -1.33398 52 -2.00098s38.5 -1.16699 58.5 -1.5s37.667 -0.5 53 -0.5c26.667 0 54.667 0.5 84 1.5s57.333 2.5 84 4.5v-64
c-48 -1.33301 -92.667 -10.166 -134 -26.499s-78 -42.833 -110 -79.5l-41.5 -48l-48 -59l-50 -63.5l-48.5 -61.5z" />
    <glyph glyph-name="y" unicode="y" horiz-adv-x="1079" 
d="M489 -186c-12 -29.333 -26.4912 -58.002 -43.4912 -86.002s-36.167 -53 -57.5 -75s-45.5 -39.667 -72.5 -53s-56.5 -20 -88.5 -20c-25.333 0 -49.5 4.33301 -72.5 13s-43 20.5 -60 35.5s-30.5 32.5 -40.5 52.5s-15 41.667 -15 65c0 15.333 2.5 28.5 7.5 39.5
s11.667 20.167 20 27.5s17.666 12.666 27.999 15.999s20.5 5 30.5 5c23.333 0 43.5 -7.66699 60.5 -23s25.5 -36.333 25.5 -63c0 -8 -1.16699 -16.667 -3.5 -26s-6.5 -18.166 -12.5 -26.499s-14.167 -15.5 -24.5 -21.5s-23.5 -10 -39.5 -12c10 -9.33301 20 -16.5 30 -21.5
s19.5 -8.66699 28.5 -11s16.833 -3.66602 23.5 -3.99902s11.334 -0.5 14.001 -0.5c32.667 0 61.167 8 85.5 24s45.666 36.333 63.999 61s34.166 52 47.499 82s25.666 59 36.999 87c2.66699 6.66699 6.5 15.5 11.5 26.5l15 34l14 34l10.5 26.5l-307 748
c-7.33301 18 -15.5 31.667 -24.5 41s-19.833 16.333 -32.5 21s-27.834 7.33398 -45.501 8.00098s-38.834 1 -63.501 1v64c15.333 -1.33301 31.666 -2.33301 48.999 -3s34.833 -1.16699 52.5 -1.5l51.5 -1c16.667 -0.333008 32 -0.5 46 -0.5
c8.66699 0 22.667 0.166992 42 0.5s40.166 0.833008 62.499 1.5l66 2c21.667 0.666992 39.167 1.33398 52.5 2.00098v-64c-10 0 -21.5 -0.333008 -34.5 -1s-25.5 -2.66699 -37.5 -6s-22.167 -8.5 -30.5 -15.5s-12.5 -17.167 -12.5 -30.5c0 -4 1 -8.5 3 -13.5l9 -23.5
l228 -551l207 504c4.66699 12.667 7.83398 21.5 9.50098 26.5s2.5 12.5 2.5 22.5c0 25.333 -8 46 -24 62s-40 24.667 -72 26v64c11.333 -0.666992 25.166 -1.33398 41.499 -2.00098l50.5 -2c17.333 -0.666992 33.666 -1.16699 48.999 -1.5s27.666 -0.5 36.999 -0.5
c23.333 0 48.833 0.5 76.5 1.5s53.167 2.5 76.5 4.5v-64c-8 0 -19.833 -0.833008 -35.5 -2.5s-32.834 -6.66699 -51.501 -15s-37.167 -21.333 -55.5 -39s-34.166 -42.5 -47.499 -74.5z" />
    <glyph glyph-name="z" unicode="z" horiz-adv-x="909" 
d="M229 51l242.001 -0.000976562c59.333 0 107.5 6 144.5 18s66.167 31.167 87.5 57.5s36.666 60.5 45.999 102.5s16.333 93.333 21 154h51l-35 -383h-675c-19.333 0 -33.166 1.16699 -41.499 3.5s-12.5 10.833 -12.5 25.5c0 5.33301 0.833008 10 2.5 14
s7.16699 11.667 16.5 23l571 772h-233c-56.667 0 -102.334 -5 -137.001 -15s-61.834 -26.333 -81.501 -49s-33.5 -52.167 -41.5 -88.5s-13.667 -80.5 -17 -132.5h-51l23 330h655c18.667 0 32.167 -1.16699 40.5 -3.5s12.5 -10.166 12.5 -23.499c0 -4 -0.666992 -8 -2 -12
s-6.66602 -11.667 -15.999 -23z" />
    <glyph glyph-name="emdash.001" unicode="{" horiz-adv-x="1198" 
d="M516 -242l0.000976562 496.003c0 48.667 -15.5 90.167 -46.5 124.5s-70.333 59.666 -118 75.999s-94.5 24.5 -140.5 24.5c-6 0 -11.333 2.33301 -16 7s-7 10 -7 16v20c0 6 2.33301 11.333 7 16s10 7 16 7c77.333 0 147.5 19.667 210.5 59s94.5 94.666 94.5 165.999v496
c0 50.667 14.5 94 43.5 130s66.5 64.167 112.5 84.5s93.833 34.666 143.5 42.999s99.5 12.5 149.5 12.5h20c5.33301 0 10.5 -2.5 15.5 -7.5s7.5 -10.167 7.5 -15.5v-20c0 -6 -2.33301 -11.333 -7 -16s-10 -7 -16 -7c-46.667 0 -93.167 -7.16699 -139.5 -21.5
s-85.166 -37.5 -116.499 -69.5s-47 -71 -47 -117v-496c0 -44.667 -11.667 -84.167 -35 -118.5s-53.833 -62.5 -91.5 -84.5s-78.167 -39 -121.5 -51c43.333 -12 83.833 -29 121.5 -51s68.167 -50.167 91.5 -84.5s35 -73.833 35 -118.5v-496c0 -46 15.667 -85 47 -117
s70.166 -55.167 116.499 -69.5s92.833 -21.5 139.5 -21.5c6 0 11.333 -2.33301 16 -7s7 -10 7 -16v-20c0 -5.33301 -2.5 -10.5 -7.5 -15.5s-10.167 -7.5 -15.5 -7.5h-20c-48.667 0 -98.5 4.33301 -149.5 13s-99.333 23 -145 43s-82.834 47.833 -111.501 83.5
s-43 79.167 -43 130.5z" />
    <glyph glyph-name="endash" unicode="|" horiz-adv-x="694" 
d="M297 -465v1954c4.66699 31.333 21.667 47 51 47c28 0 44.333 -15.667 49 -47v-1954c-4.66699 -31.333 -21 -47 -49 -47c-29.333 0 -46.333 15.667 -51 47z" />
    <glyph glyph-name="hungarumlaut.001" unicode="}" horiz-adv-x="1198" 
d="M188 -489l-0.00195312 20c0 6 2.33301 11.333 7 16s10 7 16 7c46.667 0 93.334 7 140.001 21s85.834 36.833 117.501 68.5s47.5 71.167 47.5 118.5v496c0 66.667 24 121.167 72 163.5s106.667 72.5 176 90.5c-43.333 12 -83.833 29 -121.5 51s-68.167 50.167 -91.5 84.5
s-35 73.833 -35 118.5v496c0 47.333 -15.833 86.833 -47.5 118.5s-70.834 54.5 -117.501 68.5s-93.334 21 -140.001 21c-6 0 -11.333 2.33301 -16 7s-7 10 -7 16v20c0 5.33301 2.5 10.5 7.5 15.5s10.167 7.5 15.5 7.5h20c65.333 0 132.666 -7.83301 201.999 -23.5
s128.166 -43.834 176.499 -84.501s72.5 -94.667 72.5 -162v-496c0 -71.333 31.333 -126.666 94 -165.999s132.334 -59 209.001 -59c6 0 11.333 -2.33301 16 -7s7 -10 7 -16v-20c0 -6 -2.33301 -11.333 -7 -16s-10 -7 -16 -7c-45.333 0 -91.666 -8.16699 -138.999 -24.5
s-86.5 -41.666 -117.5 -75.999s-46.5 -75.833 -46.5 -124.5v-496c0 -67.333 -24.167 -121.333 -72.5 -162s-107.166 -68.834 -176.499 -84.501s-136.666 -23.5 -201.999 -23.5h-20c-5.33301 0 -10.5 2.5 -15.5 7.5s-7.5 10.167 -7.5 15.5z" />
    <glyph glyph-name="tilde" unicode="~" horiz-adv-x="1165" 
d="M205 1214l74 77.999c54.667 57.333 109.667 86 165 86c23.333 0 46.5 -3.66699 69.5 -11s52.667 -18.666 89 -33.999s63.833 -26 82.5 -32s38.667 -9 60 -9c56 0 111.333 28.667 166 86l47 -45l-73 -78c-54.667 -57.333 -110 -86 -166 -86
c-21.333 0 -40.5 2.66699 -57.5 8s-44.333 16 -82 32s-68 27.667 -91 35s-46.5 11 -70.5 11c-56.667 0 -112 -28.667 -166 -86z" />
    <glyph glyph-name="hardspace" unicode="&#xa0;" horiz-adv-x="788" 
 />
    <glyph glyph-name="Gamma.001" unicode="&#xa1;" horiz-adv-x="662" 
d="M209 -326l0.000976562 11l84 915c0 5.33301 2.16699 10.5 6.5 15.5s9.5 7.5 15.5 7.5h33c6 0 11.333 -2.33301 16 -7s7 -10 7 -16l82 -915v-11c0 -31.333 -12.167 -57.833 -36.5 -79.5s-52.5 -32.5 -84.5 -32.5c-32.667 0 -61.334 11 -86.001 33s-37 48.333 -37 79z
M209.001 903c0 32.667 12 61 36 85s53 36 87 36c32.667 0 61 -12 85 -36s36 -52.333 36 -85s-12 -61.334 -36 -86.001s-52.333 -37 -85 -37c-34 0 -63 12.333 -87 37s-36 53.334 -36 86.001z" />
    <glyph glyph-name="Delta" unicode="&#xa2;" horiz-adv-x="1921" 
d="M143 0c-12 0 -18 6 -18 18c0 6 0.666992 9.66699 2 11l770 1403c10.667 18.667 27 28 49 28h27c22 0 38.333 -9.33301 49 -28l770 -1403c1.33301 -1.33301 2 -5 2 -11c0 -12 -6 -18 -18 -18h-1633zM301 176h1180l-590 1073z" />
    <glyph glyph-name="Theta.001" unicode="&#xa3;" horiz-adv-x="1796" 
d="M143 692c0 134 34.001 258.499 102.001 373.499s160 206.167 276 273.5s241.333 101 376 101s260 -33.667 376 -101s208 -158.5 276 -273.5s102 -239.5 102 -373.5s-34.333 -257 -103 -369s-160.834 -200.667 -276.501 -266s-240.5 -98 -374.5 -98
c-100 0 -195.667 18.833 -287 56.5s-172 89.834 -242 156.501s-125 145 -165 235s-60 185 -60 285zM897.001 28.999c89.333 0 168 18.334 236 55.001s125 87.167 171 151.5s79.833 135.5 101.5 213.5s32.5 159 32.5 243c0 114 -19.833 223.5 -59.5 328.5
s-100.5 190.167 -182.5 255.5s-181.667 98 -299 98s-217 -32.667 -299 -98s-142.833 -150.5 -182.5 -255.5s-59.5 -214.5 -59.5 -328.5c0 -113.333 20.167 -220.833 60.5 -322.5s101.5 -183.834 183.5 -246.501s181 -94 297 -94zM485.001 545v315h78v-69h668v69h78v-315h-78
v69h-668v-69h-78z" />
    <glyph glyph-name="Lambda" unicode="&#xa4;" horiz-adv-x="1599" 
d="M92 0l-0.000976562 82.001c48.667 0 91.667 9.5 129 28.5s63.333 48.5 78 88.5l446 1233c8 18.667 21.667 28 41 28h27c20 0 33.667 -9.33301 41 -28l467 -1289c12.667 -27.333 34.834 -44.333 66.501 -51s71.5 -10 119.5 -10v-82h-571v82c113.333 0 170 17 170 51
c0 4 -0.666992 7.33301 -2 10l-369 1020l-348 -964c-2.66699 -8 -4 -15 -4 -21c0 -32.667 16.333 -56.834 49 -72.501s67 -23.5 103 -23.5v-82h-443z" />
    <glyph glyph-name="Xi" unicode="&#xa5;" horiz-adv-x="1759" 
d="M190 422c-6 0 -12.499 3.50098 -19.499 10.501s-10.5 13.833 -10.5 20.5v12c0 6.66699 3.5 13.5 10.5 20.5s13.5 10.5 19.5 10.5h592v63l-217 313h-375c-6 0 -12.5 3.5 -19.5 10.5s-10.5 13.833 -10.5 20.5v12c0 6.66699 3.5 13.5 10.5 20.5s13.5 10.5 19.5 10.5h324
l-217 309c-22.667 28 -52.834 45.333 -90.501 52s-84.5 10 -140.5 10v82c29.333 0 74 -1.33301 134 -4s105.333 -4 136 -4c36.667 0 90.334 1.33301 161.001 4s123.334 4 158.001 4v-82c-87.333 0 -131 -13.667 -131 -41c0 -6.66699 2 -13.667 6 -21l218 -309h395l178 254
c10.667 14.667 16 31 16 49c0 24 -10 41.333 -30 52s-44 16 -72 16v82c28 0 70 -1.33301 126 -4s98 -4 126 -4c23.333 0 57.666 1.33301 102.999 4s79.333 4 102 4v-82c-126 0 -216.333 -39 -271 -117l-178 -254h324c6.66699 0 13.334 -3.33301 20.001 -10
s10 -13.667 10 -21v-12c0 -7.33301 -3.33301 -14.333 -10 -21s-13.334 -10 -20.001 -10h-375l-219 -313v-63h594c4 0 8.33301 -1.66699 13 -5s8.66699 -7.33301 12 -12s5 -9.33398 5 -14.001v-12c0 -7.33301 -3.33301 -14.333 -10 -21s-13.334 -10 -20.001 -10h-594v-279
c0 -40.667 71 -61 213 -61v-82c-34.667 -0 -86 1.33301 -154 4s-119 4 -153 4s-85.333 -1.33301 -154 -4s-120 -4 -154 -4v82c140.667 0 211 20.333 211 61v279h-592zM944.001 662.001l148 210h-293z" />
    <glyph glyph-name="Pi" unicode="&#xa6;" horiz-adv-x="1726" 
d="M111 0v82c140.667 0 211 20.333 211 61v1112c0 41.333 -70.333 62 -211 62v82h1503v-82c-140.667 0 -211 -20.667 -211 -62v-1112c0 -40.667 70.333 -61 211 -61v-82h-625v82c140.667 0 211 20.333 211 61v1174h-676v-1174c0 -40.667 70.333 -61 211 -61v-82h-624z" />
    <glyph glyph-name="Sigma.001" unicode="&#xa7;" horiz-adv-x="1071" 
d="M322 -242c19.333 -35.333 48.667 -62.498 88 -81.498s81 -28.5 125 -28.5c41.333 0 77.333 12.833 108 38.5s54 58.167 70 97.5s24 78.666 24 117.999c0 71.333 -21.333 130.333 -64 177s-99.667 84.667 -171 114c-208 80.667 -312 190.334 -312 329.001v2
c0 70 22 132.333 66 187s99.333 92.667 166 114c-154.667 79.333 -232 178.333 -232 297c0 60 16 114.667 48 164s74.833 87.666 128.5 114.999s110.5 41 170.5 41c51.333 0 101 -10.333 149 -31s87.333 -50.334 118 -89.001s46 -84 46 -136
c0 -22.667 -8 -42.334 -24 -59.001s-35.333 -25 -58 -25s-42.334 8.33301 -59.001 25s-25 36.334 -25 59.001c0 18.667 6.33301 35.667 19 51s28.334 25 47.001 29c-18.667 34.667 -47.834 61.667 -87.501 81s-81.5 29 -125.5 29c-41.333 0 -77.5 -12.833 -108.5 -38.5
s-54.5 -58.167 -70.5 -97.5s-24 -78.666 -24 -117.999c0 -70 21.167 -128.333 63.5 -175s99.5 -85.334 171.5 -116.001c208 -80.667 312 -190.334 312 -329.001c0 -70.667 -21.333 -133 -64 -187s-98.667 -92.667 -168 -116c154.667 -79.333 232 -178.333 232 -297
c0 -60 -16.167 -114.667 -48.5 -164s-75 -87.666 -128 -114.999s-108.833 -41 -167.5 -41c-51.333 0 -101.5 10.333 -150.5 31s-88.833 50.334 -119.5 89.001s-46 84 -46 136c0 24 8.33301 44 25 60s36.334 24 59.001 24s42 -8 58 -24s24 -36 24 -60
c0 -18.667 -6 -35.334 -18 -50.001s-27.667 -24.667 -47 -30zM541.001 246.002c39.333 0 74.168 12.999 104.501 38.999s53.166 59 68.499 99s23 78.667 23 116c0 41.333 -9.16699 80.333 -27.5 117s-43 68.834 -74 96.501s-66.167 49.167 -105.5 64.5
c-58.667 0 -106 -26.5 -142 -79.5s-54 -111.167 -54 -174.5c0 -61.333 19.5 -117 58.5 -167s88.5 -87 148.5 -111z" />
    <glyph glyph-name="Upsilon.001" unicode="&#xa8;" horiz-adv-x="1165" 
d="M473 1270c0 -15.333 -2.83301 -29.833 -8.5 -43.5s-13.5 -25.5 -23.5 -35.5s-21.833 -17.833 -35.5 -23.5s-28.167 -8.5 -43.5 -8.5c-14.667 0 -28.667 2.83301 -42 8.5s-25 13.5 -35 23.5s-18 21.833 -24 35.5s-9 28.167 -9 43.5s3 29.666 9 42.999s14 25 24 35
s21.667 17.833 35 23.5s27.333 8.5 42 8.5c15.333 0 29.833 -2.83301 43.5 -8.5s25.5 -13.5 35.5 -23.5s17.833 -21.667 23.5 -35s8.5 -27.666 8.5 -42.999zM911 1270c0 -15.333 -3 -29.833 -9 -43.5s-14 -25.5 -24 -35.5s-21.667 -17.833 -35 -23.5s-27.333 -8.5 -42 -8.5
c-15.333 0 -29.833 2.83301 -43.5 8.5s-25.5 13.5 -35.5 23.5s-17.833 21.833 -23.5 35.5s-8.5 28.167 -8.5 43.5s2.83301 29.666 8.5 42.999s13.5 25 23.5 35s21.833 17.833 35.5 23.5s28.167 8.5 43.5 8.5c14.667 0 28.667 -2.83301 42 -8.5s25 -13.5 35 -23.5
s18 -21.667 24 -35s9 -27.666 9 -42.999z" />
    <glyph glyph-name="Phi.001" unicode="&#xa9;" horiz-adv-x="2331" 
d="M160 512c0 133.333 27.0029 258.333 81.0029 375s128 218 222 304s201.5 152.667 322.5 200s247.5 71 379.5 71c132.667 0 259.667 -23.667 381 -71s229.166 -114 323.499 -200s168.166 -187.333 221.499 -304s80 -241.667 80 -375
c0 -132.667 -26.5 -257.167 -79.5 -373.5s-127.167 -218 -222.5 -305s-203.333 -154 -324 -201s-247.334 -70.5 -380.001 -70.5c-132 0 -258 23.5 -378 70.5s-227.667 114 -323 201s-169.833 188.667 -223.5 305s-80.5 240.833 -80.5 373.5zM260.003 512
c0 -119.333 24.168 -230.835 72.501 -334.502s115.833 -194.667 202.5 -273s184.334 -138.333 293.001 -180s221 -62.5 337 -62.5s228.833 21 338.5 63s207.5 101.833 293.5 179.5s153.167 168.5 201.5 272.5s72.5 215.667 72.5 335c0 120 -24.333 232.333 -73 337
s-115.334 195.334 -200.001 272.001s-181.834 136 -291.501 178s-223.5 63 -341.5 63s-231.333 -20.833 -340 -62.5s-205.667 -101.167 -291 -178.5s-152.333 -168.166 -201 -272.499s-73 -216.5 -73 -336.5z" />
    <glyph glyph-name="Psi" unicode="&#xaa;" horiz-adv-x="1796" 
d="M532 0l-0.00195312 81.999c176.667 0 265 20.333 265 61v152c-76.667 8 -145.5 26 -206.5 54s-113 65.167 -156 111.5s-76 101.333 -99 165s-34.5 133.834 -34.5 210.501c0 32 -4 65.667 -12 101s-22 64.833 -42 88.5s-45.667 35.5 -77 35.5
c-14.667 3.33301 -23.667 12 -27 26v15c3.33301 12.667 12.333 20.667 27 24h137c62.667 0 108.667 -29.833 138 -89.5s44 -124.5 44 -194.5c0 -77.333 10 -148.833 30 -214.5s52.833 -122 98.5 -169s105.5 -77.5 179.5 -91.5v888c0 27.333 -28.5 44.5 -85.5 51.5
s-116.833 10.5 -179.5 10.5v82h717v-82c-62 0 -121.5 -3.5 -178.5 -10.5s-85.5 -24.167 -85.5 -51.5v-890c112.667 21.333 194.167 75.333 244.5 162s75.5 191.667 75.5 315c0 70 15 134.833 45 194.5s76.333 89.5 139 89.5h137c13.333 -4 21.666 -12 24.999 -24v-15
c-3.33301 -13.333 -11.666 -22 -24.999 -26c-48 0 -82.167 -23.5 -102.5 -70.5s-30.5 -98.5 -30.5 -154.5c0 -161.333 -47.667 -289.666 -143 -384.999c-45.333 -44.667 -102.666 -81.834 -171.999 -111.501s-133.666 -44.5 -192.999 -44.5v-152c0 -40.667 88 -61 264 -61
v-82h-717z" />
    <glyph glyph-name="logicalnot" unicode="&#xac;" horiz-adv-x="1575" 
d="M207 639c-12.667 2 -23.667 7.66797 -33 17.001s-14 20.666 -14 33.999c0 28 15.667 44.333 47 49h1161c27.333 -4 43 -19.667 47 -47v-471c-4.66699 -31.333 -21 -47 -49 -47c-14 0 -25.5 4.5 -34.5 13.5s-14.5 20.167 -16.5 33.5v418h-1108z" />
    <glyph glyph-name="Omega.001" unicode="&#xad;" horiz-adv-x="1669" 
d="M190 0l-73.0059 351.999h78c18.667 -89.333 30.334 -141.333 35.001 -156s17.834 -25.334 39.501 -32.001s66.167 -10 133.5 -10h134c-19.333 60.667 -55.166 128.5 -107.499 203.5l-140.5 199c-41.333 57.667 -76 116.834 -104 177.501s-42 126.667 -42 198
c0 81.333 21.333 154.166 64 218.499s98.167 117.833 166.5 160.5s142.833 74.834 223.5 96.501s159.667 32.5 237 32.5s156.333 -10.833 237 -32.5s155.334 -53.834 224.001 -96.501s124 -96.167 166 -160.5s63 -137.166 63 -218.499
c0 -89.333 -17.5 -164.666 -52.5 -225.999s-94.833 -150.5 -179.5 -267.5s-138.667 -211.833 -162 -284.5h134c67.333 0 111.833 3.33301 133.5 10s35.334 18.5 41.001 35.5s17.167 67.833 34.5 152.5h77l-73 -352h-404c-17.333 4 -26 15 -26 33
c0 90 20.833 187.5 62.5 292.5l124.5 315c41.333 105 62 202.167 62 291.5c0 64.667 -11.833 124.834 -35.5 180.501s-56.167 102.667 -97.5 141s-90.333 68 -147 89s-117.334 31.5 -182.001 31.5s-125.167 -10.333 -181.5 -31s-105.666 -50.667 -147.999 -90
s-75.166 -86.5 -98.499 -141.5s-35 -114.833 -35 -179.5c0 -68.667 10.333 -135.834 31 -201.501s51.5 -145.667 92.5 -240s72.333 -176 94 -245s32.5 -139.833 32.5 -212.5c0 -18 -8.33301 -29 -25 -33h-406z" />
    <glyph glyph-name="ff" unicode="&#xae;" horiz-adv-x="2028" 
d="M1903 502c0 -80.667 -10.5 -158.83 -31.5 -234.497s-50.833 -146.334 -89.5 -212.001s-85 -125.667 -139 -180s-114 -101 -180 -140s-137 -69.167 -213 -90.5s-155.333 -32 -238 -32c-81.333 0 -159.833 10.667 -235.5 32s-146.5 51.333 -212.5 90s-126 85 -180 139
s-100.333 114 -139 180s-68.667 136.667 -90 212s-32 154 -32 236s10.667 161 32 237s51.333 147 90 213s85 126.167 139 180.5s114 100.666 180 138.999s137 68.166 213 89.499s155 32 237 32c80.667 0 158.5 -10.5 233.5 -31.5s145.5 -50.667 211.5 -89
s126.167 -84.5 180.5 -138.5s101 -114 140 -180s69.333 -137.167 91 -213.5s32.5 -155.833 32.5 -238.5zM1012 -286.996c73.333 0 143.832 9.49902 211.499 28.499s130.834 45.833 189.501 80.5s111.834 76.334 159.501 125.001s88.5 102.167 122.5 160.5
s60.333 120.833 79 187.5s28 135.667 28 207c0 72.667 -9.33301 142.5 -28 209.5s-45.167 129.667 -79.5 188s-75.5 111.666 -123.5 159.999s-101.167 89.666 -159.5 123.999s-121.333 61 -189 80s-137.834 28.5 -210.501 28.5c-71.333 0 -140.5 -9.33301 -207.5 -28
s-129.667 -45 -188 -79s-111.666 -75 -159.999 -123s-89.833 -101.167 -124.5 -159.5s-61.5 -121.333 -80.5 -189s-28.5 -138.167 -28.5 -211.5c0 -72 9.33301 -141.5 28 -208.5s45.167 -129.667 79.5 -188s75.5 -111.666 123.5 -159.999s101.167 -89.666 159.5 -123.999
s121.166 -61 188.499 -80s137.333 -28.5 210 -28.5zM757.999 512.003h192.002c58 0 105.167 5.16699 141.5 15.5s64.666 24.333 84.999 42s34.166 38.5 41.499 62.5s11 49.667 11 77c0 30.667 -4.5 58 -13.5 82s-24.167 44.5 -45.5 61.5s-49.833 30 -85.5 39
s-80.5 13.5 -134.5 13.5h-133c-14 0 -25 -0.5 -33 -1.5s-14 -4 -18 -9s-6.33301 -13 -7 -24s-1 -26.167 -1 -45.5v-313zM1157 479.003c38 -15.333 71.1699 -36.8398 99.5029 -64.5068s47.833 -62.167 58.5 -103.5l6.5 -25l7.5 -29.5
c2.66699 -10.333 5.16699 -20.666 7.5 -30.999l6.5 -28.5c5.33301 -24 10.666 -46.333 15.999 -67s11.833 -38.5 19.5 -53.5s17.167 -26.667 28.5 -35s25.666 -12.5 42.999 -12.5c8 0 17.167 1.66699 27.5 5s20 9 29 17s17 19 24 33s11.5 31.667 13.5 53
c0.666992 6.66699 2.83398 14.167 6.50098 22.5s13.167 12.5 28.5 12.5c8.66699 0 15.334 -1.5 20.001 -4.5s8.16699 -6.66699 10.5 -11s3.66602 -8.5 3.99902 -12.5s0.5 -7 0.5 -9c0 -10.667 -2.5 -25.167 -7.5 -43.5s-14 -36.5 -27 -54.5s-30.667 -33.5 -53 -46.5
s-50.5 -19.5 -84.5 -19.5c-14 0 -29 0.833008 -45 2.5s-32.167 4.16699 -48.5 7.5s-32.166 7.83301 -47.499 13.5s-29 12.167 -41 19.5c-23.333 14.667 -41.333 29.834 -54 45.501s-21.834 32.5 -27.501 50.5s-9 37.333 -10 58s-1.5 44 -1.5 70
c0 25.333 -0.333008 46.166 -1 62.499s-2.66699 30.333 -6 42s-8.5 22.334 -15.5 32.001s-17.167 20.834 -30.5 33.501c-13.333 12 -28.333 21.167 -45 27.5s-33.167 11 -49.5 14s-31.166 4.66699 -44.499 5s-23 0.5 -29 0.5h-188v-305c0 -19.333 0.5 -34.833 1.5 -46.5
s4.33301 -20.667 10 -27s14.667 -10.5 27 -12.5s30.166 -3 53.499 -3c5.33301 0 10.666 -0.166992 15.999 -0.5s10.166 -1.5 14.499 -3.5s7.83301 -5 10.5 -9s4 -9.66699 4 -17c0 -20.667 -11 -31 -33 -31c-26.667 0 -55.667 1.33301 -87 4s-61 4 -89 4
s-57.333 -1.33301 -88 -4s-59.334 -4 -86.001 -4c-22 0 -33 10.333 -33 31c0 14.667 4.66699 23.334 14 26.001s19.666 4 30.999 4c22.667 0 40.334 1 53.001 3s21.834 6.16699 27.501 12.5s9 15.333 10 27s1.5 27.167 1.5 46.5v667c0 19.333 -0.5 34.833 -1.5 46.5
s-4.33301 20.5 -10 26.5s-14.834 10 -27.501 12s-30.334 3 -53.001 3c-11.333 0 -21.666 1.33301 -30.999 4s-14 11.667 -14 27s5.16699 24.333 15.5 27s25.833 4 46.5 4h426c62.667 0 120.834 -7 174.501 -21s100.167 -32.667 139.5 -56s70.166 -50.666 92.499 -81.999
s33.5 -64.333 33.5 -99c0 -28.667 -7.16699 -55.167 -21.5 -79.5s-33.166 -46.166 -56.499 -65.499s-50 -36.166 -80 -50.499s-60.667 -25.833 -92 -34.5z" />
    <glyph glyph-name="fi" unicode="&#xaf;" horiz-adv-x="1165" 
d="M174 1130v87h815v-87h-815z" />
    <glyph glyph-name="degree" unicode="&#xb0;" horiz-adv-x="1726" 
d="M635 1284c0 36 11.165 67.5 33.498 94.5s51.5 47.667 87.5 62s71.333 21.5 106 21.5c35.333 0 70.833 -7.16699 106.5 -21.5s64.834 -35 87.501 -62s34 -58.5 34 -94.5c0 -54 -23.667 -97.5 -71 -130.5s-99.666 -49.5 -156.999 -49.5c-56.667 0 -108.667 16.5 -156 49.5
s-71 76.5 -71 130.5zM712.998 1284c0 -45.333 12.833 -75.833 38.5 -91.5s62.5 -23.5 110.5 -23.5c48.667 0 85.834 7.83301 111.501 23.5s38.5 46.167 38.5 91.5c0 44 -12.833 73.833 -38.5 89.5s-62.834 23.5 -111.501 23.5c-48 0 -84.833 -7.83301 -110.5 -23.5
s-38.5 -45.5 -38.5 -89.5z" />
    <glyph glyph-name="ffi" unicode="&#xb1;" 
d="M207 -57c-31.333 4.66699 -47.002 21 -47.002 49c0 29.333 15.667 46.333 47 51h657v606h-657c-12.667 2 -23.667 7.66699 -33 17s-14 20.666 -14 33.999c0 27.333 15.667 44 47 50h657v659c0.666992 12.667 5.83398 23.667 15.501 33s20.834 14 33.501 14
c13.333 0 24.833 -4.5 34.5 -13.5s15.5 -20.167 17.5 -33.5v-659h655c31.333 -6 47 -22.667 47 -50c0 -13.333 -4.66699 -24.666 -14 -33.999s-20.333 -15 -33 -17h-655v-606h655c31.333 -4.66699 47 -21.667 47 -51c0 -28 -15.667 -44.333 -47 -49h-1413z" />
    <glyph glyph-name="ffl" unicode="&#xb2;" horiz-adv-x="1987" 
d="M96 0v81.999c44.667 0 81.5 3.33301 110.5 10s43.5 23.667 43.5 51v658h-172v82h172v239c0 72 29 132.167 87 180.5s127.333 83.666 208 105.999s157 33.5 229 33.5c37.333 0 72.833 -3.16699 106.5 -9.5s65 -17.666 94 -33.999s51.5 -38.166 67.5 -65.499
c102.667 72.667 234 109 394 109c88 0 156 -11 204 -33l95 12v-1278c0 -26.667 14.5 -43.5 43.5 -50.5s65.5 -10.5 109.5 -10.5v-82h-469v82c44.667 0 81.5 3.33301 110.5 10s43.5 23.667 43.5 51v658h-500v-658c0 -26.667 14.667 -43.5 44 -50.5s66 -10.5 110 -10.5v-82
h-469v82c44 0 80.5 3.33301 109.5 10s43.5 23.667 43.5 51v658h-499v-658c0 -26.667 14.5 -43.5 43.5 -50.5s65.5 -10.5 109.5 -10.5v-82h-469zM403 882.999l508.002 0.000976562v239c0 18 2.33301 34.333 7 49c-36 18.667 -54 48.334 -54 89.001
c0 41.333 18 70.666 54 87.999c-38.667 18.667 -93.334 28 -164.001 28c-53.333 0 -107.333 -10 -162 -30s-99.834 -49.333 -135.501 -88s-53.5 -85.334 -53.5 -140.001v-235zM1065 883l507.999 0.000976562v319c-31.333 19.333 -47 48 -47 86c0 32.667 12.333 58 37 76
c-33.333 8 -82.666 12 -147.999 12c-54 0 -108 -10 -162 -30s-98.833 -49.333 -134.5 -88s-53.5 -85.334 -53.5 -140.001v-235z" />
    <glyph glyph-name="dotlessi.001" unicode="&#xb3;" horiz-adv-x="662" 
d="M111 0v82c44 0 80.5 3.33301 109.5 10s43.5 23.667 43.5 51v541c0 36.667 -4.66699 63.167 -14 79.5s-23.5 26.333 -42.5 30s-49.167 5.5 -90.5 5.5v82l309 22v-760c0 -27.333 12.833 -44.333 38.5 -51s59.167 -10 100.5 -10v-82h-454z" />
    <glyph glyph-name="dotlessj" unicode="&#xb4;" horiz-adv-x="1165" 
d="M532 1034l-52.999 57.999l275 307c19.333 22 39.666 33 60.999 33c24 0 45 -9.66699 63 -29s27 -40.666 27 -63.999c0 -27.333 -13 -49 -39 -65z" />
    <glyph glyph-name="grave" unicode="&#xb5;" horiz-adv-x="1165" 
d="M297 1274c-26 16 -38.999 37.668 -38.999 65.001c0 23.333 9 44.666 27 63.999s39 29 63 29c19.333 0 38.666 -9 57.999 -27l278 -313l-53 -58z" />
    <glyph glyph-name="acute" unicode="&#xb6;" horiz-adv-x="1450" 
d="M805 -350l0.000976562 813c-70.667 0 -143.834 10 -219.501 30s-146 50.5 -211 91.5s-117 91.667 -156 152s-58.5 128.833 -58.5 205.5c0 94 27.167 177.5 81.5 250.5s124.833 129.333 211.5 169s176 59.5 268 59.5h584c31.333 -4.66699 47 -21 47 -49
c0 -14 -4.5 -25.5 -13.5 -34.5s-20.167 -14.5 -33.5 -16.5h-142v-1671c-4.66699 -31.333 -21 -47 -49 -47c-29.333 0 -46.333 15.667 -51 47v1671h-158v-1671c-4.66699 -31.333 -21 -47 -49 -47c-29.333 0 -46.333 15.667 -51 47z" />
    <glyph glyph-name="periodcentered" unicode="&#xb7;" horiz-adv-x="694" 
d="M225 512c0 32.667 12.333 61 37 85s53.334 36 86.001 36s61 -12 85 -36s36 -52.333 36 -85c0 -34 -12 -63 -36 -87s-52.333 -36 -85 -36s-61.334 12 -86.001 36s-37 53 -37 87z" />
    <glyph glyph-name="breve.001" unicode="&#xb8;" horiz-adv-x="1038" 
d="M307 -422v66.001c252.667 0 379 35.333 379 106c0 40.667 -19.333 69 -58 85s-82 24 -130 24v100h170v-47c125.333 -22.667 188 -76.667 188 -162c0 -40 -20.5 -71.833 -61.5 -95.5s-90.833 -40.834 -149.5 -51.501s-116 -17.5 -172 -20.5s-111.333 -4.5 -166 -4.5z" />
    <glyph glyph-name="macron" unicode="&#xb9;" horiz-adv-x="1165" 
d="M174 1130v87h815v-87h-815z" />
    <glyph glyph-name="ring.001" unicode="&#xba;" horiz-adv-x="1726" 
d="M635 1284c0 36 11.165 67.5 33.498 94.5s51.5 47.667 87.5 62s71.333 21.5 106 21.5c35.333 0 70.833 -7.16699 106.5 -21.5s64.834 -35 87.501 -62s34 -58.5 34 -94.5c0 -54 -23.667 -97.5 -71 -130.5s-99.666 -49.5 -156.999 -49.5c-56.667 0 -108.667 16.5 -156 49.5
s-71 76.5 -71 130.5zM712.998 1284c0 -45.333 12.833 -75.833 38.5 -91.5s62.5 -23.5 110.5 -23.5c48.667 0 85.834 7.83301 111.501 23.5s38.5 46.167 38.5 91.5c0 44 -12.833 73.833 -38.5 89.5s-62.834 23.5 -111.501 23.5c-48 0 -84.833 -7.83301 -110.5 -23.5
s-38.5 -45.5 -38.5 -89.5z" />
    <glyph glyph-name="cedilla" unicode="&#xbb;" horiz-adv-x="1038" 
d="M307 -422v66.001c252.667 0 379 35.333 379 106c0 40.667 -19.333 69 -58 85s-82 24 -130 24v100h170v-47c125.333 -22.667 188 -76.667 188 -162c0 -40 -20.5 -71.833 -61.5 -95.5s-90.833 -40.834 -149.5 -51.501s-116 -17.5 -172 -20.5s-111.333 -4.5 -166 -4.5z" />
    <glyph glyph-name="germandbls.001" unicode="&#xbc;" horiz-adv-x="1165" 
d="M96 0l0.00195312 81.9971c44.667 0 81.5 3.33301 110.5 10s43.5 23.667 43.5 51v658h-154v82h154v266c0 58.667 19.333 110.667 58 156s87.5 79.5 146.5 102.5s117.833 34.5 176.5 34.5c45.333 0 90.166 -6.16699 134.499 -18.5s86.166 -31.166 125.499 -56.499
s70.666 -57 93.999 -95s35 -79.667 35 -125c0 -70 -26 -131.5 -78 -184.5s-114.667 -91.833 -188 -116.5c65.333 -26.667 122.833 -65 172.5 -115s88.167 -107.667 115.5 -173s41 -134 41 -206c0 -69.333 -18.333 -132.5 -55 -189.5s-85.667 -101.667 -147 -134
s-127 -48.5 -197 -48.5c-52 0 -99.5 14.5 -142.5 43.5s-64.5 68.833 -64.5 119.5c0 22.667 8 42 24 58s35.333 24 58 24s42 -8 58 -24s24 -35.333 24 -58c0 -34 -14.333 -58.333 -43 -73c24.667 -16.667 53.334 -25 86.001 -25c50.667 0 92.5 15.167 125.5 45.5
s57.167 68.833 72.5 115.5s23 95.334 23 146.001c0 56 -6.5 111 -19.5 165s-34 104 -63 150s-65.333 82.5 -109 109.5s-94.5 40.5 -152.5 40.5c-4 0 -8.66699 2.66699 -14 8s-8 10.333 -8 15v20c0 5.33301 2.5 10.5 7.5 15.5s9.83301 7.5 14.5 7.5
c80 0 146.833 23.833 200.5 71.5s80.5 111.834 80.5 192.501c0 66 -18.667 120.667 -56 164s-89 65 -155 65s-119 -22 -159 -66s-60 -99 -60 -165v-1145h-316z" />
    <glyph glyph-name="ae" unicode="&#xbd;" horiz-adv-x="1669" 
d="M115 205c0 79.333 36.4971 142.831 109.497 190.498s157.833 80.667 254.5 99s187 27.5 271 27.5v101c0 40 -10.667 77.5 -32 112.5s-49.666 62.5 -84.999 82.5s-73 30 -113 30c-37.333 0 -72 -2 -104 -6s-60.667 -11 -86 -21c17.333 -7.33301 30.5 -19.166 39.5 -35.499
s13.5 -34.5 13.5 -54.5c0 -18.667 -4.5 -35.667 -13.5 -51s-21.333 -27.333 -37 -36s-32.167 -13 -49.5 -13c-29.333 0 -53.833 9.5 -73.5 28.5s-29.5 42.833 -29.5 71.5c0 73.333 34.167 122 102.5 146s147.5 36 237.5 36c68.667 0 135 -12.5 199 -37.5
s114.333 -62.167 151 -111.5c30 32 62.833 59 98.5 81s73.5 38.833 113.5 50.5s81.333 17.5 124 17.5c61.333 0 116.166 -10.167 164.499 -30.5s88.333 -48.666 120 -84.999s55.667 -79.833 72 -130.5s24.5 -106.334 24.5 -167.001c0 -18 -8 -29 -24 -33h-643v-18
c0 -72 12.667 -137.833 38 -197.5s63.833 -107.667 115.5 -144s113.834 -54.5 186.501 -54.5c58 0 110.5 19.5 157.5 58.5s78.167 87.833 93.5 146.5c6 8.66699 14.333 14 25 16h27c16 -4.66699 24 -14 24 -28c0 -1.33301 -0.666992 -4.66602 -2 -9.99902
c-14 -52 -38.5 -97.167 -73.5 -135.5s-76 -68 -123 -89s-96.833 -31.5 -149.5 -31.5c-72.667 0 -142.167 14.833 -208.5 44.5s-123.166 71.5 -170.499 125.5c-24 -40 -57.5 -73 -100.5 -99s-89 -44.333 -138 -55s-99.833 -16 -152.5 -16
c-89.333 0 -170.666 17.5 -243.999 52.5s-110 92.5 -110 172.5zM294.997 204.998c0 -46.667 20.165 -85 60.498 -115s84.833 -45 133.5 -45c44.667 0 89.334 9 134.001 27s81.334 44.333 110.001 79s43 75 43 121c0 7.33301 -0.166992 13.333 -0.5 18
s-0.833008 9.66699 -1.5 15c-16 44.667 -24 92.667 -24 144v10c-104 0 -205.833 -20.667 -305.5 -62s-149.5 -105.333 -149.5 -192zM923.995 527.998h511.999c0 84 -18.833 158.333 -56.5 223s-95.5 97 -173.5 97c-52.667 0 -100.667 -15.667 -144 -47
s-77.166 -71.833 -101.499 -121.5s-36.5 -100.167 -36.5 -151.5z" />
    <glyph glyph-name="oe" unicode="&#xbe;" horiz-adv-x="1796" 
d="M80 449c0 85.333 22.1699 163.667 66.5029 235s104 127.333 179 168s154.833 61 239.5 61c77.333 0 151.166 -17.5 221.499 -52.5s127.5 -83.5 171.5 -145.5c40 60.667 94 108.834 162 144.501s139 53.5 213 53.5c61.333 0 116.166 -10.167 164.499 -30.5
s88.333 -48.666 120 -84.999s55.667 -79.833 72 -130.5s24.5 -106.334 24.5 -167.001c0 -18 -8 -29 -24 -33h-646v-16c0 -72.667 12.833 -139.167 38.5 -199.5s64.667 -108.5 117 -144.5s114.5 -54 186.5 -54c58.667 0 111.5 19.5 158.5 58.5s78.167 87.833 93.5 146.5
c1.33301 7.33301 9.66602 12.666 24.999 15.999h27c16 -4.66699 24 -14 24 -28c0 -1.33301 -0.666992 -4.66602 -2 -9.99902c-20 -76.667 -62.833 -138.5 -128.5 -185.5s-138.834 -70.5 -219.501 -70.5c-80 0 -156 17.667 -228 53s-130.333 85 -175 149
c-30.667 -42.667 -66.667 -78.834 -108 -108.501s-86.5 -52.667 -135.5 -69s-99.833 -24.5 -152.5 -24.5c-64 0 -125 11.667 -183 35s-110.167 56.833 -156.5 100.5s-82.166 94.167 -107.499 151.5s-38 118 -38 182zM565.003 45.001c72.667 0 132.17 19.833 178.503 59.5
s79.666 90.5 99.999 152.5s30.5 129.333 30.5 202c0 52.667 -5.66699 101.667 -17 147s-29.333 86.333 -54 123s-57.167 65.667 -97.5 87s-87.166 32 -140.499 32c-70.667 0 -128.834 -18.167 -174.501 -54.5s-78.834 -84 -99.501 -143s-31 -122.833 -31 -191.5
c0 -70.667 9.83301 -137.5 29.5 -200.5s52.167 -114.333 97.5 -154s104.666 -59.5 177.999 -59.5zM1049.01 528.001l513.999 0.000976562c0 51.333 -8 101.666 -24 150.999s-41 89.833 -75 121.5s-77.667 47.5 -131 47.5s-101.666 -15.5 -144.999 -46.5
s-77.333 -71.5 -102 -121.5s-37 -100.667 -37 -152z" />
    <glyph glyph-name="oslash" unicode="&#xbf;" horiz-adv-x="1102" 
d="M637 905c0 -14.667 -2.83496 -29.002 -8.50195 -43.002s-13.667 -26.5 -24 -37.5s-22.833 -19.833 -37.5 -26.5s-31 -10 -49 -10c-14.667 0 -29 2.83301 -43 8.5s-26.5 13.834 -37.5 24.501s-19.833 23.167 -26.5 37.5s-10 30.5 -10 48.5
c0 14.667 2.83301 29.167 8.5 43.5s13.834 26.833 24.501 37.5s23.167 19.334 37.5 26.001s30.5 10 48.5 10c14.667 0 29.167 -2.83301 43.5 -8.5s26.833 -13.667 37.5 -24s19.334 -22.833 26.001 -37.5s10 -31 10 -49zM484.998 574.998
c0 20.667 1.50098 34.498 4.50098 41.498s13.167 10.5 30.5 10.5c8 0 14.333 -0.5 19 -1.5s8.16699 -4 10.5 -9s3.83301 -12.5 4.5 -22.5s1 -24.333 1 -43c0 -28 -1 -61.5 -3 -100.5s-8.33301 -81.5 -19 -127.5s-27.5 -94.167 -50.5 -144.5s-55.5 -100.166 -97.5 -149.499
c-12 -14.667 -21.667 -29.167 -29 -43.5s-13 -29 -17 -44s-6.5 -30.5 -7.5 -46.5s-1.5 -33 -1.5 -51c0 -23.333 1.16699 -47.166 3.5 -71.499s9.5 -46.333 21.5 -66s31.167 -35.667 57.5 -48s63.5 -18.5 111.5 -18.5c12.667 0 33.334 1 62.001 3s59.667 7 93 15
s66.166 20.167 98.499 36.5s59.166 38.833 80.499 67.5c-23.333 2 -41.333 7.66699 -54 17s-22 19.333 -28 30s-9.5 20.834 -10.5 30.501s-1.5 16.167 -1.5 19.5c0 17.333 3.16699 32.166 9.5 44.499s14.333 22.5 24 30.5s20 13.833 31 17.5s21.5 5.5 31.5 5.5
c8 0 17.5 -1.33301 28.5 -4s21.667 -7.83398 32 -15.501s19.166 -18.167 26.499 -31.5s11 -30.333 11 -51c0 -43.333 -11.167 -81.833 -33.5 -115.5s-53.166 -62.167 -92.499 -85.5s-85.666 -41.166 -138.999 -53.499s-111 -18.5 -173 -18.5
c-79.333 0 -143.5 9.33301 -192.5 28s-87.167 42 -114.5 70s-45.833 58.167 -55.5 90.5s-14.5 61.833 -14.5 88.5c0 34 7.33301 69 22 105s41.667 69 81 99c58 44.667 103.167 89.667 135.5 135s56.166 89 71.499 131s24.5 81.333 27.5 118s4.5 68.667 4.5 96v32z" />
    <glyph glyph-name="AE.001" unicode="&#xc0;" horiz-adv-x="2075" 
d="M1903 0h-1104v74c34 0 61.333 0.5 82 1.5s36.5 4.33301 47.5 10s18.333 14.5 22 26.5s5.5 29.333 5.5 52v471h-368l-172 -422c-4 -11.333 -7.16699 -19.5 -9.5 -24.5s-3.5 -11.167 -3.5 -18.5c0 -8 2.16699 -17.5 6.5 -28.5s12 -21.333 23 -31s25.833 -18 44.5 -25
s42.667 -10.833 72 -11.5v-74c-41.333 3.33301 -82.333 5.5 -123 6.5s-81.667 1.5 -123 1.5c-35.333 0 -70.166 -0.5 -104.499 -1.5s-69.166 -3.16699 -104.499 -6.5v74c26 0 51 2 75 6s46.5 11 67.5 21s40 23.833 57 41.5s31.167 40.5 42.5 68.5l452 1112
c-12 1.33301 -23.167 2 -33.5 2h-33.5h-103v74h1252l61 -471h-69c-8.66699 68.667 -19.334 128 -32.001 178s-32.5 91.333 -59.5 124s-63.833 56.667 -110.5 72s-108.334 23 -185.001 23h-238c-24 0 -42.667 -1.16699 -56 -3.5s-23 -6.5 -29 -12.5
s-9.66699 -14.167 -11 -24.5s-2 -23.5 -2 -39.5v-536h196c50.667 0 91 4.16699 121 12.5s53 22 69 41s26.333 43.667 31 74s7 67.5 7 111.5h69v-553h-69c0 43.333 -2.33301 80.333 -7 111s-15 55.5 -31 74.5s-39 32.833 -69 41.5s-70.333 13 -121 13h-196v-481
c0 -16 0.666992 -29.167 2 -39.5s5 -18.5 11 -24.5s15.667 -10.167 29 -12.5s32 -3.5 56 -3.5h242c59.333 0 110.333 4.33301 153 13s79 21.667 109 39s54.833 39 74.5 65s36.167 56.167 49.5 90.5s24.5 73 33.5 116s17.833 90.167 26.5 141.5h70zM616 709h340v520
c0 8.66699 -0.5 18.167 -1.5 28.5s-4.33301 20 -10 29s-14.5 16.5 -26.5 22.5s-29.333 9.33301 -52 10z" />
    <glyph glyph-name="OE" unicode="&#xc1;" horiz-adv-x="2327" 
d="M2154 0l-885.997 0.000976562c-20.667 0 -44.334 -1.33301 -71.001 -4s-59 -8 -97 -16c-27.333 -5.33301 -51 -9.33301 -71 -12s-37 -4.66699 -51 -6s-25.5 -2.16602 -34.5 -2.49902s-16.167 -0.5 -21.5 -0.5c-67.333 0 -132.833 8.66699 -196.5 26
s-123.167 41.833 -178.5 73.5s-106 69.667 -152 114s-85.5 93.666 -118.5 147.999s-58.667 112.833 -77 175.5s-27.5 128 -27.5 196c0 69.333 9.16699 136.166 27.5 200.499s44 124.166 77 179.499s72.5 105.666 118.5 150.999s96.667 84 152 116
s114.666 56.833 177.999 74.5s129 26.5 197 26.5c8 0 16.5 -0.166992 25.5 -0.5s20.167 -1.16602 33.5 -2.49902s29.666 -3.5 48.999 -6.5s43.333 -7.5 72 -13.5c50 -9.33301 87.5 -14.666 112.5 -15.999s42.833 -2 53.5 -2h854l61 -471h-69
c-8.66699 70 -19.667 130 -33 180s-34 91.167 -62 123.5s-66.333 56 -115 71s-112.667 22.5 -192 22.5h-266c-24 0 -42.667 -1.16699 -56 -3.5s-23 -6.5 -29 -12.5s-9.66699 -14.167 -11 -24.5s-2 -23.5 -2 -39.5v-481h245c52 0 94.333 3.5 127 10.5s58.5 19.5 77.5 37.5
s32 42.5 39 73.5s10.5 70.5 10.5 118.5h70v-553h-70c0 47.333 -3.5 86.5 -10.5 117.5s-20 55.5 -39 73.5s-44.833 30.5 -77.5 37.5s-75 10.5 -127 10.5h-245v-536c0 -16 0.666992 -29.167 2 -39.5s5 -18.5 11 -24.5s15.667 -10.167 29 -12.5s32 -3.5 56 -3.5h276
c60.667 0 112.667 4.33301 156 13s80.5 21.667 111.5 39s56.5 39 76.5 65s36.667 56.167 50 90.5s24.666 73 34 116c9.33301 43 18.333 90.167 27 141.5h70zM1178 1008c0 78.667 -4.33301 142.497 -13 191.497s-22.667 87 -42 114s-44.833 45.167 -76.5 54.5
s-70.5 14 -116.5 14c-74.667 0 -145.167 -16.667 -211.5 -50s-124.333 -79.5 -174 -138.5s-89 -128.5 -118 -208.5s-43.5 -166.667 -43.5 -260c0 -65.333 6.5 -128.166 19.5 -188.499s31.333 -116.666 55 -168.999s52.167 -100.166 85.5 -143.499
s70.166 -80.333 110.499 -111s83.833 -54.5 130.5 -71.5s95.334 -25.5 146.001 -25.5c46 0 84.833 4.83301 116.5 14.5s57.167 28 76.5 55s33.333 65 42 114s13 112.833 13 191.5v617z" />
    <glyph glyph-name="Oslash.001" unicode="&#xc2;" horiz-adv-x="1796" 
d="M1370 1274c62 -50.667 111.499 -103.673 148.499 -159.006s65.333 -109.166 85 -161.499s32.5 -101.166 38.5 -146.499s9 -83.666 9 -114.999c0 -66.667 -8.83301 -131.167 -26.5 -193.5s-42.834 -120.666 -75.501 -174.999s-71.834 -103.833 -117.501 -148.5
s-96.5 -83 -152.5 -115s-116.167 -56.833 -180.5 -74.5s-131.5 -26.5 -201.5 -26.5c-32 0 -64.667 2 -98 6s-67.5 10.667 -102.5 20s-71 22 -108 38s-74.833 35.667 -113.5 59l-151 -201l-52 39l152 203c-43.333 34.667 -82.333 73.334 -117 116.001
s-64.167 88.334 -88.5 137.001s-43 99.5 -56 152.5s-19.5 107.5 -19.5 163.5c0 68 8.83301 133.833 26.5 197.5s42.834 123.167 75.501 178.5s71.834 105.833 117.501 151.5s96.5 84.834 152.5 117.501s116.167 58 180.5 76s131.5 27 201.5 27c29.333 0 60.5 -2 93.5 -6
s67.333 -10.667 103 -20s72.334 -22.333 110.001 -39s75.5 -37.334 113.5 -62.001l153 207l52 -41zM1264 1242.99c-54 47.333 -112.167 82.3311 -174.5 104.998s-126.5 34 -192.5 34c-24 0 -54.5 -2.66699 -91.5 -8s-76.167 -16.166 -117.5 -32.499
s-82.833 -39.833 -124.5 -70.5s-79.167 -71.5 -112.5 -122.5s-60.5 -113.667 -81.5 -188s-31.5 -163.166 -31.5 -266.499c0 -108 11.667 -202.167 35 -282.5s60 -149.833 110 -208.5zM529.999 153.992c13.333 -12.667 31.3301 -26.999 53.9971 -42.999
s49.334 -31 80.001 -45s65.5 -25.833 104.5 -35.5s81.833 -14.5 128.5 -14.5c51.333 0 98.833 6 142.5 18s83.334 27.333 119.001 46s67 39.5 94 62.5s49.167 45.833 66.5 68.5c28 36 50.833 73 68.5 111s31.5 77.333 41.5 118s17 82.167 21 124.5s6 85.5 6 129.5
c0 33.333 -1.5 71 -4.5 113s-9.66699 85.5 -20 130.5s-25.166 89.667 -44.499 134s-45.333 85.166 -78 122.499z" />
    <glyph glyph-name="polishlcross" unicode="&#xc3;" horiz-adv-x="662" 
d="M98 573l-22 72l514 158l22 -70z" />
    <glyph glyph-name="dieresis" unicode="&#xc4;" horiz-adv-x="1165" 
d="M248 1266c0 31.333 11.5 58.166 34.5 80.499s49.5 33.5 79.5 33.5c32 0 59.167 -11.167 81.5 -33.5s33.5 -49.166 33.5 -80.499c0 -32 -11.167 -59.167 -33.5 -81.5s-49.5 -33.5 -81.5 -33.5c-30 0 -56.5 11.167 -79.5 33.5s-34.5 49.5 -34.5 81.5zM686 1266
c0 31.333 11.5 58.168 34.5 80.501s49.833 33.5 80.5 33.5s57.334 -11.333 80.001 -34s34 -49.334 34 -80.001c0 -31.333 -11.333 -58.333 -34 -81s-49.334 -34 -80.001 -34s-57.5 11.167 -80.5 33.5s-34.5 49.5 -34.5 81.5z" />
    <glyph glyph-name="AE" unicode="&#xc6;" horiz-adv-x="2075" 
d="M1903 0h-1104v74c34 0 61.333 0.5 82 1.5s36.5 4.33301 47.5 10s18.333 14.5 22 26.5s5.5 29.333 5.5 52v471h-368l-172 -422c-4 -11.333 -7.16699 -19.5 -9.5 -24.5s-3.5 -11.167 -3.5 -18.5c0 -8 2.16699 -17.5 6.5 -28.5s12 -21.333 23 -31s25.833 -18 44.5 -25
s42.667 -10.833 72 -11.5v-74c-41.333 3.33301 -82.333 5.5 -123 6.5s-81.667 1.5 -123 1.5c-35.333 0 -70.166 -0.5 -104.499 -1.5s-69.166 -3.16699 -104.499 -6.5v74c26 0 51 2 75 6s46.5 11 67.5 21s40 23.833 57 41.5s31.167 40.5 42.5 68.5l452 1112
c-12 1.33301 -23.167 2 -33.5 2h-33.5h-103v74h1252l61 -471h-69c-8.66699 68.667 -19.334 128 -32.001 178s-32.5 91.333 -59.5 124s-63.833 56.667 -110.5 72s-108.334 23 -185.001 23h-238c-24 0 -42.667 -1.16699 -56 -3.5s-23 -6.5 -29 -12.5
s-9.66699 -14.167 -11 -24.5s-2 -23.5 -2 -39.5v-536h196c50.667 0 91 4.16699 121 12.5s53 22 69 41s26.333 43.667 31 74s7 67.5 7 111.5h69v-553h-69c0 43.333 -2.33301 80.333 -7 111s-15 55.5 -31 74.5s-39 32.833 -69 41.5s-70.333 13 -121 13h-196v-481
c0 -16 0.666992 -29.167 2 -39.5s5 -18.5 11 -24.5s15.667 -10.167 29 -12.5s32 -3.5 56 -3.5h242c59.333 0 110.333 4.33301 153 13s79 21.667 109 39s54.833 39 74.5 65s36.167 56.167 49.5 90.5s24.5 73 33.5 116s17.833 90.167 26.5 141.5h70zM616 709h340v520
c0 8.66699 -0.5 18.167 -1.5 28.5s-4.33301 20 -10 29s-14.5 16.5 -26.5 22.5s-29.333 9.33301 -52 10z" />
    <glyph glyph-name="multiply" unicode="&#xd7;" 
d="M365 12c0 12.667 4 23.001 12 31.001l467 469l-467 467c-8 8 -12 19 -12 33c0 12.667 5 24 15 34s22 15 36 15c11.333 0 21.333 -3.33301 30 -10l467 -469l461 460c11.333 12.667 24.333 19 39 19c13.333 0 24.833 -4.83301 34.5 -14.5s14.5 -21.167 14.5 -34.5
s-3.33301 -24.333 -10 -33l-469 -467l469 -469c6.66699 -8.66699 10 -19 10 -31c0 -14.667 -4.83301 -26.834 -14.5 -36.501s-21.167 -14.5 -34.5 -14.5c-12 0 -23 3.33301 -33 10l-467 469l-458 -460c-14.667 -12.667 -27.667 -19 -39 -19c-14 0 -26 5 -36 15
s-15 22 -15 36z" />
    <glyph glyph-name="Oslash" unicode="&#xd8;" horiz-adv-x="1796" 
d="M281 -78l145.001 197.001c-44 35.333 -83.5 74.5 -118.5 117.5s-64.833 89.333 -89.5 139s-43.334 101.667 -56.001 156s-19 107.833 -19 160.5c0 134 34 258.5 102 373.5s160 206.167 276 273.5s241.333 101 376 101c148 0 284.667 -40.333 410 -121l147 203l59 -45
l-147 -199c58 -46 108.667 -100.333 152 -163s76.333 -130.334 99 -203.001s34 -146 34 -220c0 -134 -34.333 -257 -103 -369s-160.834 -200.667 -276.501 -266s-240.5 -98 -374.5 -98c-149.333 0 -286.666 39.667 -411.999 119l-145 -201zM543.001 154.001
c47.333 -41.333 101.5 -73.165 162.5 -95.498s124.833 -33.5 191.5 -33.5c80.667 0 157.5 16.333 230.5 49s134.167 79 183.5 139c50 61.333 85.333 132.166 106 212.499s31 169.166 31 266.499c0 218 -48.333 384 -145 498zM489.001 205.002l761.999 1038
c-97.333 87.333 -215.333 131 -354 131c-79.333 0 -155.666 -16.5 -228.999 -49.5s-135 -80.5 -185 -142.5c-50 -61.333 -85.333 -133.833 -106 -217.5s-31 -174.5 -31 -272.5c0 -212 47.667 -374.333 143 -487z" />
    <glyph glyph-name="germandbls" unicode="&#xdf;" horiz-adv-x="1165" 
d="M96 0l0.00195312 81.9971c44.667 0 81.5 3.33301 110.5 10s43.5 23.667 43.5 51v658h-154v82h154v266c0 58.667 19.333 110.667 58 156s87.5 79.5 146.5 102.5s117.833 34.5 176.5 34.5c45.333 0 90.166 -6.16699 134.499 -18.5s86.166 -31.166 125.499 -56.499
s70.666 -57 93.999 -95s35 -79.667 35 -125c0 -70 -26 -131.5 -78 -184.5s-114.667 -91.833 -188 -116.5c65.333 -26.667 122.833 -65 172.5 -115s88.167 -107.667 115.5 -173s41 -134 41 -206c0 -69.333 -18.333 -132.5 -55 -189.5s-85.667 -101.667 -147 -134
s-127 -48.5 -197 -48.5c-52 0 -99.5 14.5 -142.5 43.5s-64.5 68.833 -64.5 119.5c0 22.667 8 42 24 58s35.333 24 58 24s42 -8 58 -24s24 -35.333 24 -58c0 -34 -14.333 -58.333 -43 -73c24.667 -16.667 53.334 -25 86.001 -25c50.667 0 92.5 15.167 125.5 45.5
s57.167 68.833 72.5 115.5s23 95.334 23 146.001c0 56 -6.5 111 -19.5 165s-34 104 -63 150s-65.333 82.5 -109 109.5s-94.5 40.5 -152.5 40.5c-4 0 -8.66699 2.66699 -14 8s-8 10.333 -8 15v20c0 5.33301 2.5 10.5 7.5 15.5s9.83301 7.5 14.5 7.5
c80 0 146.833 23.833 200.5 71.5s80.5 111.834 80.5 192.501c0 66 -18.667 120.667 -56 164s-89 65 -155 65s-119 -22 -159 -66s-60 -99 -60 -165v-1145h-316z" />
    <glyph glyph-name="ae.001" unicode="&#xe6;" horiz-adv-x="1669" 
d="M115 205c0 79.333 36.4971 142.831 109.497 190.498s157.833 80.667 254.5 99s187 27.5 271 27.5v101c0 40 -10.667 77.5 -32 112.5s-49.666 62.5 -84.999 82.5s-73 30 -113 30c-37.333 0 -72 -2 -104 -6s-60.667 -11 -86 -21c17.333 -7.33301 30.5 -19.166 39.5 -35.499
s13.5 -34.5 13.5 -54.5c0 -18.667 -4.5 -35.667 -13.5 -51s-21.333 -27.333 -37 -36s-32.167 -13 -49.5 -13c-29.333 0 -53.833 9.5 -73.5 28.5s-29.5 42.833 -29.5 71.5c0 73.333 34.167 122 102.5 146s147.5 36 237.5 36c68.667 0 135 -12.5 199 -37.5
s114.333 -62.167 151 -111.5c30 32 62.833 59 98.5 81s73.5 38.833 113.5 50.5s81.333 17.5 124 17.5c61.333 0 116.166 -10.167 164.499 -30.5s88.333 -48.666 120 -84.999s55.667 -79.833 72 -130.5s24.5 -106.334 24.5 -167.001c0 -18 -8 -29 -24 -33h-643v-18
c0 -72 12.667 -137.833 38 -197.5s63.833 -107.667 115.5 -144s113.834 -54.5 186.501 -54.5c58 0 110.5 19.5 157.5 58.5s78.167 87.833 93.5 146.5c6 8.66699 14.333 14 25 16h27c16 -4.66699 24 -14 24 -28c0 -1.33301 -0.666992 -4.66602 -2 -9.99902
c-14 -52 -38.5 -97.167 -73.5 -135.5s-76 -68 -123 -89s-96.833 -31.5 -149.5 -31.5c-72.667 0 -142.167 14.833 -208.5 44.5s-123.166 71.5 -170.499 125.5c-24 -40 -57.5 -73 -100.5 -99s-89 -44.333 -138 -55s-99.833 -16 -152.5 -16
c-89.333 0 -170.666 17.5 -243.999 52.5s-110 92.5 -110 172.5zM294.997 204.998c0 -46.667 20.165 -85 60.498 -115s84.833 -45 133.5 -45c44.667 0 89.334 9 134.001 27s81.334 44.333 110.001 79s43 75 43 121c0 7.33301 -0.166992 13.333 -0.5 18
s-0.833008 9.66699 -1.5 15c-16 44.667 -24 92.667 -24 144v10c-104 0 -205.833 -20.667 -305.5 -62s-149.5 -105.333 -149.5 -192zM923.995 527.998h511.999c0 84 -18.833 158.333 -56.5 223s-95.5 97 -173.5 97c-52.667 0 -100.667 -15.667 -144 -47
s-77.166 -71.833 -101.499 -121.5s-36.5 -100.167 -36.5 -151.5z" />
    <glyph glyph-name="eth" unicode="&#xf0;" horiz-adv-x="1323" 
d="M834 1298c44 -28 87.6582 -61.1621 130.991 -99.4951s82 -82.166 116 -131.499s61.667 -104.833 83 -166.5s32 -129.834 32 -204.501c0 -130 -14.333 -241.5 -43 -334.5s-67.667 -169.333 -117 -229s-106.666 -103.5 -171.999 -131.5s-135 -42 -209 -42
c-49.333 0 -93.166 4.5 -131.499 13.5s-72.5 20.5 -102.5 34.5s-56.333 29.667 -79 47s-43 34.666 -61 51.999c-24.667 22 -46.667 45 -66 69s-35.5 49.833 -48.5 77.5s-22.833 57.5 -29.5 89.5s-10 67.667 -10 107c0 30 2.33301 59.5 7 88.5s12.834 57.833 24.501 86.5
s27.167 56.834 46.5 84.501s44 55.167 74 82.5l50.5 44c19.667 16.667 43.667 32.334 72 47.001s61.666 27 99.999 37s82.833 15 133.5 15c43.333 0 82.333 -5.33301 117 -16s65.334 -24.167 92.001 -40.5s49.5 -34.166 68.5 -53.499s34.833 -37.666 47.5 -54.999
s22.334 -32.333 29.001 -45s10.667 -20.667 12 -24h3c0 65.333 -5.83301 123.5 -17.5 174.5s-26.167 95.667 -43.5 134s-36.166 71.166 -56.499 98.499s-38.833 49.666 -55.5 66.999c-7.33301 7.33301 -16.333 15.666 -27 24.999l-31 26c-10 8 -18.833 14.667 -26.5 20
s-12.834 8 -15.501 8c-3.33301 0 -8.16602 -1.33301 -14.499 -4l-14.5 -6l-409 -180c-16.667 -7.33301 -32.167 -11.5 -46.5 -12.5s-22.166 -1.5 -23.499 -1.5c-17.333 0 -30.666 1.16699 -39.999 3.5s-16.166 6 -20.499 11s-6.83301 11.333 -7.5 19s-1 16.834 -1 27.501
v119c0 11.333 0.333008 20.833 1 28.5s3.16699 14 7.5 19s11.166 8.5 20.499 10.5s22.666 3 39.999 3c15.333 0 27.666 -1.16699 36.999 -3.5s16.5 -5.33301 21.5 -9s8.33301 -7.83398 10 -12.501s2.83398 -9.33398 3.50098 -14.001v-106l360 158
c-72 36.667 -142.333 62.167 -211 76.5s-132 22.166 -190 23.499c-20.667 0 -35 1.5 -43 4.5s-12 11.833 -12 26.5c0 14 4.5 22.167 13.5 24.5s20.833 3.5 35.5 3.5c60 0 116.833 -4.66699 170.5 -14s102.334 -20.333 146.001 -33s81.667 -25.834 114 -39.501l75.5 -32.5
l266 117c16.667 7.33301 30.334 12.666 41.001 15.999s23.667 5 39 5c17.333 0 30.666 -1.16699 39.999 -3.5s16.166 -6 20.499 -11s6.83301 -11.333 7.5 -19s1 -17.167 1 -28.5v-119c0 -10.667 -0.333008 -19.834 -1 -27.501s-3.16699 -14 -7.5 -19
s-11.166 -8.66699 -20.499 -11s-22.666 -3.5 -39.999 -3.5c-28 0 -46.667 3.5 -56 10.5s-14.666 15.833 -15.999 26.5v106l-63 -26.5l-51 -21.5l-42.5 -18.5c-13 -5.66699 -25.5 -11.5 -37.5 -17.5zM990.991 446.005c2 13.333 3.16504 25.5 3.49805 36.5
s0.5 18.167 0.5 21.5c0 46.667 -8.16699 92.5 -24.5 137.5s-39.833 84.833 -70.5 119.5s-67.5 62.667 -110.5 84s-91.167 32 -144.5 32c-45.333 0 -88 -7.33301 -128 -22s-78 -43 -114 -85c-21.333 -24.667 -37.666 -49 -48.999 -73s-19.5 -48.833 -24.5 -74.5
s-8 -52.667 -9 -81s-1.5 -58.5 -1.5 -90.5c0 -33.333 0.666992 -63.333 2 -90s4.33301 -51.667 9 -75s11.667 -45.666 21 -66.999s22 -43 38 -65c18.667 -26 38.5 -47.333 59.5 -64s42.833 -29.834 65.5 -39.501s45.834 -16.334 69.501 -20.001s48.167 -5.5 73.5 -5.5
c51.333 0 95.5 8.83301 132.5 26.5s68 40.334 93 68.001s45 57.834 60 90.501s26.333 64.167 34 94.5s12.667 57.166 15 80.499s3.5 39 3.5 47c0 2 -0.333008 4 -1 6s-1.66699 4.66699 -3 8z" />
    <glyph glyph-name="divide" unicode="&#xf7;" 
d="M768 18c0 39.333 14.5 73.8359 43.5 103.503s63.5 44.5 103.5 44.5c26.667 0 51.334 -6.66699 74.001 -20s40.667 -31.333 54 -54s20 -47.334 20 -74.001s-6.66699 -51.334 -20 -74.001s-31.333 -40.834 -54 -54.501s-47.334 -20.5 -74.001 -20.5
c-40 0 -74.5 14.833 -103.5 44.5s-43.5 64.5 -43.5 104.5zM207 461.003c-31.333 4.66699 -47 21.667 -47 51c0 28 15.667 44.333 47 49h1415c31.333 -4.66699 47 -21 47 -49c0 -29.333 -15.667 -46.333 -47 -51h-1415zM768 1006c0 38.667 14.5 72.832 43.5 102.499
s63.5 44.5 103.5 44.5s74.667 -14.667 104 -44s44 -63.666 44 -102.999c0 -40 -14.667 -75 -44 -105s-64 -45 -104 -45s-74.5 15 -103.5 45s-43.5 65 -43.5 105z" />
    <glyph glyph-name="oslash.001" unicode="&#xf8;" horiz-adv-x="1165" 
d="M145 -180l153.998 240.999c-63.333 40.667 -114.333 94.5 -153 161.5s-58 137.5 -58 211.5c0 66.667 13 128.834 39 186.501s62 108.5 108 152.5s99 78.333 159 103s122.667 37 188 37c80.667 0 156.334 -17.667 227.001 -53l154 240l55 -37l-152 -238
c41.333 -28 78 -63 110 -105s56.5 -87.5 73.5 -136.5s25.5 -98.833 25.5 -149.5c0 -64 -13.5 -124.167 -40.5 -180.5s-63.667 -104.833 -110 -145.5s-99.5 -72.167 -159.5 -94.5s-121 -33.5 -183 -33.5c-81.333 0 -156.666 16.333 -225.999 49l-155 -246zM398.998 93.999
c53.333 -32.667 114.333 -49 183 -49c215.333 0 323 129.667 323 389c0 44 -2.16699 84 -6.5 120s-13 71 -26 105s-31.5 64.333 -55.5 91zM347.998 134.999l420 657.997c-54 36.667 -116 55 -186 55c-79.333 0 -143.333 -18.5 -192 -55.5s-82.834 -86.667 -102.501 -149
s-29.5 -132.166 -29.5 -209.499c0 -63.333 6.33301 -120.166 19 -170.499s36.334 -93.166 71.001 -128.499z" />
    <glyph glyph-name="dotlessi" unicode="&#x131;" horiz-adv-x="662" 
d="M111 0v82c44 0 80.5 3.33301 109.5 10s43.5 23.667 43.5 51v541c0 36.667 -4.66699 63.167 -14 79.5s-23.5 26.333 -42.5 30s-49.167 5.5 -90.5 5.5v82l309 22v-760c0 -27.333 12.833 -44.333 38.5 -51s59.167 -10 100.5 -10v-82h-454z" />
    <glyph glyph-name="OE.001" unicode="&#x152;" horiz-adv-x="2327" 
d="M172 692c0 134 34.001 258.5 102.001 373.5s160 206.167 276 273.5s241.333 101 376 101c40.667 0 98.167 -6.83301 172.5 -20.5s130.833 -20.5 169.5 -20.5h854l61 -479h-78c-10.667 87.333 -24.167 155.833 -40.5 205.5s-40.166 88.667 -71.499 117
s-72.333 47.833 -123 58.5s-120.334 16 -209.001 16h-199c-36 0 -62.667 -3.33301 -80 -10s-26 -24 -26 -52v-487h198c79.333 0 137.833 4.33301 175.5 13s66 30 85 64s28.5 88.333 28.5 163h78v-562h-78c0 74.667 -9.5 129 -28.5 163s-47.333 55.333 -85 64
s-96.167 13 -175.5 13h-198v-543c0 -27.333 8.66699 -44.333 26 -51s44 -10 80 -10h217c96 0 172.667 7.83301 230 23.5s102.166 41 134.499 76s57 79.667 74 134s34.167 131.5 51.5 231.5h78l-93 -547h-886c-42 0 -100.167 -6.83301 -174.5 -20.5
s-130.166 -20.5 -167.499 -20.5c-134 0 -258.833 32.667 -374.5 98s-207.834 154 -276.501 266s-103 235 -103 369zM926.001 25c47.333 0 89.166 5.33105 125.499 15.998s63.5 31.667 81.5 63c20 35.333 32.5 82.5 37.5 141.5s7.5 132.833 7.5 221.5v465
c0 88.667 -2.5 162.334 -7.5 221.001s-17.5 105.667 -37.5 141c-18 32 -45.167 53.333 -81.5 64s-78.166 16 -125.499 16c-106 0 -199.833 -31.667 -281.5 -95s-144.334 -145 -188.001 -245s-65.5 -202.333 -65.5 -307c0 -76.667 11.667 -156.5 35 -239.5
s57.833 -159.667 103.5 -230s102.334 -126.666 170.001 -168.999s143.167 -63.5 226.5 -63.5z" />
    <glyph glyph-name="oe.001" unicode="&#x153;" horiz-adv-x="1796" 
d="M80 449c0 85.333 22.1699 163.667 66.5029 235s104 127.333 179 168s154.833 61 239.5 61c77.333 0 151.166 -17.5 221.499 -52.5s127.5 -83.5 171.5 -145.5c40 60.667 94 108.834 162 144.501s139 53.5 213 53.5c61.333 0 116.166 -10.167 164.499 -30.5
s88.333 -48.666 120 -84.999s55.667 -79.833 72 -130.5s24.5 -106.334 24.5 -167.001c0 -18 -8 -29 -24 -33h-646v-16c0 -72.667 12.833 -139.167 38.5 -199.5s64.667 -108.5 117 -144.5s114.5 -54 186.5 -54c58.667 0 111.5 19.5 158.5 58.5s78.167 87.833 93.5 146.5
c1.33301 7.33301 9.66602 12.666 24.999 15.999h27c16 -4.66699 24 -14 24 -28c0 -1.33301 -0.666992 -4.66602 -2 -9.99902c-20 -76.667 -62.833 -138.5 -128.5 -185.5s-138.834 -70.5 -219.501 -70.5c-80 0 -156 17.667 -228 53s-130.333 85 -175 149
c-30.667 -42.667 -66.667 -78.834 -108 -108.501s-86.5 -52.667 -135.5 -69s-99.833 -24.5 -152.5 -24.5c-64 0 -125 11.667 -183 35s-110.167 56.833 -156.5 100.5s-82.166 94.167 -107.499 151.5s-38 118 -38 182zM565.003 45.001c72.667 0 132.17 19.833 178.503 59.5
s79.666 90.5 99.999 152.5s30.5 129.333 30.5 202c0 52.667 -5.66699 101.667 -17 147s-29.333 86.333 -54 123s-57.167 65.667 -97.5 87s-87.166 32 -140.499 32c-70.667 0 -128.834 -18.167 -174.501 -54.5s-78.834 -84 -99.501 -143s-31 -122.833 -31 -191.5
c0 -70.667 9.83301 -137.5 29.5 -200.5s52.167 -114.333 97.5 -154s104.666 -59.5 177.999 -59.5zM1049.01 528.001l513.999 0.000976562c0 51.333 -8 101.666 -24 150.999s-41 89.833 -75 121.5s-77.667 47.5 -131 47.5s-101.666 -15.5 -144.999 -46.5
s-77.333 -71.5 -102 -121.5s-37 -100.667 -37 -152z" />
    <glyph glyph-name="uni0237" unicode="&#x237;" horiz-adv-x="725" 
d="M-63 -248c0 29.333 9.83105 53.499 29.498 72.499s43.834 28.5 72.501 28.5c17.333 0 33.833 -4.33301 49.5 -13s28 -20.667 37 -36s13.5 -32.666 13.5 -51.999c0 -39.333 -15.667 -68.666 -47 -87.999c27.333 -10.667 61 -16 101 -16c52.667 0 90.334 26.667 113.001 80
s34 110.666 34 171.999v784c0 52 -12.333 84.167 -37 96.5s-69 18.5 -133 18.5v82l332 22v-1009c0 -56 -14.333 -107.833 -43 -155.5s-67.5 -85.667 -116.5 -114s-100.5 -42.5 -154.5 -42.5c-64 0 -121.833 13.833 -173.5 41.5s-77.5 70.5 -77.5 128.5z" />
    <glyph glyph-name="circumflex" unicode="&#x2c6;" horiz-adv-x="1165" 
d="M324 1090l-50 59l308 272l307 -272l-49 -59l-258 202z" />
    <glyph glyph-name="caron" unicode="&#x2c7;" horiz-adv-x="1165" 
d="M279 1253l40 66l263 -137l262 137l41 -66l-303 -200z" />
    <glyph glyph-name="breve" unicode="&#x2d8;" horiz-adv-x="1165" 
d="M582 1053c-49.333 0 -95.001 9.83301 -137.001 29.5s-78.667 46.667 -110 81s-55.666 73.833 -72.999 118.5s-26 91 -26 139h65c0 -49.333 13 -94.5 39 -135.5s60.5 -73.333 103.5 -97s89.167 -35.5 138.5 -35.5c48.667 0 94.5 11.833 137.5 35.5s77.5 56 103.5 97
s39 86.167 39 135.5h66c0 -48 -8.33301 -93.833 -25 -137.5s-40.834 -83.167 -72.501 -118.5s-68.667 -62.833 -111 -82.5s-88.166 -29.5 -137.499 -29.5z" />
    <glyph glyph-name="dotaccent.001" unicode="&#x2d9;" horiz-adv-x="662" 
d="M209 1260c0 33.333 12 61.666 36 84.999s53 35 87 35c32.667 0 61 -11.667 85 -35s36 -51.666 36 -84.999c0 -34 -12 -63 -36 -87s-52.333 -36 -85 -36c-34 0 -63 12 -87 36s-36 53 -36 87z" />
    <glyph glyph-name="ring" unicode="&#x2da;" horiz-adv-x="1726" 
d="M635 1284c0 36 11.165 67.5 33.498 94.5s51.5 47.667 87.5 62s71.333 21.5 106 21.5c35.333 0 70.833 -7.16699 106.5 -21.5s64.834 -35 87.501 -62s34 -58.5 34 -94.5c0 -54 -23.667 -97.5 -71 -130.5s-99.666 -49.5 -156.999 -49.5c-56.667 0 -108.667 16.5 -156 49.5
s-71 76.5 -71 130.5zM712.998 1284c0 -45.333 12.833 -75.833 38.5 -91.5s62.5 -23.5 110.5 -23.5c48.667 0 85.834 7.83301 111.501 23.5s38.5 46.167 38.5 91.5c0 44 -12.833 73.833 -38.5 89.5s-62.834 23.5 -111.501 23.5c-48 0 -84.833 -7.83301 -110.5 -23.5
s-38.5 -45.5 -38.5 -89.5z" />
    <glyph glyph-name="tilde.001" unicode="&#x2dc;" horiz-adv-x="1165" 
d="M958 1337l-80.499 -80.499c-21.667 -21 -41 -37.667 -58 -50s-33.5 -20.833 -49.5 -25.5s-34.333 -7 -55 -7c-22.667 0 -46 4.5 -70 13.5s-54.667 22.167 -92 39.5c-4 2.66699 -10.667 6.16699 -20 10.5s-20 8.83301 -32 13.5s-24.833 8.66699 -38.5 12
s-27.167 5 -40.5 5c-58.667 0 -117.334 -31.333 -176.001 -94l-41 40l80.5 81c21.667 21.333 41.167 38.166 58.5 50.499s33.833 20.833 49.5 25.5s34.167 7 55.5 7c22.667 0 46 -4.5 70 -13.5s54.333 -22.167 91 -39.5c4 -2.66699 10.667 -6.33398 20 -11.001
s20 -9.16699 32 -13.5s24.833 -8.16602 38.5 -11.499s27.167 -5 40.5 -5c58 0 117 31.333 177 94z" />
    <glyph glyph-name="hungarumlaut" unicode="&#x2dd;" horiz-adv-x="1165" 
d="M297 1081l125 299.002c6 15.333 15.833 28.166 29.5 38.499s28.5 15.5 44.5 15.5c24.667 0 46.5 -8.5 65.5 -25.5s28.5 -37.167 28.5 -60.5c0 -18.667 -7.66699 -37.334 -23 -56.001l-202 -250zM676 1081l125 299.001c14 36 38.333 54 73 54
c25.333 0 47.5 -8.33301 66.5 -25s28.5 -37 28.5 -61c0 -18.667 -7.66699 -37.334 -23 -56.001l-203 -250z" />
    <glyph glyph-name="Gamma" unicode="&#x393;" horiz-adv-x="1446" 
d="M111 0l0.00195312 82c140.667 0 211 20.333 211 61v1112c0 41.333 -70.333 62 -211 62v82h1161l61 -479h-78c-10.667 87.333 -24.334 156 -41.001 206s-40.167 89 -70.5 117s-70.833 47.333 -121.5 58s-120.334 16 -209.001 16h-182c-36.667 0 -63.667 -3.33301 -81 -10
s-26 -24 -26 -52v-1112c0 -40.667 88 -61 264 -61v-82h-677z" />
    <glyph glyph-name="uni0394" unicode="&#x394;" horiz-adv-x="1921" 
d="M143 0c-12 0 -18 6 -18 18c0 6 0.666992 9.66699 2 11l770 1403c10.667 18.667 27 28 49 28h27c22 0 38.333 -9.33301 49 -28l770 -1403c1.33301 -1.33301 2 -5 2 -11c0 -12 -6 -18 -18 -18h-1633zM301 176h1180l-590 1073z" />
    <glyph glyph-name="Theta" unicode="&#x398;" horiz-adv-x="1796" 
d="M143 692c0 134 34.001 258.499 102.001 373.499s160 206.167 276 273.5s241.333 101 376 101s260 -33.667 376 -101s208 -158.5 276 -273.5s102 -239.5 102 -373.5s-34.333 -257 -103 -369s-160.834 -200.667 -276.501 -266s-240.5 -98 -374.5 -98
c-100 0 -195.667 18.833 -287 56.5s-172 89.834 -242 156.501s-125 145 -165 235s-60 185 -60 285zM897.001 28.999c89.333 0 168 18.334 236 55.001s125 87.167 171 151.5s79.833 135.5 101.5 213.5s32.5 159 32.5 243c0 114 -19.833 223.5 -59.5 328.5
s-100.5 190.167 -182.5 255.5s-181.667 98 -299 98s-217 -32.667 -299 -98s-142.833 -150.5 -182.5 -255.5s-59.5 -214.5 -59.5 -328.5c0 -113.333 20.167 -220.833 60.5 -322.5s101.5 -183.834 183.5 -246.501s181 -94 297 -94zM485.001 545v315h78v-69h668v69h78v-315h-78
v69h-668v-69h-78z" />
    <glyph glyph-name="Lambda.001" unicode="&#x39b;" horiz-adv-x="1599" 
d="M92 0l-0.000976562 82.001c48.667 0 91.667 9.5 129 28.5s63.333 48.5 78 88.5l446 1233c8 18.667 21.667 28 41 28h27c20 0 33.667 -9.33301 41 -28l467 -1289c12.667 -27.333 34.834 -44.333 66.501 -51s71.5 -10 119.5 -10v-82h-571v82c113.333 0 170 17 170 51
c0 4 -0.666992 7.33301 -2 10l-369 1020l-348 -964c-2.66699 -8 -4 -15 -4 -21c0 -32.667 16.333 -56.834 49 -72.501s67 -23.5 103 -23.5v-82h-443z" />
    <glyph glyph-name="Xi.001" unicode="&#x39e;" horiz-adv-x="1544" 
d="M129 0l-17.998 359.997h77l6.5 -79c2.33301 -27.333 5.16602 -49.666 8.49902 -66.999s8.66602 -30 15.999 -38c9.33301 -9.33301 98 -14 266 -14h572c46 0 88 0.333008 126 1s69.667 1.83398 95 3.50098s40.333 4.83398 45 9.50098c9.33301 10 16 29.5 20 58.5
s7.66699 70.833 11 125.5h78l-19 -360h-1284zM332.002 540.997v374h78v-106h723v106h77v-374h-77v106h-723v-106h-78zM123.002 1061l18 338h1260l18 -338h-78c-6.66699 94 -16 148.667 -28 164c-10 8 -97.333 12 -262 12h-559c-165.333 0 -253 -4 -263 -12
c-12 -15.333 -21.333 -70 -28 -164h-78z" />
    <glyph glyph-name="Pi.001" unicode="&#x3a0;" horiz-adv-x="1726" 
d="M111 0v82c140.667 0 211 20.333 211 61v1112c0 41.333 -70.333 62 -211 62v82h1503v-82c-140.667 0 -211 -20.667 -211 -62v-1112c0 -40.667 70.333 -61 211 -61v-82h-625v82c140.667 0 211 20.333 211 61v1174h-676v-1174c0 -40.667 70.333 -61 211 -61v-82h-624z" />
    <glyph glyph-name="Sigma" unicode="&#x3a3;" horiz-adv-x="1669" 
d="M170 0c-18 4.66699 -27.001 14.334 -27.001 29.001c0 8 3 14.667 9 20l550 567l-550 711l-5.5 5.5c-1.66699 1.66699 -2.5 3.16699 -2.5 4.5s-0.333008 3.33301 -1 6v31c3.33301 13.333 12.333 21.666 27 24.999h1292l62 -479h-78
c-12.667 96.667 -35.167 172.5 -67.5 227.5s-73.666 94.333 -123.999 118s-106 38.167 -167 43.5s-147.167 8 -258.5 8h-413l465 -598c4 -6 6 -12.333 6 -19c0 -9.33301 -2 -16 -6 -20l-559 -574h505c112 0 199.333 3 262 9s119 20.833 169 44.5s91 63 123 118
s53.667 130.5 65 226.5h78l-62 -504h-1292z" />
    <glyph glyph-name="Upsilon" unicode="&#x3a5;" horiz-adv-x="1796" 
d="M532 0v81.998c176.667 0 265 20.333 265 61v557c0 85.333 -11 171.333 -33 258s-59.333 160.334 -112 221.001s-122 91 -208 91c-32 0 -65.167 -5.33301 -99.5 -16s-62.833 -27.167 -85.5 -49.5s-34 -51.166 -34 -86.499c0 -7.33301 -2.83301 -13.833 -8.5 -19.5
s-12.167 -8.5 -19.5 -8.5h-25c-6.66699 0 -13.167 2.83301 -19.5 8.5s-9.5 12.167 -9.5 19.5c0 56 13.167 108.5 39.5 157.5s62.666 88.667 108.999 119s97.166 45.5 152.499 45.5c86.667 0 161.5 -24.667 224.5 -74s113 -112.666 150 -189.999s63.167 -159.333 78.5 -246
c11.333 60 28.5 120.167 51.5 180.5s53.333 115.833 91 166.5s82.334 90.5 134.001 119.5s110.5 43.5 176.5 43.5c56 0 107 -15 153 -45s82.167 -69.833 108.5 -119.5s39.5 -102.167 39.5 -157.5c0 -7.33301 -3 -13.833 -9 -19.5s-12.667 -8.5 -20 -8.5h-25
c-7.33301 0 -13.833 2.83301 -19.5 8.5s-8.5 12.167 -8.5 19.5c0 35.333 -11.333 64.166 -34 86.499s-51.167 38.833 -85.5 49.5s-67.5 16 -99.5 16c-85.333 0 -154.166 -30.333 -206.499 -91s-89.5 -134.667 -111.5 -222s-33 -173 -33 -257v-557
c0 -40.667 88.333 -61 265 -61v-82h-732z" />
    <glyph glyph-name="Phi" unicode="&#x3a6;" horiz-adv-x="1669" 
d="M469 0l-0.000976562 81.9971c176 0 264 20.333 264 61v152c-52.667 0 -113.167 9.66699 -181.5 29s-133.666 46.666 -195.999 81.999s-113.333 78.5 -153 129.5s-59.5 105.833 -59.5 164.5s20 113.334 60 164.001s91 93.834 153 129.501s126.333 63 193 82
s128 28.5 184 28.5v151c0 27.333 -28.333 44.5 -85 51.5s-116.334 10.5 -179.001 10.5v82h717v-82c-176 0 -264 -20.667 -264 -62v-149c56.667 0 119 -9.16699 187 -27.5s133.833 -45.166 197.5 -80.499s115.834 -78.5 156.501 -129.5s61 -107.167 61 -168.5
c0 -79.333 -33.5 -150.166 -100.5 -212.499s-147.833 -110.333 -242.5 -144s-181 -50.5 -259 -50.5v-150c0 -40.667 88 -61 264 -61v-82h-717zM474.999 448.997c62.667 -46 148.667 -75.666 258 -88.999v678c-108.667 -12 -194.667 -41.333 -258 -88
c-26 -18 -47.5 -40.667 -64.5 -68s-29.333 -57 -37 -89s-11.5 -63 -11.5 -93c0 -50.667 9.33301 -98.334 28 -143.001s47 -80.667 85 -108zM921.999 359.998c114.667 10.667 204.667 40.334 270 89.001c38.667 28 67.167 64 85.5 108s27.5 91.667 27.5 143
c0 52 -9.33301 100 -28 144s-47 79.333 -85 106c-66 49.333 -156 78.666 -270 87.999v-678z" />
    <glyph glyph-name="Psi.001" unicode="&#x3a8;" horiz-adv-x="1796" 
d="M532 0l-0.00195312 81.999c176.667 0 265 20.333 265 61v152c-76.667 8 -145.5 26 -206.5 54s-113 65.167 -156 111.5s-76 101.333 -99 165s-34.5 133.834 -34.5 210.501c0 32 -4 65.667 -12 101s-22 64.833 -42 88.5s-45.667 35.5 -77 35.5
c-14.667 3.33301 -23.667 12 -27 26v15c3.33301 12.667 12.333 20.667 27 24h137c62.667 0 108.667 -29.833 138 -89.5s44 -124.5 44 -194.5c0 -77.333 10 -148.833 30 -214.5s52.833 -122 98.5 -169s105.5 -77.5 179.5 -91.5v888c0 27.333 -28.5 44.5 -85.5 51.5
s-116.833 10.5 -179.5 10.5v82h717v-82c-62 0 -121.5 -3.5 -178.5 -10.5s-85.5 -24.167 -85.5 -51.5v-890c112.667 21.333 194.167 75.333 244.5 162s75.5 191.667 75.5 315c0 70 15 134.833 45 194.5s76.333 89.5 139 89.5h137c13.333 -4 21.666 -12 24.999 -24v-15
c-3.33301 -13.333 -11.666 -22 -24.999 -26c-48 0 -82.167 -23.5 -102.5 -70.5s-30.5 -98.5 -30.5 -154.5c0 -161.333 -47.667 -289.666 -143 -384.999c-45.333 -44.667 -102.666 -81.834 -171.999 -111.501s-133.666 -44.5 -192.999 -44.5v-152c0 -40.667 88 -61 264 -61
v-82h-717z" />
    <glyph glyph-name="alpha" unicode="&#x3b1;" horiz-adv-x="1520" 
d="M148 338c-24 96.667 -17.8271 188.83 18.5059 276.497s93.833 157.667 172.5 210s166 78.5 262 78.5c55.333 0 109.666 -9.66699 162.999 -29s102.333 -46.5 147 -81.5s83.167 -76.5 115.5 -124.5s55.166 -99.333 68.499 -154l33 -115c61.333 119.333 92 249 92 389
c0 11.333 5.33301 17 16 17h33c7.33301 0 13.333 -2.33301 18 -7s8 -10.667 10 -18l2 -6c-0.666992 -60 -6.33398 -117.667 -17.001 -173s-26 -108.666 -46 -159.999s-45 -100.666 -75 -147.999c7.33301 -32 16.666 -65.167 27.999 -99.5s26.333 -67.666 45 -99.999
s38 -48.5 58 -48.5c27.333 0 47.5 6.5 60.5 19.5s23 29.833 30 50.5s13.5 31.334 19.5 32.001h33c6 0 11.667 -2.33301 17 -7s9 -10.334 11 -17.001c6 -25.333 1.16699 -48.833 -14.5 -70.5s-37.334 -39.167 -65.001 -52.5s-53.834 -20 -78.501 -20
c-53.333 0 -102.666 15.833 -147.999 47.5s-83 73.834 -113 126.501c-56.667 -54.667 -121.334 -97.334 -194.001 -128.001s-151.667 -46 -237 -46c-69.333 0 -136.5 15 -201.5 45s-120.833 72.167 -167.5 126.5s-78.667 116.5 -96 186.5zM602.006 44.9961
c80 0 155.001 16.501 225.001 49.501s130.667 77.167 182 132.5c-2 8 -3.83301 14.5 -5.5 19.5s-3.5 10.167 -5.5 15.5l-63 215c-14 54.667 -35.167 109.667 -63.5 165s-64.5 101.833 -108.5 139.5s-93.667 56.5 -149 56.5c-64.667 0 -118.334 -18 -161.001 -54
s-74.334 -83.333 -95.001 -142s-31.667 -121.667 -33 -189s5.33398 -130.333 20.001 -189c15.333 -62.667 46.5 -114.834 93.5 -156.501s101.5 -62.5 163.5 -62.5z" />
    <glyph glyph-name="beta" unicode="&#x3b2;" horiz-adv-x="1325" 
d="M321 -397c-14.667 0 -23.9951 7.99805 -27.9951 23.998l-2 6v1258c0.666992 94.667 22.167 184.334 64.5 269.001s101.833 152.834 178.5 204.501s163.334 77.5 260.001 77.5c84 0 162.167 -25.5 234.5 -76.5s119.166 -118.5 140.499 -202.5
c11.333 -44.667 13.166 -89.167 5.49902 -133.5s-23.334 -84.833 -47.001 -121.5s-51.834 -67.667 -84.501 -93c36 -22 68.333 -48 97 -78s53.167 -63 73.5 -99s35.166 -72.667 44.499 -110c18 -72.667 18.5 -142.834 1.5 -210.501s-47.833 -127.667 -92.5 -180
s-98.334 -93.166 -161.001 -122.499s-129.667 -44 -201 -44c-81.333 0 -162 18.5 -242 55.5s-144.333 90.167 -193 159.5v-567c0 -10.667 -5.33301 -16 -16 -16h-33zM380.005 333.998c15.333 -60.667 44.334 -113.665 87.001 -158.998s93.167 -79.666 151.5 -102.999
s116.5 -35 174.5 -35c64 0 117.5 17.667 160.5 53s75 81.666 96 138.999s32.167 118.833 33.5 184.5s-5.33398 127.834 -20.001 186.501c-18 72 -53 128 -105 168c-47.333 -20.667 -98 -31 -152 -31c-48.667 0 -94.167 4.16699 -136.5 12.5s-66.833 26.166 -73.5 53.499
c-13.333 53.333 53 80 199 80c50.667 0 98 -7.66699 142 -23c24 23.333 42.5 56.166 55.5 98.499s20 86.333 21 132s-3.83301 89.167 -14.5 130.5c-11.333 46.667 -34.333 84.167 -69 112.5s-75.667 42.5 -123 42.5c-86 0 -162.333 -24 -229 -72s-118 -110.333 -154 -187
s-54 -156.667 -54 -240l1 -457c-0.666992 -28.667 2.33301 -57.334 9 -86.001zM686.006 809c23.333 -4 58.667 -6 106 -6c20.667 0 41.667 3.33301 63 10c-23.333 2.66699 -40 4 -50 4c-56 0 -95.667 -2.66699 -119 -8z" />
    <glyph glyph-name="gamma" unicode="&#x3b3;" horiz-adv-x="1229" 
d="M873 -387c-7.33301 28.667 -11.3301 70.8301 -11.9971 126.497s0 112.667 2 171s4.66699 111.5 8 159.5c-6 42 -14.667 85.667 -26 131c-23.333 93.333 -55.166 179.5 -95.499 258.5s-94 144.333 -161 196s-147.167 77.5 -240.5 77.5
c-46.667 0 -91.667 -7.83301 -135 -23.5s-78.5 -38.834 -105.5 -69.501s-40.5 -68.667 -40.5 -114c0 -10.667 -6 -16 -18 -16h-33c-6.66699 0 -12.5 2.5 -17.5 7.5s-8.5 10.833 -10.5 17.5c0 1.33301 0.666992 3.33301 2 6c0 62.667 14.667 122.167 44 178.5
s70.666 101 123.999 134s112.666 49.5 177.999 49.5c144.667 0 279.667 -94 405 -282c35.333 -56.667 67.166 -113 95.499 -169s47.833 -106.333 58.5 -151c6.66699 42 15.167 92.833 25.5 152.5s19.166 107.334 26.499 143.001s16.5 74.834 27.5 117.501
s25.167 94.667 42.5 156c2 8.66699 7.33301 13 16 13h33c6.66699 0 12.667 -2.5 18 -7.5s9 -10.833 11 -17.5c0.666992 -2.66699 0.333984 -6.66699 -0.999023 -12c-20 -69.333 -37.5 -136 -52.5 -200s-28.5 -128.333 -40.5 -193s-22.167 -131.667 -30.5 -201
s-14.833 -133 -19.5 -191c4.66699 -31.333 9.16699 -72.166 13.5 -122.499s6.66602 -104.666 6.99902 -162.999s-3 -107.5 -10 -147.5s-19.167 -62 -36.5 -66c-26 0 -43.333 17 -52 51z" />
    <glyph glyph-name="delta" unicode="&#x3b4;" horiz-adv-x="1063" 
d="M219 332c-21.333 85.333 -19.8301 167.17 4.50293 245.503s66.666 145.166 126.999 200.499s129.166 92.333 206.499 111c-62.667 73.333 -112.834 138.166 -150.501 194.499s-63.167 111.5 -76.5 165.5c-10.667 44 -10 82.167 2 114.5s33.333 57.166 64 74.499
s67.667 26 111 26c12 0 43.333 -3 94 -9s99 -13.5 145 -22.5s73.333 -16.833 82 -23.5c21.333 -12.667 34.666 -29.667 39.999 -51c5.33301 -22.667 1.33301 -43.667 -12 -63s-31.666 -29 -54.999 -29c-18 0 -35.833 4 -53.5 12s-45.667 22 -84 42s-71.5 35 -99.5 45
s-56.333 15 -85 15c-27.333 0 -50.166 -7.66699 -68.499 -23s-24.166 -36.333 -17.499 -63c6 -24 21.5 -51.833 46.5 -83.5s55 -64.334 90 -98.001l123.5 -113.5l80 -71c124 -108 202.667 -227.667 236 -359c15.333 -63.333 22 -129.5 20 -198.5
s-13.833 -133.667 -35.5 -194s-55.334 -109.666 -101.001 -147.999s-101.834 -57.5 -168.501 -57.5c-52 0 -103.333 9 -154 27s-97 43 -139 75s-77.833 69.833 -107.5 113.5s-51.167 92.167 -64.5 145.5zM671.003 37.0039c54 0 94.5 25.1709 121.5 75.5039
s42 110.166 45 179.499s-2.16699 130.333 -15.5 183c-24.667 99.333 -92.667 213.333 -204 342l-4.5 6c-1 1.33301 -2.5 2.66602 -4.5 3.99902c-69.333 -18.667 -124 -57.334 -164 -116.001s-64 -127.334 -72 -206.001s-2.66699 -155.667 16 -231
c17.333 -70 51.5 -127 102.5 -171s110.833 -66 179.5 -66z" />
    <glyph glyph-name="epsilon" unicode="&#x3b5;" horiz-adv-x="1104" 
d="M151 225c-12.667 53.333 -8.3418 103.328 12.9912 149.995s53 85.667 95 117c-59.333 37.333 -95.666 82.333 -108.999 135c-16 64 -1.33301 118.667 44 164s104.333 78.833 177 100.5s141.334 32.5 206.001 32.5c26 0 63.833 -5.16699 113.5 -15.5
s94.667 -25.166 135 -44.499s63.833 -41.666 70.5 -66.999c4 -17.333 1 -32.666 -9 -45.999s-23.333 -20 -40 -20c-13.333 0 -25 2.66699 -35 8c-77.333 44 -151.666 66 -222.999 66c-31.333 0 -69.333 -2.66699 -114 -8s-87.167 -14.166 -127.5 -26.499
s-72.666 -30.166 -96.999 -53.499s-32.5 -52 -24.5 -86c10.667 -41.333 43.334 -75.666 98.001 -102.999c60 26 123.667 39 191 39c117.333 0 181.333 -21.667 192 -65c13.333 -53.333 -47 -80 -181 -80c-73.333 0 -135 10.333 -185 31
c-38.667 -23.333 -70.167 -54 -94.5 -92s-31.166 -79 -20.499 -123c11.333 -44 37 -77.833 77 -101.5s84.5 -39.334 133.5 -47.001s95.833 -11.5 140.5 -11.5c56 0 103.833 2 143.5 6s76.334 14.5 110.001 31.5s55.834 43.5 66.501 79.5c4 10.667 12 16 24 16
c20.667 -4.66699 33.334 -16.334 38.001 -35.001c-1.33301 -10 -2 -15.333 -2 -16c-18.667 -69.333 -62.5 -120.166 -131.5 -152.499s-147.833 -48.5 -236.5 -48.5c-94 0 -185 22.833 -273 68.5s-143 111.5 -165 197.5zM440.992 493.995c24 -4.66699 48.999 -7 74.999 -7
c49.333 0 84 3.66699 104 11c-20 2.66699 -50.333 4 -91 4c-35.333 0 -64.666 -2.66699 -87.999 -8z" />
    <glyph glyph-name="zeta" unicode="&#x3b6;" horiz-adv-x="1063" 
d="M652 -319c-2 21.333 7.66895 32.002 29.002 32.002c6 0 12 -1.33301 18 -4c65.333 -40.667 131.666 -61 198.999 -61c25.333 0 43.666 12.167 54.999 36.5s13.666 50.166 6.99902 77.499c-7.33301 28 -23.5 52.333 -48.5 73s-54.167 36 -87.5 46l-251 70
c-103.333 29.333 -189.333 77.833 -258 145.5s-115.334 151.5 -140.001 251.5c-20.667 80.667 -26.667 164.5 -18 251.5s29.667 170.5 63 250.5s76.666 151.667 129.999 215s110.666 112.333 171.999 147c-20.667 31.333 -35.667 65 -45 101
c-20.667 82 -13.334 123 21.999 123c10.667 0 20.334 -3.16699 29.001 -9.5s14.334 -14.833 17.001 -25.5c1.33301 -6 2.83301 -20 4.5 -42s3.83398 -38.667 6.50098 -50c6.66699 -26.667 15.334 -48.667 26.001 -66c39.333 12.667 72 19 98 19
c139.333 0 214.333 -22 225 -66c13.333 -53.333 -57.667 -80 -213 -80c-44 0 -83 13.667 -117 41c-50.667 -30.667 -97.334 -74.334 -140.001 -131.001s-77.334 -119.834 -104.001 -189.501s-43.167 -140.5 -49.5 -212.5s-1.16602 -142 15.501 -210
c38.667 -154 139 -254.333 301 -301l259 -72c52 -14 98.167 -39.167 138.5 -75.5s66.5 -79.5 78.5 -129.5c10.667 -40.667 10.834 -80.5 0.500977 -119.5s-30 -71.167 -59 -96.5s-63.833 -38 -104.5 -38c-35.333 0 -85.666 9.83301 -150.999 29.5
s-101.333 42.834 -108 69.501zM643.002 1188c8.66699 -2.66699 13.667 -4 15 -4c6.66699 -1.33301 14.667 -2 24 -2c60 0 103.667 2.66699 131 8c-22 4 -61.667 6 -119 6c-21.333 0 -38.333 -2.66699 -51 -8z" />
    <glyph glyph-name="eta" unicode="&#x3b7;" horiz-adv-x="1204" 
d="M361 -20c-19.333 0 -37.333 5.99902 -54 17.999s-27.334 27.667 -32.001 47c-2 9.33301 -3 16.333 -3 21l-1 604c0.666992 24.667 -1.66602 48.334 -6.99902 71.001c-7.33301 27.333 -18.333 50.333 -33 69s-34 28 -58 28c-43.333 0 -69.333 -22.167 -78 -66.5
s-13.667 -107.5 -15 -189.5c1.33301 -12.667 -4 -19 -16 -19h-32c-6 0 -12 3 -18 9s-9.66699 11.333 -11 16l-2 8c0.666992 84.667 11.167 157 31.5 217s62.833 90 127.5 90c36 0 73.333 -7.33301 112 -22s72.334 -35.334 101.001 -62.001s47.667 -58.667 57 -96
c30.667 54.667 71.167 98.334 121.5 131.001s108.166 49 173.499 49c80 0 149.833 -19.167 209.5 -57.5s99.167 -96.166 118.5 -173.499c6 -23.333 10.667 -58.333 14 -105l-1 -929c0 -22 -7.33301 -40.167 -22 -54.5s-33.334 -21.5 -56.001 -21.5
c-19.333 0 -37.166 6 -53.499 18s-27.166 27.667 -32.499 47c-2 10 -3 17 -3 21v934c-2 55.333 -6 94.666 -12 117.999c-10 40.667 -27.5 73.834 -52.5 99.501s-57.167 38.5 -96.5 38.5c-82 0 -146.833 -28 -194.5 -84s-82.167 -126.333 -103.5 -211l-1 -488
c0 -20.667 -7.33301 -38.334 -22 -53.001s-33.334 -22 -56.001 -22z" />
    <glyph glyph-name="theta" unicode="&#x3b8;" horiz-adv-x="1114" 
d="M594 -20c-70 0 -132.163 23.168 -186.496 69.501s-99 103.833 -134 172.5s-60.833 136.667 -77.5 204l-1 2c-38 151.333 -44 312.333 -18 483c12 80 34.667 160.167 68 240.5s78.333 148.833 135 205.5s123 85 199 85h2c69.333 0 131.166 -23.333 185.499 -70
s99.166 -104 134.499 -172s61.666 -136.333 78.999 -205c38 -152.667 44 -314.334 18 -485.001c-12 -77.333 -35 -157 -69 -239s-78.833 -151 -134.5 -207s-121.834 -84 -198.501 -84h-2zM582.004 45.001c63.333 0 112.999 37.168 148.999 111.501s59.5 157 70.5 248
s16.833 179.5 17.5 265.5h-465c0.666992 -90 2.83398 -160.333 6.50098 -211s12.167 -102.667 25.5 -156c16 -62.667 40 -121.334 72 -176.001s73.333 -82 124 -82zM354.003 752.002l464.001 0.000976562c1.33301 72 0 136.833 -4 194.5s-13 114.834 -27 171.501
c-16 65.333 -39.333 124.666 -70 177.999s-71.667 80 -123 80c-92 0 -154.333 -66.833 -187 -200.5s-50.334 -274.834 -53.001 -423.501z" />
    <glyph glyph-name="iota" unicode="&#x3b9;" horiz-adv-x="864" 
d="M221 154c-5.33301 22.667 -6.66895 47.0029 -4.00195 73.0029c13.333 93.333 22 186.666 26 279.999s6 200 6 320c-0.666992 22 6.33301 40.167 21 54.5s33.334 21.5 56.001 21.5c19.333 0 37.333 -6 54 -18s27.667 -27.667 33 -47
c1.33301 -6 2.16602 -10.667 2.49902 -14s0.833008 -7 1.5 -11c0.666992 -47.333 0.5 -96.833 -0.5 -148.5s-2.5 -101.167 -4.5 -148.5s-5.33301 -97.5 -10 -150.5s-10.667 -103.833 -18 -152.5c-6 -36.667 -5.33301 -70 2 -100c11.333 -45.333 33.333 -68 66 -68
c49.333 0 95.333 11.167 138 33.5s76.5 53.166 101.5 92.499s37.5 82.666 37.5 129.999c1.33301 12 7.33301 18 18 18h33c6.66699 0 12.667 -2.5 18 -7.5s8.66602 -10.5 9.99902 -16.5c0.666992 -2.66699 0.666992 -5.33398 0 -8.00098c0 -59.333 -15.667 -112.333 -47 -159
s-73.666 -83 -126.999 -109s-109.666 -39 -168.999 -39c-54.667 0 -105.667 15.833 -153 47.5s-77.666 73.834 -90.999 126.501z" />
    <glyph glyph-name="kappa" unicode="&#x3ba;" horiz-adv-x="1368" 
d="M252 45c-2 9.33301 -3.00684 16.334 -3.00684 21.001v761c-0.666992 22 6.33301 40.167 21 54.5s33.334 21.5 56.001 21.5c19.333 0 37.333 -6 54 -18s27.667 -27.667 33 -47c2 -10 3 -17 3 -21v-274c46.667 16.667 94.5 46 143.5 88l136.5 120.5
c42 38.333 85.667 69.833 131 94.5s96 37 152 37c24 0 45.833 -7.16699 65.5 -21.5s32.5 -33.833 38.5 -58.5c8.66699 -32.667 3.5 -60.667 -15.5 -84s-44.167 -35 -75.5 -35c-23.333 0 -45 7.33301 -65 22s-33 34 -39 58c-2 9.33301 -2.66699 19.666 -2 30.999
c-33.333 -13.333 -64.666 -30.833 -93.999 -52.5s-56.166 -43.667 -80.499 -66l-87 -79c-33.667 -30.333 -64.5 -54.833 -92.5 -73.5c61.333 0 124.666 -5.66699 189.999 -17s124.833 -33.166 178.5 -65.499s87.834 -77.833 102.501 -136.5
c4.66699 -20 7.66699 -46.667 9 -80s4 -58.333 8 -75c17.333 -70 49.333 -105 96 -105c47.333 0 78.833 26.5 94.5 79.5s23.167 111.833 22.5 176.5c1.33301 12 7.33301 18 18 18h32c6.66699 0 12.834 -2.5 18.501 -7.5s9.16699 -10.5 10.5 -16.5
c0.666992 -2.66699 0.666992 -5.33398 0 -8.00098c0 -78 -13.667 -148.667 -41 -212s-74.666 -95 -141.999 -95c-64 0 -122.5 19.333 -175.5 58s-87.5 89.334 -103.5 152.001c-2 8.66699 -3.66699 26 -5 52s-3.66602 45 -6.99902 57c-16.667 66 -67.5 109.5 -152.5 130.5
s-174.5 31.5 -268.5 31.5l-2 -406c0.666992 -20.667 -6.33301 -38.334 -21 -53.001s-33.334 -22 -56.001 -22c-19.333 0 -37.166 6 -53.499 18s-27.166 27.667 -32.499 47z" />
    <glyph glyph-name="lambda" unicode="&#x3bb;" horiz-adv-x="1386" 
d="M312 47c-6.66699 25.333 -2.66797 46.668 11.999 64.001l477 551l-371 552c-28.667 43.333 -57.167 77.833 -85.5 103.5s-60.166 38.5 -95.499 38.5c-8 0 -16 3.5 -24 10.5s-13 14.5 -15 22.5c-1.33301 21.333 9 32 31 32c72.667 0 136.5 -7.16699 191.5 -21.5
s98.5 -45.833 130.5 -94.5l779 -1162c6 -7.33301 15.333 -20.5 28 -39.5s24.834 -35.5 36.501 -49.5s22.834 -24.333 33.501 -31c8 -5.33301 13 -11.666 15 -18.999c1.33301 -6.66699 0.666016 -12.334 -2.00098 -17.001s-7.33398 -7 -14.001 -7h-121
c-18.667 4 -38.667 13.167 -60 27.5s-37.666 30.166 -48.999 47.499l-353 525l-392 -570c-16 -23.333 -37 -35 -63 -35c-19.333 0 -37.833 7 -55.5 21s-28.834 31 -33.501 51z" />
    <glyph glyph-name="uni03BC" unicode="&#x3bc;" horiz-adv-x="1421" 
d="M252 -373c-2 10 -2.99512 17 -2.99512 21l1 1179c0.666992 22 8.16699 40.167 22.5 54.5s32.833 21.5 55.5 21.5c18.667 0 36.334 -6 53.001 -18s27.667 -27.667 33 -47c2 -10 3 -17 3 -21v-469c0 -49.333 4.33301 -91.666 13 -126.999
c14 -54 39.167 -96.833 75.5 -128.5s81.166 -47.5 134.499 -47.5c57.333 0 105.5 18.667 144.5 56s69.5 85 91.5 143v563c0.666992 22 8.16699 40.167 22.5 54.5s32.5 21.5 54.5 21.5c20 0 38.667 -6.16699 56 -18.5s28.333 -28.166 33 -47.499
c1.33301 -4.66699 2.16602 -8.33398 2.49902 -11.001s0.5 -5.66699 0.5 -9l-3 -584c2.66699 -30.667 6 -54.667 10 -72c16 -64 46 -96 90 -96c24 0 42.5 9 55.5 27s21.833 39.333 26.5 64s7.66699 54.167 9 88.5s1.33301 59.833 0 76.5c2 12 8.33301 18 19 18h33
c6.66699 0 12.667 -2.5 18 -7.5s8.66602 -10.5 9.99902 -16.5c0.666992 -2.66699 0.666992 -5.33398 0 -8.00098c-0.666992 -204.667 -53.667 -307 -159 -307c-48.667 0 -96.834 12.333 -144.501 37s-83.834 60 -108.501 106c-61.333 -95.333 -144.333 -143 -249 -143
c-94 0 -172.333 19 -235 57l-1 -399c0.666992 -22 -6.33301 -40.167 -21 -54.5s-33.334 -21.5 -56.001 -21.5c-19.333 0 -37.333 6 -54 18s-27.667 27.667 -33 47z" />
    <glyph glyph-name="nu" unicode="&#x3bd;" horiz-adv-x="1171" 
d="M251 33l-1.00293 683.999c0.666992 26.667 0 45 -2 55c-4.66699 18 -49.334 27 -134.001 27c-18 5.33301 -29 16 -33 32v33c3.33301 10 9.33301 15.667 18 17l280 22c8 0 16 -3 24 -9s13.333 -13.333 16 -22l-1 -782c76.667 25.333 147.334 61.833 212.001 109.5
s120.334 104.5 167.001 170.5s82.5 137.667 107.5 215s37.5 158 37.5 242c0 22.667 7.33301 41 22 55s33.334 21 56.001 21c18.667 0 36.334 -6.16699 53.001 -18.5s27.667 -28.5 33 -48.5c10 -40 5.66699 -97.167 -13 -171.5s-39 -132.833 -61 -175.5
c-44 -88.667 -104 -167.667 -180 -237c-134.667 -125.333 -304.334 -209.333 -509.001 -252h-53c-7.33301 0 -15.166 3.33301 -23.499 10s-13.5 14.334 -15.5 23.001z" />
    <glyph glyph-name="xi" unicode="&#x3be;" horiz-adv-x="1063" 
d="M620 -319c-0.666992 21.333 9.66504 32.0039 30.998 32.0039c4 0 9 -1.33301 15 -4c74.667 -40.667 152 -61 232 -61c21.333 0 37 9.5 47 28.5s12.333 39.5 7 61.5c-7.33301 29.333 -27.333 49.666 -60 60.999l-428 138c-76 26.667 -141.5 62 -196.5 106
s-90.5 98.667 -106.5 164c-20 80.667 -10.5 160.334 28.5 239.001s91.833 140.334 158.5 185.001c-46 24.667 -86 56.167 -120 94.5s-56.333 79.166 -67 122.499c-16 65.333 -12.5 124.833 10.5 178.5s58.667 98.167 107 133.5s102.833 61.666 163.5 78.999
c-13.333 26 -23 50.667 -29 74c-20.667 82 -13 123 23 123c9.33301 0 18.666 -3.16699 27.999 -9.5s15.333 -14.833 18 -25.5c2 -8.66699 3.5 -23.334 4.5 -44.001s2.83301 -36.667 5.5 -48c4.66699 -18 11.334 -36.667 20.001 -56c28.667 6 63.667 9 105 9
c139.333 0 214.333 -22 225 -66c13.333 -53.333 -58 -80 -214 -80c-47.333 0 -89.333 16.333 -126 49c-57.333 -29.333 -100.666 -74 -129.999 -134s-35.666 -124.333 -18.999 -193c16 -64 50.333 -115.333 103 -154c54.667 18 108.334 27 161.001 27
c137.333 0 211.666 -22 222.999 -66c13.333 -53.333 -57 -80 -211 -80c-68.667 0 -132 9.66699 -190 29c-32 -20 -62.667 -47.5 -92 -82.5s-51 -73.833 -65 -116.5s-16 -84.334 -6 -125.001c18 -72 88.333 -129.333 211 -172l436 -139c37.333 -12 69.333 -30.833 96 -56.5
s44.667 -56.5 54 -92.5c9.33301 -38 8.33301 -74.5 -3 -109.5s-31 -63.5 -59 -85.5s-61.333 -33 -100 -33c-40.667 0 -97.667 9.66699 -171 29s-113.333 42.666 -120 69.999zM555.999 637.004c20.667 -4 41.333 -6 62 -6c60 0 103.667 2.66699 131 8c-22 4 -61 6 -117 6
c-30.667 0 -56 -2.66699 -76 -8zM572.998 1190h177h-177z" />
    <glyph glyph-name="omicron" unicode="&#x3bf;" horiz-adv-x="1153" 
d="M148 338c-24 96.667 -17.833 188.833 18.5 276.5s93.833 157.667 172.5 210s166 78.5 262 78.5c52 0 102.667 -8.16699 152 -24.5s95.333 -40.5 138 -72.5s79.167 -70.167 109.5 -114.5s52.166 -93.166 65.499 -146.499c24 -96.667 17.833 -188.834 -18.5 -276.501
s-93.666 -157.667 -171.999 -210s-165.166 -78.5 -260.499 -78.5c-69.333 0 -136.833 15 -202.5 45s-121.834 72.167 -168.501 126.5s-78.667 116.5 -96 186.5zM602 44.999c63.333 0 116.501 18.001 159.501 54.001s75 83.167 96 141.5s32 121.333 33 189
s-5.83301 130.5 -20.5 188.5c-16 64.667 -46.833 117.5 -92.5 158.5s-100.167 61.5 -163.5 61.5c-64.667 0 -118.334 -18 -161.001 -54s-74.334 -83.333 -95.001 -142s-31.667 -121.667 -33 -189s5.33398 -130.333 20.001 -189c15.333 -62.667 46.5 -114.834 93.5 -156.501
s101.5 -62.5 163.5 -62.5z" />
    <glyph glyph-name="pi" unicode="&#x3c0;" horiz-adv-x="1368" 
d="M378 47c-2 10 -1.33594 24.333 1.99707 43c20.667 80 37.834 153.333 51.501 220s25 135.5 34 206.5s14.5 144.5 16.5 220.5h-139c-52 0 -93.667 -11.167 -125 -33.5s-57.166 -48.666 -77.499 -78.999s-32.5 -45.833 -36.5 -46.5h-32c-6.66699 0 -12.834 2.5 -18.501 7.5
s-9.16699 10.5 -10.5 16.5c-0.666992 2.66699 -0.333984 6.66699 0.999023 12c72 179.333 166.333 269 283 269h820c16.667 0 32.334 -5.66699 47.001 -17s24.334 -25.666 29.001 -42.999c5.33301 -22 2 -41.833 -10 -59.5s-29.667 -26.5 -53 -26.5h-283
c4 -89.333 16.333 -176 37 -260c36 -142.667 94.333 -264.667 175 -366c10 -12 16.333 -23.667 19 -35c6 -24.667 0.833008 -46.834 -15.5 -66.501s-37.166 -29.5 -62.499 -29.5c-30 0 -58.167 18 -84.5 54s-48.5 77 -66.5 123s-31.333 85.667 -40 119
c-12 48.667 -20.833 97 -26.5 145s-9.33398 97.833 -11.001 149.5s-3.16699 107.167 -4.5 166.5h-233c0 -85.333 -0.5 -174.833 -1.5 -268.5s-2.66699 -178.334 -5 -254.001s-5.83301 -127.5 -10.5 -155.5c-8.66699 -52.667 -35 -79 -79 -79c-20 0 -38.667 6.33301 -56 19
s-28.666 28.667 -33.999 48z" />
    <glyph glyph-name="rho" unicode="&#x3c1;" horiz-adv-x="1212" 
d="M252 -373c-2.66699 11.333 -4.00195 19.668 -4.00195 25.001l1 797c0 76 17.167 149 51.5 219s82.333 126.667 144 170s131.834 65 210.501 65c50.667 0 98.334 -8.83301 143.001 -26.5s85.334 -42.167 122.001 -73.5s68 -68 94 -110s45.333 -87.333 58 -136
c16.667 -68.667 19.167 -137.5 7.5 -206.5s-36.5 -131.5 -74.5 -187.5s-86.167 -100.5 -144.5 -133.5s-122.5 -49.5 -192.5 -49.5c-46 0 -90.667 10.667 -134 32s-82 50.666 -116 87.999l-2 -462c0.666992 -22 -6.33301 -40.167 -21 -54.5s-33.334 -21.5 -56.001 -21.5
c-19.333 0 -37.333 6 -54 18s-27.667 27.667 -33 47zM416.998 217.002c24 -50 57.1689 -91.1709 99.502 -123.504s88.166 -48.5 137.499 -48.5c65.333 0 117.666 25.333 156.999 76s64.333 109.334 75 176.001c8 50.667 11.333 109.334 10 176.001
s-7.66602 122.667 -18.999 168c-8.66699 34.667 -22.334 66.834 -41.001 96.501s-42.334 53.834 -71.001 72.501s-61 28 -97 28c-91.333 0 -155.666 -40.5 -192.999 -121.5s-57 -175.167 -59 -282.5z" />
    <glyph glyph-name="sigma1" unicode="&#x3c2;" horiz-adv-x="899" 
d="M539 -162c-1.33301 9.33301 0.333984 17.168 5.00098 23.501s12 9.5 22 9.5c4.66699 0 22.167 -4.16699 52.5 -12.5s54.166 -12.5 71.499 -12.5c20.667 0 36.334 10.333 47.001 31s13 42 7 64c-4 17.333 -13.167 33.166 -27.5 47.499s-30.5 24.833 -48.5 31.5l-339 150
c-60.667 27.333 -114 65 -160 113s-76 100.333 -90 157c-22.667 91.333 -11.667 172.333 33 243s109.5 125 194.5 163s171.833 57 260.5 57c48.667 0 101.5 -5.16699 158.5 -15.5s89.167 -29.833 96.5 -58.5c3.33301 -12.667 1.16602 -23.667 -6.50098 -33
s-17.167 -14 -28.5 -14c-4 0 -32 9.33301 -84 28s-93.667 28 -125 28c-66 0 -132.167 -13 -198.5 -39s-118.166 -63.667 -155.499 -113s-47.333 -108 -30 -176c9.33301 -39.333 30.166 -74.833 62.499 -106.5s69.833 -56.167 112.5 -73.5l359 -158
c32.667 -14.667 61.667 -36.334 87 -65.001s42 -59.667 50 -93c9.33301 -38 8.5 -75 -2.5 -111s-30.833 -65.333 -59.5 -88s-62.334 -34 -101.001 -34c-25.333 0 -57.666 4.83301 -96.999 14.5s-61.333 23.834 -66 42.501z" />
    <glyph glyph-name="sigma" unicode="&#x3c3;" horiz-adv-x="1356" 
d="M146 313c-16.667 67.333 -17.832 135.666 -3.49902 204.999s41.666 131.333 81.999 186s90.166 98.167 149.499 130.5s123 48.5 191 48.5h569c17.333 0 33.333 -5.66699 48 -17s24.334 -25.666 29.001 -42.999c5.33301 -22 2 -41.833 -10 -59.5s-29.667 -26.5 -53 -26.5
h-260c52.667 -56.667 89 -126.334 109 -209.001c24 -94.667 20.667 -184.167 -10 -268.5s-82.667 -152 -156 -203s-157.333 -76.5 -252 -76.5c-64.667 0 -127.5 14 -188.5 42s-113 67.333 -156 118s-72.5 108.334 -88.5 173.001zM567.002 45
c59.333 0 109.498 15.832 150.498 47.499s72 71.834 93 120.501s33.167 103.667 36.5 165s-1.66699 119 -15 173c-15.333 62 -45.166 108.5 -89.499 139.5s-98.5 46.5 -162.5 46.5c-121.333 0 -203.666 -48.667 -246.999 -146s-49.333 -209 -18 -335
c10 -40.667 27 -77 51 -109s53.5 -57 88.5 -75s72.5 -27 112.5 -27z" />
    <glyph glyph-name="tau" unicode="&#x3c4;" horiz-adv-x="1077" 
d="M504 41c-1.33301 4.66699 -2.33105 14.332 -2.99805 28.999l40 667h-198c-52 0 -93.833 -11.167 -125.5 -33.5s-57.667 -48.666 -78 -78.999s-32.5 -45.833 -36.5 -46.5h-32c-6.66699 0 -12.667 2.5 -18 7.5s-9 10.5 -11 16.5
c-0.666992 2.66699 -0.333984 6.66699 0.999023 12c72 179.333 166.333 269 283 269h693c16.667 0 32.5 -5.66699 47.5 -17s24.5 -25.666 28.5 -42.999c5.33301 -22 2.16602 -41.833 -9.50098 -59.5s-29.167 -26.5 -52.5 -26.5h-403l39 -676
c0.666992 -24.667 -5.83301 -45.167 -19.5 -61.5s-32.834 -24.5 -57.501 -24.5c-19.333 0 -37.666 6.16699 -54.999 18.5s-28.333 28.166 -33 47.499z" />
    <glyph glyph-name="upsilon" unicode="&#x3c5;" horiz-adv-x="1294" 
d="M338 262c-10 38.667 -14.498 80.002 -13.498 124.002s5.33301 92.833 13 146.5l19.5 137.5c4.66699 39.333 3.66699 72.666 -3 99.999c-4.66699 19.333 -12.5 35.5 -23.5 48.5s-25.167 19.5 -42.5 19.5c-54.667 0 -93.834 -26.5 -117.501 -79.5
s-36.167 -111.833 -37.5 -176.5c0.666992 -12.667 -5 -19 -17 -19h-32c-6 0 -12 3 -18 9s-9.66699 11.333 -11 16l-2 8c0.666992 50.667 9 99.167 25 145.5s40.667 84.833 74 115.5s74.666 46 123.999 46c35.333 0 69.833 -7 103.5 -21s63.334 -34.167 89.001 -60.5
s42.834 -57.166 51.501 -92.499c6 -22.667 7.66699 -47.334 5 -74.001c-12 -69.333 -20.333 -121.666 -25 -156.999s-7.5 -77 -8.5 -125s3.16699 -91.667 12.5 -131c16.667 -66 49.667 -115.333 99 -148s108 -49 176 -49c66.667 0 125.667 29.833 177 89.5
s87.833 131.167 109.5 214.5s24.5 156 8.5 218c-10 40 -23.167 69.167 -39.5 87.5s-40.333 41 -72 68s-49.834 49.833 -54.501 68.5c-5.33301 19.333 -4.5 37.666 2.5 54.999s18 31.5 33 42.5s32.5 16.5 52.5 16.5c37.333 0 68.666 -16.5 93.999 -49.5
s43.333 -70.5 54 -112.5c24 -96.667 27.667 -205.834 11 -327.501s-56 -224.667 -118 -309s-144 -126.5 -246 -126.5c-108.667 0 -205 21.5 -289 64.5s-138.667 115.5 -164 217.5z" />
    <glyph glyph-name="phi" unicode="&#x3c6;" horiz-adv-x="1538" 
d="M571 -377c-1.33301 6 -2.3291 15.667 -2.99609 29l24 346c-56 12 -109.667 28.833 -161 50.5s-99.833 49.167 -145.5 82.5s-84.667 72.166 -117 116.499s-55.5 93.5 -69.5 147.5c-12.667 52.667 -17.167 109.5 -13.5 170.5s14.167 118.5 31.5 172.5
s40.333 100.333 69 139c3.33301 4 7.66602 6 12.999 6h33c6.66699 0 12.834 -2.5 18.501 -7.5s9.16699 -10.833 10.5 -17.5c2 -8 -1 -15.333 -9 -22c-32.667 -46 -57.5 -112.5 -74.5 -199.5s-18.167 -160.5 -3.5 -220.5c20.667 -81.333 72.167 -144.333 154.5 -189
s173.166 -74.667 272.499 -90l12 164c6.66699 100.667 21 194.5 43 281.5s60.167 162.167 114.5 225.5s125.833 95 214.5 95c55.333 0 106.833 -13.5 154.5 -40.5s87.834 -63.167 120.501 -108.5s55.667 -95.333 69 -150c28 -111.333 19.333 -215.166 -26 -311.499
s-115.333 -172.5 -210 -228.5s-197.334 -84 -308.001 -84c-12 0.666992 -23.333 1.16699 -34 1.5s-23.667 0.5 -39 0.5l24 -347c1.33301 -22.667 -5.33398 -41.167 -20.001 -55.5s-33.667 -21.5 -57 -21.5c-18.667 0 -36.834 6 -54.501 18s-28.834 27.667 -33.501 47z
M703.004 127c15.333 -1.33301 38.0029 -2.00098 68.0029 -2.00098c62 0 125.167 10.167 189.5 30.5s122.166 49.833 173.499 88.5s88.833 85 112.5 139s27.5 114 11.5 180c-14.667 58.667 -46.834 105.834 -96.501 141.501s-104.167 53.5 -163.5 53.5
c-72.667 0 -132.834 -23.667 -180.501 -71s-81.667 -106.5 -102 -177.5s-28.5 -143.167 -24.5 -216.5z" />
    <glyph glyph-name="chi" unicode="&#x3c7;" horiz-adv-x="1460" 
d="M296 -397c-9.33301 0 -18.6699 3.50586 -28.0029 10.5059s-15.333 15.167 -18 24.5c-2.66699 10.667 -0.666992 20 6 28l398 545c-18 32 -48.5 83.167 -91.5 153.5s-90 142.166 -141 215.499s-99 134.666 -144 183.999s-81.5 74 -109.5 74
c-26 0 -47.667 -9.16699 -65 -27.5s-26 -40.166 -26 -65.499c0.666992 -12 -4.66602 -18 -15.999 -18h-32c-6.66699 0 -12.834 2.5 -18.501 7.5s-9.16699 10.833 -10.5 17.5c-9.33301 39.333 4.33398 74.333 41.001 105s76.667 46 120 46
c141.333 0 244.666 -41 309.999 -123c36 -44.667 69.333 -88.834 100 -132.501s61.834 -91 93.501 -142l91.5 -153.5l379 518c6 8.66699 15.333 13 28 13c10 0 19.167 -3.33301 27.5 -10s13.833 -15 16.5 -25c2.66699 -10.667 1.66699 -20.334 -3 -29.001l-401 -545
c40 -68.667 89.833 -149.834 149.5 -243.501s122.334 -180.834 188.001 -261.501s115.167 -121 148.5 -121c26 0 47.667 9 65 27s26 39.667 26 65c0 5.33301 1.66699 9.66602 5 12.999s7 5 11 5h33c7.33301 0 13.5 -2.33301 18.5 -7s8.16699 -10.334 9.5 -17.001
c6.66699 -26 2 -50.667 -14 -74s-38 -42.166 -66 -56.499s-54.667 -21.5 -80 -21.5c-141.333 0 -244.333 41 -309 123c-35.333 42.667 -69.166 87 -101.499 133s-64 93.833 -95 143.5l-90.5 151.5l-379 -518c-6 -8 -14.667 -12 -26 -12z" />
    </font>
</defs>
</svg>
